%TF.GenerationSoftware,KiCad,Pcbnew,(5.1.7)-1*%
%TF.CreationDate,2020-12-15T14:41:59-08:00*%
%TF.ProjectId,Keychain,4b657963-6861-4696-9e2e-6b696361645f,rev?*%
%TF.SameCoordinates,Original*%
%TF.FileFunction,Paste,Top*%
%TF.FilePolarity,Positive*%
%FSLAX46Y46*%
G04 Gerber Fmt 4.6, Leading zero omitted, Abs format (unit mm)*
G04 Created by KiCad (PCBNEW (5.1.7)-1) date 2020-12-15 14:41:59*
%MOMM*%
%LPD*%
G01*
G04 APERTURE LIST*
%ADD10R,2.000000X1.500000*%
%ADD11R,2.000000X3.800000*%
%ADD12R,1.900000X1.350000*%
%ADD13R,1.200000X1.000000*%
%ADD14R,1.550000X1.350000*%
%ADD15R,1.170000X1.800000*%
%ADD16R,0.850000X1.100000*%
%ADD17R,0.750000X1.100000*%
%ADD18C,0.400000*%
G04 APERTURE END LIST*
D10*
%TO.C,U4*%
X128550000Y-74480000D03*
X128550000Y-79080000D03*
X128550000Y-76780000D03*
D11*
X134850000Y-76780000D03*
%TD*%
D10*
%TO.C,U3*%
X128490000Y-85400000D03*
X128490000Y-90000000D03*
X128490000Y-87700000D03*
D11*
X134790000Y-87700000D03*
%TD*%
D12*
%TO.C,J1*%
X161100000Y-108545000D03*
X155130000Y-108545000D03*
D13*
X151630000Y-103870000D03*
X151630000Y-107570000D03*
D14*
X151805000Y-97845000D03*
D15*
X163125000Y-98070000D03*
D16*
X160865000Y-97720000D03*
X159765000Y-97720000D03*
X158665000Y-97720000D03*
X157565000Y-97720000D03*
X156465000Y-97720000D03*
X155365000Y-97720000D03*
D17*
X161915000Y-97720000D03*
D16*
X154265000Y-97720000D03*
%TD*%
D18*
%TO.C,U2*%
X165465000Y-75050000D03*
X165465000Y-75850000D03*
X165465000Y-76650000D03*
X165465000Y-77450000D03*
X165465000Y-78250000D03*
X165465000Y-79050000D03*
X165465000Y-79850000D03*
X165465000Y-80650000D03*
X165465000Y-81450000D03*
X165465000Y-82250000D03*
X165465000Y-83050000D03*
X165465000Y-83850000D03*
X165465000Y-84650000D03*
X165465000Y-85450000D03*
X165465000Y-86250000D03*
X165465000Y-87050000D03*
X166265000Y-75050000D03*
X166265000Y-75850000D03*
X166265000Y-76650000D03*
X166265000Y-77450000D03*
X166265000Y-78250000D03*
X166265000Y-79050000D03*
X166265000Y-79850000D03*
X166265000Y-80650000D03*
X166265000Y-81450000D03*
X166265000Y-82250000D03*
X166265000Y-83050000D03*
X166265000Y-83850000D03*
X166265000Y-84650000D03*
X166265000Y-85450000D03*
X166265000Y-86250000D03*
X166265000Y-87050000D03*
X167065000Y-75050000D03*
X167065000Y-75850000D03*
X167065000Y-76650000D03*
X167065000Y-77450000D03*
X167065000Y-78250000D03*
X167065000Y-79050000D03*
X167065000Y-79850000D03*
X167065000Y-80650000D03*
X167065000Y-81450000D03*
X167065000Y-82250000D03*
X167065000Y-83050000D03*
X167065000Y-83850000D03*
X167065000Y-84650000D03*
X167065000Y-85450000D03*
X167065000Y-86250000D03*
X167065000Y-87050000D03*
X170265000Y-75050000D03*
X170265000Y-75850000D03*
X170265000Y-76650000D03*
X170265000Y-77450000D03*
X170265000Y-78250000D03*
X170265000Y-79050000D03*
X170265000Y-79850000D03*
X170265000Y-80650000D03*
X170265000Y-81450000D03*
X170265000Y-82250000D03*
X170265000Y-83050000D03*
X170265000Y-83850000D03*
X170265000Y-84650000D03*
X170265000Y-85450000D03*
X170265000Y-86250000D03*
X170265000Y-87050000D03*
X171065000Y-75050000D03*
X171065000Y-75850000D03*
X171065000Y-76650000D03*
X171065000Y-77450000D03*
X171065000Y-78250000D03*
X171065000Y-79050000D03*
X171065000Y-79850000D03*
X171065000Y-80650000D03*
X171065000Y-81450000D03*
X171065000Y-82250000D03*
X171065000Y-83050000D03*
X171065000Y-83850000D03*
X171065000Y-84650000D03*
X171065000Y-85450000D03*
X171065000Y-86250000D03*
X171065000Y-87050000D03*
X171865000Y-75050000D03*
X171865000Y-75850000D03*
X171865000Y-76650000D03*
X171865000Y-77450000D03*
X171865000Y-78250000D03*
X171865000Y-79050000D03*
X171865000Y-79850000D03*
X171865000Y-80650000D03*
X171865000Y-81450000D03*
X171865000Y-82250000D03*
X171865000Y-83050000D03*
X171865000Y-83850000D03*
X171865000Y-84650000D03*
X171865000Y-85450000D03*
X171865000Y-86250000D03*
X171865000Y-87050000D03*
%TD*%
%TO.C,U1*%
X140531500Y-78899000D03*
X141331500Y-78899000D03*
X142131500Y-78899000D03*
X142931500Y-78899000D03*
X143731500Y-78899000D03*
X144531500Y-78899000D03*
X145331500Y-78899000D03*
X146131500Y-78899000D03*
X146931500Y-78899000D03*
X147731500Y-78899000D03*
X148531500Y-78899000D03*
X149331500Y-78899000D03*
X150131500Y-78899000D03*
X150931500Y-78899000D03*
X151731500Y-78899000D03*
X152531500Y-78899000D03*
X153331500Y-78899000D03*
X140531500Y-79699000D03*
X141331500Y-79699000D03*
X142131500Y-79699000D03*
X142931500Y-79699000D03*
X143731500Y-79699000D03*
X144531500Y-79699000D03*
X145331500Y-79699000D03*
X146131500Y-79699000D03*
X146931500Y-79699000D03*
X147731500Y-79699000D03*
X148531500Y-79699000D03*
X149331500Y-79699000D03*
X150131500Y-79699000D03*
X150931500Y-79699000D03*
X151731500Y-79699000D03*
X152531500Y-79699000D03*
X153331500Y-79699000D03*
X140531500Y-80499000D03*
X141331500Y-80499000D03*
X142131500Y-80499000D03*
X142931500Y-80499000D03*
X143731500Y-80499000D03*
X144531500Y-80499000D03*
X145331500Y-80499000D03*
X146131500Y-80499000D03*
X146931500Y-80499000D03*
X147731500Y-80499000D03*
X148531500Y-80499000D03*
X149331500Y-80499000D03*
X150131500Y-80499000D03*
X150931500Y-80499000D03*
X151731500Y-80499000D03*
X152531500Y-80499000D03*
X153331500Y-80499000D03*
X140531500Y-81299000D03*
X141331500Y-81299000D03*
X142131500Y-81299000D03*
X142931500Y-81299000D03*
X143731500Y-81299000D03*
X144531500Y-81299000D03*
X145331500Y-81299000D03*
X146131500Y-81299000D03*
X146931500Y-81299000D03*
X147731500Y-81299000D03*
X148531500Y-81299000D03*
X149331500Y-81299000D03*
X150131500Y-81299000D03*
X150931500Y-81299000D03*
X151731500Y-81299000D03*
X152531500Y-81299000D03*
X153331500Y-81299000D03*
X140531500Y-82099000D03*
X141331500Y-82099000D03*
X142131500Y-82099000D03*
X142931500Y-82099000D03*
X143731500Y-82099000D03*
X144531500Y-82099000D03*
X145331500Y-82099000D03*
X146131500Y-82099000D03*
X146931500Y-82099000D03*
X147731500Y-82099000D03*
X148531500Y-82099000D03*
X149331500Y-82099000D03*
X150131500Y-82099000D03*
X150931500Y-82099000D03*
X151731500Y-82099000D03*
X152531500Y-82099000D03*
X153331500Y-82099000D03*
X140531500Y-82899000D03*
X141331500Y-82899000D03*
X142131500Y-82899000D03*
X142931500Y-82899000D03*
X143731500Y-82899000D03*
X144531500Y-82899000D03*
X145331500Y-82899000D03*
X146131500Y-82899000D03*
X146931500Y-82899000D03*
X147731500Y-82899000D03*
X148531500Y-82899000D03*
X149331500Y-82899000D03*
X150131500Y-82899000D03*
X150931500Y-82899000D03*
X151731500Y-82899000D03*
X152531500Y-82899000D03*
X153331500Y-82899000D03*
X140531500Y-83699000D03*
X141331500Y-83699000D03*
X142131500Y-83699000D03*
X142931500Y-83699000D03*
X143731500Y-83699000D03*
X144531500Y-83699000D03*
X145331500Y-83699000D03*
X146131500Y-83699000D03*
X146931500Y-83699000D03*
X147731500Y-83699000D03*
X148531500Y-83699000D03*
X149331500Y-83699000D03*
X150131500Y-83699000D03*
X150931500Y-83699000D03*
X151731500Y-83699000D03*
X152531500Y-83699000D03*
X153331500Y-83699000D03*
X140531500Y-84499000D03*
X141331500Y-84499000D03*
X142131500Y-84499000D03*
X142931500Y-84499000D03*
X143731500Y-84499000D03*
X144531500Y-84499000D03*
X145331500Y-84499000D03*
X146131500Y-84499000D03*
X146931500Y-84499000D03*
X147731500Y-84499000D03*
X148531500Y-84499000D03*
X149331500Y-84499000D03*
X150131500Y-84499000D03*
X150931500Y-84499000D03*
X151731500Y-84499000D03*
X152531500Y-84499000D03*
X153331500Y-84499000D03*
X140531500Y-85299000D03*
X141331500Y-85299000D03*
X142131500Y-85299000D03*
X142931500Y-85299000D03*
X143731500Y-85299000D03*
X144531500Y-85299000D03*
X145331500Y-85299000D03*
X146131500Y-85299000D03*
X146931500Y-85299000D03*
X147731500Y-85299000D03*
X148531500Y-85299000D03*
X149331500Y-85299000D03*
X150131500Y-85299000D03*
X150931500Y-85299000D03*
X151731500Y-85299000D03*
X152531500Y-85299000D03*
X153331500Y-85299000D03*
X140531500Y-86099000D03*
X141331500Y-86099000D03*
X142131500Y-86099000D03*
X142931500Y-86099000D03*
X143731500Y-86099000D03*
X144531500Y-86099000D03*
X145331500Y-86099000D03*
X146131500Y-86099000D03*
X146931500Y-86099000D03*
X147731500Y-86099000D03*
X148531500Y-86099000D03*
X149331500Y-86099000D03*
X150131500Y-86099000D03*
X150931500Y-86099000D03*
X151731500Y-86099000D03*
X152531500Y-86099000D03*
X153331500Y-86099000D03*
X140531500Y-86899000D03*
X141331500Y-86899000D03*
X142131500Y-86899000D03*
X142931500Y-86899000D03*
X143731500Y-86899000D03*
X144531500Y-86899000D03*
X145331500Y-86899000D03*
X146131500Y-86899000D03*
X146931500Y-86899000D03*
X147731500Y-86899000D03*
X148531500Y-86899000D03*
X149331500Y-86899000D03*
X150131500Y-86899000D03*
X150931500Y-86899000D03*
X151731500Y-86899000D03*
X152531500Y-86899000D03*
X153331500Y-86899000D03*
X140531500Y-87699000D03*
X141331500Y-87699000D03*
X142131500Y-87699000D03*
X142931500Y-87699000D03*
X143731500Y-87699000D03*
X144531500Y-87699000D03*
X145331500Y-87699000D03*
X146131500Y-87699000D03*
X146931500Y-87699000D03*
X147731500Y-87699000D03*
X148531500Y-87699000D03*
X149331500Y-87699000D03*
X150131500Y-87699000D03*
X150931500Y-87699000D03*
X151731500Y-87699000D03*
X152531500Y-87699000D03*
X153331500Y-87699000D03*
X140531500Y-88499000D03*
X141331500Y-88499000D03*
X142131500Y-88499000D03*
X142931500Y-88499000D03*
X143731500Y-88499000D03*
X144531500Y-88499000D03*
X145331500Y-88499000D03*
X146131500Y-88499000D03*
X146931500Y-88499000D03*
X147731500Y-88499000D03*
X148531500Y-88499000D03*
X149331500Y-88499000D03*
X150131500Y-88499000D03*
X150931500Y-88499000D03*
X151731500Y-88499000D03*
X152531500Y-88499000D03*
X153331500Y-88499000D03*
X140531500Y-89299000D03*
X141331500Y-89299000D03*
X142131500Y-89299000D03*
X142931500Y-89299000D03*
X143731500Y-89299000D03*
X144531500Y-89299000D03*
X145331500Y-89299000D03*
X146131500Y-89299000D03*
X146931500Y-89299000D03*
X147731500Y-89299000D03*
X148531500Y-89299000D03*
X149331500Y-89299000D03*
X150131500Y-89299000D03*
X150931500Y-89299000D03*
X151731500Y-89299000D03*
X152531500Y-89299000D03*
X153331500Y-89299000D03*
X140531500Y-90099000D03*
X141331500Y-90099000D03*
X142131500Y-90099000D03*
X142931500Y-90099000D03*
X143731500Y-90099000D03*
X144531500Y-90099000D03*
X145331500Y-90099000D03*
X146131500Y-90099000D03*
X146931500Y-90099000D03*
X147731500Y-90099000D03*
X148531500Y-90099000D03*
X149331500Y-90099000D03*
X150131500Y-90099000D03*
X150931500Y-90099000D03*
X151731500Y-90099000D03*
X152531500Y-90099000D03*
X153331500Y-90099000D03*
X140531500Y-90899000D03*
X141331500Y-90899000D03*
X142131500Y-90899000D03*
X142931500Y-90899000D03*
X143731500Y-90899000D03*
X144531500Y-90899000D03*
X145331500Y-90899000D03*
X146131500Y-90899000D03*
X146931500Y-90899000D03*
X147731500Y-90899000D03*
X148531500Y-90899000D03*
X149331500Y-90899000D03*
X150131500Y-90899000D03*
X150931500Y-90899000D03*
X151731500Y-90899000D03*
X152531500Y-90899000D03*
X153331500Y-90899000D03*
X140531500Y-91699000D03*
X141331500Y-91699000D03*
X142131500Y-91699000D03*
X142931500Y-91699000D03*
X143731500Y-91699000D03*
X144531500Y-91699000D03*
X145331500Y-91699000D03*
X146131500Y-91699000D03*
X146931500Y-91699000D03*
X147731500Y-91699000D03*
X148531500Y-91699000D03*
X149331500Y-91699000D03*
X150131500Y-91699000D03*
X150931500Y-91699000D03*
X151731500Y-91699000D03*
X152531500Y-91699000D03*
X153331500Y-91699000D03*
%TD*%
M02*
