%TF.GenerationSoftware,KiCad,Pcbnew,(5.1.7)-1*%
%TF.CreationDate,2021-06-10T10:44:11-07:00*%
%TF.ProjectId,Keychain,4b657963-6861-4696-9e2e-6b696361645f,rev?*%
%TF.SameCoordinates,Original*%
%TF.FileFunction,Copper,L1,Top*%
%TF.FilePolarity,Positive*%
%FSLAX46Y46*%
G04 Gerber Fmt 4.6, Leading zero omitted, Abs format (unit mm)*
G04 Created by KiCad (PCBNEW (5.1.7)-1) date 2021-06-10 10:44:11*
%MOMM*%
%LPD*%
G01*
G04 APERTURE LIST*
%TA.AperFunction,SMDPad,CuDef*%
%ADD10C,0.400000*%
%TD*%
%TA.AperFunction,SMDPad,CuDef*%
%ADD11R,1.200000X1.400000*%
%TD*%
%TA.AperFunction,SMDPad,CuDef*%
%ADD12R,1.500000X2.000000*%
%TD*%
%TA.AperFunction,SMDPad,CuDef*%
%ADD13R,3.800000X2.000000*%
%TD*%
%TA.AperFunction,ComponentPad*%
%ADD14C,1.600000*%
%TD*%
%TA.AperFunction,ComponentPad*%
%ADD15R,1.600000X1.500000*%
%TD*%
%TA.AperFunction,ComponentPad*%
%ADD16C,3.000000*%
%TD*%
%TA.AperFunction,ComponentPad*%
%ADD17O,1.700000X1.700000*%
%TD*%
%TA.AperFunction,ComponentPad*%
%ADD18R,1.700000X1.700000*%
%TD*%
%TA.AperFunction,SMDPad,CuDef*%
%ADD19R,1.900000X1.350000*%
%TD*%
%TA.AperFunction,SMDPad,CuDef*%
%ADD20R,1.200000X1.000000*%
%TD*%
%TA.AperFunction,SMDPad,CuDef*%
%ADD21R,1.550000X1.350000*%
%TD*%
%TA.AperFunction,SMDPad,CuDef*%
%ADD22R,1.170000X1.800000*%
%TD*%
%TA.AperFunction,SMDPad,CuDef*%
%ADD23R,0.850000X1.100000*%
%TD*%
%TA.AperFunction,SMDPad,CuDef*%
%ADD24R,0.750000X1.100000*%
%TD*%
%TA.AperFunction,ViaPad*%
%ADD25C,0.450000*%
%TD*%
%TA.AperFunction,Conductor*%
%ADD26C,0.250000*%
%TD*%
%TA.AperFunction,Conductor*%
%ADD27C,0.127000*%
%TD*%
%TA.AperFunction,Conductor*%
%ADD28C,0.500000*%
%TD*%
%TA.AperFunction,Conductor*%
%ADD29C,0.100000*%
%TD*%
%TA.AperFunction,Conductor*%
%ADD30C,0.145000*%
%TD*%
G04 APERTURE END LIST*
D10*
%TO.P,U1,A1*%
%TO.N,GND*%
X146281500Y-90524000D03*
%TO.P,U1,A2*%
%TO.N,/SD_D3*%
X145481500Y-90524000D03*
%TO.P,U1,A3*%
%TO.N,Net-(U1-PadA3)*%
X144681500Y-90524000D03*
%TO.P,U1,A4*%
%TO.N,Net-(U1-PadA4)*%
X143881500Y-90524000D03*
%TO.P,U1,A5*%
%TO.N,Net-(U1-PadA5)*%
X143081500Y-90524000D03*
%TO.P,U1,A6*%
%TO.N,Net-(U1-PadA6)*%
X142281500Y-90524000D03*
%TO.P,U1,A7*%
%TO.N,Net-(U1-PadA7)*%
X141481500Y-90524000D03*
%TO.P,U1,A8*%
%TO.N,Net-(U1-PadA8)*%
X140681500Y-90524000D03*
%TO.P,U1,A9*%
%TO.N,Net-(U1-PadA9)*%
X139881500Y-90524000D03*
%TO.P,U1,A10*%
%TO.N,Net-(U1-PadA10)*%
X139081500Y-90524000D03*
%TO.P,U1,A11*%
%TO.N,Net-(U1-PadA11)*%
X138281500Y-90524000D03*
%TO.P,U1,A12*%
%TO.N,Net-(U1-PadA12)*%
X137481500Y-90524000D03*
%TO.P,U1,A13*%
%TO.N,Net-(U1-PadA13)*%
X136681500Y-90524000D03*
%TO.P,U1,A14*%
%TO.N,Net-(U1-PadA14)*%
X135881500Y-90524000D03*
%TO.P,U1,A15*%
%TO.N,Net-(U1-PadA15)*%
X135081500Y-90524000D03*
%TO.P,U1,A16*%
%TO.N,Net-(U1-PadA16)*%
X134281500Y-90524000D03*
%TO.P,U1,A17*%
%TO.N,GND*%
X133481500Y-90524000D03*
%TO.P,U1,B1*%
%TO.N,/SD_D2*%
X146281500Y-89724000D03*
%TO.P,U1,B2*%
%TO.N,/SD_D1*%
X145481500Y-89724000D03*
%TO.P,U1,B3*%
%TO.N,/SD_D0*%
X144681500Y-89724000D03*
%TO.P,U1,B4*%
%TO.N,Net-(U1-PadB4)*%
X143881500Y-89724000D03*
%TO.P,U1,B5*%
%TO.N,Net-(U1-PadB5)*%
X143081500Y-89724000D03*
%TO.P,U1,B6*%
%TO.N,Net-(U1-PadB6)*%
X142281500Y-89724000D03*
%TO.P,U1,B7*%
%TO.N,Net-(U1-PadB7)*%
X141481500Y-89724000D03*
%TO.P,U1,B8*%
%TO.N,Net-(U1-PadB8)*%
X140681500Y-89724000D03*
%TO.P,U1,B9*%
%TO.N,Net-(U1-PadB9)*%
X139881500Y-89724000D03*
%TO.P,U1,B10*%
%TO.N,Net-(U1-PadB10)*%
X139081500Y-89724000D03*
%TO.P,U1,B11*%
%TO.N,Net-(U1-PadB11)*%
X138281500Y-89724000D03*
%TO.P,U1,B12*%
%TO.N,Net-(U1-PadB12)*%
X137481500Y-89724000D03*
%TO.P,U1,B13*%
%TO.N,Net-(U1-PadB13)*%
X136681500Y-89724000D03*
%TO.P,U1,B14*%
%TO.N,Net-(U1-PadB14)*%
X135881500Y-89724000D03*
%TO.P,U1,B15*%
%TO.N,Net-(U1-PadB15)*%
X135081500Y-89724000D03*
%TO.P,U1,B16*%
%TO.N,Net-(U1-PadB16)*%
X134281500Y-89724000D03*
%TO.P,U1,B17*%
%TO.N,Net-(U1-PadB17)*%
X133481500Y-89724000D03*
%TO.P,U1,C1*%
%TO.N,/SD_CLK*%
X146281500Y-88924000D03*
%TO.P,U1,C2*%
%TO.N,/SD_CMD*%
X145481500Y-88924000D03*
%TO.P,U1,C3*%
%TO.N,GND*%
X144681500Y-88924000D03*
%TO.P,U1,C4*%
%TO.N,+3V3*%
X143881500Y-88924000D03*
%TO.P,U1,C5*%
%TO.N,Net-(U1-PadC5)*%
X143081500Y-88924000D03*
%TO.P,U1,C6*%
%TO.N,Net-(U1-PadC6)*%
X142281500Y-88924000D03*
%TO.P,U1,C7*%
%TO.N,GND*%
X141481500Y-88924000D03*
%TO.P,U1,C8*%
%TO.N,Net-(U1-PadC8)*%
X140681500Y-88924000D03*
%TO.P,U1,C9*%
%TO.N,Net-(U1-PadC9)*%
X139881500Y-88924000D03*
%TO.P,U1,C10*%
%TO.N,Net-(U1-PadC10)*%
X139081500Y-88924000D03*
%TO.P,U1,C11*%
%TO.N,GND*%
X138281500Y-88924000D03*
%TO.P,U1,C12*%
%TO.N,Net-(U1-PadC12)*%
X137481500Y-88924000D03*
%TO.P,U1,C13*%
%TO.N,Net-(U1-PadC13)*%
X136681500Y-88924000D03*
%TO.P,U1,C14*%
%TO.N,Net-(U1-PadC14)*%
X135881500Y-88924000D03*
%TO.P,U1,C15*%
%TO.N,GND*%
X135081500Y-88924000D03*
%TO.P,U1,C16*%
%TO.N,Net-(U1-PadC16)*%
X134281500Y-88924000D03*
%TO.P,U1,C17*%
%TO.N,Net-(U1-PadC17)*%
X133481500Y-88924000D03*
%TO.P,U1,D1*%
%TO.N,Net-(U1-PadD1)*%
X146281500Y-88124000D03*
%TO.P,U1,D2*%
%TO.N,Net-(U1-PadD2)*%
X145481500Y-88124000D03*
%TO.P,U1,D3*%
%TO.N,Net-(U1-PadD3)*%
X144681500Y-88124000D03*
%TO.P,U1,D4*%
%TO.N,Net-(U1-PadD4)*%
X143881500Y-88124000D03*
%TO.P,U1,D5*%
%TO.N,Net-(U1-PadD5)*%
X143081500Y-88124000D03*
%TO.P,U1,D6*%
%TO.N,Net-(U1-PadD6)*%
X142281500Y-88124000D03*
%TO.P,U1,D7*%
%TO.N,Net-(U1-PadD7)*%
X141481500Y-88124000D03*
%TO.P,U1,D8*%
%TO.N,Net-(U1-PadD8)*%
X140681500Y-88124000D03*
%TO.P,U1,D9*%
%TO.N,Net-(U1-PadD9)*%
X139881500Y-88124000D03*
%TO.P,U1,D10*%
%TO.N,Net-(U1-PadD10)*%
X139081500Y-88124000D03*
%TO.P,U1,D11*%
%TO.N,Net-(U1-PadD11)*%
X138281500Y-88124000D03*
%TO.P,U1,D12*%
%TO.N,Net-(U1-PadD12)*%
X137481500Y-88124000D03*
%TO.P,U1,D13*%
%TO.N,Net-(U1-PadD13)*%
X136681500Y-88124000D03*
%TO.P,U1,D14*%
%TO.N,Net-(U1-PadD14)*%
X135881500Y-88124000D03*
%TO.P,U1,D15*%
%TO.N,Net-(U1-PadD15)*%
X135081500Y-88124000D03*
%TO.P,U1,D16*%
%TO.N,Net-(U1-PadD16)*%
X134281500Y-88124000D03*
%TO.P,U1,D17*%
%TO.N,Net-(U1-PadD17)*%
X133481500Y-88124000D03*
%TO.P,U1,E1*%
%TO.N,Net-(U1-PadE1)*%
X146281500Y-87324000D03*
%TO.P,U1,E2*%
%TO.N,Net-(U1-PadE2)*%
X145481500Y-87324000D03*
%TO.P,U1,E3*%
%TO.N,Net-(U1-PadE3)*%
X144681500Y-87324000D03*
%TO.P,U1,E4*%
%TO.N,Net-(U1-PadE4)*%
X143881500Y-87324000D03*
%TO.P,U1,E5*%
%TO.N,Net-(U1-PadE5)*%
X143081500Y-87324000D03*
%TO.P,U1,E6*%
%TO.N,Net-(U1-PadE6)*%
X142281500Y-87324000D03*
%TO.P,U1,E7*%
%TO.N,+3V3*%
X141481500Y-87324000D03*
%TO.P,U1,E8*%
%TO.N,GND*%
X140681500Y-87324000D03*
%TO.P,U1,E9*%
%TO.N,Net-(U1-PadE9)*%
X139881500Y-87324000D03*
%TO.P,U1,E10*%
%TO.N,Net-(U1-PadE10)*%
X139081500Y-87324000D03*
%TO.P,U1,E11*%
%TO.N,GND*%
X138281500Y-87324000D03*
%TO.P,U1,E12*%
%TO.N,Net-(U1-PadE12)*%
X137481500Y-87324000D03*
%TO.P,U1,E13*%
%TO.N,+3V3*%
X136681500Y-87324000D03*
%TO.P,U1,E14*%
%TO.N,Net-(U1-PadE14)*%
X135881500Y-87324000D03*
%TO.P,U1,E15*%
%TO.N,Net-(U1-PadE15)*%
X135081500Y-87324000D03*
%TO.P,U1,E16*%
%TO.N,Net-(U1-PadE16)*%
X134281500Y-87324000D03*
%TO.P,U1,E17*%
%TO.N,Net-(U1-PadE17)*%
X133481500Y-87324000D03*
%TO.P,U1,F1*%
%TO.N,Net-(U1-PadF1)*%
X146281500Y-86524000D03*
%TO.P,U1,F2*%
%TO.N,Net-(U1-PadF2)*%
X145481500Y-86524000D03*
%TO.P,U1,F3*%
%TO.N,Net-(U1-PadF3)*%
X144681500Y-86524000D03*
%TO.P,U1,F4*%
%TO.N,+3V3*%
X143881500Y-86524000D03*
%TO.P,U1,F5*%
%TO.N,Net-(U1-PadF5)*%
X143081500Y-86524000D03*
%TO.P,U1,F6*%
%TO.N,GND*%
X142281500Y-86524000D03*
%TO.P,U1,F7*%
X141481500Y-86524000D03*
%TO.P,U1,F8*%
X140681500Y-86524000D03*
%TO.P,U1,F9*%
X139881500Y-86524000D03*
%TO.P,U1,F10*%
X139081500Y-86524000D03*
%TO.P,U1,F11*%
X138281500Y-86524000D03*
%TO.P,U1,F12*%
X137481500Y-86524000D03*
%TO.P,U1,F13*%
%TO.N,+3V3*%
X136681500Y-86524000D03*
%TO.P,U1,F14*%
%TO.N,Net-(U1-PadF14)*%
X135881500Y-86524000D03*
%TO.P,U1,F15*%
%TO.N,Net-(U1-PadF15)*%
X135081500Y-86524000D03*
%TO.P,U1,F16*%
%TO.N,Net-(U1-PadF16)*%
X134281500Y-86524000D03*
%TO.P,U1,F17*%
%TO.N,Net-(U1-PadF17)*%
X133481500Y-86524000D03*
%TO.P,U1,G1*%
%TO.N,/A14*%
X146281500Y-85724000D03*
%TO.P,U1,G2*%
%TO.N,/A6*%
X145481500Y-85724000D03*
%TO.P,U1,G3*%
%TO.N,GND*%
X144681500Y-85724000D03*
%TO.P,U1,G4*%
%TO.N,/RESET#*%
X143881500Y-85724000D03*
%TO.P,U1,G5*%
%TO.N,GND*%
X143081500Y-85724000D03*
%TO.P,U1,G6*%
%TO.N,+1V5*%
X142281500Y-85724000D03*
%TO.P,U1,G7*%
%TO.N,GND*%
X141481500Y-85724000D03*
%TO.P,U1,G8*%
%TO.N,/SOC_CAP*%
X140681500Y-85724000D03*
%TO.P,U1,G9*%
%TO.N,/ARM_CAP*%
X139881500Y-85724000D03*
%TO.P,U1,G10*%
X139081500Y-85724000D03*
%TO.P,U1,G11*%
X138281500Y-85724000D03*
%TO.P,U1,G12*%
%TO.N,GND*%
X137481500Y-85724000D03*
%TO.P,U1,G13*%
%TO.N,Net-(U1-PadG13)*%
X136681500Y-85724000D03*
%TO.P,U1,G14*%
%TO.N,Net-(U1-PadG14)*%
X135881500Y-85724000D03*
%TO.P,U1,G15*%
%TO.N,GND*%
X135081500Y-85724000D03*
%TO.P,U1,G16*%
%TO.N,Net-(U1-PadG16)*%
X134281500Y-85724000D03*
%TO.P,U1,G17*%
%TO.N,Net-(U1-PadG17)*%
X133481500Y-85724000D03*
%TO.P,U1,H1*%
%TO.N,/BA1*%
X146281500Y-84924000D03*
%TO.P,U1,H2*%
%TO.N,/A1*%
X145481500Y-84924000D03*
%TO.P,U1,H3*%
%TO.N,/A13*%
X144681500Y-84924000D03*
%TO.P,U1,H4*%
%TO.N,/A7*%
X143881500Y-84924000D03*
%TO.P,U1,H5*%
%TO.N,Net-(U1-PadH5)*%
X143081500Y-84924000D03*
%TO.P,U1,H6*%
%TO.N,+1V5*%
X142281500Y-84924000D03*
%TO.P,U1,H7*%
%TO.N,GND*%
X141481500Y-84924000D03*
%TO.P,U1,H8*%
%TO.N,/SOC_CAP*%
X140681500Y-84924000D03*
%TO.P,U1,H9*%
%TO.N,+1V5*%
X139881500Y-84924000D03*
%TO.P,U1,H10*%
X139081500Y-84924000D03*
%TO.P,U1,H11*%
%TO.N,/ARM_CAP*%
X138281500Y-84924000D03*
%TO.P,U1,H12*%
%TO.N,GND*%
X137481500Y-84924000D03*
%TO.P,U1,H13*%
%TO.N,+3V3*%
X136681500Y-84924000D03*
%TO.P,U1,H14*%
%TO.N,Net-(U1-PadH14)*%
X135881500Y-84924000D03*
%TO.P,U1,H15*%
%TO.N,Net-(U1-PadH15)*%
X135081500Y-84924000D03*
%TO.P,U1,H16*%
%TO.N,Net-(U1-PadH16)*%
X134281500Y-84924000D03*
%TO.P,U1,H17*%
%TO.N,Net-(U1-PadH17)*%
X133481500Y-84924000D03*
%TO.P,U1,J1*%
%TO.N,/WE#*%
X146281500Y-84124000D03*
%TO.P,U1,J2*%
%TO.N,/CAS#*%
X145481500Y-84124000D03*
%TO.P,U1,J3*%
%TO.N,Net-(U1-PadJ3)*%
X144681500Y-84124000D03*
%TO.P,U1,J4*%
%TO.N,/A8*%
X143881500Y-84124000D03*
%TO.P,U1,J5*%
%TO.N,GND*%
X143081500Y-84124000D03*
%TO.P,U1,J6*%
%TO.N,+1V5*%
X142281500Y-84124000D03*
%TO.P,U1,J7*%
%TO.N,GND*%
X141481500Y-84124000D03*
%TO.P,U1,J8*%
%TO.N,/SOC_CAP*%
X140681500Y-84124000D03*
%TO.P,U1,J9*%
%TO.N,+1V5*%
X139881500Y-84124000D03*
%TO.P,U1,J10*%
X139081500Y-84124000D03*
%TO.P,U1,J11*%
%TO.N,/SOC_CAP*%
X138281500Y-84124000D03*
%TO.P,U1,J12*%
%TO.N,GND*%
X137481500Y-84124000D03*
%TO.P,U1,J13*%
%TO.N,+3V3*%
X136681500Y-84124000D03*
%TO.P,U1,J14*%
%TO.N,/RTS*%
X135881500Y-84124000D03*
%TO.P,U1,J15*%
%TO.N,Net-(U1-PadJ15)*%
X135081500Y-84124000D03*
%TO.P,U1,J16*%
%TO.N,Net-(U1-PadJ16)*%
X134281500Y-84124000D03*
%TO.P,U1,J17*%
%TO.N,Net-(U1-PadJ17)*%
X133481500Y-84124000D03*
%TO.P,U1,K1*%
%TO.N,/A2*%
X146281500Y-83324000D03*
%TO.P,U1,K2*%
%TO.N,/BA2*%
X145481500Y-83324000D03*
%TO.P,U1,K3*%
%TO.N,/A11*%
X144681500Y-83324000D03*
%TO.P,U1,K4*%
%TO.N,/A4*%
X143881500Y-83324000D03*
%TO.P,U1,K5*%
%TO.N,Net-(U1-PadK5)*%
X143081500Y-83324000D03*
%TO.P,U1,K6*%
%TO.N,+1V5*%
X142281500Y-83324000D03*
%TO.P,U1,K7*%
%TO.N,GND*%
X141481500Y-83324000D03*
%TO.P,U1,K8*%
%TO.N,/SOC_CAP*%
X140681500Y-83324000D03*
%TO.P,U1,K9*%
%TO.N,+1V5*%
X139881500Y-83324000D03*
%TO.P,U1,K10*%
X139081500Y-83324000D03*
%TO.P,U1,K11*%
%TO.N,/SOC_CAP*%
X138281500Y-83324000D03*
%TO.P,U1,K12*%
%TO.N,GND*%
X137481500Y-83324000D03*
%TO.P,U1,K13*%
%TO.N,Net-(U1-PadK13)*%
X136681500Y-83324000D03*
%TO.P,U1,K14*%
%TO.N,/TX*%
X135881500Y-83324000D03*
%TO.P,U1,K15*%
%TO.N,/CTS*%
X135081500Y-83324000D03*
%TO.P,U1,K16*%
%TO.N,/RX*%
X134281500Y-83324000D03*
%TO.P,U1,K17*%
%TO.N,Net-(U1-PadK17)*%
X133481500Y-83324000D03*
%TO.P,U1,L1*%
%TO.N,/A5*%
X146281500Y-82524000D03*
%TO.P,U1,L2*%
%TO.N,/A9*%
X145481500Y-82524000D03*
%TO.P,U1,L3*%
%TO.N,GND*%
X144681500Y-82524000D03*
%TO.P,U1,L4*%
%TO.N,/A12*%
X143881500Y-82524000D03*
%TO.P,U1,L5*%
%TO.N,/A0*%
X143081500Y-82524000D03*
%TO.P,U1,L6*%
%TO.N,+1V5*%
X142281500Y-82524000D03*
%TO.P,U1,L7*%
%TO.N,GND*%
X141481500Y-82524000D03*
%TO.P,U1,L8*%
%TO.N,/SOC_CAP*%
X140681500Y-82524000D03*
%TO.P,U1,L9*%
X139881500Y-82524000D03*
%TO.P,U1,L10*%
X139081500Y-82524000D03*
%TO.P,U1,L11*%
X138281500Y-82524000D03*
%TO.P,U1,L12*%
%TO.N,GND*%
X137481500Y-82524000D03*
%TO.P,U1,L13*%
%TO.N,+3V3*%
X136681500Y-82524000D03*
%TO.P,U1,L14*%
%TO.N,Net-(U1-PadL14)*%
X135881500Y-82524000D03*
%TO.P,U1,L15*%
%TO.N,Net-(U1-PadL15)*%
X135081500Y-82524000D03*
%TO.P,U1,L16*%
%TO.N,Net-(U1-PadL16)*%
X134281500Y-82524000D03*
%TO.P,U1,L17*%
%TO.N,Net-(U1-PadL17)*%
X133481500Y-82524000D03*
%TO.P,U1,M1*%
%TO.N,/BA0*%
X146281500Y-81724000D03*
%TO.P,U1,M2*%
%TO.N,/A3*%
X145481500Y-81724000D03*
%TO.P,U1,M3*%
%TO.N,/CKE0*%
X144681500Y-81724000D03*
%TO.P,U1,M4*%
%TO.N,/A10*%
X143881500Y-81724000D03*
%TO.P,U1,M5*%
%TO.N,/RAS#*%
X143081500Y-81724000D03*
%TO.P,U1,M6*%
%TO.N,+1V5*%
X142281500Y-81724000D03*
%TO.P,U1,M7*%
%TO.N,GND*%
X141481500Y-81724000D03*
%TO.P,U1,M8*%
X140681500Y-81724000D03*
%TO.P,U1,M9*%
X139881500Y-81724000D03*
%TO.P,U1,M10*%
X139081500Y-81724000D03*
%TO.P,U1,M11*%
X138281500Y-81724000D03*
%TO.P,U1,M12*%
X137481500Y-81724000D03*
%TO.P,U1,M13*%
%TO.N,+3V3*%
X136681500Y-81724000D03*
%TO.P,U1,M14*%
%TO.N,Net-(U1-PadM14)*%
X135881500Y-81724000D03*
%TO.P,U1,M15*%
%TO.N,Net-(U1-PadM15)*%
X135081500Y-81724000D03*
%TO.P,U1,M16*%
%TO.N,Net-(U1-PadM16)*%
X134281500Y-81724000D03*
%TO.P,U1,M17*%
%TO.N,Net-(U1-PadM17)*%
X133481500Y-81724000D03*
%TO.P,U1,N1*%
%TO.N,/ODT0*%
X146281500Y-80924000D03*
%TO.P,U1,N2*%
%TO.N,/CS0#*%
X145481500Y-80924000D03*
%TO.P,U1,N3*%
%TO.N,GND*%
X144681500Y-80924000D03*
%TO.P,U1,N4*%
%TO.N,/ZQPAD*%
X143881500Y-80924000D03*
%TO.P,U1,N5*%
%TO.N,GND*%
X143081500Y-80924000D03*
%TO.P,U1,N6*%
%TO.N,/VDD_HIGH_CAP*%
X142281500Y-80924000D03*
%TO.P,U1,N7*%
%TO.N,GND*%
X141481500Y-80924000D03*
%TO.P,U1,N8*%
%TO.N,Net-(U1-PadN8)*%
X140681500Y-80924000D03*
%TO.P,U1,N9*%
%TO.N,Net-(U1-PadN9)*%
X139881500Y-80924000D03*
%TO.P,U1,N10*%
%TO.N,Net-(U1-PadN10)*%
X139081500Y-80924000D03*
%TO.P,U1,N11*%
%TO.N,Net-(U1-PadN11)*%
X138281500Y-80924000D03*
%TO.P,U1,N12*%
%TO.N,/SNVS_CAP*%
X137481500Y-80924000D03*
%TO.P,U1,N13*%
%TO.N,+3V3*%
X136681500Y-80924000D03*
%TO.P,U1,N14*%
%TO.N,Net-(U1-PadN14)*%
X135881500Y-80924000D03*
%TO.P,U1,N15*%
%TO.N,Net-(U1-PadN15)*%
X135081500Y-80924000D03*
%TO.P,U1,N16*%
%TO.N,Net-(U1-PadN16)*%
X134281500Y-80924000D03*
%TO.P,U1,N17*%
%TO.N,Net-(U1-PadN17)*%
X133481500Y-80924000D03*
%TO.P,U1,P1*%
%TO.N,/CK+*%
X146281500Y-80124000D03*
%TO.P,U1,P2*%
%TO.N,/CK-*%
X145481500Y-80124000D03*
%TO.P,U1,P3*%
%TO.N,/DQU5*%
X144681500Y-80124000D03*
%TO.P,U1,P4*%
%TO.N,VREFDDR*%
X143881500Y-80124000D03*
%TO.P,U1,P5*%
%TO.N,/DQU4*%
X143081500Y-80124000D03*
%TO.P,U1,P6*%
%TO.N,/DQSL+*%
X142281500Y-80124000D03*
%TO.P,U1,P7*%
%TO.N,/DQSL-*%
X141481500Y-80124000D03*
%TO.P,U1,P8*%
%TO.N,Net-(U1-PadP8)*%
X140681500Y-80124000D03*
%TO.P,U1,P9*%
%TO.N,Net-(U1-PadP9)*%
X139881500Y-80124000D03*
%TO.P,U1,P10*%
%TO.N,Net-(U1-PadP10)*%
X139081500Y-80124000D03*
%TO.P,U1,P11*%
%TO.N,Net-(U1-PadP11)*%
X138281500Y-80124000D03*
%TO.P,U1,P12*%
%TO.N,+3V3*%
X137481500Y-80124000D03*
%TO.P,U1,P13*%
%TO.N,/NVCC_PLL*%
X136681500Y-80124000D03*
%TO.P,U1,P14*%
%TO.N,Net-(U1-PadP14)*%
X135881500Y-80124000D03*
%TO.P,U1,P15*%
%TO.N,GND*%
X135081500Y-80124000D03*
%TO.P,U1,P16*%
%TO.N,Net-(U1-PadP16)*%
X134281500Y-80124000D03*
%TO.P,U1,P17*%
%TO.N,Net-(U1-PadP17)*%
X133481500Y-80124000D03*
%TO.P,U1,R1*%
%TO.N,/DQU7*%
X146281500Y-79324000D03*
%TO.P,U1,R2*%
%TO.N,/DQU6*%
X145481500Y-79324000D03*
%TO.P,U1,R3*%
%TO.N,GND*%
X144681500Y-79324000D03*
%TO.P,U1,R4*%
%TO.N,/DQU3*%
X143881500Y-79324000D03*
%TO.P,U1,R5*%
%TO.N,GND*%
X143081500Y-79324000D03*
%TO.P,U1,R6*%
%TO.N,Net-(U1-PadR6)*%
X142281500Y-79324000D03*
%TO.P,U1,R7*%
%TO.N,GND*%
X141481500Y-79324000D03*
%TO.P,U1,R8*%
%TO.N,Net-(U1-PadR8)*%
X140681500Y-79324000D03*
%TO.P,U1,R9*%
%TO.N,Net-(U1-PadR9)*%
X139881500Y-79324000D03*
%TO.P,U1,R10*%
%TO.N,Net-(U1-PadR10)*%
X139081500Y-79324000D03*
%TO.P,U1,R11*%
%TO.N,GND*%
X138281500Y-79324000D03*
%TO.P,U1,R12*%
%TO.N,Net-(U1-PadR12)*%
X137481500Y-79324000D03*
%TO.P,U1,R13*%
%TO.N,Net-(U1-PadR13)*%
X136681500Y-79324000D03*
%TO.P,U1,R14*%
%TO.N,/HIGH_CAP*%
X135881500Y-79324000D03*
%TO.P,U1,R15*%
X135081500Y-79324000D03*
%TO.P,U1,R16*%
%TO.N,GND*%
X134281500Y-79324000D03*
%TO.P,U1,R17*%
X133481500Y-79324000D03*
%TO.P,U1,T1*%
%TO.N,/DQSU+*%
X146281500Y-78524000D03*
%TO.P,U1,T2*%
%TO.N,/DQSU-*%
X145481500Y-78524000D03*
%TO.P,U1,T3*%
%TO.N,/DMU*%
X144681500Y-78524000D03*
%TO.P,U1,T4*%
%TO.N,/DQL0*%
X143881500Y-78524000D03*
%TO.P,U1,T5*%
%TO.N,/DQL6*%
X143081500Y-78524000D03*
%TO.P,U1,T6*%
%TO.N,/DQL2*%
X142281500Y-78524000D03*
%TO.P,U1,T7*%
%TO.N,/DML*%
X141481500Y-78524000D03*
%TO.P,U1,T8*%
%TO.N,/DQL5*%
X140681500Y-78524000D03*
%TO.P,U1,T9*%
%TO.N,Net-(U1-PadT9)*%
X139881500Y-78524000D03*
%TO.P,U1,T10*%
%TO.N,Net-(U1-PadT10)*%
X139081500Y-78524000D03*
%TO.P,U1,T11*%
%TO.N,Net-(U1-PadT11)*%
X138281500Y-78524000D03*
%TO.P,U1,T12*%
%TO.N,Net-(U1-PadT12)*%
X137481500Y-78524000D03*
%TO.P,U1,T13*%
%TO.N,Net-(U1-PadT13)*%
X136681500Y-78524000D03*
%TO.P,U1,T14*%
%TO.N,GND*%
X135881500Y-78524000D03*
%TO.P,U1,T15*%
%TO.N,Net-(U1-PadT15)*%
X135081500Y-78524000D03*
%TO.P,U1,T16*%
%TO.N,/XTALI*%
X134281500Y-78524000D03*
%TO.P,U1,T17*%
%TO.N,/XTALO*%
X133481500Y-78524000D03*
%TO.P,U1,U1*%
%TO.N,GND*%
X146281500Y-77724000D03*
%TO.P,U1,U2*%
%TO.N,/DQU0*%
X145481500Y-77724000D03*
%TO.P,U1,U3*%
%TO.N,/DQU1*%
X144681500Y-77724000D03*
%TO.P,U1,U4*%
%TO.N,/DQL7*%
X143881500Y-77724000D03*
%TO.P,U1,U5*%
%TO.N,/DQU2*%
X143081500Y-77724000D03*
%TO.P,U1,U6*%
%TO.N,/DQL1*%
X142281500Y-77724000D03*
%TO.P,U1,U7*%
%TO.N,/DQL3*%
X141481500Y-77724000D03*
%TO.P,U1,U8*%
%TO.N,/DQL4*%
X140681500Y-77724000D03*
%TO.P,U1,U9*%
%TO.N,Net-(U1-PadU9)*%
X139881500Y-77724000D03*
%TO.P,U1,U10*%
%TO.N,Net-(U1-PadU10)*%
X139081500Y-77724000D03*
%TO.P,U1,U11*%
%TO.N,Net-(U1-PadU11)*%
X138281500Y-77724000D03*
%TO.P,U1,U12*%
%TO.N,Net-(U1-PadU12)*%
X137481500Y-77724000D03*
%TO.P,U1,U13*%
%TO.N,Net-(U1-PadU13)*%
X136681500Y-77724000D03*
%TO.P,U1,U14*%
%TO.N,GND*%
X135881500Y-77724000D03*
%TO.P,U1,U15*%
%TO.N,Net-(U1-PadU15)*%
X135081500Y-77724000D03*
%TO.P,U1,U16*%
%TO.N,Net-(U1-PadU16)*%
X134281500Y-77724000D03*
%TO.P,U1,U17*%
%TO.N,GND*%
X133481500Y-77724000D03*
%TD*%
%TO.P,C27,2*%
%TO.N,GND*%
%TA.AperFunction,SMDPad,CuDef*%
G36*
G01*
X164650000Y-87270000D02*
X164650000Y-86930000D01*
G75*
G02*
X164790000Y-86790000I140000J0D01*
G01*
X165070000Y-86790000D01*
G75*
G02*
X165210000Y-86930000I0J-140000D01*
G01*
X165210000Y-87270000D01*
G75*
G02*
X165070000Y-87410000I-140000J0D01*
G01*
X164790000Y-87410000D01*
G75*
G02*
X164650000Y-87270000I0J140000D01*
G01*
G37*
%TD.AperFunction*%
%TO.P,C27,1*%
%TO.N,VREFDDR*%
%TA.AperFunction,SMDPad,CuDef*%
G36*
G01*
X163690000Y-87270000D02*
X163690000Y-86930000D01*
G75*
G02*
X163830000Y-86790000I140000J0D01*
G01*
X164110000Y-86790000D01*
G75*
G02*
X164250000Y-86930000I0J-140000D01*
G01*
X164250000Y-87270000D01*
G75*
G02*
X164110000Y-87410000I-140000J0D01*
G01*
X163830000Y-87410000D01*
G75*
G02*
X163690000Y-87270000I0J140000D01*
G01*
G37*
%TD.AperFunction*%
%TD*%
D11*
%TO.P,Y1,4*%
%TO.N,GND*%
X131575000Y-76300000D03*
%TO.P,Y1,3*%
%TO.N,/XTALO*%
X131575000Y-78500000D03*
%TO.P,Y1,2*%
%TO.N,GND*%
X129875000Y-78500000D03*
%TO.P,Y1,1*%
%TO.N,/XTALI*%
X129875000Y-76300000D03*
%TD*%
D12*
%TO.P,U4,1*%
%TO.N,GND*%
X121675000Y-78650000D03*
%TO.P,U4,3*%
%TO.N,+5V*%
X126275000Y-78650000D03*
%TO.P,U4,2*%
%TO.N,+1V5*%
X123975000Y-78650000D03*
D13*
%TO.P,U4,4*%
%TO.N,GND*%
X123975000Y-72350000D03*
%TD*%
D12*
%TO.P,U3,1*%
%TO.N,GND*%
X126525000Y-98550000D03*
%TO.P,U3,3*%
%TO.N,+5V*%
X121925000Y-98550000D03*
%TO.P,U3,2*%
%TO.N,+3V3*%
X124225000Y-98550000D03*
D13*
%TO.P,U3,4*%
%TO.N,GND*%
X124225000Y-104850000D03*
%TD*%
%TO.P,R8,2*%
%TO.N,/ZQ*%
%TA.AperFunction,SMDPad,CuDef*%
G36*
G01*
X164235000Y-81865000D02*
X164235000Y-82235000D01*
G75*
G02*
X164100000Y-82370000I-135000J0D01*
G01*
X163830000Y-82370000D01*
G75*
G02*
X163695000Y-82235000I0J135000D01*
G01*
X163695000Y-81865000D01*
G75*
G02*
X163830000Y-81730000I135000J0D01*
G01*
X164100000Y-81730000D01*
G75*
G02*
X164235000Y-81865000I0J-135000D01*
G01*
G37*
%TD.AperFunction*%
%TO.P,R8,1*%
%TO.N,GND*%
%TA.AperFunction,SMDPad,CuDef*%
G36*
G01*
X165255000Y-81865000D02*
X165255000Y-82235000D01*
G75*
G02*
X165120000Y-82370000I-135000J0D01*
G01*
X164850000Y-82370000D01*
G75*
G02*
X164715000Y-82235000I0J135000D01*
G01*
X164715000Y-81865000D01*
G75*
G02*
X164850000Y-81730000I135000J0D01*
G01*
X165120000Y-81730000D01*
G75*
G02*
X165255000Y-81865000I0J-135000D01*
G01*
G37*
%TD.AperFunction*%
%TD*%
%TO.P,R4,2*%
%TO.N,/ZQPAD*%
%TA.AperFunction,SMDPad,CuDef*%
G36*
G01*
X138040000Y-76090000D02*
X138410000Y-76090000D01*
G75*
G02*
X138545000Y-76225000I0J-135000D01*
G01*
X138545000Y-76495000D01*
G75*
G02*
X138410000Y-76630000I-135000J0D01*
G01*
X138040000Y-76630000D01*
G75*
G02*
X137905000Y-76495000I0J135000D01*
G01*
X137905000Y-76225000D01*
G75*
G02*
X138040000Y-76090000I135000J0D01*
G01*
G37*
%TD.AperFunction*%
%TO.P,R4,1*%
%TO.N,GND*%
%TA.AperFunction,SMDPad,CuDef*%
G36*
G01*
X138040000Y-75070000D02*
X138410000Y-75070000D01*
G75*
G02*
X138545000Y-75205000I0J-135000D01*
G01*
X138545000Y-75475000D01*
G75*
G02*
X138410000Y-75610000I-135000J0D01*
G01*
X138040000Y-75610000D01*
G75*
G02*
X137905000Y-75475000I0J135000D01*
G01*
X137905000Y-75205000D01*
G75*
G02*
X138040000Y-75070000I135000J0D01*
G01*
G37*
%TD.AperFunction*%
%TD*%
%TO.P,R3,2*%
%TO.N,GND*%
%TA.AperFunction,SMDPad,CuDef*%
G36*
G01*
X164715000Y-81210000D02*
X164715000Y-80840000D01*
G75*
G02*
X164850000Y-80705000I135000J0D01*
G01*
X165120000Y-80705000D01*
G75*
G02*
X165255000Y-80840000I0J-135000D01*
G01*
X165255000Y-81210000D01*
G75*
G02*
X165120000Y-81345000I-135000J0D01*
G01*
X164850000Y-81345000D01*
G75*
G02*
X164715000Y-81210000I0J135000D01*
G01*
G37*
%TD.AperFunction*%
%TO.P,R3,1*%
%TO.N,/CKE0*%
%TA.AperFunction,SMDPad,CuDef*%
G36*
G01*
X163695000Y-81210000D02*
X163695000Y-80840000D01*
G75*
G02*
X163830000Y-80705000I135000J0D01*
G01*
X164100000Y-80705000D01*
G75*
G02*
X164235000Y-80840000I0J-135000D01*
G01*
X164235000Y-81210000D01*
G75*
G02*
X164100000Y-81345000I-135000J0D01*
G01*
X163830000Y-81345000D01*
G75*
G02*
X163695000Y-81210000I0J135000D01*
G01*
G37*
%TD.AperFunction*%
%TD*%
%TO.P,R1,2*%
%TO.N,GND*%
%TA.AperFunction,SMDPad,CuDef*%
G36*
G01*
X144915000Y-92465000D02*
X145285000Y-92465000D01*
G75*
G02*
X145420000Y-92600000I0J-135000D01*
G01*
X145420000Y-92870000D01*
G75*
G02*
X145285000Y-93005000I-135000J0D01*
G01*
X144915000Y-93005000D01*
G75*
G02*
X144780000Y-92870000I0J135000D01*
G01*
X144780000Y-92600000D01*
G75*
G02*
X144915000Y-92465000I135000J0D01*
G01*
G37*
%TD.AperFunction*%
%TO.P,R1,1*%
%TO.N,/RESET#*%
%TA.AperFunction,SMDPad,CuDef*%
G36*
G01*
X144915000Y-91445000D02*
X145285000Y-91445000D01*
G75*
G02*
X145420000Y-91580000I0J-135000D01*
G01*
X145420000Y-91850000D01*
G75*
G02*
X145285000Y-91985000I-135000J0D01*
G01*
X144915000Y-91985000D01*
G75*
G02*
X144780000Y-91850000I0J135000D01*
G01*
X144780000Y-91580000D01*
G75*
G02*
X144915000Y-91445000I135000J0D01*
G01*
G37*
%TD.AperFunction*%
%TD*%
D14*
%TO.P,J3,4*%
%TO.N,GND*%
X142525000Y-98200000D03*
%TO.P,J3,3*%
%TO.N,Net-(J3-Pad3)*%
X140025000Y-98200000D03*
%TO.P,J3,2*%
%TO.N,Net-(J3-Pad2)*%
X138025000Y-98200000D03*
D15*
%TO.P,J3,1*%
%TO.N,+5V*%
X135525000Y-98200000D03*
D16*
%TO.P,J3,5*%
%TO.N,GND*%
X145595000Y-100910000D03*
X132455000Y-100910000D03*
%TD*%
D17*
%TO.P,J2,5*%
%TO.N,GND*%
X125000000Y-93635000D03*
%TO.P,J2,4*%
%TO.N,/RTS*%
X125000000Y-91095000D03*
%TO.P,J2,3*%
%TO.N,/TX*%
X125000000Y-88555000D03*
%TO.P,J2,2*%
%TO.N,/CTS*%
X125000000Y-86015000D03*
D18*
%TO.P,J2,1*%
%TO.N,/RX*%
X125000000Y-83475000D03*
%TD*%
D19*
%TO.P,J1,11*%
%TO.N,N/C*%
X153545000Y-96650000D03*
X159515000Y-96650000D03*
D20*
%TO.P,J1,9*%
%TO.N,GND*%
X163015000Y-101325000D03*
%TO.P,J1,10*%
%TO.N,N/C*%
X163015000Y-97625000D03*
D21*
%TO.P,J1,11*%
X162840000Y-107350000D03*
D22*
X151520000Y-107125000D03*
D23*
%TO.P,J1,7*%
%TO.N,/SD_D0*%
X153780000Y-107475000D03*
%TO.P,J1,6*%
%TO.N,GND*%
X154880000Y-107475000D03*
%TO.P,J1,5*%
%TO.N,/SD_CLK*%
X155980000Y-107475000D03*
%TO.P,J1,4*%
%TO.N,+3V3*%
X157080000Y-107475000D03*
%TO.P,J1,3*%
%TO.N,/SD_CMD*%
X158180000Y-107475000D03*
%TO.P,J1,2*%
%TO.N,/SD_D3*%
X159280000Y-107475000D03*
D24*
%TO.P,J1,8*%
%TO.N,/SD_D1*%
X152730000Y-107475000D03*
D23*
%TO.P,J1,1*%
%TO.N,/SD_D2*%
X160380000Y-107475000D03*
%TD*%
%TO.P,C39,2*%
%TO.N,GND*%
%TA.AperFunction,SMDPad,CuDef*%
G36*
G01*
X154920000Y-78975000D02*
X154580000Y-78975000D01*
G75*
G02*
X154440000Y-78835000I0J140000D01*
G01*
X154440000Y-78555000D01*
G75*
G02*
X154580000Y-78415000I140000J0D01*
G01*
X154920000Y-78415000D01*
G75*
G02*
X155060000Y-78555000I0J-140000D01*
G01*
X155060000Y-78835000D01*
G75*
G02*
X154920000Y-78975000I-140000J0D01*
G01*
G37*
%TD.AperFunction*%
%TO.P,C39,1*%
%TO.N,VREFDDR*%
%TA.AperFunction,SMDPad,CuDef*%
G36*
G01*
X154920000Y-79935000D02*
X154580000Y-79935000D01*
G75*
G02*
X154440000Y-79795000I0J140000D01*
G01*
X154440000Y-79515000D01*
G75*
G02*
X154580000Y-79375000I140000J0D01*
G01*
X154920000Y-79375000D01*
G75*
G02*
X155060000Y-79515000I0J-140000D01*
G01*
X155060000Y-79795000D01*
G75*
G02*
X154920000Y-79935000I-140000J0D01*
G01*
G37*
%TD.AperFunction*%
%TD*%
%TO.P,C38,2*%
%TO.N,GND*%
%TA.AperFunction,SMDPad,CuDef*%
G36*
G01*
X164625000Y-75845000D02*
X164625000Y-75505000D01*
G75*
G02*
X164765000Y-75365000I140000J0D01*
G01*
X165045000Y-75365000D01*
G75*
G02*
X165185000Y-75505000I0J-140000D01*
G01*
X165185000Y-75845000D01*
G75*
G02*
X165045000Y-75985000I-140000J0D01*
G01*
X164765000Y-75985000D01*
G75*
G02*
X164625000Y-75845000I0J140000D01*
G01*
G37*
%TD.AperFunction*%
%TO.P,C38,1*%
%TO.N,+1V5*%
%TA.AperFunction,SMDPad,CuDef*%
G36*
G01*
X163665000Y-75845000D02*
X163665000Y-75505000D01*
G75*
G02*
X163805000Y-75365000I140000J0D01*
G01*
X164085000Y-75365000D01*
G75*
G02*
X164225000Y-75505000I0J-140000D01*
G01*
X164225000Y-75845000D01*
G75*
G02*
X164085000Y-75985000I-140000J0D01*
G01*
X163805000Y-75985000D01*
G75*
G02*
X163665000Y-75845000I0J140000D01*
G01*
G37*
%TD.AperFunction*%
%TD*%
%TO.P,C37,2*%
%TO.N,GND*%
%TA.AperFunction,SMDPad,CuDef*%
G36*
G01*
X164625000Y-72895000D02*
X164625000Y-72555000D01*
G75*
G02*
X164765000Y-72415000I140000J0D01*
G01*
X165045000Y-72415000D01*
G75*
G02*
X165185000Y-72555000I0J-140000D01*
G01*
X165185000Y-72895000D01*
G75*
G02*
X165045000Y-73035000I-140000J0D01*
G01*
X164765000Y-73035000D01*
G75*
G02*
X164625000Y-72895000I0J140000D01*
G01*
G37*
%TD.AperFunction*%
%TO.P,C37,1*%
%TO.N,+1V5*%
%TA.AperFunction,SMDPad,CuDef*%
G36*
G01*
X163665000Y-72895000D02*
X163665000Y-72555000D01*
G75*
G02*
X163805000Y-72415000I140000J0D01*
G01*
X164085000Y-72415000D01*
G75*
G02*
X164225000Y-72555000I0J-140000D01*
G01*
X164225000Y-72895000D01*
G75*
G02*
X164085000Y-73035000I-140000J0D01*
G01*
X163805000Y-73035000D01*
G75*
G02*
X163665000Y-72895000I0J140000D01*
G01*
G37*
%TD.AperFunction*%
%TD*%
%TO.P,C36,2*%
%TO.N,GND*%
%TA.AperFunction,SMDPad,CuDef*%
G36*
G01*
X139420000Y-75675000D02*
X139080000Y-75675000D01*
G75*
G02*
X138940000Y-75535000I0J140000D01*
G01*
X138940000Y-75255000D01*
G75*
G02*
X139080000Y-75115000I140000J0D01*
G01*
X139420000Y-75115000D01*
G75*
G02*
X139560000Y-75255000I0J-140000D01*
G01*
X139560000Y-75535000D01*
G75*
G02*
X139420000Y-75675000I-140000J0D01*
G01*
G37*
%TD.AperFunction*%
%TO.P,C36,1*%
%TO.N,/VDD_HIGH_CAP*%
%TA.AperFunction,SMDPad,CuDef*%
G36*
G01*
X139420000Y-76635000D02*
X139080000Y-76635000D01*
G75*
G02*
X138940000Y-76495000I0J140000D01*
G01*
X138940000Y-76215000D01*
G75*
G02*
X139080000Y-76075000I140000J0D01*
G01*
X139420000Y-76075000D01*
G75*
G02*
X139560000Y-76215000I0J-140000D01*
G01*
X139560000Y-76495000D01*
G75*
G02*
X139420000Y-76635000I-140000J0D01*
G01*
G37*
%TD.AperFunction*%
%TD*%
%TO.P,C32,2*%
%TO.N,GND*%
%TA.AperFunction,SMDPad,CuDef*%
G36*
G01*
X131725000Y-74895000D02*
X131725000Y-74555000D01*
G75*
G02*
X131865000Y-74415000I140000J0D01*
G01*
X132145000Y-74415000D01*
G75*
G02*
X132285000Y-74555000I0J-140000D01*
G01*
X132285000Y-74895000D01*
G75*
G02*
X132145000Y-75035000I-140000J0D01*
G01*
X131865000Y-75035000D01*
G75*
G02*
X131725000Y-74895000I0J140000D01*
G01*
G37*
%TD.AperFunction*%
%TO.P,C32,1*%
%TO.N,/XTALI*%
%TA.AperFunction,SMDPad,CuDef*%
G36*
G01*
X130765000Y-74895000D02*
X130765000Y-74555000D01*
G75*
G02*
X130905000Y-74415000I140000J0D01*
G01*
X131185000Y-74415000D01*
G75*
G02*
X131325000Y-74555000I0J-140000D01*
G01*
X131325000Y-74895000D01*
G75*
G02*
X131185000Y-75035000I-140000J0D01*
G01*
X130905000Y-75035000D01*
G75*
G02*
X130765000Y-74895000I0J140000D01*
G01*
G37*
%TD.AperFunction*%
%TD*%
%TO.P,C30,2*%
%TO.N,GND*%
%TA.AperFunction,SMDPad,CuDef*%
G36*
G01*
X131325000Y-79930000D02*
X131325000Y-80270000D01*
G75*
G02*
X131185000Y-80410000I-140000J0D01*
G01*
X130905000Y-80410000D01*
G75*
G02*
X130765000Y-80270000I0J140000D01*
G01*
X130765000Y-79930000D01*
G75*
G02*
X130905000Y-79790000I140000J0D01*
G01*
X131185000Y-79790000D01*
G75*
G02*
X131325000Y-79930000I0J-140000D01*
G01*
G37*
%TD.AperFunction*%
%TO.P,C30,1*%
%TO.N,/XTALO*%
%TA.AperFunction,SMDPad,CuDef*%
G36*
G01*
X132285000Y-79930000D02*
X132285000Y-80270000D01*
G75*
G02*
X132145000Y-80410000I-140000J0D01*
G01*
X131865000Y-80410000D01*
G75*
G02*
X131725000Y-80270000I0J140000D01*
G01*
X131725000Y-79930000D01*
G75*
G02*
X131865000Y-79790000I140000J0D01*
G01*
X132145000Y-79790000D01*
G75*
G02*
X132285000Y-79930000I0J-140000D01*
G01*
G37*
%TD.AperFunction*%
%TD*%
%TO.P,C22,2*%
%TO.N,GND*%
%TA.AperFunction,SMDPad,CuDef*%
G36*
G01*
X122100000Y-80525000D02*
X122100000Y-81025000D01*
G75*
G02*
X121875000Y-81250000I-225000J0D01*
G01*
X121425000Y-81250000D01*
G75*
G02*
X121200000Y-81025000I0J225000D01*
G01*
X121200000Y-80525000D01*
G75*
G02*
X121425000Y-80300000I225000J0D01*
G01*
X121875000Y-80300000D01*
G75*
G02*
X122100000Y-80525000I0J-225000D01*
G01*
G37*
%TD.AperFunction*%
%TO.P,C22,1*%
%TO.N,+1V5*%
%TA.AperFunction,SMDPad,CuDef*%
G36*
G01*
X123650000Y-80525000D02*
X123650000Y-81025000D01*
G75*
G02*
X123425000Y-81250000I-225000J0D01*
G01*
X122975000Y-81250000D01*
G75*
G02*
X122750000Y-81025000I0J225000D01*
G01*
X122750000Y-80525000D01*
G75*
G02*
X122975000Y-80300000I225000J0D01*
G01*
X123425000Y-80300000D01*
G75*
G02*
X123650000Y-80525000I0J-225000D01*
G01*
G37*
%TD.AperFunction*%
%TD*%
%TO.P,C20,2*%
%TO.N,GND*%
%TA.AperFunction,SMDPad,CuDef*%
G36*
G01*
X126200000Y-81025000D02*
X126200000Y-80525000D01*
G75*
G02*
X126425000Y-80300000I225000J0D01*
G01*
X126875000Y-80300000D01*
G75*
G02*
X127100000Y-80525000I0J-225000D01*
G01*
X127100000Y-81025000D01*
G75*
G02*
X126875000Y-81250000I-225000J0D01*
G01*
X126425000Y-81250000D01*
G75*
G02*
X126200000Y-81025000I0J225000D01*
G01*
G37*
%TD.AperFunction*%
%TO.P,C20,1*%
%TO.N,+5V*%
%TA.AperFunction,SMDPad,CuDef*%
G36*
G01*
X124650000Y-81025000D02*
X124650000Y-80525000D01*
G75*
G02*
X124875000Y-80300000I225000J0D01*
G01*
X125325000Y-80300000D01*
G75*
G02*
X125550000Y-80525000I0J-225000D01*
G01*
X125550000Y-81025000D01*
G75*
G02*
X125325000Y-81250000I-225000J0D01*
G01*
X124875000Y-81250000D01*
G75*
G02*
X124650000Y-81025000I0J225000D01*
G01*
G37*
%TD.AperFunction*%
%TD*%
%TO.P,C19,2*%
%TO.N,GND*%
%TA.AperFunction,SMDPad,CuDef*%
G36*
G01*
X130875000Y-82425000D02*
X130875000Y-82925000D01*
G75*
G02*
X130650000Y-83150000I-225000J0D01*
G01*
X130200000Y-83150000D01*
G75*
G02*
X129975000Y-82925000I0J225000D01*
G01*
X129975000Y-82425000D01*
G75*
G02*
X130200000Y-82200000I225000J0D01*
G01*
X130650000Y-82200000D01*
G75*
G02*
X130875000Y-82425000I0J-225000D01*
G01*
G37*
%TD.AperFunction*%
%TO.P,C19,1*%
%TO.N,/HIGH_CAP*%
%TA.AperFunction,SMDPad,CuDef*%
G36*
G01*
X132425000Y-82425000D02*
X132425000Y-82925000D01*
G75*
G02*
X132200000Y-83150000I-225000J0D01*
G01*
X131750000Y-83150000D01*
G75*
G02*
X131525000Y-82925000I0J225000D01*
G01*
X131525000Y-82425000D01*
G75*
G02*
X131750000Y-82200000I225000J0D01*
G01*
X132200000Y-82200000D01*
G75*
G02*
X132425000Y-82425000I0J-225000D01*
G01*
G37*
%TD.AperFunction*%
%TD*%
%TO.P,C18,2*%
%TO.N,GND*%
%TA.AperFunction,SMDPad,CuDef*%
G36*
G01*
X137275000Y-92275000D02*
X137275000Y-91775000D01*
G75*
G02*
X137500000Y-91550000I225000J0D01*
G01*
X137950000Y-91550000D01*
G75*
G02*
X138175000Y-91775000I0J-225000D01*
G01*
X138175000Y-92275000D01*
G75*
G02*
X137950000Y-92500000I-225000J0D01*
G01*
X137500000Y-92500000D01*
G75*
G02*
X137275000Y-92275000I0J225000D01*
G01*
G37*
%TD.AperFunction*%
%TO.P,C18,1*%
%TO.N,/SOC_CAP*%
%TA.AperFunction,SMDPad,CuDef*%
G36*
G01*
X135725000Y-92275000D02*
X135725000Y-91775000D01*
G75*
G02*
X135950000Y-91550000I225000J0D01*
G01*
X136400000Y-91550000D01*
G75*
G02*
X136625000Y-91775000I0J-225000D01*
G01*
X136625000Y-92275000D01*
G75*
G02*
X136400000Y-92500000I-225000J0D01*
G01*
X135950000Y-92500000D01*
G75*
G02*
X135725000Y-92275000I0J225000D01*
G01*
G37*
%TD.AperFunction*%
%TD*%
%TO.P,C17,2*%
%TO.N,GND*%
%TA.AperFunction,SMDPad,CuDef*%
G36*
G01*
X131575000Y-81180000D02*
X131575000Y-81520000D01*
G75*
G02*
X131435000Y-81660000I-140000J0D01*
G01*
X131155000Y-81660000D01*
G75*
G02*
X131015000Y-81520000I0J140000D01*
G01*
X131015000Y-81180000D01*
G75*
G02*
X131155000Y-81040000I140000J0D01*
G01*
X131435000Y-81040000D01*
G75*
G02*
X131575000Y-81180000I0J-140000D01*
G01*
G37*
%TD.AperFunction*%
%TO.P,C17,1*%
%TO.N,/HIGH_CAP*%
%TA.AperFunction,SMDPad,CuDef*%
G36*
G01*
X132535000Y-81180000D02*
X132535000Y-81520000D01*
G75*
G02*
X132395000Y-81660000I-140000J0D01*
G01*
X132115000Y-81660000D01*
G75*
G02*
X131975000Y-81520000I0J140000D01*
G01*
X131975000Y-81180000D01*
G75*
G02*
X132115000Y-81040000I140000J0D01*
G01*
X132395000Y-81040000D01*
G75*
G02*
X132535000Y-81180000I0J-140000D01*
G01*
G37*
%TD.AperFunction*%
%TD*%
%TO.P,C16,2*%
%TO.N,GND*%
%TA.AperFunction,SMDPad,CuDef*%
G36*
G01*
X130875000Y-86950000D02*
X130875000Y-87450000D01*
G75*
G02*
X130650000Y-87675000I-225000J0D01*
G01*
X130200000Y-87675000D01*
G75*
G02*
X129975000Y-87450000I0J225000D01*
G01*
X129975000Y-86950000D01*
G75*
G02*
X130200000Y-86725000I225000J0D01*
G01*
X130650000Y-86725000D01*
G75*
G02*
X130875000Y-86950000I0J-225000D01*
G01*
G37*
%TD.AperFunction*%
%TO.P,C16,1*%
%TO.N,/ARM_CAP*%
%TA.AperFunction,SMDPad,CuDef*%
G36*
G01*
X132425000Y-86950000D02*
X132425000Y-87450000D01*
G75*
G02*
X132200000Y-87675000I-225000J0D01*
G01*
X131750000Y-87675000D01*
G75*
G02*
X131525000Y-87450000I0J225000D01*
G01*
X131525000Y-86950000D01*
G75*
G02*
X131750000Y-86725000I225000J0D01*
G01*
X132200000Y-86725000D01*
G75*
G02*
X132425000Y-86950000I0J-225000D01*
G01*
G37*
%TD.AperFunction*%
%TD*%
%TO.P,C15,2*%
%TO.N,GND*%
%TA.AperFunction,SMDPad,CuDef*%
G36*
G01*
X134755000Y-92400000D02*
X135095000Y-92400000D01*
G75*
G02*
X135235000Y-92540000I0J-140000D01*
G01*
X135235000Y-92820000D01*
G75*
G02*
X135095000Y-92960000I-140000J0D01*
G01*
X134755000Y-92960000D01*
G75*
G02*
X134615000Y-92820000I0J140000D01*
G01*
X134615000Y-92540000D01*
G75*
G02*
X134755000Y-92400000I140000J0D01*
G01*
G37*
%TD.AperFunction*%
%TO.P,C15,1*%
%TO.N,/SOC_CAP*%
%TA.AperFunction,SMDPad,CuDef*%
G36*
G01*
X134755000Y-91440000D02*
X135095000Y-91440000D01*
G75*
G02*
X135235000Y-91580000I0J-140000D01*
G01*
X135235000Y-91860000D01*
G75*
G02*
X135095000Y-92000000I-140000J0D01*
G01*
X134755000Y-92000000D01*
G75*
G02*
X134615000Y-91860000I0J140000D01*
G01*
X134615000Y-91580000D01*
G75*
G02*
X134755000Y-91440000I140000J0D01*
G01*
G37*
%TD.AperFunction*%
%TD*%
%TO.P,C14,2*%
%TO.N,GND*%
%TA.AperFunction,SMDPad,CuDef*%
G36*
G01*
X135150000Y-74975000D02*
X134650000Y-74975000D01*
G75*
G02*
X134425000Y-74750000I0J225000D01*
G01*
X134425000Y-74300000D01*
G75*
G02*
X134650000Y-74075000I225000J0D01*
G01*
X135150000Y-74075000D01*
G75*
G02*
X135375000Y-74300000I0J-225000D01*
G01*
X135375000Y-74750000D01*
G75*
G02*
X135150000Y-74975000I-225000J0D01*
G01*
G37*
%TD.AperFunction*%
%TO.P,C14,1*%
%TO.N,/NVCC_PLL*%
%TA.AperFunction,SMDPad,CuDef*%
G36*
G01*
X135150000Y-76525000D02*
X134650000Y-76525000D01*
G75*
G02*
X134425000Y-76300000I0J225000D01*
G01*
X134425000Y-75850000D01*
G75*
G02*
X134650000Y-75625000I225000J0D01*
G01*
X135150000Y-75625000D01*
G75*
G02*
X135375000Y-75850000I0J-225000D01*
G01*
X135375000Y-76300000D01*
G75*
G02*
X135150000Y-76525000I-225000J0D01*
G01*
G37*
%TD.AperFunction*%
%TD*%
%TO.P,C13,2*%
%TO.N,GND*%
%TA.AperFunction,SMDPad,CuDef*%
G36*
G01*
X131575000Y-88305000D02*
X131575000Y-88645000D01*
G75*
G02*
X131435000Y-88785000I-140000J0D01*
G01*
X131155000Y-88785000D01*
G75*
G02*
X131015000Y-88645000I0J140000D01*
G01*
X131015000Y-88305000D01*
G75*
G02*
X131155000Y-88165000I140000J0D01*
G01*
X131435000Y-88165000D01*
G75*
G02*
X131575000Y-88305000I0J-140000D01*
G01*
G37*
%TD.AperFunction*%
%TO.P,C13,1*%
%TO.N,/ARM_CAP*%
%TA.AperFunction,SMDPad,CuDef*%
G36*
G01*
X132535000Y-88305000D02*
X132535000Y-88645000D01*
G75*
G02*
X132395000Y-88785000I-140000J0D01*
G01*
X132115000Y-88785000D01*
G75*
G02*
X131975000Y-88645000I0J140000D01*
G01*
X131975000Y-88305000D01*
G75*
G02*
X132115000Y-88165000I140000J0D01*
G01*
X132395000Y-88165000D01*
G75*
G02*
X132535000Y-88305000I0J-140000D01*
G01*
G37*
%TD.AperFunction*%
%TD*%
%TO.P,C12,2*%
%TO.N,GND*%
%TA.AperFunction,SMDPad,CuDef*%
G36*
G01*
X132755000Y-92400000D02*
X133095000Y-92400000D01*
G75*
G02*
X133235000Y-92540000I0J-140000D01*
G01*
X133235000Y-92820000D01*
G75*
G02*
X133095000Y-92960000I-140000J0D01*
G01*
X132755000Y-92960000D01*
G75*
G02*
X132615000Y-92820000I0J140000D01*
G01*
X132615000Y-92540000D01*
G75*
G02*
X132755000Y-92400000I140000J0D01*
G01*
G37*
%TD.AperFunction*%
%TO.P,C12,1*%
%TO.N,/SOC_CAP*%
%TA.AperFunction,SMDPad,CuDef*%
G36*
G01*
X132755000Y-91440000D02*
X133095000Y-91440000D01*
G75*
G02*
X133235000Y-91580000I0J-140000D01*
G01*
X133235000Y-91860000D01*
G75*
G02*
X133095000Y-92000000I-140000J0D01*
G01*
X132755000Y-92000000D01*
G75*
G02*
X132615000Y-91860000I0J140000D01*
G01*
X132615000Y-91580000D01*
G75*
G02*
X132755000Y-91440000I140000J0D01*
G01*
G37*
%TD.AperFunction*%
%TD*%
%TO.P,C11,2*%
%TO.N,GND*%
%TA.AperFunction,SMDPad,CuDef*%
G36*
G01*
X137370000Y-75650000D02*
X137030000Y-75650000D01*
G75*
G02*
X136890000Y-75510000I0J140000D01*
G01*
X136890000Y-75230000D01*
G75*
G02*
X137030000Y-75090000I140000J0D01*
G01*
X137370000Y-75090000D01*
G75*
G02*
X137510000Y-75230000I0J-140000D01*
G01*
X137510000Y-75510000D01*
G75*
G02*
X137370000Y-75650000I-140000J0D01*
G01*
G37*
%TD.AperFunction*%
%TO.P,C11,1*%
%TO.N,/SNVS_CAP*%
%TA.AperFunction,SMDPad,CuDef*%
G36*
G01*
X137370000Y-76610000D02*
X137030000Y-76610000D01*
G75*
G02*
X136890000Y-76470000I0J140000D01*
G01*
X136890000Y-76190000D01*
G75*
G02*
X137030000Y-76050000I140000J0D01*
G01*
X137370000Y-76050000D01*
G75*
G02*
X137510000Y-76190000I0J-140000D01*
G01*
X137510000Y-76470000D01*
G75*
G02*
X137370000Y-76610000I-140000J0D01*
G01*
G37*
%TD.AperFunction*%
%TD*%
%TO.P,C10,2*%
%TO.N,GND*%
%TA.AperFunction,SMDPad,CuDef*%
G36*
G01*
X133795000Y-75675000D02*
X133455000Y-75675000D01*
G75*
G02*
X133315000Y-75535000I0J140000D01*
G01*
X133315000Y-75255000D01*
G75*
G02*
X133455000Y-75115000I140000J0D01*
G01*
X133795000Y-75115000D01*
G75*
G02*
X133935000Y-75255000I0J-140000D01*
G01*
X133935000Y-75535000D01*
G75*
G02*
X133795000Y-75675000I-140000J0D01*
G01*
G37*
%TD.AperFunction*%
%TO.P,C10,1*%
%TO.N,/NVCC_PLL*%
%TA.AperFunction,SMDPad,CuDef*%
G36*
G01*
X133795000Y-76635000D02*
X133455000Y-76635000D01*
G75*
G02*
X133315000Y-76495000I0J140000D01*
G01*
X133315000Y-76215000D01*
G75*
G02*
X133455000Y-76075000I140000J0D01*
G01*
X133795000Y-76075000D01*
G75*
G02*
X133935000Y-76215000I0J-140000D01*
G01*
X133935000Y-76495000D01*
G75*
G02*
X133795000Y-76635000I-140000J0D01*
G01*
G37*
%TD.AperFunction*%
%TD*%
%TO.P,C9,2*%
%TO.N,GND*%
%TA.AperFunction,SMDPad,CuDef*%
G36*
G01*
X131575000Y-89305000D02*
X131575000Y-89645000D01*
G75*
G02*
X131435000Y-89785000I-140000J0D01*
G01*
X131155000Y-89785000D01*
G75*
G02*
X131015000Y-89645000I0J140000D01*
G01*
X131015000Y-89305000D01*
G75*
G02*
X131155000Y-89165000I140000J0D01*
G01*
X131435000Y-89165000D01*
G75*
G02*
X131575000Y-89305000I0J-140000D01*
G01*
G37*
%TD.AperFunction*%
%TO.P,C9,1*%
%TO.N,/ARM_CAP*%
%TA.AperFunction,SMDPad,CuDef*%
G36*
G01*
X132535000Y-89305000D02*
X132535000Y-89645000D01*
G75*
G02*
X132395000Y-89785000I-140000J0D01*
G01*
X132115000Y-89785000D01*
G75*
G02*
X131975000Y-89645000I0J140000D01*
G01*
X131975000Y-89305000D01*
G75*
G02*
X132115000Y-89165000I140000J0D01*
G01*
X132395000Y-89165000D01*
G75*
G02*
X132535000Y-89305000I0J-140000D01*
G01*
G37*
%TD.AperFunction*%
%TD*%
%TO.P,C8,2*%
%TO.N,GND*%
%TA.AperFunction,SMDPad,CuDef*%
G36*
G01*
X133755000Y-92400000D02*
X134095000Y-92400000D01*
G75*
G02*
X134235000Y-92540000I0J-140000D01*
G01*
X134235000Y-92820000D01*
G75*
G02*
X134095000Y-92960000I-140000J0D01*
G01*
X133755000Y-92960000D01*
G75*
G02*
X133615000Y-92820000I0J140000D01*
G01*
X133615000Y-92540000D01*
G75*
G02*
X133755000Y-92400000I140000J0D01*
G01*
G37*
%TD.AperFunction*%
%TO.P,C8,1*%
%TO.N,/SOC_CAP*%
%TA.AperFunction,SMDPad,CuDef*%
G36*
G01*
X133755000Y-91440000D02*
X134095000Y-91440000D01*
G75*
G02*
X134235000Y-91580000I0J-140000D01*
G01*
X134235000Y-91860000D01*
G75*
G02*
X134095000Y-92000000I-140000J0D01*
G01*
X133755000Y-92000000D01*
G75*
G02*
X133615000Y-91860000I0J140000D01*
G01*
X133615000Y-91580000D01*
G75*
G02*
X133755000Y-91440000I140000J0D01*
G01*
G37*
%TD.AperFunction*%
%TD*%
%TO.P,C7,2*%
%TO.N,GND*%
%TA.AperFunction,SMDPad,CuDef*%
G36*
G01*
X126225000Y-96650000D02*
X126225000Y-96150000D01*
G75*
G02*
X126450000Y-95925000I225000J0D01*
G01*
X126900000Y-95925000D01*
G75*
G02*
X127125000Y-96150000I0J-225000D01*
G01*
X127125000Y-96650000D01*
G75*
G02*
X126900000Y-96875000I-225000J0D01*
G01*
X126450000Y-96875000D01*
G75*
G02*
X126225000Y-96650000I0J225000D01*
G01*
G37*
%TD.AperFunction*%
%TO.P,C7,1*%
%TO.N,+3V3*%
%TA.AperFunction,SMDPad,CuDef*%
G36*
G01*
X124675000Y-96650000D02*
X124675000Y-96150000D01*
G75*
G02*
X124900000Y-95925000I225000J0D01*
G01*
X125350000Y-95925000D01*
G75*
G02*
X125575000Y-96150000I0J-225000D01*
G01*
X125575000Y-96650000D01*
G75*
G02*
X125350000Y-96875000I-225000J0D01*
G01*
X124900000Y-96875000D01*
G75*
G02*
X124675000Y-96650000I0J225000D01*
G01*
G37*
%TD.AperFunction*%
%TD*%
%TO.P,C6,2*%
%TO.N,GND*%
%TA.AperFunction,SMDPad,CuDef*%
G36*
G01*
X122250000Y-96150000D02*
X122250000Y-96650000D01*
G75*
G02*
X122025000Y-96875000I-225000J0D01*
G01*
X121575000Y-96875000D01*
G75*
G02*
X121350000Y-96650000I0J225000D01*
G01*
X121350000Y-96150000D01*
G75*
G02*
X121575000Y-95925000I225000J0D01*
G01*
X122025000Y-95925000D01*
G75*
G02*
X122250000Y-96150000I0J-225000D01*
G01*
G37*
%TD.AperFunction*%
%TO.P,C6,1*%
%TO.N,+5V*%
%TA.AperFunction,SMDPad,CuDef*%
G36*
G01*
X123800000Y-96150000D02*
X123800000Y-96650000D01*
G75*
G02*
X123575000Y-96875000I-225000J0D01*
G01*
X123125000Y-96875000D01*
G75*
G02*
X122900000Y-96650000I0J225000D01*
G01*
X122900000Y-96150000D01*
G75*
G02*
X123125000Y-95925000I225000J0D01*
G01*
X123575000Y-95925000D01*
G75*
G02*
X123800000Y-96150000I0J-225000D01*
G01*
G37*
%TD.AperFunction*%
%TD*%
%TO.P,C5,2*%
%TO.N,GND*%
%TA.AperFunction,SMDPad,CuDef*%
G36*
G01*
X141880000Y-92400000D02*
X142220000Y-92400000D01*
G75*
G02*
X142360000Y-92540000I0J-140000D01*
G01*
X142360000Y-92820000D01*
G75*
G02*
X142220000Y-92960000I-140000J0D01*
G01*
X141880000Y-92960000D01*
G75*
G02*
X141740000Y-92820000I0J140000D01*
G01*
X141740000Y-92540000D01*
G75*
G02*
X141880000Y-92400000I140000J0D01*
G01*
G37*
%TD.AperFunction*%
%TO.P,C5,1*%
%TO.N,+1V5*%
%TA.AperFunction,SMDPad,CuDef*%
G36*
G01*
X141880000Y-91440000D02*
X142220000Y-91440000D01*
G75*
G02*
X142360000Y-91580000I0J-140000D01*
G01*
X142360000Y-91860000D01*
G75*
G02*
X142220000Y-92000000I-140000J0D01*
G01*
X141880000Y-92000000D01*
G75*
G02*
X141740000Y-91860000I0J140000D01*
G01*
X141740000Y-91580000D01*
G75*
G02*
X141880000Y-91440000I140000J0D01*
G01*
G37*
%TD.AperFunction*%
%TD*%
%TO.P,C4,2*%
%TO.N,GND*%
%TA.AperFunction,SMDPad,CuDef*%
G36*
G01*
X136370000Y-75650000D02*
X136030000Y-75650000D01*
G75*
G02*
X135890000Y-75510000I0J140000D01*
G01*
X135890000Y-75230000D01*
G75*
G02*
X136030000Y-75090000I140000J0D01*
G01*
X136370000Y-75090000D01*
G75*
G02*
X136510000Y-75230000I0J-140000D01*
G01*
X136510000Y-75510000D01*
G75*
G02*
X136370000Y-75650000I-140000J0D01*
G01*
G37*
%TD.AperFunction*%
%TO.P,C4,1*%
%TO.N,+3V3*%
%TA.AperFunction,SMDPad,CuDef*%
G36*
G01*
X136370000Y-76610000D02*
X136030000Y-76610000D01*
G75*
G02*
X135890000Y-76470000I0J140000D01*
G01*
X135890000Y-76190000D01*
G75*
G02*
X136030000Y-76050000I140000J0D01*
G01*
X136370000Y-76050000D01*
G75*
G02*
X136510000Y-76190000I0J-140000D01*
G01*
X136510000Y-76470000D01*
G75*
G02*
X136370000Y-76610000I-140000J0D01*
G01*
G37*
%TD.AperFunction*%
%TD*%
%TO.P,C3,2*%
%TO.N,GND*%
%TA.AperFunction,SMDPad,CuDef*%
G36*
G01*
X143905000Y-92400000D02*
X144245000Y-92400000D01*
G75*
G02*
X144385000Y-92540000I0J-140000D01*
G01*
X144385000Y-92820000D01*
G75*
G02*
X144245000Y-92960000I-140000J0D01*
G01*
X143905000Y-92960000D01*
G75*
G02*
X143765000Y-92820000I0J140000D01*
G01*
X143765000Y-92540000D01*
G75*
G02*
X143905000Y-92400000I140000J0D01*
G01*
G37*
%TD.AperFunction*%
%TO.P,C3,1*%
%TO.N,+1V5*%
%TA.AperFunction,SMDPad,CuDef*%
G36*
G01*
X143905000Y-91440000D02*
X144245000Y-91440000D01*
G75*
G02*
X144385000Y-91580000I0J-140000D01*
G01*
X144385000Y-91860000D01*
G75*
G02*
X144245000Y-92000000I-140000J0D01*
G01*
X143905000Y-92000000D01*
G75*
G02*
X143765000Y-91860000I0J140000D01*
G01*
X143765000Y-91580000D01*
G75*
G02*
X143905000Y-91440000I140000J0D01*
G01*
G37*
%TD.AperFunction*%
%TD*%
%TO.P,C2,2*%
%TO.N,GND*%
%TA.AperFunction,SMDPad,CuDef*%
G36*
G01*
X142905000Y-92400000D02*
X143245000Y-92400000D01*
G75*
G02*
X143385000Y-92540000I0J-140000D01*
G01*
X143385000Y-92820000D01*
G75*
G02*
X143245000Y-92960000I-140000J0D01*
G01*
X142905000Y-92960000D01*
G75*
G02*
X142765000Y-92820000I0J140000D01*
G01*
X142765000Y-92540000D01*
G75*
G02*
X142905000Y-92400000I140000J0D01*
G01*
G37*
%TD.AperFunction*%
%TO.P,C2,1*%
%TO.N,+1V5*%
%TA.AperFunction,SMDPad,CuDef*%
G36*
G01*
X142905000Y-91440000D02*
X143245000Y-91440000D01*
G75*
G02*
X143385000Y-91580000I0J-140000D01*
G01*
X143385000Y-91860000D01*
G75*
G02*
X143245000Y-92000000I-140000J0D01*
G01*
X142905000Y-92000000D01*
G75*
G02*
X142765000Y-91860000I0J140000D01*
G01*
X142765000Y-91580000D01*
G75*
G02*
X142905000Y-91440000I140000J0D01*
G01*
G37*
%TD.AperFunction*%
%TD*%
%TO.P,C1,2*%
%TO.N,GND*%
%TA.AperFunction,SMDPad,CuDef*%
G36*
G01*
X139675000Y-91775000D02*
X139675000Y-92275000D01*
G75*
G02*
X139450000Y-92500000I-225000J0D01*
G01*
X139000000Y-92500000D01*
G75*
G02*
X138775000Y-92275000I0J225000D01*
G01*
X138775000Y-91775000D01*
G75*
G02*
X139000000Y-91550000I225000J0D01*
G01*
X139450000Y-91550000D01*
G75*
G02*
X139675000Y-91775000I0J-225000D01*
G01*
G37*
%TD.AperFunction*%
%TO.P,C1,1*%
%TO.N,+1V5*%
%TA.AperFunction,SMDPad,CuDef*%
G36*
G01*
X141225000Y-91775000D02*
X141225000Y-92275000D01*
G75*
G02*
X141000000Y-92500000I-225000J0D01*
G01*
X140550000Y-92500000D01*
G75*
G02*
X140325000Y-92275000I0J225000D01*
G01*
X140325000Y-91775000D01*
G75*
G02*
X140550000Y-91550000I225000J0D01*
G01*
X141000000Y-91550000D01*
G75*
G02*
X141225000Y-91775000I0J-225000D01*
G01*
G37*
%TD.AperFunction*%
%TD*%
D10*
%TO.P,U2,A1*%
%TO.N,+1V5*%
X156165000Y-73550000D03*
%TO.P,U2,B1*%
%TO.N,GND*%
X156165000Y-74350000D03*
%TO.P,U2,C1*%
%TO.N,+1V5*%
X156165000Y-75150000D03*
%TO.P,U2,D1*%
%TO.N,GND*%
X156165000Y-75950000D03*
%TO.P,U2,E1*%
X156165000Y-76750000D03*
%TO.P,U2,F1*%
%TO.N,+1V5*%
X156165000Y-77550000D03*
%TO.P,U2,G1*%
%TO.N,GND*%
X156165000Y-78350000D03*
%TO.P,U2,H1*%
%TO.N,VREFDDR*%
X156165000Y-79150000D03*
%TO.P,U2,J1*%
%TO.N,Net-(U2-PadJ1)*%
X156165000Y-79950000D03*
%TO.P,U2,K1*%
%TO.N,/ODT0*%
X156165000Y-80750000D03*
%TO.P,U2,L1*%
%TO.N,Net-(U2-PadL1)*%
X156165000Y-81550000D03*
%TO.P,U2,M1*%
%TO.N,GND*%
X156165000Y-82350000D03*
%TO.P,U2,N1*%
%TO.N,+1V5*%
X156165000Y-83150000D03*
%TO.P,U2,P1*%
%TO.N,GND*%
X156165000Y-83950000D03*
%TO.P,U2,R1*%
%TO.N,+1V5*%
X156165000Y-84750000D03*
%TO.P,U2,T1*%
%TO.N,GND*%
X156165000Y-85550000D03*
%TO.P,U2,A2*%
%TO.N,/DQL7*%
X156965000Y-73550000D03*
%TO.P,U2,B2*%
%TO.N,+1V5*%
X156965000Y-74350000D03*
%TO.P,U2,C2*%
%TO.N,/DQL1*%
X156965000Y-75150000D03*
%TO.P,U2,D2*%
%TO.N,+1V5*%
X156965000Y-75950000D03*
%TO.P,U2,E2*%
%TO.N,GND*%
X156965000Y-76750000D03*
%TO.P,U2,F2*%
%TO.N,/DQU7*%
X156965000Y-77550000D03*
%TO.P,U2,G2*%
%TO.N,/DQU5*%
X156965000Y-78350000D03*
%TO.P,U2,H2*%
%TO.N,+1V5*%
X156965000Y-79150000D03*
%TO.P,U2,J2*%
%TO.N,GND*%
X156965000Y-79950000D03*
%TO.P,U2,K2*%
%TO.N,+1V5*%
X156965000Y-80750000D03*
%TO.P,U2,L2*%
%TO.N,/CS0#*%
X156965000Y-81550000D03*
%TO.P,U2,M2*%
%TO.N,/BA0*%
X156965000Y-82350000D03*
%TO.P,U2,N2*%
%TO.N,/A3*%
X156965000Y-83150000D03*
%TO.P,U2,P2*%
%TO.N,/A5*%
X156965000Y-83950000D03*
%TO.P,U2,R2*%
%TO.N,/A7*%
X156965000Y-84750000D03*
%TO.P,U2,T2*%
%TO.N,/RESET#*%
X156965000Y-85550000D03*
%TO.P,U2,A3*%
%TO.N,/DQL6*%
X157765000Y-73550000D03*
%TO.P,U2,B3*%
%TO.N,GND*%
X157765000Y-74350000D03*
%TO.P,U2,C3*%
%TO.N,/DQL2*%
X157765000Y-75150000D03*
%TO.P,U2,D3*%
%TO.N,/DML*%
X157765000Y-75950000D03*
%TO.P,U2,E3*%
%TO.N,/DQU0*%
X157765000Y-76750000D03*
%TO.P,U2,F3*%
%TO.N,/DQSU+*%
X157765000Y-77550000D03*
%TO.P,U2,G3*%
%TO.N,/DQSU-*%
X157765000Y-78350000D03*
%TO.P,U2,H3*%
%TO.N,/DQU6*%
X157765000Y-79150000D03*
%TO.P,U2,J3*%
%TO.N,/RAS#*%
X157765000Y-79950000D03*
%TO.P,U2,K3*%
%TO.N,/CAS#*%
X157765000Y-80750000D03*
%TO.P,U2,L3*%
%TO.N,/WE#*%
X157765000Y-81550000D03*
%TO.P,U2,M3*%
%TO.N,/BA2*%
X157765000Y-82350000D03*
%TO.P,U2,N3*%
%TO.N,/A0*%
X157765000Y-83150000D03*
%TO.P,U2,P3*%
%TO.N,/A2*%
X157765000Y-83950000D03*
%TO.P,U2,R3*%
%TO.N,/A9*%
X157765000Y-84750000D03*
%TO.P,U2,T3*%
%TO.N,/A13*%
X157765000Y-85550000D03*
%TO.P,U2,A7*%
%TO.N,/DQL4*%
X160965000Y-73550000D03*
%TO.P,U2,B7*%
%TO.N,/DQSL-*%
X160965000Y-74350000D03*
%TO.P,U2,C7*%
%TO.N,/DQSL+*%
X160965000Y-75150000D03*
%TO.P,U2,D7*%
%TO.N,/DQL0*%
X160965000Y-75950000D03*
%TO.P,U2,E7*%
%TO.N,/DMU*%
X160965000Y-76750000D03*
%TO.P,U2,F7*%
%TO.N,/DQU3*%
X160965000Y-77550000D03*
%TO.P,U2,G7*%
%TO.N,+1V5*%
X160965000Y-78350000D03*
%TO.P,U2,H7*%
%TO.N,/DQU4*%
X160965000Y-79150000D03*
%TO.P,U2,J7*%
%TO.N,/CK+*%
X160965000Y-79950000D03*
%TO.P,U2,K7*%
%TO.N,/CK-*%
X160965000Y-80750000D03*
%TO.P,U2,L7*%
%TO.N,/A10*%
X160965000Y-81550000D03*
%TO.P,U2,M7*%
%TO.N,Net-(U2-PadM7)*%
X160965000Y-82350000D03*
%TO.P,U2,N7*%
%TO.N,/A12*%
X160965000Y-83150000D03*
%TO.P,U2,P7*%
%TO.N,/A1*%
X160965000Y-83950000D03*
%TO.P,U2,R7*%
%TO.N,/A11*%
X160965000Y-84750000D03*
%TO.P,U2,T7*%
%TO.N,/A14*%
X160965000Y-85550000D03*
%TO.P,U2,A8*%
%TO.N,+1V5*%
X161765000Y-73550000D03*
%TO.P,U2,B8*%
%TO.N,/DQL5*%
X161765000Y-74350000D03*
%TO.P,U2,C8*%
%TO.N,/DQL3*%
X161765000Y-75150000D03*
%TO.P,U2,D8*%
%TO.N,GND*%
X161765000Y-75950000D03*
%TO.P,U2,E8*%
X161765000Y-76750000D03*
%TO.P,U2,F8*%
%TO.N,/DQU2*%
X161765000Y-77550000D03*
%TO.P,U2,G8*%
%TO.N,GND*%
X161765000Y-78350000D03*
%TO.P,U2,H8*%
%TO.N,/DQU1*%
X161765000Y-79150000D03*
%TO.P,U2,J8*%
%TO.N,GND*%
X161765000Y-79950000D03*
%TO.P,U2,K8*%
%TO.N,+1V5*%
X161765000Y-80750000D03*
%TO.P,U2,L8*%
%TO.N,/ZQ*%
X161765000Y-81550000D03*
%TO.P,U2,M8*%
%TO.N,VREFDDR*%
X161765000Y-82350000D03*
%TO.P,U2,N8*%
%TO.N,/BA1*%
X161765000Y-83150000D03*
%TO.P,U2,P8*%
%TO.N,/A4*%
X161765000Y-83950000D03*
%TO.P,U2,R8*%
%TO.N,/A6*%
X161765000Y-84750000D03*
%TO.P,U2,T8*%
%TO.N,/A8*%
X161765000Y-85550000D03*
%TO.P,U2,A9*%
%TO.N,GND*%
X162565000Y-73550000D03*
%TO.P,U2,B9*%
X162565000Y-74350000D03*
%TO.P,U2,C9*%
%TO.N,+1V5*%
X162565000Y-75150000D03*
%TO.P,U2,D9*%
X162565000Y-75950000D03*
%TO.P,U2,E9*%
X162565000Y-76750000D03*
%TO.P,U2,F9*%
%TO.N,GND*%
X162565000Y-77550000D03*
%TO.P,U2,G9*%
X162565000Y-78350000D03*
%TO.P,U2,H9*%
%TO.N,+1V5*%
X162565000Y-79150000D03*
%TO.P,U2,J9*%
%TO.N,Net-(U2-PadJ9)*%
X162565000Y-79950000D03*
%TO.P,U2,K9*%
%TO.N,/CKE0*%
X162565000Y-80750000D03*
%TO.P,U2,L9*%
%TO.N,Net-(U2-PadL9)*%
X162565000Y-81550000D03*
%TO.P,U2,M9*%
%TO.N,GND*%
X162565000Y-82350000D03*
%TO.P,U2,N9*%
%TO.N,+1V5*%
X162565000Y-83150000D03*
%TO.P,U2,P9*%
%TO.N,GND*%
X162565000Y-83950000D03*
%TO.P,U2,R9*%
%TO.N,+1V5*%
X162565000Y-84750000D03*
%TO.P,U2,T9*%
%TO.N,GND*%
X162565000Y-85550000D03*
%TD*%
%TO.P,R7,2*%
%TO.N,VREFDDR*%
%TA.AperFunction,SMDPad,CuDef*%
G36*
G01*
X164235000Y-85890000D02*
X164235000Y-86260000D01*
G75*
G02*
X164100000Y-86395000I-135000J0D01*
G01*
X163830000Y-86395000D01*
G75*
G02*
X163695000Y-86260000I0J135000D01*
G01*
X163695000Y-85890000D01*
G75*
G02*
X163830000Y-85755000I135000J0D01*
G01*
X164100000Y-85755000D01*
G75*
G02*
X164235000Y-85890000I0J-135000D01*
G01*
G37*
%TD.AperFunction*%
%TO.P,R7,1*%
%TO.N,GND*%
%TA.AperFunction,SMDPad,CuDef*%
G36*
G01*
X165255000Y-85890000D02*
X165255000Y-86260000D01*
G75*
G02*
X165120000Y-86395000I-135000J0D01*
G01*
X164850000Y-86395000D01*
G75*
G02*
X164715000Y-86260000I0J135000D01*
G01*
X164715000Y-85890000D01*
G75*
G02*
X164850000Y-85755000I135000J0D01*
G01*
X165120000Y-85755000D01*
G75*
G02*
X165255000Y-85890000I0J-135000D01*
G01*
G37*
%TD.AperFunction*%
%TD*%
%TO.P,R6,2*%
%TO.N,+1V5*%
%TA.AperFunction,SMDPad,CuDef*%
G36*
G01*
X164715000Y-83260000D02*
X164715000Y-82890000D01*
G75*
G02*
X164850000Y-82755000I135000J0D01*
G01*
X165120000Y-82755000D01*
G75*
G02*
X165255000Y-82890000I0J-135000D01*
G01*
X165255000Y-83260000D01*
G75*
G02*
X165120000Y-83395000I-135000J0D01*
G01*
X164850000Y-83395000D01*
G75*
G02*
X164715000Y-83260000I0J135000D01*
G01*
G37*
%TD.AperFunction*%
%TO.P,R6,1*%
%TO.N,VREFDDR*%
%TA.AperFunction,SMDPad,CuDef*%
G36*
G01*
X163695000Y-83260000D02*
X163695000Y-82890000D01*
G75*
G02*
X163830000Y-82755000I135000J0D01*
G01*
X164100000Y-82755000D01*
G75*
G02*
X164235000Y-82890000I0J-135000D01*
G01*
X164235000Y-83260000D01*
G75*
G02*
X164100000Y-83395000I-135000J0D01*
G01*
X163830000Y-83395000D01*
G75*
G02*
X163695000Y-83260000I0J135000D01*
G01*
G37*
%TD.AperFunction*%
%TD*%
%TO.P,C45,2*%
%TO.N,GND*%
%TA.AperFunction,SMDPad,CuDef*%
G36*
G01*
X164655000Y-85245000D02*
X164655000Y-84905000D01*
G75*
G02*
X164795000Y-84765000I140000J0D01*
G01*
X165075000Y-84765000D01*
G75*
G02*
X165215000Y-84905000I0J-140000D01*
G01*
X165215000Y-85245000D01*
G75*
G02*
X165075000Y-85385000I-140000J0D01*
G01*
X164795000Y-85385000D01*
G75*
G02*
X164655000Y-85245000I0J140000D01*
G01*
G37*
%TD.AperFunction*%
%TO.P,C45,1*%
%TO.N,VREFDDR*%
%TA.AperFunction,SMDPad,CuDef*%
G36*
G01*
X163695000Y-85245000D02*
X163695000Y-84905000D01*
G75*
G02*
X163835000Y-84765000I140000J0D01*
G01*
X164115000Y-84765000D01*
G75*
G02*
X164255000Y-84905000I0J-140000D01*
G01*
X164255000Y-85245000D01*
G75*
G02*
X164115000Y-85385000I-140000J0D01*
G01*
X163835000Y-85385000D01*
G75*
G02*
X163695000Y-85245000I0J140000D01*
G01*
G37*
%TD.AperFunction*%
%TD*%
%TO.P,C44,2*%
%TO.N,VREFDDR*%
%TA.AperFunction,SMDPad,CuDef*%
G36*
G01*
X164250000Y-83905000D02*
X164250000Y-84245000D01*
G75*
G02*
X164110000Y-84385000I-140000J0D01*
G01*
X163830000Y-84385000D01*
G75*
G02*
X163690000Y-84245000I0J140000D01*
G01*
X163690000Y-83905000D01*
G75*
G02*
X163830000Y-83765000I140000J0D01*
G01*
X164110000Y-83765000D01*
G75*
G02*
X164250000Y-83905000I0J-140000D01*
G01*
G37*
%TD.AperFunction*%
%TO.P,C44,1*%
%TO.N,+1V5*%
%TA.AperFunction,SMDPad,CuDef*%
G36*
G01*
X165210000Y-83905000D02*
X165210000Y-84245000D01*
G75*
G02*
X165070000Y-84385000I-140000J0D01*
G01*
X164790000Y-84385000D01*
G75*
G02*
X164650000Y-84245000I0J140000D01*
G01*
X164650000Y-83905000D01*
G75*
G02*
X164790000Y-83765000I140000J0D01*
G01*
X165070000Y-83765000D01*
G75*
G02*
X165210000Y-83905000I0J-140000D01*
G01*
G37*
%TD.AperFunction*%
%TD*%
%TO.P,C25,2*%
%TO.N,GND*%
%TA.AperFunction,SMDPad,CuDef*%
G36*
G01*
X162650000Y-72070000D02*
X162650000Y-71730000D01*
G75*
G02*
X162790000Y-71590000I140000J0D01*
G01*
X163070000Y-71590000D01*
G75*
G02*
X163210000Y-71730000I0J-140000D01*
G01*
X163210000Y-72070000D01*
G75*
G02*
X163070000Y-72210000I-140000J0D01*
G01*
X162790000Y-72210000D01*
G75*
G02*
X162650000Y-72070000I0J140000D01*
G01*
G37*
%TD.AperFunction*%
%TO.P,C25,1*%
%TO.N,+1V5*%
%TA.AperFunction,SMDPad,CuDef*%
G36*
G01*
X161690000Y-72070000D02*
X161690000Y-71730000D01*
G75*
G02*
X161830000Y-71590000I140000J0D01*
G01*
X162110000Y-71590000D01*
G75*
G02*
X162250000Y-71730000I0J-140000D01*
G01*
X162250000Y-72070000D01*
G75*
G02*
X162110000Y-72210000I-140000J0D01*
G01*
X161830000Y-72210000D01*
G75*
G02*
X161690000Y-72070000I0J140000D01*
G01*
G37*
%TD.AperFunction*%
%TD*%
%TO.P,C23,2*%
%TO.N,GND*%
%TA.AperFunction,SMDPad,CuDef*%
G36*
G01*
X164625000Y-76870000D02*
X164625000Y-76530000D01*
G75*
G02*
X164765000Y-76390000I140000J0D01*
G01*
X165045000Y-76390000D01*
G75*
G02*
X165185000Y-76530000I0J-140000D01*
G01*
X165185000Y-76870000D01*
G75*
G02*
X165045000Y-77010000I-140000J0D01*
G01*
X164765000Y-77010000D01*
G75*
G02*
X164625000Y-76870000I0J140000D01*
G01*
G37*
%TD.AperFunction*%
%TO.P,C23,1*%
%TO.N,+1V5*%
%TA.AperFunction,SMDPad,CuDef*%
G36*
G01*
X163665000Y-76870000D02*
X163665000Y-76530000D01*
G75*
G02*
X163805000Y-76390000I140000J0D01*
G01*
X164085000Y-76390000D01*
G75*
G02*
X164225000Y-76530000I0J-140000D01*
G01*
X164225000Y-76870000D01*
G75*
G02*
X164085000Y-77010000I-140000J0D01*
G01*
X163805000Y-77010000D01*
G75*
G02*
X163665000Y-76870000I0J140000D01*
G01*
G37*
%TD.AperFunction*%
%TD*%
%TO.P,C21,2*%
%TO.N,GND*%
%TA.AperFunction,SMDPad,CuDef*%
G36*
G01*
X162275000Y-88775000D02*
X162775000Y-88775000D01*
G75*
G02*
X163000000Y-89000000I0J-225000D01*
G01*
X163000000Y-89450000D01*
G75*
G02*
X162775000Y-89675000I-225000J0D01*
G01*
X162275000Y-89675000D01*
G75*
G02*
X162050000Y-89450000I0J225000D01*
G01*
X162050000Y-89000000D01*
G75*
G02*
X162275000Y-88775000I225000J0D01*
G01*
G37*
%TD.AperFunction*%
%TO.P,C21,1*%
%TO.N,+1V5*%
%TA.AperFunction,SMDPad,CuDef*%
G36*
G01*
X162275000Y-87225000D02*
X162775000Y-87225000D01*
G75*
G02*
X163000000Y-87450000I0J-225000D01*
G01*
X163000000Y-87900000D01*
G75*
G02*
X162775000Y-88125000I-225000J0D01*
G01*
X162275000Y-88125000D01*
G75*
G02*
X162050000Y-87900000I0J225000D01*
G01*
X162050000Y-87450000D01*
G75*
G02*
X162275000Y-87225000I225000J0D01*
G01*
G37*
%TD.AperFunction*%
%TD*%
%TO.P,R5,2*%
%TO.N,/CK+*%
%TA.AperFunction,SMDPad,CuDef*%
G36*
G01*
X164210000Y-79215000D02*
X164210000Y-79585000D01*
G75*
G02*
X164075000Y-79720000I-135000J0D01*
G01*
X163805000Y-79720000D01*
G75*
G02*
X163670000Y-79585000I0J135000D01*
G01*
X163670000Y-79215000D01*
G75*
G02*
X163805000Y-79080000I135000J0D01*
G01*
X164075000Y-79080000D01*
G75*
G02*
X164210000Y-79215000I0J-135000D01*
G01*
G37*
%TD.AperFunction*%
%TO.P,R5,1*%
%TO.N,/CK-*%
%TA.AperFunction,SMDPad,CuDef*%
G36*
G01*
X165230000Y-79215000D02*
X165230000Y-79585000D01*
G75*
G02*
X165095000Y-79720000I-135000J0D01*
G01*
X164825000Y-79720000D01*
G75*
G02*
X164690000Y-79585000I0J135000D01*
G01*
X164690000Y-79215000D01*
G75*
G02*
X164825000Y-79080000I135000J0D01*
G01*
X165095000Y-79080000D01*
G75*
G02*
X165230000Y-79215000I0J-135000D01*
G01*
G37*
%TD.AperFunction*%
%TD*%
%TO.P,C47,2*%
%TO.N,/DQSL-*%
%TA.AperFunction,SMDPad,CuDef*%
G36*
G01*
X164225000Y-73630000D02*
X164225000Y-73970000D01*
G75*
G02*
X164085000Y-74110000I-140000J0D01*
G01*
X163805000Y-74110000D01*
G75*
G02*
X163665000Y-73970000I0J140000D01*
G01*
X163665000Y-73630000D01*
G75*
G02*
X163805000Y-73490000I140000J0D01*
G01*
X164085000Y-73490000D01*
G75*
G02*
X164225000Y-73630000I0J-140000D01*
G01*
G37*
%TD.AperFunction*%
%TO.P,C47,1*%
%TO.N,/DQSL+*%
%TA.AperFunction,SMDPad,CuDef*%
G36*
G01*
X165185000Y-73630000D02*
X165185000Y-73970000D01*
G75*
G02*
X165045000Y-74110000I-140000J0D01*
G01*
X164765000Y-74110000D01*
G75*
G02*
X164625000Y-73970000I0J140000D01*
G01*
X164625000Y-73630000D01*
G75*
G02*
X164765000Y-73490000I140000J0D01*
G01*
X165045000Y-73490000D01*
G75*
G02*
X165185000Y-73630000I0J-140000D01*
G01*
G37*
%TD.AperFunction*%
%TD*%
%TO.P,C46,2*%
%TO.N,/DQSU-*%
%TA.AperFunction,SMDPad,CuDef*%
G36*
G01*
X164625000Y-77920000D02*
X164625000Y-77580000D01*
G75*
G02*
X164765000Y-77440000I140000J0D01*
G01*
X165045000Y-77440000D01*
G75*
G02*
X165185000Y-77580000I0J-140000D01*
G01*
X165185000Y-77920000D01*
G75*
G02*
X165045000Y-78060000I-140000J0D01*
G01*
X164765000Y-78060000D01*
G75*
G02*
X164625000Y-77920000I0J140000D01*
G01*
G37*
%TD.AperFunction*%
%TO.P,C46,1*%
%TO.N,/DQSU+*%
%TA.AperFunction,SMDPad,CuDef*%
G36*
G01*
X163665000Y-77920000D02*
X163665000Y-77580000D01*
G75*
G02*
X163805000Y-77440000I140000J0D01*
G01*
X164085000Y-77440000D01*
G75*
G02*
X164225000Y-77580000I0J-140000D01*
G01*
X164225000Y-77920000D01*
G75*
G02*
X164085000Y-78060000I-140000J0D01*
G01*
X163805000Y-78060000D01*
G75*
G02*
X163665000Y-77920000I0J140000D01*
G01*
G37*
%TD.AperFunction*%
%TD*%
D25*
%TO.N,GND*%
X125100000Y-104860000D03*
X123450000Y-104820000D03*
X122675000Y-105500000D03*
X124370000Y-105525000D03*
X125850000Y-105550000D03*
X125800000Y-104225000D03*
X124340000Y-104170000D03*
X122675000Y-104225000D03*
X123100000Y-72310000D03*
X124790000Y-72270000D03*
X125525000Y-73000000D03*
X124090000Y-73000000D03*
X122400000Y-73000000D03*
X122400000Y-71700000D03*
X123990000Y-71680000D03*
X125500000Y-71700000D03*
X162175000Y-76350000D03*
X162975000Y-73950000D03*
X162175000Y-77950000D03*
X155775000Y-82750000D03*
X156575000Y-76350000D03*
X133880000Y-78915000D03*
X133070000Y-77315000D03*
X136270000Y-78135000D03*
X135490000Y-86125000D03*
X155775000Y-73950000D03*
X162975000Y-73150000D03*
X157375000Y-73950000D03*
X142675000Y-80525000D03*
X155925000Y-86100000D03*
X145075000Y-88525000D03*
X141075000Y-88525000D03*
X137900000Y-88525000D03*
X133050000Y-90925000D03*
X135475000Y-88525000D03*
X162975000Y-84375000D03*
X141075000Y-86125000D03*
X141075000Y-82125000D03*
X137850000Y-82150000D03*
X137875000Y-86125000D03*
X139475000Y-86925000D03*
X139475000Y-81325000D03*
X141875000Y-83725000D03*
X137075000Y-84525000D03*
X155406310Y-83606310D03*
X142675000Y-84525000D03*
X144275000Y-79725000D03*
X145075000Y-80525000D03*
X141075000Y-78925000D03*
X156574998Y-79550000D03*
X145075000Y-86125004D03*
X144275000Y-82125000D03*
X162178014Y-79552941D03*
X156550006Y-77950000D03*
X142675000Y-79724996D03*
X163025000Y-86049998D03*
X165775000Y-86075000D03*
X163025000Y-82775000D03*
X163325000Y-88475000D03*
X165750000Y-81550000D03*
X165650000Y-76200000D03*
X165625000Y-72700000D03*
X163675000Y-71875000D03*
X153975000Y-78325000D03*
X130300000Y-80075000D03*
X132775000Y-75225000D03*
X133775000Y-74575000D03*
X136700000Y-74650000D03*
X138750000Y-74675000D03*
X130550000Y-81325000D03*
X130575000Y-88975000D03*
X133425000Y-93375000D03*
X134425000Y-93350000D03*
X138475000Y-92825000D03*
X142575000Y-93350000D03*
X144550000Y-93475000D03*
X146800000Y-91000000D03*
X138675000Y-78925000D03*
X146700000Y-76900000D03*
X121700000Y-81950000D03*
X126575000Y-82050000D03*
X127200000Y-95230000D03*
X121850000Y-95300000D03*
X164420000Y-101270000D03*
X154990000Y-106210000D03*
X129420000Y-87460000D03*
%TO.N,+3V3*%
X141875000Y-87725000D03*
X143475000Y-89325000D03*
X136261918Y-82123999D03*
X137080598Y-80505349D03*
X136275000Y-84525000D03*
X136275000Y-86925000D03*
X143475000Y-86925000D03*
X136175000Y-77050000D03*
X125300000Y-99925000D03*
X157075000Y-106100000D03*
%TO.N,+1V5*%
X162975000Y-76350000D03*
X156575000Y-73950000D03*
X156550000Y-82750000D03*
X162975000Y-83550000D03*
X162975000Y-79550000D03*
X139475000Y-83725000D03*
X139475000Y-84525000D03*
X139475000Y-82925000D03*
X139475000Y-85325000D03*
X142675000Y-85325000D03*
X142675000Y-82125000D03*
X162150000Y-73125000D03*
X163025000Y-75575004D03*
X157350000Y-79550000D03*
X162175000Y-81150000D03*
X157350000Y-81150000D03*
X155575364Y-84774011D03*
X161378014Y-77952941D03*
X157375000Y-76350000D03*
X155750000Y-77950000D03*
X155375000Y-75499510D03*
X163000000Y-85150000D03*
X165800000Y-83075000D03*
X162800000Y-86750000D03*
X141525000Y-91200000D03*
X143600000Y-91025000D03*
X123250000Y-77150000D03*
%TO.N,VREFDDR*%
X155695998Y-79625000D03*
X161375000Y-81950000D03*
X144275000Y-80525000D03*
X162175000Y-82750000D03*
X163965000Y-83075000D03*
%TO.N,/SOC_CAP*%
X138675000Y-82925000D03*
X140275000Y-82925000D03*
X140275000Y-85325000D03*
X136900000Y-91250000D03*
%TO.N,/ARM_CAP*%
X138675000Y-85325000D03*
X132725000Y-86425000D03*
%TO.N,/NVCC_PLL*%
X136275000Y-80525000D03*
X134900000Y-77050000D03*
%TO.N,/SNVS_CAP*%
X137200000Y-77075000D03*
X137875000Y-80525000D03*
%TO.N,/HIGH_CAP*%
X135500000Y-78950000D03*
X132800000Y-80700000D03*
%TO.N,/VDD_HIGH_CAP*%
X141875000Y-80525000D03*
X139725000Y-77100000D03*
%TO.N,/DQSU-*%
X145875000Y-78925000D03*
X164900000Y-78325000D03*
X158375000Y-78375000D03*
%TO.N,/DQSU+*%
X145875000Y-78125000D03*
X163950000Y-78325000D03*
X158500000Y-77625000D03*
%TO.N,/DQSL-*%
X160550000Y-73950000D03*
X141075000Y-79725000D03*
X163950000Y-74375000D03*
%TO.N,/DQSL+*%
X160550000Y-74750000D03*
X141875000Y-79725000D03*
X164900000Y-74375000D03*
%TO.N,/RESET#*%
X157375000Y-85975000D03*
X145875000Y-86925000D03*
%TO.N,/CKE0*%
X145075000Y-82125000D03*
X162975000Y-81150000D03*
%TO.N,/ZQPAD*%
X143474988Y-80525000D03*
X138650000Y-77200000D03*
%TO.N,/CK+*%
X161375000Y-80350000D03*
X147425000Y-79900000D03*
X163950000Y-79975000D03*
%TO.N,/CK-*%
X160550000Y-80350000D03*
X147030141Y-80526989D03*
X164975000Y-79975000D03*
%TO.N,/A13*%
X145075000Y-85325000D03*
X157375000Y-85150000D03*
%TO.N,/A7*%
X144275000Y-85325000D03*
X156575000Y-85150000D03*
%TO.N,/A8*%
X144275000Y-84525000D03*
X162150000Y-85975000D03*
%TO.N,/A11*%
X145075000Y-83725000D03*
X161349996Y-84350000D03*
%TO.N,/A4*%
X143475000Y-83725000D03*
X162175000Y-84350000D03*
%TO.N,/A12*%
X144270721Y-82913220D03*
X160550000Y-82750000D03*
%TO.N,/A0*%
X143475000Y-82925000D03*
X158175000Y-83550000D03*
%TO.N,/A10*%
X143480598Y-82105349D03*
X160375000Y-81700000D03*
%TO.N,/RAS#*%
X143475000Y-81325000D03*
X158425000Y-80525000D03*
%TO.N,/DQU5*%
X145070721Y-79729221D03*
X157375000Y-77950000D03*
%TO.N,/DQU4*%
X143480518Y-79725000D03*
X158825000Y-76725000D03*
%TO.N,/DQU3*%
X144275000Y-78125000D03*
X159761897Y-76784948D03*
%TO.N,/DMU*%
X161375000Y-76350000D03*
X145075000Y-78925000D03*
%TO.N,/DQL0*%
X143475000Y-78925000D03*
X160550000Y-76350000D03*
%TO.N,/DQU0*%
X158175000Y-76350000D03*
X145874996Y-77225000D03*
%TO.N,/DQU1*%
X144900500Y-77150000D03*
X159012500Y-75612500D03*
%TO.N,/DQU2*%
X143475000Y-78125000D03*
X160100000Y-75800000D03*
%TO.N,/DQL3*%
X160025000Y-73150000D03*
X158875000Y-71850000D03*
%TO.N,/SD_CLK*%
X157850000Y-98725000D03*
X155975000Y-103575000D03*
%TO.N,/SD_CMD*%
X158175000Y-102450000D03*
X158175000Y-105775000D03*
%TO.N,/SD_D1*%
X152150000Y-99150000D03*
X152700000Y-105600000D03*
%TD*%
D26*
%TO.N,GND*%
X162565000Y-74350000D02*
X162565000Y-74360000D01*
X161775000Y-76750000D02*
X162175000Y-76350000D01*
X161765000Y-76750000D02*
X161775000Y-76750000D01*
X162565000Y-77550000D02*
X162575000Y-77550000D01*
X162575000Y-74350000D02*
X162975000Y-73950000D01*
X162565000Y-74350000D02*
X162575000Y-74350000D01*
X162565000Y-78350000D02*
X162575000Y-78350000D01*
X161775000Y-78350000D02*
X162175000Y-77950000D01*
X161765000Y-78350000D02*
X161775000Y-78350000D01*
X156165000Y-82360000D02*
X155775000Y-82750000D01*
X156165000Y-82350000D02*
X156165000Y-82360000D01*
X156165000Y-75950000D02*
X156165000Y-75960000D01*
X156165000Y-76750000D02*
X156165000Y-76760000D01*
X156165000Y-78350000D02*
X156165000Y-78360000D01*
X156965000Y-76740000D02*
X156575000Y-76350000D01*
X156965000Y-76750000D02*
X156965000Y-76740000D01*
X156965000Y-79950000D02*
X156965000Y-79940000D01*
X134281500Y-79316500D02*
X133880000Y-78915000D01*
X134281500Y-79324000D02*
X134281500Y-79316500D01*
X133880000Y-78925500D02*
X133481500Y-79324000D01*
X133880000Y-78915000D02*
X133880000Y-78925500D01*
X133479000Y-77724000D02*
X133070000Y-77315000D01*
X135881500Y-78523500D02*
X136270000Y-78135000D01*
X135881500Y-78524000D02*
X135881500Y-78523500D01*
X135881500Y-77746500D02*
X136270000Y-78135000D01*
X135881500Y-77724000D02*
X135881500Y-77746500D01*
X135089000Y-85724000D02*
X135490000Y-86125000D01*
X135081500Y-85724000D02*
X135089000Y-85724000D01*
X156165000Y-74340000D02*
X155775000Y-73950000D01*
X156165000Y-74350000D02*
X156165000Y-74340000D01*
X156175000Y-76750000D02*
X156575000Y-76350000D01*
X156165000Y-76750000D02*
X156175000Y-76750000D01*
X156175000Y-75950000D02*
X156575000Y-76350000D01*
X156165000Y-75950000D02*
X156175000Y-75950000D01*
X162565000Y-77560000D02*
X162175000Y-77950000D01*
X162565000Y-77550000D02*
X162565000Y-77560000D01*
X162565000Y-78340000D02*
X162175000Y-77950000D01*
X162565000Y-78350000D02*
X162565000Y-78340000D01*
X161775000Y-75950000D02*
X162175000Y-76350000D01*
X161765000Y-75950000D02*
X161775000Y-75950000D01*
X162565000Y-73550000D02*
X162575000Y-73550000D01*
X162575000Y-73550000D02*
X162975000Y-73150000D01*
X157765000Y-74340000D02*
X157375000Y-73950000D01*
X157765000Y-74350000D02*
X157765000Y-74340000D01*
X143081500Y-80924000D02*
X143081500Y-80918500D01*
X144681500Y-79324000D02*
X144681500Y-79318500D01*
D27*
X144681500Y-85724000D02*
X144681500Y-85731500D01*
D26*
X143074000Y-80924000D02*
X142675000Y-80525000D01*
X143081500Y-80924000D02*
X143074000Y-80924000D01*
X156165000Y-85550000D02*
X156165000Y-85860000D01*
X156165000Y-85860000D02*
X155925000Y-86100000D01*
X144681500Y-88918500D02*
X145075000Y-88525000D01*
X144681500Y-88924000D02*
X144681500Y-88918500D01*
X141474000Y-88924000D02*
X141075000Y-88525000D01*
X141481500Y-88924000D02*
X141474000Y-88924000D01*
X138281500Y-88906500D02*
X137900000Y-88525000D01*
X138281500Y-88924000D02*
X138281500Y-88906500D01*
X133451000Y-90524000D02*
X133050000Y-90925000D01*
X133481500Y-90524000D02*
X133451000Y-90524000D01*
X135081500Y-88918500D02*
X135475000Y-88525000D01*
X135081500Y-88924000D02*
X135081500Y-88918500D01*
X134281500Y-79324000D02*
X135081500Y-80124000D01*
X162565000Y-83965000D02*
X162975000Y-84375000D01*
X162565000Y-83950000D02*
X162565000Y-83965000D01*
X162565000Y-83950000D02*
X162575000Y-83950000D01*
X143081500Y-85724000D02*
X142281500Y-86524000D01*
X141481500Y-81724000D02*
X141481500Y-80924000D01*
X140681500Y-87324000D02*
X140681500Y-86524000D01*
X138281500Y-87324000D02*
X138281500Y-86524000D01*
X140681500Y-86518500D02*
X141075000Y-86125000D01*
X140681500Y-86524000D02*
X140681500Y-86518500D01*
X141474000Y-86524000D02*
X141075000Y-86125000D01*
X141481500Y-86524000D02*
X141474000Y-86524000D01*
X141476000Y-85724000D02*
X141075000Y-86125000D01*
X141481500Y-85724000D02*
X141476000Y-85724000D01*
X141476000Y-81724000D02*
X141075000Y-82125000D01*
X141481500Y-81724000D02*
X141476000Y-81724000D01*
X141474000Y-82524000D02*
X141075000Y-82125000D01*
X141481500Y-82524000D02*
X141474000Y-82524000D01*
X141075000Y-82117500D02*
X140681500Y-81724000D01*
X141075000Y-82125000D02*
X141075000Y-82117500D01*
X137481500Y-82518500D02*
X137850000Y-82150000D01*
X137481500Y-82524000D02*
X137481500Y-82518500D01*
X137855500Y-82150000D02*
X138281500Y-81724000D01*
X137850000Y-82150000D02*
X137855500Y-82150000D01*
X137850000Y-82092500D02*
X137481500Y-81724000D01*
X137850000Y-82150000D02*
X137850000Y-82092500D01*
X137481500Y-86518500D02*
X137875000Y-86125000D01*
X137481500Y-86524000D02*
X137481500Y-86518500D01*
X138274000Y-86524000D02*
X137875000Y-86125000D01*
X138281500Y-86524000D02*
X138274000Y-86524000D01*
X137875000Y-86117500D02*
X137481500Y-85724000D01*
X137875000Y-86125000D02*
X137875000Y-86117500D01*
X137481500Y-85724000D02*
X137481500Y-84924000D01*
X137481500Y-82524000D02*
X137481500Y-83324000D01*
X138281500Y-86524000D02*
X139081500Y-86524000D01*
X139081500Y-86531500D02*
X139475000Y-86925000D01*
X139081500Y-86524000D02*
X139081500Y-86531500D01*
X139876000Y-86524000D02*
X139475000Y-86925000D01*
X139881500Y-86524000D02*
X139876000Y-86524000D01*
X139881500Y-86524000D02*
X140681500Y-86524000D01*
X138281500Y-81724000D02*
X139081500Y-81724000D01*
X139081500Y-81718500D02*
X139475000Y-81325000D01*
X139081500Y-81724000D02*
X139081500Y-81718500D01*
X139874000Y-81724000D02*
X139475000Y-81325000D01*
X139881500Y-81724000D02*
X139874000Y-81724000D01*
X139881500Y-81724000D02*
X140681500Y-81724000D01*
X141481500Y-85724000D02*
X141481500Y-84924000D01*
X141481500Y-82524000D02*
X141481500Y-83324000D01*
X141481500Y-83331500D02*
X141875000Y-83725000D01*
X141481500Y-83324000D02*
X141481500Y-83331500D01*
X141481500Y-84118500D02*
X141875000Y-83725000D01*
X141481500Y-84124000D02*
X141481500Y-84118500D01*
X141481500Y-84924000D02*
X141481500Y-84124000D01*
X137474000Y-84924000D02*
X137075000Y-84525000D01*
X137481500Y-84924000D02*
X137474000Y-84924000D01*
X137476000Y-84124000D02*
X137075000Y-84525000D01*
X137481500Y-84124000D02*
X137476000Y-84124000D01*
X137481500Y-84124000D02*
X137481500Y-83324000D01*
X142281500Y-86524000D02*
X141481500Y-86524000D01*
X155750000Y-83950000D02*
X155406310Y-83606310D01*
X156165000Y-83950000D02*
X155750000Y-83950000D01*
X143081500Y-84124000D02*
X142680500Y-84525000D01*
X143081500Y-84131500D02*
X143081500Y-84124000D01*
X142680500Y-84525000D02*
X142675000Y-84525000D01*
X144681500Y-79324000D02*
X144676000Y-79324000D01*
X144676000Y-79324000D02*
X144275000Y-79725000D01*
X144681500Y-80918500D02*
X145075000Y-80525000D01*
X144681500Y-80924000D02*
X144681500Y-80918500D01*
X141474000Y-79324000D02*
X141075000Y-78925000D01*
X141481500Y-79324000D02*
X141474000Y-79324000D01*
X156965000Y-79950000D02*
X156574998Y-79559998D01*
X156574998Y-79559998D02*
X156574998Y-79550000D01*
X144681500Y-85724000D02*
X145075000Y-86117500D01*
X145075000Y-86117500D02*
X145075000Y-86125004D01*
X144681500Y-82524000D02*
X144282500Y-82125000D01*
X144282500Y-82125000D02*
X144275000Y-82125000D01*
X162162059Y-79552941D02*
X162178014Y-79552941D01*
X161765000Y-79950000D02*
X162162059Y-79552941D01*
X156165000Y-78350000D02*
X156550006Y-77964994D01*
X156550006Y-77964994D02*
X156550006Y-77950000D01*
X143081500Y-79324000D02*
X142680504Y-79724996D01*
X142680504Y-79724996D02*
X142675000Y-79724996D01*
X162565000Y-85550000D02*
X163025000Y-86010000D01*
X163025000Y-86010000D02*
X163025000Y-86049998D01*
X164935000Y-86025000D02*
X164985000Y-86075000D01*
X164935000Y-85075000D02*
X164935000Y-86025000D01*
X164985000Y-86075000D02*
X165775000Y-86075000D01*
X162990000Y-82775000D02*
X163025000Y-82775000D01*
X162565000Y-82350000D02*
X162990000Y-82775000D01*
X162575000Y-89225000D02*
X163325000Y-88475000D01*
X162525000Y-89225000D02*
X162575000Y-89225000D01*
X164930000Y-86130000D02*
X164985000Y-86075000D01*
X164930000Y-87100000D02*
X164930000Y-86130000D01*
X165250000Y-82050000D02*
X165750000Y-81550000D01*
X164985000Y-82050000D02*
X165250000Y-82050000D01*
X165225000Y-81025000D02*
X165750000Y-81550000D01*
X164985000Y-81025000D02*
X165225000Y-81025000D01*
X165150000Y-76700000D02*
X165650000Y-76200000D01*
X164905000Y-76700000D02*
X165150000Y-76700000D01*
X165125000Y-75675000D02*
X165650000Y-76200000D01*
X164905000Y-75675000D02*
X165125000Y-75675000D01*
X165600000Y-72725000D02*
X165625000Y-72700000D01*
X164905000Y-72725000D02*
X165600000Y-72725000D01*
X163650000Y-71900000D02*
X163675000Y-71875000D01*
X162930000Y-71900000D02*
X163650000Y-71900000D01*
X154345000Y-78695000D02*
X153975000Y-78325000D01*
X154750000Y-78695000D02*
X154345000Y-78695000D01*
X130325000Y-80100000D02*
X130300000Y-80075000D01*
X131045000Y-80100000D02*
X130325000Y-80100000D01*
X130300000Y-78925000D02*
X129875000Y-78500000D01*
X130300000Y-80075000D02*
X130300000Y-78925000D01*
X131575000Y-75155000D02*
X132005000Y-74725000D01*
X131575000Y-76300000D02*
X131575000Y-75155000D01*
X132275000Y-74725000D02*
X132775000Y-75225000D01*
X132005000Y-74725000D02*
X132275000Y-74725000D01*
X133625000Y-74725000D02*
X133775000Y-74575000D01*
X133625000Y-75395000D02*
X133625000Y-74725000D01*
X133825000Y-74525000D02*
X133775000Y-74575000D01*
X134900000Y-74525000D02*
X133825000Y-74525000D01*
X136175000Y-75175000D02*
X136700000Y-74650000D01*
X136175000Y-75390000D02*
X136175000Y-75175000D01*
X137200000Y-75150000D02*
X136700000Y-74650000D01*
X137200000Y-75395000D02*
X137200000Y-75150000D01*
X138225000Y-75200000D02*
X138750000Y-74675000D01*
X138225000Y-75340000D02*
X138225000Y-75200000D01*
X139250000Y-75175000D02*
X138750000Y-74675000D01*
X139250000Y-75395000D02*
X139250000Y-75175000D01*
X130575000Y-81350000D02*
X130550000Y-81325000D01*
X131295000Y-81350000D02*
X130575000Y-81350000D01*
X131075000Y-88475000D02*
X130575000Y-88975000D01*
X131295000Y-88475000D02*
X131075000Y-88475000D01*
X131075000Y-89475000D02*
X130575000Y-88975000D01*
X131295000Y-89475000D02*
X131075000Y-89475000D01*
X132925000Y-92875000D02*
X133425000Y-93375000D01*
X132925000Y-92680000D02*
X132925000Y-92875000D01*
X133925000Y-92875000D02*
X133425000Y-93375000D01*
X133925000Y-92680000D02*
X133925000Y-92875000D01*
X133925000Y-92850000D02*
X134425000Y-93350000D01*
X133925000Y-92680000D02*
X133925000Y-92850000D01*
X134925000Y-92850000D02*
X134425000Y-93350000D01*
X134925000Y-92680000D02*
X134925000Y-92850000D01*
X137725000Y-92075000D02*
X138475000Y-92825000D01*
X137725000Y-92025000D02*
X137725000Y-92075000D01*
X139225000Y-92075000D02*
X138475000Y-92825000D01*
X139225000Y-92025000D02*
X139225000Y-92075000D01*
X142050000Y-92825000D02*
X142575000Y-93350000D01*
X142050000Y-92680000D02*
X142050000Y-92825000D01*
X143075000Y-92850000D02*
X142575000Y-93350000D01*
X143075000Y-92680000D02*
X143075000Y-92850000D01*
X144075000Y-93000000D02*
X144550000Y-93475000D01*
X144075000Y-92680000D02*
X144075000Y-93000000D01*
X145100000Y-92925000D02*
X144550000Y-93475000D01*
X145100000Y-92735000D02*
X145100000Y-92925000D01*
X146757500Y-91000000D02*
X146800000Y-91000000D01*
X146281500Y-90524000D02*
X146757500Y-91000000D01*
X138281500Y-79324000D02*
X138675000Y-78930500D01*
X138675000Y-78930500D02*
X138675000Y-78925000D01*
X146281500Y-77724000D02*
X146700000Y-77305500D01*
X146700000Y-77305500D02*
X146700000Y-76900000D01*
X121675000Y-80750000D02*
X121650000Y-80775000D01*
X121675000Y-78650000D02*
X121675000Y-80750000D01*
X121650000Y-81900000D02*
X121700000Y-81950000D01*
X121650000Y-80775000D02*
X121650000Y-81900000D01*
X126650000Y-81975000D02*
X126575000Y-82050000D01*
X126650000Y-80775000D02*
X126650000Y-81975000D01*
X130425000Y-81450000D02*
X130550000Y-81325000D01*
X130425000Y-82675000D02*
X130425000Y-81450000D01*
X126525000Y-96550000D02*
X126675000Y-96400000D01*
X126525000Y-98550000D02*
X126525000Y-96550000D01*
X126675000Y-95755000D02*
X127200000Y-95230000D01*
X126675000Y-96400000D02*
X126675000Y-95755000D01*
X121800000Y-95350000D02*
X121850000Y-95300000D01*
X121800000Y-96400000D02*
X121800000Y-95350000D01*
X164365000Y-101325000D02*
X164420000Y-101270000D01*
X163015000Y-101325000D02*
X164365000Y-101325000D01*
X154880000Y-106320000D02*
X154990000Y-106210000D01*
X154880000Y-107475000D02*
X154880000Y-106320000D01*
X129680000Y-87200000D02*
X129420000Y-87460000D01*
X130425000Y-87200000D02*
X129680000Y-87200000D01*
%TO.N,+3V3*%
X136681500Y-84124000D02*
X136681500Y-84126500D01*
X136681500Y-84924000D02*
X136681500Y-84903500D01*
X136681500Y-87324000D02*
X136681500Y-87313500D01*
X136681500Y-86524000D02*
X136689000Y-86524000D01*
X143881500Y-86524000D02*
X143881500Y-86518500D01*
X141481500Y-87331500D02*
X141875000Y-87725000D01*
X141481500Y-87324000D02*
X141481500Y-87331500D01*
X143876000Y-88924000D02*
X143475000Y-89325000D01*
X143881500Y-88924000D02*
X143876000Y-88924000D01*
X136281500Y-82124000D02*
X136261903Y-82124000D01*
X136681500Y-81724000D02*
X136281500Y-82124000D01*
X136681500Y-82524000D02*
X136281500Y-82124000D01*
X136261904Y-82123999D02*
X136261918Y-82123999D01*
X136261903Y-82124000D02*
X136261904Y-82123999D01*
X137481500Y-80124000D02*
X137461947Y-80124000D01*
X137461947Y-80124000D02*
X137080598Y-80505349D01*
X136681500Y-80904447D02*
X137080598Y-80505349D01*
X136681500Y-80924000D02*
X136681500Y-80904447D01*
X136681500Y-81724000D02*
X136681500Y-80924000D01*
X136674000Y-84924000D02*
X136275000Y-84525000D01*
X136681500Y-84924000D02*
X136674000Y-84924000D01*
X136676000Y-84124000D02*
X136275000Y-84525000D01*
X136681500Y-84124000D02*
X136676000Y-84124000D01*
X136676000Y-86524000D02*
X136275000Y-86925000D01*
X136681500Y-86524000D02*
X136676000Y-86524000D01*
X136674000Y-87324000D02*
X136275000Y-86925000D01*
X136681500Y-87324000D02*
X136674000Y-87324000D01*
X143876000Y-86524000D02*
X143475000Y-86925000D01*
X143881500Y-86524000D02*
X143876000Y-86524000D01*
X136175000Y-76350000D02*
X136175000Y-77050000D01*
X125125000Y-97650000D02*
X124225000Y-98550000D01*
X125125000Y-96400000D02*
X125125000Y-97650000D01*
X124225000Y-98850000D02*
X125300000Y-99925000D01*
X124225000Y-98550000D02*
X124225000Y-98850000D01*
X157080000Y-106105000D02*
X157075000Y-106100000D01*
X157080000Y-107475000D02*
X157080000Y-106105000D01*
%TO.N,+1V5*%
X162575000Y-76750000D02*
X162975000Y-76350000D01*
X162565000Y-76750000D02*
X162575000Y-76750000D01*
X162565000Y-79150000D02*
X162575000Y-79150000D01*
X162565000Y-83150000D02*
X162575000Y-83150000D01*
X156165000Y-84750000D02*
X156165000Y-84760000D01*
X156165000Y-83150000D02*
X156165000Y-83160000D01*
X156165000Y-73550000D02*
X156165000Y-73560000D01*
X156965000Y-74340000D02*
X156575000Y-73950000D01*
X156965000Y-74350000D02*
X156965000Y-74340000D01*
X156965000Y-75950000D02*
X156965000Y-75940000D01*
X156965000Y-79150000D02*
X156965000Y-79140000D01*
X156175000Y-73550000D02*
X156575000Y-73950000D01*
X156165000Y-73550000D02*
X156175000Y-73550000D01*
X156165000Y-83135000D02*
X156550000Y-82750000D01*
X156165000Y-83150000D02*
X156165000Y-83135000D01*
X156165000Y-84750000D02*
X156175000Y-84750000D01*
X162565000Y-83150000D02*
X162565000Y-83160271D01*
X162575000Y-83150000D02*
X162975000Y-83550000D01*
X162575000Y-79150000D02*
X162975000Y-79550000D01*
X162575000Y-75950000D02*
X162975000Y-76350000D01*
X162565000Y-75950000D02*
X162575000Y-75950000D01*
D27*
X156965000Y-75950000D02*
X156965000Y-75965000D01*
D26*
X156165000Y-75150000D02*
X156165000Y-75169419D01*
X156965000Y-75950000D02*
X156945581Y-75950000D01*
X156965000Y-75950000D02*
X156975000Y-75950000D01*
X162565000Y-84750000D02*
X162565000Y-84765000D01*
X162565000Y-84750000D02*
X162565000Y-84760000D01*
X162565000Y-84750000D02*
X162575000Y-84750000D01*
X139081500Y-83331500D02*
X139475000Y-83725000D01*
X139081500Y-83324000D02*
X139081500Y-83331500D01*
X139876000Y-83324000D02*
X139475000Y-83725000D01*
X139881500Y-83324000D02*
X139876000Y-83324000D01*
X139874000Y-84124000D02*
X139475000Y-83725000D01*
X139881500Y-84124000D02*
X139874000Y-84124000D01*
X139081500Y-84118500D02*
X139475000Y-83725000D01*
X139081500Y-84124000D02*
X139081500Y-84118500D01*
X139876000Y-84124000D02*
X139475000Y-84525000D01*
X139881500Y-84124000D02*
X139876000Y-84124000D01*
X139081500Y-84131500D02*
X139475000Y-84525000D01*
X139081500Y-84124000D02*
X139081500Y-84131500D01*
X139081500Y-84918500D02*
X139475000Y-84525000D01*
X139081500Y-84924000D02*
X139081500Y-84918500D01*
X139482500Y-84525000D02*
X139881500Y-84924000D01*
X139475000Y-84525000D02*
X139482500Y-84525000D01*
X139874000Y-83324000D02*
X139475000Y-82925000D01*
X139881500Y-83324000D02*
X139874000Y-83324000D01*
X139081500Y-83318500D02*
X139475000Y-82925000D01*
X139081500Y-83324000D02*
X139081500Y-83318500D01*
X139081500Y-84931500D02*
X139475000Y-85325000D01*
X139081500Y-84924000D02*
X139081500Y-84931500D01*
X139876000Y-84924000D02*
X139475000Y-85325000D01*
X139881500Y-84924000D02*
X139876000Y-84924000D01*
X142281500Y-85718500D02*
X142675000Y-85325000D01*
X142281500Y-85724000D02*
X142281500Y-85718500D01*
X142675000Y-85317500D02*
X142281500Y-84924000D01*
X142675000Y-85325000D02*
X142675000Y-85317500D01*
X142481499Y-83924001D02*
X142481499Y-83523999D01*
X142481499Y-83523999D02*
X142281500Y-83324000D01*
X142281500Y-84124000D02*
X142481499Y-83924001D01*
X142281500Y-82518500D02*
X142675000Y-82125000D01*
X142281500Y-82524000D02*
X142281500Y-82518500D01*
X142281500Y-81731500D02*
X142675000Y-82125000D01*
X142281500Y-81724000D02*
X142281500Y-81731500D01*
X164925000Y-83085000D02*
X164985000Y-83025000D01*
X164925000Y-84050000D02*
X164925000Y-83085000D01*
X142081501Y-84323999D02*
X142281500Y-84124000D01*
X142081501Y-84724001D02*
X142081501Y-84323999D01*
X142281500Y-84924000D02*
X142081501Y-84724001D01*
X142281500Y-83324000D02*
X142281500Y-82524000D01*
X162150000Y-73165000D02*
X162150000Y-73125000D01*
X161765000Y-73550000D02*
X162150000Y-73165000D01*
X162565000Y-75150000D02*
X162990004Y-75575004D01*
X162990004Y-75575004D02*
X163025000Y-75575004D01*
X162650004Y-75950000D02*
X163025000Y-75575004D01*
X162565000Y-75950000D02*
X162650004Y-75950000D01*
X157350000Y-79535000D02*
X157350000Y-79550000D01*
X156965000Y-79150000D02*
X157350000Y-79535000D01*
X161775000Y-80750000D02*
X161765000Y-80750000D01*
X162175000Y-81150000D02*
X161775000Y-80750000D01*
X156965000Y-80750000D02*
X157350000Y-81135000D01*
X157350000Y-81135000D02*
X157350000Y-81150000D01*
X156165000Y-84750000D02*
X155599375Y-84750000D01*
X155599375Y-84750000D02*
X155575364Y-84774011D01*
X160965000Y-78350000D02*
X161362059Y-77952941D01*
X161362059Y-77952941D02*
X161378014Y-77952941D01*
X156975000Y-75950000D02*
X157375000Y-76350000D01*
X156150000Y-77550000D02*
X155750000Y-77950000D01*
X156165000Y-77550000D02*
X156150000Y-77550000D01*
X156165000Y-75150000D02*
X155724510Y-75150000D01*
X155724510Y-75150000D02*
X155375000Y-75499510D01*
X162600000Y-84750000D02*
X163000000Y-85150000D01*
X162565000Y-84750000D02*
X162600000Y-84750000D01*
X162170000Y-73105000D02*
X162150000Y-73125000D01*
X164930000Y-83130000D02*
X164985000Y-83075000D01*
X164930000Y-84075000D02*
X164930000Y-83130000D01*
X164985000Y-83075000D02*
X165800000Y-83075000D01*
X162525000Y-87025000D02*
X162800000Y-86750000D01*
X162525000Y-87675000D02*
X162525000Y-87025000D01*
X163124996Y-75675000D02*
X163025000Y-75575004D01*
X163945000Y-75675000D02*
X163124996Y-75675000D01*
X163325000Y-76700000D02*
X162975000Y-76350000D01*
X163945000Y-76700000D02*
X163325000Y-76700000D01*
X163945000Y-72725000D02*
X163892999Y-72672999D01*
X161970000Y-72945000D02*
X162150000Y-73125000D01*
X161970000Y-71900000D02*
X161970000Y-72945000D01*
X144075000Y-91720000D02*
X142050000Y-91720000D01*
X142045000Y-91720000D02*
X141525000Y-91200000D01*
X142050000Y-91720000D02*
X142045000Y-91720000D01*
X140775000Y-91950000D02*
X141525000Y-91200000D01*
X140775000Y-92025000D02*
X140775000Y-91950000D01*
X144075000Y-91500000D02*
X143600000Y-91025000D01*
X144075000Y-91720000D02*
X144075000Y-91500000D01*
X143075000Y-91550000D02*
X143600000Y-91025000D01*
X143075000Y-91720000D02*
X143075000Y-91550000D01*
X123975000Y-80000000D02*
X123200000Y-80775000D01*
X123975000Y-78650000D02*
X123975000Y-80000000D01*
X123975000Y-77875000D02*
X123250000Y-77150000D01*
X123975000Y-78650000D02*
X123975000Y-77875000D01*
X162602001Y-72672999D02*
X162150000Y-73125000D01*
X163203961Y-72672999D02*
X162602001Y-72672999D01*
X163255962Y-72725000D02*
X163203961Y-72672999D01*
X163945000Y-72725000D02*
X163255962Y-72725000D01*
%TO.N,VREFDDR*%
X143881500Y-80124000D02*
X143874000Y-80124000D01*
X156165000Y-79155998D02*
X155695998Y-79625000D01*
X156165000Y-79150000D02*
X156165000Y-79155998D01*
X161765000Y-82340000D02*
X161375000Y-81950000D01*
X143881500Y-80131500D02*
X144275000Y-80525000D01*
X143881500Y-80124000D02*
X143881500Y-80131500D01*
X161775000Y-82350000D02*
X162175000Y-82750000D01*
X161765000Y-82350000D02*
X161775000Y-82350000D01*
X163965000Y-84070000D02*
X163970000Y-84075000D01*
X163965000Y-83075000D02*
X163965000Y-84070000D01*
X163970000Y-85070000D02*
X163975000Y-85075000D01*
X163970000Y-84075000D02*
X163970000Y-85070000D01*
X163975000Y-86065000D02*
X163965000Y-86075000D01*
X163975000Y-85075000D02*
X163975000Y-86065000D01*
X163970000Y-86080000D02*
X163965000Y-86075000D01*
X163970000Y-87100000D02*
X163970000Y-86080000D01*
X154780000Y-79625000D02*
X154750000Y-79655000D01*
X155695998Y-79625000D02*
X154780000Y-79625000D01*
D28*
%TO.N,+5V*%
X126275000Y-77175000D02*
X126275000Y-78650000D01*
X125575000Y-76475000D02*
X126275000Y-77175000D01*
X120950000Y-76475000D02*
X125575000Y-76475000D01*
X120225000Y-97350000D02*
X120225000Y-77200000D01*
X120225000Y-77200000D02*
X120950000Y-76475000D01*
X121425000Y-98550000D02*
X120225000Y-97350000D01*
X121925000Y-98550000D02*
X121425000Y-98550000D01*
X121925000Y-97825000D02*
X123350000Y-96400000D01*
X121925000Y-98550000D02*
X121925000Y-97825000D01*
X126275000Y-79600000D02*
X125100000Y-80775000D01*
X126275000Y-78650000D02*
X126275000Y-79600000D01*
X121925000Y-99825000D02*
X121925000Y-98550000D01*
X123500000Y-101400000D02*
X121925000Y-99825000D01*
X128100000Y-101400000D02*
X123500000Y-101400000D01*
X131300000Y-98200000D02*
X128100000Y-101400000D01*
X135525000Y-98200000D02*
X131300000Y-98200000D01*
D26*
%TO.N,/SOC_CAP*%
X138281500Y-82531500D02*
X138675000Y-82925000D01*
X138281500Y-82524000D02*
X138281500Y-82531500D01*
X138680500Y-82925000D02*
X139081500Y-82524000D01*
X138675000Y-82925000D02*
X138680500Y-82925000D01*
X138675000Y-82930500D02*
X138281500Y-83324000D01*
X138675000Y-82925000D02*
X138675000Y-82930500D01*
X139681501Y-82324001D02*
X139881500Y-82524000D01*
X139281499Y-82324001D02*
X139681501Y-82324001D01*
X139081500Y-82524000D02*
X139281499Y-82324001D01*
X140676000Y-82524000D02*
X140275000Y-82925000D01*
X140681500Y-82524000D02*
X140676000Y-82524000D01*
X140674000Y-83324000D02*
X140275000Y-82925000D01*
X140681500Y-83324000D02*
X140674000Y-83324000D01*
X140275000Y-82917500D02*
X139881500Y-82524000D01*
X140275000Y-82925000D02*
X140275000Y-82917500D01*
X140681500Y-83324000D02*
X140681500Y-84124000D01*
X138281500Y-83324000D02*
X138281500Y-84124000D01*
X140681500Y-85724000D02*
X140681500Y-84924000D01*
X140681500Y-84924000D02*
X140681500Y-84124000D01*
X140674000Y-85724000D02*
X140275000Y-85325000D01*
X140681500Y-85724000D02*
X140674000Y-85724000D01*
X140676000Y-84924000D02*
X140275000Y-85325000D01*
X140681500Y-84924000D02*
X140676000Y-84924000D01*
D28*
X135870000Y-91720000D02*
X136175000Y-92025000D01*
X132925000Y-91720000D02*
X135870000Y-91720000D01*
X136175000Y-91975000D02*
X136900000Y-91250000D01*
X136175000Y-92025000D02*
X136175000Y-91975000D01*
D26*
%TO.N,/ARM_CAP*%
X139281499Y-85923999D02*
X139081500Y-85724000D01*
X139681501Y-85923999D02*
X139281499Y-85923999D01*
X139881500Y-85724000D02*
X139681501Y-85923999D01*
X139074000Y-85724000D02*
X138675000Y-85325000D01*
X139081500Y-85724000D02*
X139074000Y-85724000D01*
X138281500Y-85718500D02*
X138675000Y-85325000D01*
X138281500Y-85724000D02*
X138281500Y-85718500D01*
X138281500Y-84931500D02*
X138675000Y-85325000D01*
X138281500Y-84924000D02*
X138281500Y-84931500D01*
D28*
X132255000Y-89475000D02*
X132255000Y-88475000D01*
X132255000Y-87530000D02*
X131950000Y-87225000D01*
X132255000Y-88475000D02*
X132255000Y-87530000D01*
X131950000Y-87200000D02*
X132725000Y-86425000D01*
X131950000Y-87225000D02*
X131950000Y-87200000D01*
D26*
%TO.N,/NVCC_PLL*%
X136676000Y-80124000D02*
X136275000Y-80525000D01*
X136681500Y-80124000D02*
X136676000Y-80124000D01*
D29*
X133625000Y-76355000D02*
X133625000Y-76350000D01*
X133900000Y-76075000D02*
X134900000Y-76075000D01*
X133625000Y-76350000D02*
X133900000Y-76075000D01*
X134900000Y-76075000D02*
X134900000Y-77050000D01*
D26*
%TO.N,/SNVS_CAP*%
X137200000Y-76355000D02*
X137200000Y-77075000D01*
X137481500Y-80918500D02*
X137875000Y-80525000D01*
X137481500Y-80924000D02*
X137481500Y-80918500D01*
%TO.N,/HIGH_CAP*%
X135874000Y-79324000D02*
X135500000Y-78950000D01*
X135881500Y-79324000D02*
X135874000Y-79324000D01*
X135126000Y-79324000D02*
X135500000Y-78950000D01*
X135081500Y-79324000D02*
X135126000Y-79324000D01*
X132255000Y-81245000D02*
X132800000Y-80700000D01*
D28*
X132255000Y-82395000D02*
X131975000Y-82675000D01*
X132255000Y-81350000D02*
X132255000Y-82395000D01*
D29*
%TO.N,/XTALO*%
X131599000Y-78524000D02*
X131575000Y-78500000D01*
X133481500Y-78524000D02*
X131599000Y-78524000D01*
X131575000Y-79670000D02*
X132005000Y-80100000D01*
X131575000Y-78500000D02*
X131575000Y-79670000D01*
%TO.N,/XTALI*%
X129875000Y-75895000D02*
X131045000Y-74725000D01*
X129875000Y-76300000D02*
X129875000Y-75895000D01*
X130950000Y-77375000D02*
X129875000Y-76300000D01*
X132375000Y-77375000D02*
X130950000Y-77375000D01*
X133882500Y-78125000D02*
X133125000Y-78125000D01*
X133125000Y-78125000D02*
X132375000Y-77375000D01*
X134281500Y-78524000D02*
X133882500Y-78125000D01*
%TO.N,/VDD_HIGH_CAP*%
X142274000Y-80924000D02*
X141875000Y-80525000D01*
X142281500Y-80924000D02*
X142274000Y-80924000D01*
X139250000Y-76625000D02*
X139725000Y-77100000D01*
X139250000Y-76355000D02*
X139250000Y-76625000D01*
D30*
%TO.N,/DQSU-*%
X145481500Y-78531500D02*
X145875000Y-78925000D01*
X145481500Y-78524000D02*
X145481500Y-78531500D01*
X164905000Y-78320000D02*
X164900000Y-78325000D01*
X164905000Y-77750000D02*
X164905000Y-78320000D01*
X158350000Y-78350000D02*
X158375000Y-78375000D01*
X157765000Y-78350000D02*
X158350000Y-78350000D01*
%TO.N,/DQSU+*%
X146274000Y-78524000D02*
X145875000Y-78125000D01*
X146281500Y-78524000D02*
X146274000Y-78524000D01*
X163945000Y-78320000D02*
X163950000Y-78325000D01*
X163945000Y-77750000D02*
X163945000Y-78320000D01*
X158425000Y-77550000D02*
X158500000Y-77625000D01*
X157765000Y-77550000D02*
X158425000Y-77550000D01*
%TO.N,/DQSL-*%
X160950000Y-74350000D02*
X160550000Y-73950000D01*
X160965000Y-74350000D02*
X160950000Y-74350000D01*
X141474000Y-80124000D02*
X141075000Y-79725000D01*
X141481500Y-80124000D02*
X141474000Y-80124000D01*
X163945000Y-74370000D02*
X163950000Y-74375000D01*
X163945000Y-73800000D02*
X163945000Y-74370000D01*
%TO.N,/DQSL+*%
X160950000Y-75150000D02*
X160550000Y-74750000D01*
X160965000Y-75150000D02*
X160950000Y-75150000D01*
X142274000Y-80124000D02*
X141875000Y-79725000D01*
X142281500Y-80124000D02*
X142274000Y-80124000D01*
X164905000Y-74370000D02*
X164900000Y-74375000D01*
X164905000Y-73800000D02*
X164905000Y-74370000D01*
D29*
%TO.N,/RTS*%
X127825000Y-89425000D02*
X126150000Y-91100000D01*
X127825000Y-88075000D02*
X127825000Y-89425000D01*
X125005000Y-91100000D02*
X125000000Y-91095000D01*
X130575000Y-85325000D02*
X127825000Y-88075000D01*
X135238462Y-85325000D02*
X130575000Y-85325000D01*
X135500000Y-85063462D02*
X135238462Y-85325000D01*
X135500000Y-84505500D02*
X135500000Y-85063462D01*
X126150000Y-91100000D02*
X125005000Y-91100000D01*
X135881500Y-84124000D02*
X135500000Y-84505500D01*
%TO.N,/TX*%
X126355000Y-87200000D02*
X125900000Y-87655000D01*
X127175000Y-87200000D02*
X126355000Y-87200000D01*
X125900000Y-87655000D02*
X125000000Y-88555000D01*
X129850000Y-84525000D02*
X127175000Y-87200000D01*
X134438462Y-84525000D02*
X129850000Y-84525000D01*
X134675000Y-84288462D02*
X134438462Y-84525000D01*
X134675000Y-83972538D02*
X134675000Y-84288462D01*
X134922538Y-83725000D02*
X134675000Y-83972538D01*
X135480500Y-83725000D02*
X134922538Y-83725000D01*
X135881500Y-83324000D02*
X135480500Y-83725000D01*
%TO.N,/CTS*%
X125140000Y-85875000D02*
X125000000Y-86015000D01*
X127175000Y-85875000D02*
X125140000Y-85875000D01*
X132850000Y-84000000D02*
X129050000Y-84000000D01*
X133125000Y-83725000D02*
X132850000Y-84000000D01*
X134450000Y-83725000D02*
X133125000Y-83725000D01*
X129050000Y-84000000D02*
X127175000Y-85875000D01*
X134851000Y-83324000D02*
X134450000Y-83725000D01*
X135081500Y-83324000D02*
X134851000Y-83324000D01*
%TO.N,/RX*%
X125050000Y-83525000D02*
X125000000Y-83475000D01*
X133225000Y-82925000D02*
X132625000Y-83525000D01*
X133882500Y-82925000D02*
X133225000Y-82925000D01*
X132625000Y-83525000D02*
X125050000Y-83525000D01*
X134281500Y-83324000D02*
X133882500Y-82925000D01*
D30*
%TO.N,/RESET#*%
X156965000Y-85565000D02*
X157375000Y-85975000D01*
X156965000Y-85550000D02*
X156965000Y-85565000D01*
X144281999Y-86124499D02*
X143881500Y-85724000D01*
X144281999Y-86715761D02*
X144281999Y-86124499D01*
X144489739Y-86923501D02*
X144281999Y-86715761D01*
X145873501Y-86923501D02*
X144489739Y-86923501D01*
X145875000Y-86925000D02*
X145873501Y-86923501D01*
X144281999Y-90896999D02*
X145100000Y-91715000D01*
X144490737Y-87723501D02*
X144281999Y-87932239D01*
X144281999Y-87932239D02*
X144281999Y-90896999D01*
X145673261Y-87723501D02*
X144490737Y-87723501D01*
X145881999Y-87514763D02*
X145673261Y-87723501D01*
X145881999Y-87206999D02*
X145881999Y-87514763D01*
X145875000Y-87200000D02*
X145881999Y-87206999D01*
X145875000Y-86925000D02*
X145875000Y-87200000D01*
%TO.N,/CKE0*%
X144681500Y-81731500D02*
X145075000Y-82125000D01*
X144681500Y-81724000D02*
X144681500Y-81731500D01*
X162575000Y-80750000D02*
X162975000Y-81150000D01*
X162565000Y-80750000D02*
X162575000Y-80750000D01*
X163840000Y-81150000D02*
X163965000Y-81025000D01*
X162975000Y-81150000D02*
X163840000Y-81150000D01*
%TO.N,/ZQPAD*%
X143881500Y-80924000D02*
X143482500Y-80525000D01*
X143482500Y-80525000D02*
X143474988Y-80525000D01*
X138225000Y-76775000D02*
X138225000Y-76360000D01*
X138650000Y-77200000D02*
X138225000Y-76775000D01*
%TO.N,/CK+*%
X160975000Y-79950000D02*
X161375000Y-80350000D01*
X160965000Y-79950000D02*
X160975000Y-79950000D01*
D29*
X147201000Y-80124000D02*
X147425000Y-79900000D01*
X146281500Y-80124000D02*
X147201000Y-80124000D01*
D30*
X163940000Y-79965000D02*
X163950000Y-79975000D01*
X163940000Y-79400000D02*
X163940000Y-79965000D01*
%TO.N,/CK-*%
X160950000Y-80750000D02*
X160550000Y-80350000D01*
X160965000Y-80750000D02*
X160950000Y-80750000D01*
D29*
X145884489Y-80526989D02*
X147030141Y-80526989D01*
X145481500Y-80124000D02*
X145884489Y-80526989D01*
D30*
X164960000Y-79960000D02*
X164975000Y-79975000D01*
X164960000Y-79400000D02*
X164960000Y-79960000D01*
%TO.N,/ZQ*%
X163864501Y-81949501D02*
X163965000Y-82050000D01*
X162164501Y-81949501D02*
X163864501Y-81949501D01*
X161765000Y-81550000D02*
X162164501Y-81949501D01*
%TO.N,/A14*%
X160965000Y-88735000D02*
X160965000Y-85550000D01*
X159650000Y-90050000D02*
X160965000Y-88735000D01*
X149175000Y-90050000D02*
X159650000Y-90050000D01*
X147375000Y-86200000D02*
X147375000Y-88250000D01*
X146899000Y-85724000D02*
X147375000Y-86200000D01*
X147375000Y-88250000D02*
X149175000Y-90050000D01*
X146281500Y-85724000D02*
X146899000Y-85724000D01*
%TO.N,/A6*%
X161365499Y-85149501D02*
X161765000Y-84750000D01*
X160050000Y-90750000D02*
X161365499Y-89434501D01*
X149050000Y-90750000D02*
X160050000Y-90750000D01*
X161365499Y-89434501D02*
X161365499Y-85149501D01*
X146900000Y-88600000D02*
X149050000Y-90750000D01*
X146900000Y-86525000D02*
X146900000Y-88600000D01*
X146499499Y-86124499D02*
X146900000Y-86525000D01*
X145881999Y-86124499D02*
X146499499Y-86124499D01*
X145481500Y-85724000D02*
X145881999Y-86124499D01*
%TO.N,/BA1*%
X161365499Y-83549501D02*
X161765000Y-83150000D01*
X160722237Y-83549501D02*
X161365499Y-83549501D01*
X160125499Y-84146239D02*
X160722237Y-83549501D01*
X159050000Y-88825000D02*
X160125499Y-87749501D01*
X150150000Y-88825000D02*
X159050000Y-88825000D01*
X148525000Y-85350000D02*
X148525000Y-87200000D01*
X160125499Y-87749501D02*
X160125499Y-84146239D01*
X148099000Y-84924000D02*
X148525000Y-85350000D01*
X148525000Y-87200000D02*
X150150000Y-88825000D01*
X146281500Y-84924000D02*
X148099000Y-84924000D01*
%TO.N,/A1*%
X160500000Y-84415000D02*
X160965000Y-83950000D01*
X159150000Y-89375000D02*
X160500000Y-88025000D01*
X149400000Y-89375000D02*
X159150000Y-89375000D01*
X160500000Y-88025000D02*
X160500000Y-84415000D01*
X147975000Y-87950000D02*
X149400000Y-89375000D01*
X147975000Y-85900000D02*
X147975000Y-87950000D01*
X147399499Y-85324499D02*
X147975000Y-85900000D01*
X145881999Y-85324499D02*
X147399499Y-85324499D01*
X145481500Y-84924000D02*
X145881999Y-85324499D01*
%TO.N,/A13*%
X144681500Y-84931500D02*
X145075000Y-85325000D01*
X144681500Y-84924000D02*
X144681500Y-84931500D01*
X157765000Y-85540000D02*
X157375000Y-85150000D01*
X157765000Y-85550000D02*
X157765000Y-85540000D01*
%TO.N,/A7*%
X144275000Y-85317500D02*
X144275000Y-85325000D01*
X143881500Y-84924000D02*
X144275000Y-85317500D01*
X156965000Y-84760000D02*
X156575000Y-85150000D01*
X156965000Y-84750000D02*
X156965000Y-84760000D01*
%TO.N,/WE#*%
X159225000Y-83010000D02*
X157765000Y-81550000D01*
X158750000Y-87825000D02*
X159225000Y-87350000D01*
X151100000Y-87825000D02*
X158750000Y-87825000D01*
X149700000Y-86425000D02*
X151100000Y-87825000D01*
X149700000Y-84750000D02*
X149700000Y-86425000D01*
X149074000Y-84124000D02*
X149700000Y-84750000D01*
X159225000Y-87350000D02*
X159225000Y-83010000D01*
X146281500Y-84124000D02*
X149074000Y-84124000D01*
%TO.N,/CAS#*%
X158925000Y-88250000D02*
X159675000Y-87500000D01*
X150775000Y-88250000D02*
X158925000Y-88250000D01*
X159675000Y-87500000D02*
X159675000Y-82660000D01*
X148699499Y-84524499D02*
X149050000Y-84875000D01*
X159675000Y-82660000D02*
X157765000Y-80750000D01*
X145881999Y-84524499D02*
X148699499Y-84524499D01*
X149050000Y-86525000D02*
X150775000Y-88250000D01*
X149050000Y-84875000D02*
X149050000Y-86525000D01*
X145481500Y-84124000D02*
X145881999Y-84524499D01*
%TO.N,/A8*%
X143881500Y-84131500D02*
X144275000Y-84525000D01*
X143881500Y-84124000D02*
X143881500Y-84131500D01*
X162150000Y-85935000D02*
X162150000Y-85975000D01*
X161765000Y-85550000D02*
X162150000Y-85935000D01*
%TO.N,/A2*%
X158525000Y-86475000D02*
X158525000Y-84710000D01*
X158025000Y-86975000D02*
X158525000Y-86475000D01*
X152375000Y-86975000D02*
X158025000Y-86975000D01*
X151037500Y-85637500D02*
X152375000Y-86975000D01*
X158525000Y-84710000D02*
X157765000Y-83950000D01*
X151037500Y-84512500D02*
X151037500Y-85637500D01*
X149849000Y-83324000D02*
X151037500Y-84512500D01*
X146281500Y-83324000D02*
X149849000Y-83324000D01*
%TO.N,/BA2*%
X158350000Y-87400000D02*
X158850000Y-86900000D01*
X158850000Y-83435000D02*
X157765000Y-82350000D01*
X151825000Y-87400000D02*
X158350000Y-87400000D01*
X150312500Y-85887500D02*
X151825000Y-87400000D01*
X158850000Y-86900000D02*
X158850000Y-83435000D01*
X150312500Y-84587500D02*
X150312500Y-85887500D01*
X149448501Y-83723501D02*
X150312500Y-84587500D01*
X145881001Y-83723501D02*
X149448501Y-83723501D01*
X145481500Y-83324000D02*
X145881001Y-83723501D01*
%TO.N,/A11*%
X144681500Y-83331500D02*
X145075000Y-83725000D01*
X144681500Y-83324000D02*
X144681500Y-83331500D01*
X160965000Y-84750000D02*
X161349996Y-84365004D01*
X161349996Y-84365004D02*
X161349996Y-84350000D01*
%TO.N,/A4*%
X143876000Y-83324000D02*
X143475000Y-83725000D01*
X143881500Y-83324000D02*
X143876000Y-83324000D01*
X161775000Y-83950000D02*
X162175000Y-84350000D01*
X161765000Y-83950000D02*
X161775000Y-83950000D01*
%TO.N,/A5*%
X146281500Y-82524000D02*
X146801000Y-82524000D01*
X146801000Y-82524000D02*
X146876000Y-82524000D01*
X156565499Y-84349501D02*
X156965000Y-83950000D01*
X154524501Y-84349501D02*
X156565499Y-84349501D01*
X152200000Y-82025000D02*
X154524501Y-84349501D01*
X149850000Y-82025000D02*
X152200000Y-82025000D01*
X149351000Y-82524000D02*
X149850000Y-82025000D01*
X146801000Y-82524000D02*
X149351000Y-82524000D01*
%TO.N,/A9*%
X158225000Y-86200000D02*
X158225000Y-85210000D01*
X153999501Y-86524501D02*
X157900499Y-86524501D01*
X158225000Y-85210000D02*
X157765000Y-84750000D01*
X152250000Y-84225000D02*
X152250000Y-84775000D01*
X150949499Y-82924499D02*
X152250000Y-84225000D01*
X157900499Y-86524501D02*
X158225000Y-86200000D01*
X145881999Y-82924499D02*
X150949499Y-82924499D01*
X152250000Y-84775000D02*
X153999501Y-86524501D01*
X145481500Y-82524000D02*
X145881999Y-82924499D01*
%TO.N,/A12*%
X143881500Y-82524000D02*
X144081500Y-82723999D01*
X144081500Y-82723999D02*
X144270721Y-82913220D01*
X160565000Y-82750000D02*
X160965000Y-83150000D01*
X160550000Y-82750000D02*
X160565000Y-82750000D01*
%TO.N,/A0*%
X143081500Y-82531500D02*
X143475000Y-82925000D01*
X143081500Y-82524000D02*
X143081500Y-82531500D01*
X157775000Y-83150000D02*
X158175000Y-83550000D01*
X157765000Y-83150000D02*
X157775000Y-83150000D01*
%TO.N,/BA0*%
X156564501Y-81949501D02*
X156965000Y-82350000D01*
X154149501Y-81949501D02*
X156564501Y-81949501D01*
X148725000Y-80700000D02*
X152900000Y-80700000D01*
X152900000Y-80700000D02*
X154149501Y-81949501D01*
X147701000Y-81724000D02*
X148725000Y-80700000D01*
X146281500Y-81724000D02*
X147701000Y-81724000D01*
%TO.N,/A3*%
X155973239Y-83549501D02*
X156565499Y-83549501D01*
X155561869Y-83138131D02*
X155973239Y-83549501D01*
X156565499Y-83549501D02*
X156965000Y-83150000D01*
X154388131Y-83138131D02*
X155561869Y-83138131D01*
X152575000Y-81325000D02*
X154388131Y-83138131D01*
X149450000Y-81325000D02*
X152575000Y-81325000D01*
X148651499Y-82123501D02*
X149450000Y-81325000D01*
X145881001Y-82123501D02*
X148651499Y-82123501D01*
X145481500Y-81724000D02*
X145881001Y-82123501D01*
%TO.N,/A10*%
X143861947Y-81724000D02*
X143480598Y-82105349D01*
X143881500Y-81724000D02*
X143861947Y-81724000D01*
X160525000Y-81550000D02*
X160375000Y-81700000D01*
X160965000Y-81550000D02*
X160525000Y-81550000D01*
%TO.N,/RAS#*%
X143081500Y-81718500D02*
X143475000Y-81325000D01*
X143081500Y-81724000D02*
X143081500Y-81718500D01*
X157850000Y-79950000D02*
X158425000Y-80525000D01*
X157765000Y-79950000D02*
X157850000Y-79950000D01*
%TO.N,/ODT0*%
X146308990Y-80951490D02*
X146281500Y-80924000D01*
X147233902Y-80951490D02*
X146308990Y-80951490D01*
X149010392Y-79175000D02*
X147233902Y-80951490D01*
X153075000Y-79175000D02*
X149010392Y-79175000D01*
X154650000Y-80750000D02*
X153075000Y-79175000D01*
X156165000Y-80750000D02*
X154650000Y-80750000D01*
%TO.N,/CS0#*%
X156565499Y-81150499D02*
X156965000Y-81550000D01*
X154200499Y-81150499D02*
X156565499Y-81150499D01*
X153050000Y-80000000D02*
X154200499Y-81150499D01*
X148825000Y-80000000D02*
X153050000Y-80000000D01*
X147501499Y-81323501D02*
X148825000Y-80000000D01*
X145881001Y-81323501D02*
X147501499Y-81323501D01*
X145481500Y-80924000D02*
X145881001Y-81323501D01*
%TO.N,/DQU5*%
X145070721Y-79734779D02*
X145070721Y-79729221D01*
X144681500Y-80124000D02*
X145070721Y-79734779D01*
X156975000Y-78350000D02*
X157375000Y-77950000D01*
X156965000Y-78350000D02*
X156975000Y-78350000D01*
%TO.N,/DQU4*%
X143480500Y-79725000D02*
X143480518Y-79725000D01*
X143081500Y-80124000D02*
X143480500Y-79725000D01*
X158825000Y-77300000D02*
X158825000Y-76725000D01*
X160675000Y-79150000D02*
X158825000Y-77300000D01*
X160965000Y-79150000D02*
X160675000Y-79150000D01*
%TO.N,/DQU7*%
X156565000Y-77150000D02*
X156965000Y-77550000D01*
X148455500Y-77150000D02*
X156565000Y-77150000D01*
X146281500Y-79324000D02*
X148455500Y-77150000D01*
%TO.N,/DQU6*%
X148896738Y-77800000D02*
X146972239Y-79724499D01*
X157765000Y-79150000D02*
X157365000Y-78750000D01*
X157365000Y-78750000D02*
X155850000Y-78750000D01*
X155850000Y-78750000D02*
X154900000Y-77800000D01*
X145881999Y-79724499D02*
X145481500Y-79324000D01*
X154900000Y-77800000D02*
X148896738Y-77800000D01*
X146972239Y-79724499D02*
X145881999Y-79724499D01*
%TO.N,/DQU3*%
X144281001Y-78924499D02*
X144281001Y-78131001D01*
X144281001Y-78131001D02*
X144275000Y-78125000D01*
X143881500Y-79324000D02*
X144281001Y-78924499D01*
X160965000Y-77550000D02*
X160682158Y-77550000D01*
X160526949Y-77550000D02*
X159761897Y-76784948D01*
X160682158Y-77550000D02*
X160526949Y-77550000D01*
%TO.N,/DMU*%
X160975000Y-76750000D02*
X161375000Y-76350000D01*
X160965000Y-76750000D02*
X160975000Y-76750000D01*
X145075000Y-78917500D02*
X144681500Y-78524000D01*
X145075000Y-78925000D02*
X145075000Y-78917500D01*
%TO.N,/DQL0*%
X143876000Y-78524000D02*
X143475000Y-78925000D01*
X143881500Y-78524000D02*
X143876000Y-78524000D01*
X160950000Y-75950000D02*
X160550000Y-76350000D01*
X160965000Y-75950000D02*
X160950000Y-75950000D01*
%TO.N,/DQL6*%
X157750000Y-73535000D02*
X157765000Y-73550000D01*
X154875000Y-72650000D02*
X157200000Y-72650000D01*
X151800000Y-75725000D02*
X154875000Y-72650000D01*
X157750000Y-73200000D02*
X157750000Y-73535000D01*
X157200000Y-72650000D02*
X157750000Y-73200000D01*
X144489238Y-75725000D02*
X151800000Y-75725000D01*
X142681999Y-78124499D02*
X142681999Y-77532239D01*
X142681999Y-77532239D02*
X144489238Y-75725000D01*
X143081500Y-78524000D02*
X142681999Y-78124499D01*
%TO.N,/DQL2*%
X158047842Y-75150000D02*
X157765000Y-75150000D01*
X158436511Y-74761331D02*
X158047842Y-75150000D01*
X158436511Y-72411511D02*
X158436511Y-74761331D01*
X153719019Y-71755981D02*
X157780981Y-71755981D01*
X157780981Y-71755981D02*
X158436511Y-72411511D01*
X141881999Y-78124499D02*
X141881999Y-76868001D01*
X141881999Y-76868001D02*
X144250000Y-74500000D01*
X150975000Y-74500000D02*
X153719019Y-71755981D01*
X142281500Y-78524000D02*
X141881999Y-78124499D01*
X144250000Y-74500000D02*
X150975000Y-74500000D01*
%TO.N,/DML*%
X141081999Y-78124499D02*
X141481500Y-78524000D01*
X141081999Y-76393001D02*
X141081999Y-78124499D01*
X144050000Y-73425000D02*
X141081999Y-76393001D01*
X152800000Y-71000000D02*
X150375000Y-73425000D01*
X158975000Y-71000000D02*
X152800000Y-71000000D01*
X159500000Y-71525000D02*
X158975000Y-71000000D01*
X157765000Y-75950000D02*
X159500000Y-74215000D01*
X159500000Y-74215000D02*
X159500000Y-71525000D01*
X150375000Y-73425000D02*
X144050000Y-73425000D01*
%TO.N,/DQL5*%
X161365499Y-73950499D02*
X161765000Y-74350000D01*
X161365499Y-71790499D02*
X161365499Y-73950499D01*
X159650000Y-70075000D02*
X161365499Y-71790499D01*
X151925000Y-70075000D02*
X159650000Y-70075000D01*
X149875000Y-72125000D02*
X151925000Y-70075000D01*
X143900000Y-72125000D02*
X149875000Y-72125000D01*
X140281999Y-75743001D02*
X143900000Y-72125000D01*
X140281999Y-78124499D02*
X140281999Y-75743001D01*
X140681500Y-78524000D02*
X140281999Y-78124499D01*
%TO.N,/DQU0*%
X157775000Y-76750000D02*
X158175000Y-76350000D01*
X145481500Y-77724000D02*
X145874996Y-77330504D01*
X145874996Y-77330504D02*
X145874996Y-77225000D01*
%TO.N,/DQU1*%
X144681500Y-77369000D02*
X144900500Y-77150000D01*
X144681500Y-77724000D02*
X144681500Y-77369000D01*
X161364501Y-78749501D02*
X160773239Y-78749501D01*
X161765000Y-79150000D02*
X161364501Y-78749501D01*
X160773239Y-78749501D02*
X159250000Y-77226262D01*
X159250000Y-77226262D02*
X159250000Y-75850000D01*
X159250000Y-75850000D02*
X159012500Y-75612500D01*
%TO.N,/DQL7*%
X156950000Y-73535000D02*
X156965000Y-73550000D01*
X156750000Y-73050000D02*
X156950000Y-73250000D01*
X155750000Y-73050000D02*
X156750000Y-73050000D01*
X152375000Y-76425000D02*
X155750000Y-73050000D01*
X144897658Y-76425000D02*
X152375000Y-76425000D01*
X143881500Y-77441158D02*
X144897658Y-76425000D01*
X156950000Y-73250000D02*
X156950000Y-73535000D01*
X143881500Y-77724000D02*
X143881500Y-77441158D01*
%TO.N,/DQU2*%
X143081500Y-77731500D02*
X143475000Y-78125000D01*
X143081500Y-77724000D02*
X143081500Y-77731500D01*
X161364501Y-77149501D02*
X160721239Y-77149501D01*
X160721239Y-77149501D02*
X160100000Y-76528262D01*
X161765000Y-77550000D02*
X161364501Y-77149501D01*
X160100000Y-76528262D02*
X160100000Y-75800000D01*
%TO.N,/DQL1*%
X157364501Y-74750499D02*
X156965000Y-75150000D01*
X157956761Y-74750499D02*
X157364501Y-74750499D01*
X158164501Y-72789501D02*
X158164501Y-74542759D01*
X157675000Y-72300000D02*
X158164501Y-72789501D01*
X153950000Y-72300000D02*
X157675000Y-72300000D01*
X151350000Y-74900000D02*
X153950000Y-72300000D01*
X144475000Y-74900000D02*
X151350000Y-74900000D01*
X158164501Y-74542759D02*
X157956761Y-74750499D01*
X142281500Y-77724000D02*
X142281500Y-77093500D01*
X142281500Y-77093500D02*
X144475000Y-74900000D01*
%TO.N,/DQL3*%
X160721239Y-75549501D02*
X160025000Y-74853262D01*
X161365499Y-75549501D02*
X160721239Y-75549501D01*
X161765000Y-75150000D02*
X161365499Y-75549501D01*
X160025000Y-74853262D02*
X160025000Y-73700000D01*
X160025000Y-73700000D02*
X160025000Y-73150000D01*
X153325000Y-71350000D02*
X158375000Y-71350000D01*
X150692340Y-73982660D02*
X153325000Y-71350000D01*
X141481500Y-76593500D02*
X144092340Y-73982660D01*
X141481500Y-77724000D02*
X141481500Y-76593500D01*
X144092340Y-73982660D02*
X150692340Y-73982660D01*
X158375000Y-71350000D02*
X158875000Y-71850000D01*
%TO.N,/DQL4*%
X160965000Y-72065000D02*
X160965000Y-73550000D01*
X159500000Y-70600000D02*
X160965000Y-72065000D01*
X152225000Y-70600000D02*
X159500000Y-70600000D01*
X140681500Y-77724000D02*
X140681500Y-76218500D01*
X140681500Y-76218500D02*
X144167340Y-72732660D01*
X144167340Y-72732660D02*
X150092340Y-72732660D01*
X150092340Y-72732660D02*
X152225000Y-70600000D01*
%TO.N,/SD_D0*%
X153780000Y-104655000D02*
X153780000Y-107475000D01*
X148249538Y-99124538D02*
X153780000Y-104655000D01*
X148249538Y-96124538D02*
X148249538Y-99124538D01*
X146062269Y-93937269D02*
X148249538Y-96124538D01*
X146062269Y-91802269D02*
X146062269Y-93937269D01*
X145081001Y-90681463D02*
X145081999Y-90682461D01*
X145081999Y-90821999D02*
X146062269Y-91802269D01*
X145081001Y-90332239D02*
X145081001Y-90681463D01*
X145080000Y-90331238D02*
X145081001Y-90332239D01*
X145081999Y-90682461D02*
X145081999Y-90821999D01*
X145080000Y-90122500D02*
X145080000Y-90331238D01*
X144681500Y-89724000D02*
X145080000Y-90122500D01*
%TO.N,/SD_CLK*%
X155975000Y-107470000D02*
X155980000Y-107475000D01*
X155975000Y-103575000D02*
X155975000Y-107470000D01*
X157875000Y-98700000D02*
X157850000Y-98725000D01*
X157875000Y-95350000D02*
X157875000Y-98700000D01*
X153825000Y-91300000D02*
X157875000Y-95350000D01*
X148900000Y-91300000D02*
X153825000Y-91300000D01*
X146524000Y-88924000D02*
X148900000Y-91300000D01*
X146281500Y-88924000D02*
X146524000Y-88924000D01*
%TO.N,/SD_CMD*%
X158175000Y-107470000D02*
X158180000Y-107475000D01*
X158175000Y-105775000D02*
X158175000Y-107470000D01*
X158175000Y-102275000D02*
X158175000Y-102450000D01*
X155800000Y-99900000D02*
X158175000Y-102275000D01*
X155800000Y-96125000D02*
X155800000Y-99900000D01*
X145481500Y-88924000D02*
X145881001Y-89323501D01*
X146553262Y-90125000D02*
X149628262Y-93200000D01*
X145881001Y-89323501D02*
X145881001Y-89915761D01*
X145881001Y-89915761D02*
X145875000Y-89921762D01*
X145875000Y-89921762D02*
X145875000Y-89941558D01*
X145875000Y-89941558D02*
X146058442Y-90125000D01*
X146058442Y-90125000D02*
X146089238Y-90125000D01*
X146089238Y-90125000D02*
X146089739Y-90124499D01*
X146089739Y-90124499D02*
X146473261Y-90124499D01*
X146473261Y-90124499D02*
X146473762Y-90125000D01*
X146473762Y-90125000D02*
X146553262Y-90125000D01*
X149628262Y-93200000D02*
X152875000Y-93200000D01*
X152875000Y-93200000D02*
X155800000Y-96125000D01*
%TO.N,/SD_D3*%
X153575000Y-102275000D02*
X156325000Y-102275000D01*
X156325000Y-102275000D02*
X159280000Y-105230000D01*
X149075000Y-97775000D02*
X153575000Y-102275000D01*
X159280000Y-105230000D02*
X159280000Y-107475000D01*
X149075000Y-95325000D02*
X149075000Y-97775000D01*
X146625000Y-92875000D02*
X149075000Y-95325000D01*
X146625000Y-91915000D02*
X146625000Y-92875000D01*
X145481500Y-90771500D02*
X146625000Y-91915000D01*
X145481500Y-90524000D02*
X145481500Y-90771500D01*
%TO.N,/SD_D1*%
X152700000Y-107445000D02*
X152730000Y-107475000D01*
X152700000Y-105600000D02*
X152700000Y-107445000D01*
X151475000Y-95900000D02*
X151475000Y-98475000D01*
X146631738Y-91460000D02*
X147035000Y-91460000D01*
X151475000Y-98475000D02*
X152150000Y-99150000D01*
X145881999Y-90715761D02*
X146089739Y-90923501D01*
X145881999Y-90366537D02*
X145881999Y-90715761D01*
X146095239Y-90923501D02*
X146631738Y-91460000D01*
X145881001Y-90365539D02*
X145881999Y-90366537D01*
X146089739Y-90923501D02*
X146095239Y-90923501D01*
X145881001Y-90332239D02*
X145881001Y-90365539D01*
X147035000Y-91460000D02*
X151475000Y-95900000D01*
X145481500Y-89932738D02*
X145881001Y-90332239D01*
X145481500Y-89724000D02*
X145481500Y-89932738D01*
%TO.N,/SD_D2*%
X160380000Y-102930000D02*
X160380000Y-107475000D01*
X156725000Y-99275000D02*
X160380000Y-102930000D01*
X153075000Y-92025000D02*
X156725000Y-95675000D01*
X156725000Y-95675000D02*
X156725000Y-99275000D01*
X149105000Y-92025000D02*
X153075000Y-92025000D01*
X146804000Y-89724000D02*
X149105000Y-92025000D01*
X146281500Y-89724000D02*
X146804000Y-89724000D01*
%TD*%
D27*
%TO.N,+1V5*%
X139875468Y-83046197D02*
X139906789Y-83121813D01*
X139952260Y-83189866D01*
X140010134Y-83247740D01*
X140078187Y-83293211D01*
X140153803Y-83324532D01*
X140234077Y-83340500D01*
X140244316Y-83340500D01*
X140286500Y-83382684D01*
X140286500Y-84867316D01*
X140244317Y-84909500D01*
X140234077Y-84909500D01*
X140153803Y-84925468D01*
X140078187Y-84956789D01*
X140010134Y-85002260D01*
X139952260Y-85060134D01*
X139906789Y-85128187D01*
X139904174Y-85134500D01*
X139045826Y-85134500D01*
X139043211Y-85128187D01*
X138997740Y-85060134D01*
X138939866Y-85002260D01*
X138871813Y-84956789D01*
X138840500Y-84943819D01*
X138840500Y-84525000D01*
X138836840Y-84487835D01*
X138825999Y-84452099D01*
X138808395Y-84419164D01*
X138784704Y-84390296D01*
X138755836Y-84366605D01*
X138722901Y-84349001D01*
X138713500Y-84346149D01*
X138713500Y-83340500D01*
X138715923Y-83340500D01*
X138796197Y-83324532D01*
X138871813Y-83293211D01*
X138939866Y-83247740D01*
X138997740Y-83189866D01*
X139043211Y-83121813D01*
X139074532Y-83046197D01*
X139086009Y-82988500D01*
X139863991Y-82988500D01*
X139875468Y-83046197D01*
%TA.AperFunction,Conductor*%
D29*
G36*
X139875468Y-83046197D02*
G01*
X139906789Y-83121813D01*
X139952260Y-83189866D01*
X140010134Y-83247740D01*
X140078187Y-83293211D01*
X140153803Y-83324532D01*
X140234077Y-83340500D01*
X140244316Y-83340500D01*
X140286500Y-83382684D01*
X140286500Y-84867316D01*
X140244317Y-84909500D01*
X140234077Y-84909500D01*
X140153803Y-84925468D01*
X140078187Y-84956789D01*
X140010134Y-85002260D01*
X139952260Y-85060134D01*
X139906789Y-85128187D01*
X139904174Y-85134500D01*
X139045826Y-85134500D01*
X139043211Y-85128187D01*
X138997740Y-85060134D01*
X138939866Y-85002260D01*
X138871813Y-84956789D01*
X138840500Y-84943819D01*
X138840500Y-84525000D01*
X138836840Y-84487835D01*
X138825999Y-84452099D01*
X138808395Y-84419164D01*
X138784704Y-84390296D01*
X138755836Y-84366605D01*
X138722901Y-84349001D01*
X138713500Y-84346149D01*
X138713500Y-83340500D01*
X138715923Y-83340500D01*
X138796197Y-83324532D01*
X138871813Y-83293211D01*
X138939866Y-83247740D01*
X138997740Y-83189866D01*
X139043211Y-83121813D01*
X139074532Y-83046197D01*
X139086009Y-82988500D01*
X139863991Y-82988500D01*
X139875468Y-83046197D01*
G37*
%TD.AperFunction*%
%TD*%
D27*
%TO.N,/SOC_CAP*%
X140675468Y-82246197D02*
X140706789Y-82321813D01*
X140752260Y-82389866D01*
X140810134Y-82447740D01*
X140878187Y-82493211D01*
X140953803Y-82524532D01*
X140986500Y-82531036D01*
X140986500Y-85718964D01*
X140953803Y-85725468D01*
X140878187Y-85756789D01*
X140810134Y-85802260D01*
X140752260Y-85860134D01*
X140706789Y-85928187D01*
X140675468Y-86003803D01*
X140663991Y-86061500D01*
X140440500Y-86061500D01*
X140440500Y-85491592D01*
X140455836Y-85483395D01*
X140484704Y-85459704D01*
X140508395Y-85430836D01*
X140525999Y-85397901D01*
X140536840Y-85362165D01*
X140540500Y-85325000D01*
X140540500Y-82925000D01*
X140536840Y-82887835D01*
X140525999Y-82852099D01*
X140508395Y-82819164D01*
X140484704Y-82790296D01*
X140455836Y-82766605D01*
X140422901Y-82749001D01*
X140387165Y-82738160D01*
X140350000Y-82734500D01*
X139845826Y-82734500D01*
X139843211Y-82728187D01*
X139797740Y-82660134D01*
X139739866Y-82602260D01*
X139671813Y-82556789D01*
X139596197Y-82525468D01*
X139515923Y-82509500D01*
X139434077Y-82509500D01*
X139353803Y-82525468D01*
X139278187Y-82556789D01*
X139210134Y-82602260D01*
X139152260Y-82660134D01*
X139106789Y-82728187D01*
X139104174Y-82734500D01*
X138650000Y-82734500D01*
X138612835Y-82738160D01*
X138577099Y-82749001D01*
X138544164Y-82766605D01*
X138515296Y-82790296D01*
X138491605Y-82819164D01*
X138474001Y-82852099D01*
X138463160Y-82887835D01*
X138459500Y-82925000D01*
X138459500Y-84334500D01*
X137913500Y-84334500D01*
X137913500Y-82561009D01*
X137971197Y-82549532D01*
X138046813Y-82518211D01*
X138114866Y-82472740D01*
X138172740Y-82414866D01*
X138218211Y-82346813D01*
X138249532Y-82271197D01*
X138265500Y-82190923D01*
X138265500Y-82188500D01*
X140663991Y-82188500D01*
X140675468Y-82246197D01*
%TA.AperFunction,Conductor*%
D29*
G36*
X140675468Y-82246197D02*
G01*
X140706789Y-82321813D01*
X140752260Y-82389866D01*
X140810134Y-82447740D01*
X140878187Y-82493211D01*
X140953803Y-82524532D01*
X140986500Y-82531036D01*
X140986500Y-85718964D01*
X140953803Y-85725468D01*
X140878187Y-85756789D01*
X140810134Y-85802260D01*
X140752260Y-85860134D01*
X140706789Y-85928187D01*
X140675468Y-86003803D01*
X140663991Y-86061500D01*
X140440500Y-86061500D01*
X140440500Y-85491592D01*
X140455836Y-85483395D01*
X140484704Y-85459704D01*
X140508395Y-85430836D01*
X140525999Y-85397901D01*
X140536840Y-85362165D01*
X140540500Y-85325000D01*
X140540500Y-82925000D01*
X140536840Y-82887835D01*
X140525999Y-82852099D01*
X140508395Y-82819164D01*
X140484704Y-82790296D01*
X140455836Y-82766605D01*
X140422901Y-82749001D01*
X140387165Y-82738160D01*
X140350000Y-82734500D01*
X139845826Y-82734500D01*
X139843211Y-82728187D01*
X139797740Y-82660134D01*
X139739866Y-82602260D01*
X139671813Y-82556789D01*
X139596197Y-82525468D01*
X139515923Y-82509500D01*
X139434077Y-82509500D01*
X139353803Y-82525468D01*
X139278187Y-82556789D01*
X139210134Y-82602260D01*
X139152260Y-82660134D01*
X139106789Y-82728187D01*
X139104174Y-82734500D01*
X138650000Y-82734500D01*
X138612835Y-82738160D01*
X138577099Y-82749001D01*
X138544164Y-82766605D01*
X138515296Y-82790296D01*
X138491605Y-82819164D01*
X138474001Y-82852099D01*
X138463160Y-82887835D01*
X138459500Y-82925000D01*
X138459500Y-84334500D01*
X137913500Y-84334500D01*
X137913500Y-82561009D01*
X137971197Y-82549532D01*
X138046813Y-82518211D01*
X138114866Y-82472740D01*
X138172740Y-82414866D01*
X138218211Y-82346813D01*
X138249532Y-82271197D01*
X138265500Y-82190923D01*
X138265500Y-82188500D01*
X140663991Y-82188500D01*
X140675468Y-82246197D01*
G37*
%TD.AperFunction*%
%TD*%
D27*
%TO.N,/ARM_CAP*%
X138586500Y-85325000D02*
X138587720Y-85337388D01*
X138591334Y-85349300D01*
X138597202Y-85360279D01*
X138605099Y-85369901D01*
X138614721Y-85377798D01*
X138625700Y-85383666D01*
X138637612Y-85387280D01*
X138650000Y-85388500D01*
X139063991Y-85388500D01*
X139075468Y-85446197D01*
X139106789Y-85521813D01*
X139152260Y-85589866D01*
X139210134Y-85647740D01*
X139278187Y-85693211D01*
X139353803Y-85724532D01*
X139434077Y-85740500D01*
X139515923Y-85740500D01*
X139596197Y-85724532D01*
X139671813Y-85693211D01*
X139739866Y-85647740D01*
X139797740Y-85589866D01*
X139843211Y-85521813D01*
X139874532Y-85446197D01*
X139875000Y-85443844D01*
X139875468Y-85446197D01*
X139906789Y-85521813D01*
X139952260Y-85589866D01*
X140010134Y-85647740D01*
X140078187Y-85693211D01*
X140153803Y-85724532D01*
X140186500Y-85731036D01*
X140186500Y-86061500D01*
X138286009Y-86061500D01*
X138274532Y-86003803D01*
X138243211Y-85928187D01*
X138197740Y-85860134D01*
X138139866Y-85802260D01*
X138071813Y-85756789D01*
X137996197Y-85725468D01*
X137915923Y-85709500D01*
X137913500Y-85709500D01*
X137913500Y-84588500D01*
X138586500Y-84588500D01*
X138586500Y-85325000D01*
%TA.AperFunction,Conductor*%
D29*
G36*
X138586500Y-85325000D02*
G01*
X138587720Y-85337388D01*
X138591334Y-85349300D01*
X138597202Y-85360279D01*
X138605099Y-85369901D01*
X138614721Y-85377798D01*
X138625700Y-85383666D01*
X138637612Y-85387280D01*
X138650000Y-85388500D01*
X139063991Y-85388500D01*
X139075468Y-85446197D01*
X139106789Y-85521813D01*
X139152260Y-85589866D01*
X139210134Y-85647740D01*
X139278187Y-85693211D01*
X139353803Y-85724532D01*
X139434077Y-85740500D01*
X139515923Y-85740500D01*
X139596197Y-85724532D01*
X139671813Y-85693211D01*
X139739866Y-85647740D01*
X139797740Y-85589866D01*
X139843211Y-85521813D01*
X139874532Y-85446197D01*
X139875000Y-85443844D01*
X139875468Y-85446197D01*
X139906789Y-85521813D01*
X139952260Y-85589866D01*
X140010134Y-85647740D01*
X140078187Y-85693211D01*
X140153803Y-85724532D01*
X140186500Y-85731036D01*
X140186500Y-86061500D01*
X138286009Y-86061500D01*
X138274532Y-86003803D01*
X138243211Y-85928187D01*
X138197740Y-85860134D01*
X138139866Y-85802260D01*
X138071813Y-85756789D01*
X137996197Y-85725468D01*
X137915923Y-85709500D01*
X137913500Y-85709500D01*
X137913500Y-84588500D01*
X138586500Y-84588500D01*
X138586500Y-85325000D01*
G37*
%TD.AperFunction*%
%TD*%
D27*
%TO.N,GND*%
X141759500Y-86025000D02*
X141763160Y-86062165D01*
X141774001Y-86097901D01*
X141791605Y-86130836D01*
X141815296Y-86159704D01*
X141844164Y-86183395D01*
X141877099Y-86200999D01*
X141912835Y-86211840D01*
X141950000Y-86215500D01*
X142586500Y-86215500D01*
X142586500Y-86861500D01*
X137213500Y-86861500D01*
X137213500Y-82125000D01*
X137659500Y-82125000D01*
X137659500Y-86125000D01*
X137663160Y-86162165D01*
X137674001Y-86197901D01*
X137691605Y-86230836D01*
X137715296Y-86259704D01*
X137744164Y-86283395D01*
X137777099Y-86300999D01*
X137812835Y-86311840D01*
X137850000Y-86315500D01*
X141050000Y-86315500D01*
X141087165Y-86311840D01*
X141122901Y-86300999D01*
X141155836Y-86283395D01*
X141184704Y-86259704D01*
X141208395Y-86230836D01*
X141225999Y-86197901D01*
X141236840Y-86162165D01*
X141240500Y-86125000D01*
X141240500Y-82125000D01*
X141236840Y-82087835D01*
X141225999Y-82052099D01*
X141208395Y-82019164D01*
X141184704Y-81990296D01*
X141155836Y-81966605D01*
X141122901Y-81949001D01*
X141087165Y-81938160D01*
X141050000Y-81934500D01*
X137850000Y-81934500D01*
X137812835Y-81938160D01*
X137777099Y-81949001D01*
X137744164Y-81966605D01*
X137715296Y-81990296D01*
X137691605Y-82019164D01*
X137674001Y-82052099D01*
X137663160Y-82087835D01*
X137659500Y-82125000D01*
X137213500Y-82125000D01*
X137213500Y-81388500D01*
X141759500Y-81388500D01*
X141759500Y-86025000D01*
%TA.AperFunction,Conductor*%
D29*
G36*
X141759500Y-86025000D02*
G01*
X141763160Y-86062165D01*
X141774001Y-86097901D01*
X141791605Y-86130836D01*
X141815296Y-86159704D01*
X141844164Y-86183395D01*
X141877099Y-86200999D01*
X141912835Y-86211840D01*
X141950000Y-86215500D01*
X142586500Y-86215500D01*
X142586500Y-86861500D01*
X137213500Y-86861500D01*
X137213500Y-82125000D01*
X137659500Y-82125000D01*
X137659500Y-86125000D01*
X137663160Y-86162165D01*
X137674001Y-86197901D01*
X137691605Y-86230836D01*
X137715296Y-86259704D01*
X137744164Y-86283395D01*
X137777099Y-86300999D01*
X137812835Y-86311840D01*
X137850000Y-86315500D01*
X141050000Y-86315500D01*
X141087165Y-86311840D01*
X141122901Y-86300999D01*
X141155836Y-86283395D01*
X141184704Y-86259704D01*
X141208395Y-86230836D01*
X141225999Y-86197901D01*
X141236840Y-86162165D01*
X141240500Y-86125000D01*
X141240500Y-82125000D01*
X141236840Y-82087835D01*
X141225999Y-82052099D01*
X141208395Y-82019164D01*
X141184704Y-81990296D01*
X141155836Y-81966605D01*
X141122901Y-81949001D01*
X141087165Y-81938160D01*
X141050000Y-81934500D01*
X137850000Y-81934500D01*
X137812835Y-81938160D01*
X137777099Y-81949001D01*
X137744164Y-81966605D01*
X137715296Y-81990296D01*
X137691605Y-82019164D01*
X137674001Y-82052099D01*
X137663160Y-82087835D01*
X137659500Y-82125000D01*
X137213500Y-82125000D01*
X137213500Y-81388500D01*
X141759500Y-81388500D01*
X141759500Y-86025000D01*
G37*
%TD.AperFunction*%
%TD*%
D27*
%TO.N,+1V5*%
X142586500Y-84118964D02*
X142553803Y-84125468D01*
X142478187Y-84156789D01*
X142410134Y-84202260D01*
X142352260Y-84260134D01*
X142306789Y-84328187D01*
X142275468Y-84403803D01*
X142259500Y-84484077D01*
X142259500Y-84565923D01*
X142275468Y-84646197D01*
X142306789Y-84721813D01*
X142352260Y-84789866D01*
X142410134Y-84847740D01*
X142478187Y-84893211D01*
X142553803Y-84924532D01*
X142586500Y-84931036D01*
X142586500Y-85772817D01*
X142397816Y-85961500D01*
X142013500Y-85961500D01*
X142013500Y-84117365D01*
X142071813Y-84093211D01*
X142139866Y-84047740D01*
X142197740Y-83989866D01*
X142243211Y-83921813D01*
X142274532Y-83846197D01*
X142290500Y-83765923D01*
X142290500Y-83684077D01*
X142274532Y-83603803D01*
X142243211Y-83528187D01*
X142197740Y-83460134D01*
X142139866Y-83402260D01*
X142071813Y-83356789D01*
X142013500Y-83332635D01*
X142013500Y-81388500D01*
X142586500Y-81388500D01*
X142586500Y-84118964D01*
%TA.AperFunction,Conductor*%
D29*
G36*
X142586500Y-84118964D02*
G01*
X142553803Y-84125468D01*
X142478187Y-84156789D01*
X142410134Y-84202260D01*
X142352260Y-84260134D01*
X142306789Y-84328187D01*
X142275468Y-84403803D01*
X142259500Y-84484077D01*
X142259500Y-84565923D01*
X142275468Y-84646197D01*
X142306789Y-84721813D01*
X142352260Y-84789866D01*
X142410134Y-84847740D01*
X142478187Y-84893211D01*
X142553803Y-84924532D01*
X142586500Y-84931036D01*
X142586500Y-85772817D01*
X142397816Y-85961500D01*
X142013500Y-85961500D01*
X142013500Y-84117365D01*
X142071813Y-84093211D01*
X142139866Y-84047740D01*
X142197740Y-83989866D01*
X142243211Y-83921813D01*
X142274532Y-83846197D01*
X142290500Y-83765923D01*
X142290500Y-83684077D01*
X142274532Y-83603803D01*
X142243211Y-83528187D01*
X142197740Y-83460134D01*
X142139866Y-83402260D01*
X142071813Y-83356789D01*
X142013500Y-83332635D01*
X142013500Y-81388500D01*
X142586500Y-81388500D01*
X142586500Y-84118964D01*
G37*
%TD.AperFunction*%
%TD*%
M02*
