%TF.GenerationSoftware,KiCad,Pcbnew,(5.1.7)-1*%
%TF.CreationDate,2020-12-15T14:41:59-08:00*%
%TF.ProjectId,Keychain,4b657963-6861-4696-9e2e-6b696361645f,rev?*%
%TF.SameCoordinates,Original*%
%TF.FileFunction,Legend,Top*%
%TF.FilePolarity,Positive*%
%FSLAX46Y46*%
G04 Gerber Fmt 4.6, Leading zero omitted, Abs format (unit mm)*
G04 Created by KiCad (PCBNEW (5.1.7)-1) date 2020-12-15 14:41:59*
%MOMM*%
%LPD*%
G01*
G04 APERTURE LIST*
%ADD10C,0.120000*%
%ADD11C,0.150000*%
%ADD12C,0.125000*%
G04 APERTURE END LIST*
D10*
%TO.C,J2*%
X142330000Y-65540000D02*
X142330000Y-66870000D01*
X141000000Y-65540000D02*
X142330000Y-65540000D01*
X139730000Y-65540000D02*
X139730000Y-68200000D01*
X139730000Y-68200000D02*
X132050000Y-68200000D01*
X139730000Y-65540000D02*
X132050000Y-65540000D01*
X132050000Y-65540000D02*
X132050000Y-68200000D01*
%TO.C,J3*%
X133850000Y-111440000D02*
X133850000Y-103330000D01*
X133850000Y-111440000D02*
X133200000Y-111440000D01*
X133850000Y-96480000D02*
X147170000Y-96480000D01*
X133850000Y-96480000D02*
X133850000Y-99810000D01*
X147170000Y-96480000D02*
X147170000Y-99810000D01*
X147820000Y-111960000D02*
X147820000Y-111440000D01*
X133200000Y-111960000D02*
X147820000Y-111960000D01*
X147170000Y-103330000D02*
X147170000Y-111440000D01*
X133200000Y-111440000D02*
X133200000Y-111960000D01*
X147820000Y-111440000D02*
X147170000Y-111440000D01*
X136110000Y-96260000D02*
X137910000Y-96260000D01*
%TO.C,U4*%
X127600000Y-73370000D02*
X133610000Y-73370000D01*
X129850000Y-80190000D02*
X133610000Y-80190000D01*
X133610000Y-73370000D02*
X133610000Y-74630000D01*
X133610000Y-80190000D02*
X133610000Y-78930000D01*
%TO.C,U3*%
X127540000Y-84290000D02*
X133550000Y-84290000D01*
X129790000Y-91110000D02*
X133550000Y-91110000D01*
X133550000Y-84290000D02*
X133550000Y-85550000D01*
X133550000Y-91110000D02*
X133550000Y-89850000D01*
%TO.C,J1*%
X151300000Y-98720000D02*
X151300000Y-103170000D01*
X151300000Y-104570000D02*
X151300000Y-106870000D01*
X151300000Y-108270000D02*
X151300000Y-108990000D01*
X151300000Y-108990000D02*
X153980000Y-108990000D01*
X156280000Y-108990000D02*
X159950000Y-108990000D01*
X162250000Y-108990000D02*
X163480000Y-108990000D01*
X163480000Y-108990000D02*
X163480000Y-99170000D01*
X152780000Y-97350000D02*
X153640000Y-97350000D01*
D11*
%TO.C,U2*%
X172915000Y-73800000D02*
X165465000Y-73800000D01*
X172915000Y-88300000D02*
X172915000Y-73800000D01*
X164415000Y-88300000D02*
X172915000Y-88300000D01*
X164415000Y-74850000D02*
X164415000Y-88300000D01*
X165465000Y-73800000D02*
X164415000Y-74850000D01*
%TO.C,U1*%
X139731500Y-92499000D02*
X139731500Y-78099000D01*
X154131500Y-78099000D02*
X139731500Y-78099000D01*
X153331500Y-92499000D02*
X139731500Y-92499000D01*
X154131500Y-91699000D02*
X154131500Y-78099000D01*
X153331500Y-92499000D02*
X153631500Y-92499000D01*
X153631500Y-92499000D02*
X154131500Y-91999000D01*
X154131500Y-91999000D02*
X154131500Y-91699000D01*
%TO.C,J2*%
X142782380Y-67203333D02*
X143496666Y-67203333D01*
X143639523Y-67250952D01*
X143734761Y-67346190D01*
X143782380Y-67489047D01*
X143782380Y-67584285D01*
X142877619Y-66774761D02*
X142830000Y-66727142D01*
X142782380Y-66631904D01*
X142782380Y-66393809D01*
X142830000Y-66298571D01*
X142877619Y-66250952D01*
X142972857Y-66203333D01*
X143068095Y-66203333D01*
X143210952Y-66250952D01*
X143782380Y-66822380D01*
X143782380Y-66203333D01*
%TO.C,J3*%
X137966666Y-94452380D02*
X137966666Y-95166666D01*
X137919047Y-95309523D01*
X137823809Y-95404761D01*
X137680952Y-95452380D01*
X137585714Y-95452380D01*
X138347619Y-94452380D02*
X138966666Y-94452380D01*
X138633333Y-94833333D01*
X138776190Y-94833333D01*
X138871428Y-94880952D01*
X138919047Y-94928571D01*
X138966666Y-95023809D01*
X138966666Y-95261904D01*
X138919047Y-95357142D01*
X138871428Y-95404761D01*
X138776190Y-95452380D01*
X138490476Y-95452380D01*
X138395238Y-95404761D01*
X138347619Y-95357142D01*
%TO.C,U4*%
X132938095Y-71732380D02*
X132938095Y-72541904D01*
X132985714Y-72637142D01*
X133033333Y-72684761D01*
X133128571Y-72732380D01*
X133319047Y-72732380D01*
X133414285Y-72684761D01*
X133461904Y-72637142D01*
X133509523Y-72541904D01*
X133509523Y-71732380D01*
X134414285Y-72065714D02*
X134414285Y-72732380D01*
X134176190Y-71684761D02*
X133938095Y-72399047D01*
X134557142Y-72399047D01*
%TO.C,U3*%
X130878095Y-82652380D02*
X130878095Y-83461904D01*
X130925714Y-83557142D01*
X130973333Y-83604761D01*
X131068571Y-83652380D01*
X131259047Y-83652380D01*
X131354285Y-83604761D01*
X131401904Y-83557142D01*
X131449523Y-83461904D01*
X131449523Y-82652380D01*
X131830476Y-82652380D02*
X132449523Y-82652380D01*
X132116190Y-83033333D01*
X132259047Y-83033333D01*
X132354285Y-83080952D01*
X132401904Y-83128571D01*
X132449523Y-83223809D01*
X132449523Y-83461904D01*
X132401904Y-83557142D01*
X132354285Y-83604761D01*
X132259047Y-83652380D01*
X131973333Y-83652380D01*
X131878095Y-83604761D01*
X131830476Y-83557142D01*
%TO.C,J1*%
X163356666Y-95072380D02*
X163356666Y-95786666D01*
X163309047Y-95929523D01*
X163213809Y-96024761D01*
X163070952Y-96072380D01*
X162975714Y-96072380D01*
X164356666Y-96072380D02*
X163785238Y-96072380D01*
X164070952Y-96072380D02*
X164070952Y-95072380D01*
X163975714Y-95215238D01*
X163880476Y-95310476D01*
X163785238Y-95358095D01*
%TO.C,U2*%
X167903095Y-88502380D02*
X167903095Y-89311904D01*
X167950714Y-89407142D01*
X167998333Y-89454761D01*
X168093571Y-89502380D01*
X168284047Y-89502380D01*
X168379285Y-89454761D01*
X168426904Y-89407142D01*
X168474523Y-89311904D01*
X168474523Y-88502380D01*
X168903095Y-88597619D02*
X168950714Y-88550000D01*
X169045952Y-88502380D01*
X169284047Y-88502380D01*
X169379285Y-88550000D01*
X169426904Y-88597619D01*
X169474523Y-88692857D01*
X169474523Y-88788095D01*
X169426904Y-88930952D01*
X168855476Y-89502380D01*
X169474523Y-89502380D01*
X170988809Y-72154761D02*
X170912619Y-72116666D01*
X170874523Y-72078571D01*
X170836428Y-72002380D01*
X170836428Y-71964285D01*
X170874523Y-71888095D01*
X170912619Y-71850000D01*
X170988809Y-71811904D01*
X171141190Y-71811904D01*
X171217380Y-71850000D01*
X171255476Y-71888095D01*
X171293571Y-71964285D01*
X171293571Y-72002380D01*
X171255476Y-72078571D01*
X171217380Y-72116666D01*
X171141190Y-72154761D01*
X170988809Y-72154761D01*
X170912619Y-72192857D01*
X170874523Y-72230952D01*
X170836428Y-72307142D01*
X170836428Y-72459523D01*
X170874523Y-72535714D01*
X170912619Y-72573809D01*
X170988809Y-72611904D01*
X171141190Y-72611904D01*
X171217380Y-72573809D01*
X171255476Y-72535714D01*
X171293571Y-72459523D01*
X171293571Y-72307142D01*
X171255476Y-72230952D01*
X171217380Y-72192857D01*
X171141190Y-72154761D01*
X169998333Y-72611904D02*
X170531666Y-72611904D01*
X170188809Y-73411904D01*
X166798333Y-72611904D02*
X167293571Y-72611904D01*
X167026904Y-72916666D01*
X167141190Y-72916666D01*
X167217380Y-72954761D01*
X167255476Y-72992857D01*
X167293571Y-73069047D01*
X167293571Y-73259523D01*
X167255476Y-73335714D01*
X167217380Y-73373809D01*
X167141190Y-73411904D01*
X166912619Y-73411904D01*
X166836428Y-73373809D01*
X166798333Y-73335714D01*
X166036428Y-71888095D02*
X166074523Y-71850000D01*
X166150714Y-71811904D01*
X166341190Y-71811904D01*
X166417380Y-71850000D01*
X166455476Y-71888095D01*
X166493571Y-71964285D01*
X166493571Y-72040476D01*
X166455476Y-72154761D01*
X165998333Y-72611904D01*
X166493571Y-72611904D01*
X171712619Y-73411904D02*
X171865000Y-73411904D01*
X171941190Y-73373809D01*
X171979285Y-73335714D01*
X172055476Y-73221428D01*
X172093571Y-73069047D01*
X172093571Y-72764285D01*
X172055476Y-72688095D01*
X172017380Y-72650000D01*
X171941190Y-72611904D01*
X171788809Y-72611904D01*
X171712619Y-72650000D01*
X171674523Y-72688095D01*
X171636428Y-72764285D01*
X171636428Y-72954761D01*
X171674523Y-73030952D01*
X171712619Y-73069047D01*
X171788809Y-73107142D01*
X171941190Y-73107142D01*
X172017380Y-73069047D01*
X172055476Y-73030952D01*
X172093571Y-72954761D01*
X165693571Y-73411904D02*
X165236428Y-73411904D01*
X165465000Y-73411904D02*
X165465000Y-72611904D01*
X165388809Y-72726190D01*
X165312619Y-72802380D01*
X165236428Y-72840476D01*
X162836428Y-86611904D02*
X163293571Y-86611904D01*
X163065000Y-87411904D02*
X163065000Y-86611904D01*
X164112619Y-86611904D02*
X163845952Y-86230952D01*
X163655476Y-86611904D02*
X163655476Y-85811904D01*
X163960238Y-85811904D01*
X164036428Y-85850000D01*
X164074523Y-85888095D01*
X164112619Y-85964285D01*
X164112619Y-86078571D01*
X164074523Y-86154761D01*
X164036428Y-86192857D01*
X163960238Y-86230952D01*
X163655476Y-86230952D01*
X162855476Y-85811904D02*
X162855476Y-85011904D01*
X163160238Y-85011904D01*
X163236428Y-85050000D01*
X163274523Y-85088095D01*
X163312619Y-85164285D01*
X163312619Y-85278571D01*
X163274523Y-85354761D01*
X163236428Y-85392857D01*
X163160238Y-85430952D01*
X162855476Y-85430952D01*
X163636428Y-85011904D02*
X163636428Y-84211904D01*
X164093571Y-85011904D01*
X164093571Y-84211904D01*
X162798333Y-84211904D02*
X162798333Y-83411904D01*
X163065000Y-83983333D01*
X163331666Y-83411904D01*
X163331666Y-84211904D01*
X164112619Y-83411904D02*
X163731666Y-83411904D01*
X163731666Y-82611904D01*
X162855476Y-82611904D02*
X162855476Y-81811904D01*
X163312619Y-82611904D02*
X162969761Y-82154761D01*
X163312619Y-81811904D02*
X162855476Y-82269047D01*
X163979285Y-81011904D02*
X163979285Y-81583333D01*
X163941190Y-81697619D01*
X163865000Y-81773809D01*
X163750714Y-81811904D01*
X163674523Y-81811904D01*
X162836428Y-81011904D02*
X162836428Y-80211904D01*
X162836428Y-80592857D02*
X163293571Y-80592857D01*
X163293571Y-81011904D02*
X163293571Y-80211904D01*
X164074523Y-79450000D02*
X163998333Y-79411904D01*
X163884047Y-79411904D01*
X163769761Y-79450000D01*
X163693571Y-79526190D01*
X163655476Y-79602380D01*
X163617380Y-79754761D01*
X163617380Y-79869047D01*
X163655476Y-80021428D01*
X163693571Y-80097619D01*
X163769761Y-80173809D01*
X163884047Y-80211904D01*
X163960238Y-80211904D01*
X164074523Y-80173809D01*
X164112619Y-80135714D01*
X164112619Y-79869047D01*
X163960238Y-79869047D01*
X163179285Y-78992857D02*
X162912619Y-78992857D01*
X162912619Y-79411904D02*
X162912619Y-78611904D01*
X163293571Y-78611904D01*
X163693571Y-78192857D02*
X163960238Y-78192857D01*
X164074523Y-78611904D02*
X163693571Y-78611904D01*
X163693571Y-77811904D01*
X164074523Y-77811904D01*
X162855476Y-77811904D02*
X162855476Y-77011904D01*
X163045952Y-77011904D01*
X163160238Y-77050000D01*
X163236428Y-77126190D01*
X163274523Y-77202380D01*
X163312619Y-77354761D01*
X163312619Y-77469047D01*
X163274523Y-77621428D01*
X163236428Y-77697619D01*
X163160238Y-77773809D01*
X163045952Y-77811904D01*
X162855476Y-77811904D01*
X164112619Y-76935714D02*
X164074523Y-76973809D01*
X163960238Y-77011904D01*
X163884047Y-77011904D01*
X163769761Y-76973809D01*
X163693571Y-76897619D01*
X163655476Y-76821428D01*
X163617380Y-76669047D01*
X163617380Y-76554761D01*
X163655476Y-76402380D01*
X163693571Y-76326190D01*
X163769761Y-76250000D01*
X163884047Y-76211904D01*
X163960238Y-76211904D01*
X164074523Y-76250000D01*
X164112619Y-76288095D01*
X163122142Y-75792857D02*
X163236428Y-75830952D01*
X163274523Y-75869047D01*
X163312619Y-75945238D01*
X163312619Y-76059523D01*
X163274523Y-76135714D01*
X163236428Y-76173809D01*
X163160238Y-76211904D01*
X162855476Y-76211904D01*
X162855476Y-75411904D01*
X163122142Y-75411904D01*
X163198333Y-75450000D01*
X163236428Y-75488095D01*
X163274523Y-75564285D01*
X163274523Y-75640476D01*
X163236428Y-75716666D01*
X163198333Y-75754761D01*
X163122142Y-75792857D01*
X162855476Y-75792857D01*
X163674523Y-75183333D02*
X164055476Y-75183333D01*
X163598333Y-75411904D02*
X163865000Y-74611904D01*
X164131666Y-75411904D01*
%TO.C,U1*%
X139698095Y-76632380D02*
X139698095Y-77441904D01*
X139745714Y-77537142D01*
X139793333Y-77584761D01*
X139888571Y-77632380D01*
X140079047Y-77632380D01*
X140174285Y-77584761D01*
X140221904Y-77537142D01*
X140269523Y-77441904D01*
X140269523Y-76632380D01*
X141269523Y-77632380D02*
X140698095Y-77632380D01*
X140983809Y-77632380D02*
X140983809Y-76632380D01*
X140888571Y-76775238D01*
X140793333Y-76870476D01*
X140698095Y-76918095D01*
X154741023Y-91832333D02*
X155121976Y-91832333D01*
X154664833Y-92060904D02*
X154931500Y-91260904D01*
X155198166Y-92060904D01*
X155788642Y-90841857D02*
X155902928Y-90879952D01*
X155941023Y-90918047D01*
X155979119Y-90994238D01*
X155979119Y-91108523D01*
X155941023Y-91184714D01*
X155902928Y-91222809D01*
X155826738Y-91260904D01*
X155521976Y-91260904D01*
X155521976Y-90460904D01*
X155788642Y-90460904D01*
X155864833Y-90499000D01*
X155902928Y-90537095D01*
X155941023Y-90613285D01*
X155941023Y-90689476D01*
X155902928Y-90765666D01*
X155864833Y-90803761D01*
X155788642Y-90841857D01*
X155521976Y-90841857D01*
X155179119Y-90384714D02*
X155141023Y-90422809D01*
X155026738Y-90460904D01*
X154950547Y-90460904D01*
X154836261Y-90422809D01*
X154760071Y-90346619D01*
X154721976Y-90270428D01*
X154683880Y-90118047D01*
X154683880Y-90003761D01*
X154721976Y-89851380D01*
X154760071Y-89775190D01*
X154836261Y-89699000D01*
X154950547Y-89660904D01*
X155026738Y-89660904D01*
X155141023Y-89699000D01*
X155179119Y-89737095D01*
X155521976Y-89660904D02*
X155521976Y-88860904D01*
X155712452Y-88860904D01*
X155826738Y-88899000D01*
X155902928Y-88975190D01*
X155941023Y-89051380D01*
X155979119Y-89203761D01*
X155979119Y-89318047D01*
X155941023Y-89470428D01*
X155902928Y-89546619D01*
X155826738Y-89622809D01*
X155712452Y-89660904D01*
X155521976Y-89660904D01*
X154760071Y-88441857D02*
X155026738Y-88441857D01*
X155141023Y-88860904D02*
X154760071Y-88860904D01*
X154760071Y-88060904D01*
X155141023Y-88060904D01*
X155845785Y-87641857D02*
X155579119Y-87641857D01*
X155579119Y-88060904D02*
X155579119Y-87260904D01*
X155960071Y-87260904D01*
X155141023Y-86499000D02*
X155064833Y-86460904D01*
X154950547Y-86460904D01*
X154836261Y-86499000D01*
X154760071Y-86575190D01*
X154721976Y-86651380D01*
X154683880Y-86803761D01*
X154683880Y-86918047D01*
X154721976Y-87070428D01*
X154760071Y-87146619D01*
X154836261Y-87222809D01*
X154950547Y-87260904D01*
X155026738Y-87260904D01*
X155141023Y-87222809D01*
X155179119Y-87184714D01*
X155179119Y-86918047D01*
X155026738Y-86918047D01*
X155502928Y-86460904D02*
X155502928Y-85660904D01*
X155502928Y-86041857D02*
X155960071Y-86041857D01*
X155960071Y-86460904D02*
X155960071Y-85660904D01*
X155045785Y-84860904D02*
X155045785Y-85432333D01*
X155007690Y-85546619D01*
X154931500Y-85622809D01*
X154817214Y-85660904D01*
X154741023Y-85660904D01*
X155521976Y-84860904D02*
X155521976Y-84060904D01*
X155979119Y-84860904D02*
X155636261Y-84403761D01*
X155979119Y-84060904D02*
X155521976Y-84518047D01*
X155179119Y-84060904D02*
X154798166Y-84060904D01*
X154798166Y-83260904D01*
X155464833Y-83260904D02*
X155464833Y-82460904D01*
X155731500Y-83032333D01*
X155998166Y-82460904D01*
X155998166Y-83260904D01*
X155521976Y-81660904D02*
X155521976Y-80860904D01*
X155826738Y-80860904D01*
X155902928Y-80899000D01*
X155941023Y-80937095D01*
X155979119Y-81013285D01*
X155979119Y-81127571D01*
X155941023Y-81203761D01*
X155902928Y-81241857D01*
X155826738Y-81279952D01*
X155521976Y-81279952D01*
X155502928Y-79260904D02*
X155960071Y-79260904D01*
X155731500Y-80060904D02*
X155731500Y-79260904D01*
X154702928Y-82460904D02*
X154702928Y-81660904D01*
X155160071Y-82460904D01*
X155160071Y-81660904D01*
X155179119Y-80860904D02*
X154912452Y-80479952D01*
X154721976Y-80860904D02*
X154721976Y-80060904D01*
X155026738Y-80060904D01*
X155102928Y-80099000D01*
X155141023Y-80137095D01*
X155179119Y-80213285D01*
X155179119Y-80327571D01*
X155141023Y-80403761D01*
X155102928Y-80441857D01*
X155026738Y-80479952D01*
X154721976Y-80479952D01*
X154702928Y-78460904D02*
X154702928Y-79108523D01*
X154741023Y-79184714D01*
X154779119Y-79222809D01*
X154855309Y-79260904D01*
X155007690Y-79260904D01*
X155083880Y-79222809D01*
X155121976Y-79184714D01*
X155160071Y-79108523D01*
X155160071Y-78460904D01*
X153560071Y-93660904D02*
X153102928Y-93660904D01*
X153331500Y-93660904D02*
X153331500Y-92860904D01*
X153255309Y-92975190D01*
X153179119Y-93051380D01*
X153102928Y-93089476D01*
X152302928Y-93737095D02*
X152341023Y-93699000D01*
X152417214Y-93660904D01*
X152607690Y-93660904D01*
X152683880Y-93699000D01*
X152721976Y-93737095D01*
X152760071Y-93813285D01*
X152760071Y-93889476D01*
X152721976Y-94003761D01*
X152264833Y-94460904D01*
X152760071Y-94460904D01*
X151464833Y-92860904D02*
X151960071Y-92860904D01*
X151693404Y-93165666D01*
X151807690Y-93165666D01*
X151883880Y-93203761D01*
X151921976Y-93241857D01*
X151960071Y-93318047D01*
X151960071Y-93508523D01*
X151921976Y-93584714D01*
X151883880Y-93622809D01*
X151807690Y-93660904D01*
X151579119Y-93660904D01*
X151502928Y-93622809D01*
X151464833Y-93584714D01*
X151083880Y-93927571D02*
X151083880Y-94460904D01*
X150893404Y-93622809D02*
X150702928Y-94194238D01*
X151198166Y-94194238D01*
X150321976Y-92860904D02*
X149941023Y-92860904D01*
X149902928Y-93241857D01*
X149941023Y-93203761D01*
X150017214Y-93165666D01*
X150207690Y-93165666D01*
X150283880Y-93203761D01*
X150321976Y-93241857D01*
X150360071Y-93318047D01*
X150360071Y-93508523D01*
X150321976Y-93584714D01*
X150283880Y-93622809D01*
X150207690Y-93660904D01*
X150017214Y-93660904D01*
X149941023Y-93622809D01*
X149902928Y-93584714D01*
X149483880Y-93660904D02*
X149331500Y-93660904D01*
X149255309Y-93699000D01*
X149217214Y-93737095D01*
X149141023Y-93851380D01*
X149102928Y-94003761D01*
X149102928Y-94308523D01*
X149141023Y-94384714D01*
X149179119Y-94422809D01*
X149255309Y-94460904D01*
X149407690Y-94460904D01*
X149483880Y-94422809D01*
X149521976Y-94384714D01*
X149560071Y-94308523D01*
X149560071Y-94118047D01*
X149521976Y-94041857D01*
X149483880Y-94003761D01*
X149407690Y-93965666D01*
X149255309Y-93965666D01*
X149179119Y-94003761D01*
X149141023Y-94041857D01*
X149102928Y-94118047D01*
X148264833Y-92860904D02*
X148798166Y-92860904D01*
X148455309Y-93660904D01*
X147655309Y-94003761D02*
X147579119Y-93965666D01*
X147541023Y-93927571D01*
X147502928Y-93851380D01*
X147502928Y-93813285D01*
X147541023Y-93737095D01*
X147579119Y-93699000D01*
X147655309Y-93660904D01*
X147807690Y-93660904D01*
X147883880Y-93699000D01*
X147921976Y-93737095D01*
X147960071Y-93813285D01*
X147960071Y-93851380D01*
X147921976Y-93927571D01*
X147883880Y-93965666D01*
X147807690Y-94003761D01*
X147655309Y-94003761D01*
X147579119Y-94041857D01*
X147541023Y-94079952D01*
X147502928Y-94156142D01*
X147502928Y-94308523D01*
X147541023Y-94384714D01*
X147579119Y-94422809D01*
X147655309Y-94460904D01*
X147807690Y-94460904D01*
X147883880Y-94422809D01*
X147921976Y-94384714D01*
X147960071Y-94308523D01*
X147960071Y-94156142D01*
X147921976Y-94079952D01*
X147883880Y-94041857D01*
X147807690Y-94003761D01*
X146779119Y-93660904D02*
X146931500Y-93660904D01*
X147007690Y-93622809D01*
X147045785Y-93584714D01*
X147121976Y-93470428D01*
X147160071Y-93318047D01*
X147160071Y-93013285D01*
X147121976Y-92937095D01*
X147083880Y-92899000D01*
X147007690Y-92860904D01*
X146855309Y-92860904D01*
X146779119Y-92899000D01*
X146741023Y-92937095D01*
X146702928Y-93013285D01*
X146702928Y-93203761D01*
X146741023Y-93279952D01*
X146779119Y-93318047D01*
X146855309Y-93356142D01*
X147007690Y-93356142D01*
X147083880Y-93318047D01*
X147121976Y-93279952D01*
X147160071Y-93203761D01*
D12*
X146036261Y-94460904D02*
X145750547Y-94460904D01*
X145893404Y-94460904D02*
X145893404Y-93660904D01*
X145845785Y-93775190D01*
X145798166Y-93851380D01*
X145750547Y-93889476D01*
X146345785Y-93660904D02*
X146393404Y-93660904D01*
X146441023Y-93699000D01*
X146464833Y-93737095D01*
X146488642Y-93813285D01*
X146512452Y-93965666D01*
X146512452Y-94156142D01*
X146488642Y-94308523D01*
X146464833Y-94384714D01*
X146441023Y-94422809D01*
X146393404Y-94460904D01*
X146345785Y-94460904D01*
X146298166Y-94422809D01*
X146274357Y-94384714D01*
X146250547Y-94308523D01*
X146226738Y-94156142D01*
X146226738Y-93965666D01*
X146250547Y-93813285D01*
X146274357Y-93737095D01*
X146298166Y-93699000D01*
X146345785Y-93660904D01*
X145236261Y-93660904D02*
X144950547Y-93660904D01*
X145093404Y-93660904D02*
X145093404Y-92860904D01*
X145045785Y-92975190D01*
X144998166Y-93051380D01*
X144950547Y-93089476D01*
X145712452Y-93660904D02*
X145426738Y-93660904D01*
X145569595Y-93660904D02*
X145569595Y-92860904D01*
X145521976Y-92975190D01*
X145474357Y-93051380D01*
X145426738Y-93089476D01*
X144436261Y-94460904D02*
X144150547Y-94460904D01*
X144293404Y-94460904D02*
X144293404Y-93660904D01*
X144245785Y-93775190D01*
X144198166Y-93851380D01*
X144150547Y-93889476D01*
X144626738Y-93737095D02*
X144650547Y-93699000D01*
X144698166Y-93660904D01*
X144817214Y-93660904D01*
X144864833Y-93699000D01*
X144888642Y-93737095D01*
X144912452Y-93813285D01*
X144912452Y-93889476D01*
X144888642Y-94003761D01*
X144602928Y-94460904D01*
X144912452Y-94460904D01*
X143636261Y-93660904D02*
X143350547Y-93660904D01*
X143493404Y-93660904D02*
X143493404Y-92860904D01*
X143445785Y-92975190D01*
X143398166Y-93051380D01*
X143350547Y-93089476D01*
X143802928Y-92860904D02*
X144112452Y-92860904D01*
X143945785Y-93165666D01*
X144017214Y-93165666D01*
X144064833Y-93203761D01*
X144088642Y-93241857D01*
X144112452Y-93318047D01*
X144112452Y-93508523D01*
X144088642Y-93584714D01*
X144064833Y-93622809D01*
X144017214Y-93660904D01*
X143874357Y-93660904D01*
X143826738Y-93622809D01*
X143802928Y-93584714D01*
X142836261Y-94460904D02*
X142550547Y-94460904D01*
X142693404Y-94460904D02*
X142693404Y-93660904D01*
X142645785Y-93775190D01*
X142598166Y-93851380D01*
X142550547Y-93889476D01*
X143264833Y-93927571D02*
X143264833Y-94460904D01*
X143145785Y-93622809D02*
X143026738Y-94194238D01*
X143336261Y-94194238D01*
X142036261Y-93660904D02*
X141750547Y-93660904D01*
X141893404Y-93660904D02*
X141893404Y-92860904D01*
X141845785Y-92975190D01*
X141798166Y-93051380D01*
X141750547Y-93089476D01*
X142488642Y-92860904D02*
X142250547Y-92860904D01*
X142226738Y-93241857D01*
X142250547Y-93203761D01*
X142298166Y-93165666D01*
X142417214Y-93165666D01*
X142464833Y-93203761D01*
X142488642Y-93241857D01*
X142512452Y-93318047D01*
X142512452Y-93508523D01*
X142488642Y-93584714D01*
X142464833Y-93622809D01*
X142417214Y-93660904D01*
X142298166Y-93660904D01*
X142250547Y-93622809D01*
X142226738Y-93584714D01*
X141236261Y-94460904D02*
X140950547Y-94460904D01*
X141093404Y-94460904D02*
X141093404Y-93660904D01*
X141045785Y-93775190D01*
X140998166Y-93851380D01*
X140950547Y-93889476D01*
X141664833Y-93660904D02*
X141569595Y-93660904D01*
X141521976Y-93699000D01*
X141498166Y-93737095D01*
X141450547Y-93851380D01*
X141426738Y-94003761D01*
X141426738Y-94308523D01*
X141450547Y-94384714D01*
X141474357Y-94422809D01*
X141521976Y-94460904D01*
X141617214Y-94460904D01*
X141664833Y-94422809D01*
X141688642Y-94384714D01*
X141712452Y-94308523D01*
X141712452Y-94118047D01*
X141688642Y-94041857D01*
X141664833Y-94003761D01*
X141617214Y-93965666D01*
X141521976Y-93965666D01*
X141474357Y-94003761D01*
X141450547Y-94041857D01*
X141426738Y-94118047D01*
X140436261Y-93660904D02*
X140150547Y-93660904D01*
X140293404Y-93660904D02*
X140293404Y-92860904D01*
X140245785Y-92975190D01*
X140198166Y-93051380D01*
X140150547Y-93089476D01*
X140602928Y-92860904D02*
X140936261Y-92860904D01*
X140721976Y-93660904D01*
%TD*%
M02*
