M48
; DRILL file {KiCad (5.1.7)-1} date 12/15/20 14:41:54
; FORMAT={-:-/ absolute / inch / decimal}
; #@! TF.CreationDate,2020-12-15T14:41:54-08:00
; #@! TF.GenerationSoftware,Kicad,Pcbnew,(5.1.7)-1
FMAT,2
INCH
T1C0.0079
T2C0.0374
T3C0.0394
T4C0.0906
%
G90
G05
T1
X4.9606Y-2.874
X5.0453Y-2.8386
X5.0618Y-3.2193
X5.0787Y-3.2677
X5.128Y-3.4764
X5.1293Y-3.6404
X5.1354Y-3.4138
X5.1445Y-3.0055
X5.1465Y-2.9756
X5.1465Y-3.0346
X5.1575Y-3.3071
X5.1583Y-3.4469
X5.1795Y-3.0031
X5.1811Y-2.9736
X5.1831Y-3.4138
X5.1831Y-3.4772
X5.1969Y-3.0291
X5.2083Y-3.448
X5.2087Y-2.8406
X5.2106Y-3.2185
X5.2165Y-2.9756
X5.2283Y-3.0079
X5.2331Y-3.413
X5.2398Y-3.4776
X5.3091Y-3.6398
X5.4469Y-3.435
X5.4488Y-3.5945
X5.4508Y-3.3839
X5.4508Y-3.5315
X5.4665Y-2.9646
X5.4705Y-3.2156
X5.5157Y-3.626
X5.5165Y-3.0902
X5.5484Y-3.1531
X5.6004Y-3.0138
X5.6112Y-3.5315
X5.6118Y-3.437
X5.6122Y-3.1545
X5.6422Y-3.2795
X5.6425Y-3.1224
X5.6427Y-3.2165
X5.674Y-3.3736
X5.6744Y-3.4681
X5.6744Y-3.2158
X5.6752Y-3.4374
X5.685Y-2.9803
X5.7057Y-3.1535
X5.7057Y-3.2165
X5.7059Y-3.437
X5.7063Y-3.311
X5.7067Y-3.5315
X5.7165Y-3.0
X5.7374Y-3.2795
X5.7374Y-3.311
X5.7374Y-3.3425
X5.7374Y-3.374
X5.7374Y-3.437
X5.7374Y-3.4689
X5.7382Y-3.4059
X5.7689Y-3.4366
X5.7693Y-3.3421
X5.7996Y-3.3102
X5.8Y-3.4055
X5.8004Y-3.2795
X5.8004Y-3.3425
X5.8004Y-3.4366
X5.8004Y-3.4685
X5.8311Y-3.3413
X5.8316Y-3.2799
X5.8317Y-3.1535
X5.8317Y-3.2165
X5.8317Y-3.5315
X5.8319Y-3.4055
X5.8632Y-3.185
X5.8632Y-3.5
X5.8634Y-3.3425
X5.8634Y-3.4055
X5.8947Y-3.185
X5.8947Y-3.2165
X5.8949Y-3.2791
X5.8949Y-3.311
X5.8949Y-3.3425
X5.8949Y-3.437
X5.8957Y-3.1535
X5.9262Y-3.1535
X5.9262Y-3.185
X5.9262Y-3.2165
X5.9262Y-3.248
X5.9262Y-3.2795
X5.9262Y-3.311
X5.9262Y-3.3425
X5.9262Y-3.374
X5.9262Y-3.4055
X5.9262Y-3.437
X5.9262Y-3.563
X5.9267Y-3.1225
X5.9577Y-3.122
X5.9577Y-3.185
X5.9577Y-3.2165
X5.9577Y-3.2795
X5.9577Y-3.311
X5.9577Y-3.374
X5.9577Y-3.437
X5.9724Y-3.7087
X5.9803Y-3.6732
X5.9813Y-3.0827
X5.9892Y-3.1535
X5.9892Y-3.2165
X5.9892Y-3.2795
X5.9892Y-3.3425
X5.9892Y-3.4055
X5.9892Y-3.437
X5.9892Y-3.5315
X6.0118Y-3.748
X6.0358Y-4.0846
X6.0433Y-3.7362
X6.0522Y-3.0886
X6.0608Y-3.6223
X6.0896Y-3.0886
X6.1102Y-3.7874
X6.119Y-3.0865
X6.1575Y-3.7874
X6.2047Y-3.9016
X6.2096Y-3.2057
X6.3268Y-3.7717
X6.374Y-3.7874
X6.3816Y-3.2045
X6.4341Y-3.2224
X6.4626Y-3.2185
X6.4663Y-3.1666
X6.4843Y-3.0463
X6.4845Y-3.3506
X6.4912Y-3.3959
X6.4978Y-3.1283
X6.499Y-2.9705
X6.499Y-3.3169
X6.5049Y-3.4488
X6.5295Y-3.128
X6.5295Y-3.3169
X6.5295Y-3.4114
X6.5305Y-2.9705
X6.5305Y-3.065
X6.5305Y-3.2224
X6.5571Y-3.4459
X6.5586Y-3.1629
X6.5617Y-3.3477
X6.562Y-2.9705
X6.562Y-3.065
X6.562Y-3.128
X6.562Y-3.2224
X6.562Y-3.3169
X6.562Y-3.4114
X6.5945Y-3.128
X6.5955Y-3.0974
X6.599Y-3.1772
X6.6073Y-3.313
X6.6132Y-3.0561
X6.6147Y-2.9139
X6.6358Y-3.1959
X6.6471Y-3.2613
X6.6644Y-3.2992
X6.6654Y-3.3327
X6.6801Y-3.1437
X6.6831Y-3.0994
X6.686Y-3.002
X6.686Y-3.0335
X6.687Y-3.3819
X6.7185Y-3.253
X6.7189Y-3.3805
X6.7195Y-2.937
X6.7195Y-3.002
X6.7195Y-3.065
X6.7195Y-3.128
X6.7195Y-3.1594
X6.7195Y-3.1909
X6.7195Y-3.2224
X6.7195Y-3.3169
X6.75Y-3.2539
X6.751Y-3.065
X6.751Y-3.128
X6.751Y-3.1909
X6.751Y-3.2224
X6.751Y-3.4449
X6.7825Y-2.939
X6.7825Y-2.9705
X6.7825Y-3.002
X6.7825Y-3.065
X6.7825Y-3.1909
X6.7825Y-3.3169
X6.7825Y-3.3484
X6.7825Y-3.3809
X6.7825Y-3.4124
X6.7825Y-3.4429
X6.8248Y-3.2913
X6.8268Y-3.2185
X6.8327Y-3.4429
T2
X5.3941Y-3.8921
X5.4925Y-3.8921
X5.5713Y-3.8921
X5.6697Y-3.8921
T3
X5.2512Y-2.6327
X5.3512Y-2.6327
X5.4512Y-2.6327
X5.5512Y-2.6327
T4
X5.2732Y-3.9988
X5.7906Y-3.9988
T0
M30
