%TF.GenerationSoftware,KiCad,Pcbnew,(5.1.7)-1*%
%TF.CreationDate,2020-12-15T14:41:59-08:00*%
%TF.ProjectId,Keychain,4b657963-6861-4696-9e2e-6b696361645f,rev?*%
%TF.SameCoordinates,Original*%
%TF.FileFunction,Legend,Bot*%
%TF.FilePolarity,Positive*%
%FSLAX46Y46*%
G04 Gerber Fmt 4.6, Leading zero omitted, Abs format (unit mm)*
G04 Created by KiCad (PCBNEW (5.1.7)-1) date 2020-12-15 14:41:59*
%MOMM*%
%LPD*%
G01*
G04 APERTURE LIST*
%ADD10C,0.120000*%
%ADD11C,0.150000*%
G04 APERTURE END LIST*
D10*
%TO.C,C24*%
X145265580Y-76560000D02*
X144984420Y-76560000D01*
X145265580Y-77580000D02*
X144984420Y-77580000D01*
%TO.C,C22*%
X130069420Y-72610000D02*
X130350580Y-72610000D01*
X130069420Y-71590000D02*
X130350580Y-71590000D01*
%TO.C,C20*%
X130234420Y-82280000D02*
X130515580Y-82280000D01*
X130234420Y-81260000D02*
X130515580Y-81260000D01*
%TO.C,C7*%
X137810000Y-86329420D02*
X137810000Y-86610580D01*
X136790000Y-86329420D02*
X136790000Y-86610580D01*
%TO.C,C6*%
X132659420Y-92960000D02*
X132940580Y-92960000D01*
X132659420Y-91940000D02*
X132940580Y-91940000D01*
%TO.C,Y1*%
X143800000Y-72450000D02*
X143800000Y-75750000D01*
X143800000Y-75750000D02*
X139800000Y-75750000D01*
%TO.C,C32*%
X145060000Y-74507836D02*
X145060000Y-74292164D01*
X144340000Y-74507836D02*
X144340000Y-74292164D01*
%TO.C,C30*%
X139260000Y-73107836D02*
X139260000Y-72892164D01*
X138540000Y-73107836D02*
X138540000Y-72892164D01*
%TO.C,C54*%
X149452836Y-90435000D02*
X149237164Y-90435000D01*
X149452836Y-89715000D02*
X149237164Y-89715000D01*
%TO.C,C53*%
X143040000Y-88277836D02*
X143040000Y-88062164D01*
X143760000Y-88277836D02*
X143760000Y-88062164D01*
%TO.C,C52*%
X151617164Y-87765000D02*
X151832836Y-87765000D01*
X151617164Y-88485000D02*
X151832836Y-88485000D01*
%TO.C,C51*%
X149415000Y-88657836D02*
X149415000Y-88442164D01*
X150135000Y-88657836D02*
X150135000Y-88442164D01*
%TO.C,R8*%
X174680000Y-83596359D02*
X174680000Y-83903641D01*
X173920000Y-83596359D02*
X173920000Y-83903641D01*
%TO.C,R7*%
X156420000Y-81488641D02*
X156420000Y-81181359D01*
X157180000Y-81488641D02*
X157180000Y-81181359D01*
%TO.C,R6*%
X159005000Y-81181359D02*
X159005000Y-81488641D01*
X158245000Y-81181359D02*
X158245000Y-81488641D01*
%TO.C,R5*%
X169045000Y-81988641D02*
X169045000Y-81681359D01*
X169805000Y-81988641D02*
X169805000Y-81681359D01*
%TO.C,R4*%
X145720000Y-75243641D02*
X145720000Y-74936359D01*
X146480000Y-75243641D02*
X146480000Y-74936359D01*
%TO.C,R3*%
X174680000Y-81561359D02*
X174680000Y-81868641D01*
X173920000Y-81561359D02*
X173920000Y-81868641D01*
%TO.C,R1*%
X167931359Y-87020000D02*
X168238641Y-87020000D01*
X167931359Y-87780000D02*
X168238641Y-87780000D01*
%TO.C,C47*%
X168665000Y-76237836D02*
X168665000Y-76022164D01*
X169385000Y-76237836D02*
X169385000Y-76022164D01*
%TO.C,C46*%
X168610000Y-79312164D02*
X168610000Y-79527836D01*
X167890000Y-79312164D02*
X167890000Y-79527836D01*
%TO.C,C45*%
X156160000Y-81222164D02*
X156160000Y-81437836D01*
X155440000Y-81222164D02*
X155440000Y-81437836D01*
%TO.C,C44*%
X159265000Y-81437836D02*
X159265000Y-81222164D01*
X159985000Y-81437836D02*
X159985000Y-81222164D01*
%TO.C,C39*%
X170360000Y-84647164D02*
X170360000Y-84862836D01*
X169640000Y-84647164D02*
X169640000Y-84862836D01*
%TO.C,C38*%
X167792164Y-84465000D02*
X168007836Y-84465000D01*
X167792164Y-85185000D02*
X168007836Y-85185000D01*
%TO.C,C37*%
X165552836Y-74985000D02*
X165337164Y-74985000D01*
X165552836Y-74265000D02*
X165337164Y-74265000D01*
%TO.C,C36*%
X147560000Y-81672164D02*
X147560000Y-81887836D01*
X146840000Y-81672164D02*
X146840000Y-81887836D01*
%TO.C,C35*%
X172102836Y-79035000D02*
X171887164Y-79035000D01*
X172102836Y-78315000D02*
X171887164Y-78315000D01*
%TO.C,C33*%
X171140000Y-75052836D02*
X171140000Y-74837164D01*
X171860000Y-75052836D02*
X171860000Y-74837164D01*
%TO.C,C31*%
X172710000Y-82222164D02*
X172710000Y-82437836D01*
X171990000Y-82222164D02*
X171990000Y-82437836D01*
%TO.C,C29*%
X172102836Y-80610000D02*
X171887164Y-80610000D01*
X172102836Y-79890000D02*
X171887164Y-79890000D01*
%TO.C,C28*%
X148837836Y-83010000D02*
X148622164Y-83010000D01*
X148837836Y-82290000D02*
X148622164Y-82290000D01*
%TO.C,C27*%
X171140000Y-86232836D02*
X171140000Y-86017164D01*
X171860000Y-86232836D02*
X171860000Y-86017164D01*
%TO.C,C26*%
X150070000Y-86002164D02*
X150070000Y-86217836D01*
X149350000Y-86002164D02*
X149350000Y-86217836D01*
%TO.C,C25*%
X171140000Y-84337836D02*
X171140000Y-84122164D01*
X171860000Y-84337836D02*
X171860000Y-84122164D01*
%TO.C,C23*%
X172077836Y-77410000D02*
X171862164Y-77410000D01*
X172077836Y-76690000D02*
X171862164Y-76690000D01*
%TO.C,C21*%
X175085000Y-86509420D02*
X175085000Y-86790580D01*
X174065000Y-86509420D02*
X174065000Y-86790580D01*
%TO.C,C19*%
X141815580Y-78615000D02*
X141534420Y-78615000D01*
X141815580Y-79635000D02*
X141534420Y-79635000D01*
%TO.C,C18*%
X144240580Y-84460000D02*
X143959420Y-84460000D01*
X144240580Y-85480000D02*
X143959420Y-85480000D01*
%TO.C,C17*%
X141687836Y-80490000D02*
X141472164Y-80490000D01*
X141687836Y-81210000D02*
X141472164Y-81210000D01*
%TO.C,C16*%
X144255580Y-86950000D02*
X143974420Y-86950000D01*
X144255580Y-85930000D02*
X143974420Y-85930000D01*
%TO.C,C15*%
X147830000Y-87692164D02*
X147830000Y-87907836D01*
X148550000Y-87692164D02*
X148550000Y-87907836D01*
%TO.C,C14*%
X141690580Y-81615000D02*
X141409420Y-81615000D01*
X141690580Y-82635000D02*
X141409420Y-82635000D01*
%TO.C,C13*%
X144570000Y-88372164D02*
X144570000Y-88587836D01*
X145290000Y-88372164D02*
X145290000Y-88587836D01*
%TO.C,C12*%
X144657836Y-82990000D02*
X144442164Y-82990000D01*
X144657836Y-83710000D02*
X144442164Y-83710000D01*
%TO.C,C11*%
X145315000Y-81672164D02*
X145315000Y-81887836D01*
X146035000Y-81672164D02*
X146035000Y-81887836D01*
%TO.C,C10*%
X143697164Y-80960000D02*
X143912836Y-80960000D01*
X143697164Y-80240000D02*
X143912836Y-80240000D01*
%TO.C,C9*%
X146180000Y-88322164D02*
X146180000Y-88537836D01*
X146900000Y-88322164D02*
X146900000Y-88537836D01*
%TO.C,C8*%
X148442164Y-84440000D02*
X148657836Y-84440000D01*
X148442164Y-83720000D02*
X148657836Y-83720000D01*
%TO.C,C5*%
X146190000Y-85997164D02*
X146190000Y-86212836D01*
X146910000Y-85997164D02*
X146910000Y-86212836D01*
%TO.C,C4*%
X144112164Y-82735000D02*
X144327836Y-82735000D01*
X144112164Y-82015000D02*
X144327836Y-82015000D01*
%TO.C,C3*%
X147967164Y-86060000D02*
X148182836Y-86060000D01*
X147967164Y-85340000D02*
X148182836Y-85340000D01*
%TO.C,C2*%
X146890000Y-83787836D02*
X146890000Y-83572164D01*
X146170000Y-83787836D02*
X146170000Y-83572164D01*
%TO.C,C1*%
X137850000Y-90640580D02*
X137850000Y-90359420D01*
X136830000Y-90640580D02*
X136830000Y-90359420D01*
%TO.C,C24*%
D11*
X145767857Y-75997142D02*
X145815476Y-76044761D01*
X145958333Y-76092380D01*
X146053571Y-76092380D01*
X146196428Y-76044761D01*
X146291666Y-75949523D01*
X146339285Y-75854285D01*
X146386904Y-75663809D01*
X146386904Y-75520952D01*
X146339285Y-75330476D01*
X146291666Y-75235238D01*
X146196428Y-75140000D01*
X146053571Y-75092380D01*
X145958333Y-75092380D01*
X145815476Y-75140000D01*
X145767857Y-75187619D01*
X145386904Y-75187619D02*
X145339285Y-75140000D01*
X145244047Y-75092380D01*
X145005952Y-75092380D01*
X144910714Y-75140000D01*
X144863095Y-75187619D01*
X144815476Y-75282857D01*
X144815476Y-75378095D01*
X144863095Y-75520952D01*
X145434523Y-76092380D01*
X144815476Y-76092380D01*
X143958333Y-75425714D02*
X143958333Y-76092380D01*
X144196428Y-75044761D02*
X144434523Y-75759047D01*
X143815476Y-75759047D01*
%TO.C,C22*%
X130852857Y-73887142D02*
X130900476Y-73934761D01*
X131043333Y-73982380D01*
X131138571Y-73982380D01*
X131281428Y-73934761D01*
X131376666Y-73839523D01*
X131424285Y-73744285D01*
X131471904Y-73553809D01*
X131471904Y-73410952D01*
X131424285Y-73220476D01*
X131376666Y-73125238D01*
X131281428Y-73030000D01*
X131138571Y-72982380D01*
X131043333Y-72982380D01*
X130900476Y-73030000D01*
X130852857Y-73077619D01*
X130471904Y-73077619D02*
X130424285Y-73030000D01*
X130329047Y-72982380D01*
X130090952Y-72982380D01*
X129995714Y-73030000D01*
X129948095Y-73077619D01*
X129900476Y-73172857D01*
X129900476Y-73268095D01*
X129948095Y-73410952D01*
X130519523Y-73982380D01*
X129900476Y-73982380D01*
X129519523Y-73077619D02*
X129471904Y-73030000D01*
X129376666Y-72982380D01*
X129138571Y-72982380D01*
X129043333Y-73030000D01*
X128995714Y-73077619D01*
X128948095Y-73172857D01*
X128948095Y-73268095D01*
X128995714Y-73410952D01*
X129567142Y-73982380D01*
X128948095Y-73982380D01*
%TO.C,C20*%
X131017857Y-83557142D02*
X131065476Y-83604761D01*
X131208333Y-83652380D01*
X131303571Y-83652380D01*
X131446428Y-83604761D01*
X131541666Y-83509523D01*
X131589285Y-83414285D01*
X131636904Y-83223809D01*
X131636904Y-83080952D01*
X131589285Y-82890476D01*
X131541666Y-82795238D01*
X131446428Y-82700000D01*
X131303571Y-82652380D01*
X131208333Y-82652380D01*
X131065476Y-82700000D01*
X131017857Y-82747619D01*
X130636904Y-82747619D02*
X130589285Y-82700000D01*
X130494047Y-82652380D01*
X130255952Y-82652380D01*
X130160714Y-82700000D01*
X130113095Y-82747619D01*
X130065476Y-82842857D01*
X130065476Y-82938095D01*
X130113095Y-83080952D01*
X130684523Y-83652380D01*
X130065476Y-83652380D01*
X129446428Y-82652380D02*
X129351190Y-82652380D01*
X129255952Y-82700000D01*
X129208333Y-82747619D01*
X129160714Y-82842857D01*
X129113095Y-83033333D01*
X129113095Y-83271428D01*
X129160714Y-83461904D01*
X129208333Y-83557142D01*
X129255952Y-83604761D01*
X129351190Y-83652380D01*
X129446428Y-83652380D01*
X129541666Y-83604761D01*
X129589285Y-83557142D01*
X129636904Y-83461904D01*
X129684523Y-83271428D01*
X129684523Y-83033333D01*
X129636904Y-82842857D01*
X129589285Y-82747619D01*
X129541666Y-82700000D01*
X129446428Y-82652380D01*
%TO.C,C7*%
X136227142Y-86303333D02*
X136274761Y-86255714D01*
X136322380Y-86112857D01*
X136322380Y-86017619D01*
X136274761Y-85874761D01*
X136179523Y-85779523D01*
X136084285Y-85731904D01*
X135893809Y-85684285D01*
X135750952Y-85684285D01*
X135560476Y-85731904D01*
X135465238Y-85779523D01*
X135370000Y-85874761D01*
X135322380Y-86017619D01*
X135322380Y-86112857D01*
X135370000Y-86255714D01*
X135417619Y-86303333D01*
X135322380Y-86636666D02*
X135322380Y-87303333D01*
X136322380Y-86874761D01*
%TO.C,C6*%
X132966666Y-94237142D02*
X133014285Y-94284761D01*
X133157142Y-94332380D01*
X133252380Y-94332380D01*
X133395238Y-94284761D01*
X133490476Y-94189523D01*
X133538095Y-94094285D01*
X133585714Y-93903809D01*
X133585714Y-93760952D01*
X133538095Y-93570476D01*
X133490476Y-93475238D01*
X133395238Y-93380000D01*
X133252380Y-93332380D01*
X133157142Y-93332380D01*
X133014285Y-93380000D01*
X132966666Y-93427619D01*
X132109523Y-93332380D02*
X132300000Y-93332380D01*
X132395238Y-93380000D01*
X132442857Y-93427619D01*
X132538095Y-93570476D01*
X132585714Y-93760952D01*
X132585714Y-94141904D01*
X132538095Y-94237142D01*
X132490476Y-94284761D01*
X132395238Y-94332380D01*
X132204761Y-94332380D01*
X132109523Y-94284761D01*
X132061904Y-94237142D01*
X132014285Y-94141904D01*
X132014285Y-93903809D01*
X132061904Y-93808571D01*
X132109523Y-93760952D01*
X132204761Y-93713333D01*
X132395238Y-93713333D01*
X132490476Y-93760952D01*
X132538095Y-93808571D01*
X132585714Y-93903809D01*
%TO.C,Y1*%
X142276190Y-71626190D02*
X142276190Y-72102380D01*
X142609523Y-71102380D02*
X142276190Y-71626190D01*
X141942857Y-71102380D01*
X141085714Y-72102380D02*
X141657142Y-72102380D01*
X141371428Y-72102380D02*
X141371428Y-71102380D01*
X141466666Y-71245238D01*
X141561904Y-71340476D01*
X141657142Y-71388095D01*
%TO.C,C32*%
X143757142Y-73757142D02*
X143804761Y-73709523D01*
X143852380Y-73566666D01*
X143852380Y-73471428D01*
X143804761Y-73328571D01*
X143709523Y-73233333D01*
X143614285Y-73185714D01*
X143423809Y-73138095D01*
X143280952Y-73138095D01*
X143090476Y-73185714D01*
X142995238Y-73233333D01*
X142900000Y-73328571D01*
X142852380Y-73471428D01*
X142852380Y-73566666D01*
X142900000Y-73709523D01*
X142947619Y-73757142D01*
X142852380Y-74090476D02*
X142852380Y-74709523D01*
X143233333Y-74376190D01*
X143233333Y-74519047D01*
X143280952Y-74614285D01*
X143328571Y-74661904D01*
X143423809Y-74709523D01*
X143661904Y-74709523D01*
X143757142Y-74661904D01*
X143804761Y-74614285D01*
X143852380Y-74519047D01*
X143852380Y-74233333D01*
X143804761Y-74138095D01*
X143757142Y-74090476D01*
X142947619Y-75090476D02*
X142900000Y-75138095D01*
X142852380Y-75233333D01*
X142852380Y-75471428D01*
X142900000Y-75566666D01*
X142947619Y-75614285D01*
X143042857Y-75661904D01*
X143138095Y-75661904D01*
X143280952Y-75614285D01*
X143852380Y-75042857D01*
X143852380Y-75661904D01*
%TO.C,C30*%
X140417142Y-72357142D02*
X140464761Y-72309523D01*
X140512380Y-72166666D01*
X140512380Y-72071428D01*
X140464761Y-71928571D01*
X140369523Y-71833333D01*
X140274285Y-71785714D01*
X140083809Y-71738095D01*
X139940952Y-71738095D01*
X139750476Y-71785714D01*
X139655238Y-71833333D01*
X139560000Y-71928571D01*
X139512380Y-72071428D01*
X139512380Y-72166666D01*
X139560000Y-72309523D01*
X139607619Y-72357142D01*
X139512380Y-72690476D02*
X139512380Y-73309523D01*
X139893333Y-72976190D01*
X139893333Y-73119047D01*
X139940952Y-73214285D01*
X139988571Y-73261904D01*
X140083809Y-73309523D01*
X140321904Y-73309523D01*
X140417142Y-73261904D01*
X140464761Y-73214285D01*
X140512380Y-73119047D01*
X140512380Y-72833333D01*
X140464761Y-72738095D01*
X140417142Y-72690476D01*
X139512380Y-73928571D02*
X139512380Y-74023809D01*
X139560000Y-74119047D01*
X139607619Y-74166666D01*
X139702857Y-74214285D01*
X139893333Y-74261904D01*
X140131428Y-74261904D01*
X140321904Y-74214285D01*
X140417142Y-74166666D01*
X140464761Y-74119047D01*
X140512380Y-74023809D01*
X140512380Y-73928571D01*
X140464761Y-73833333D01*
X140417142Y-73785714D01*
X140321904Y-73738095D01*
X140131428Y-73690476D01*
X139893333Y-73690476D01*
X139702857Y-73738095D01*
X139607619Y-73785714D01*
X139560000Y-73833333D01*
X139512380Y-73928571D01*
%TO.C,C54*%
X149987857Y-93257142D02*
X150035476Y-93304761D01*
X150178333Y-93352380D01*
X150273571Y-93352380D01*
X150416428Y-93304761D01*
X150511666Y-93209523D01*
X150559285Y-93114285D01*
X150606904Y-92923809D01*
X150606904Y-92780952D01*
X150559285Y-92590476D01*
X150511666Y-92495238D01*
X150416428Y-92400000D01*
X150273571Y-92352380D01*
X150178333Y-92352380D01*
X150035476Y-92400000D01*
X149987857Y-92447619D01*
X149083095Y-92352380D02*
X149559285Y-92352380D01*
X149606904Y-92828571D01*
X149559285Y-92780952D01*
X149464047Y-92733333D01*
X149225952Y-92733333D01*
X149130714Y-92780952D01*
X149083095Y-92828571D01*
X149035476Y-92923809D01*
X149035476Y-93161904D01*
X149083095Y-93257142D01*
X149130714Y-93304761D01*
X149225952Y-93352380D01*
X149464047Y-93352380D01*
X149559285Y-93304761D01*
X149606904Y-93257142D01*
X148178333Y-92685714D02*
X148178333Y-93352380D01*
X148416428Y-92304761D02*
X148654523Y-93019047D01*
X148035476Y-93019047D01*
%TO.C,C53*%
X143457142Y-90157142D02*
X143504761Y-90109523D01*
X143552380Y-89966666D01*
X143552380Y-89871428D01*
X143504761Y-89728571D01*
X143409523Y-89633333D01*
X143314285Y-89585714D01*
X143123809Y-89538095D01*
X142980952Y-89538095D01*
X142790476Y-89585714D01*
X142695238Y-89633333D01*
X142600000Y-89728571D01*
X142552380Y-89871428D01*
X142552380Y-89966666D01*
X142600000Y-90109523D01*
X142647619Y-90157142D01*
X142552380Y-91061904D02*
X142552380Y-90585714D01*
X143028571Y-90538095D01*
X142980952Y-90585714D01*
X142933333Y-90680952D01*
X142933333Y-90919047D01*
X142980952Y-91014285D01*
X143028571Y-91061904D01*
X143123809Y-91109523D01*
X143361904Y-91109523D01*
X143457142Y-91061904D01*
X143504761Y-91014285D01*
X143552380Y-90919047D01*
X143552380Y-90680952D01*
X143504761Y-90585714D01*
X143457142Y-90538095D01*
X142552380Y-91442857D02*
X142552380Y-92061904D01*
X142933333Y-91728571D01*
X142933333Y-91871428D01*
X142980952Y-91966666D01*
X143028571Y-92014285D01*
X143123809Y-92061904D01*
X143361904Y-92061904D01*
X143457142Y-92014285D01*
X143504761Y-91966666D01*
X143552380Y-91871428D01*
X143552380Y-91585714D01*
X143504761Y-91490476D01*
X143457142Y-91442857D01*
%TO.C,C52*%
X154942857Y-88457142D02*
X154990476Y-88504761D01*
X155133333Y-88552380D01*
X155228571Y-88552380D01*
X155371428Y-88504761D01*
X155466666Y-88409523D01*
X155514285Y-88314285D01*
X155561904Y-88123809D01*
X155561904Y-87980952D01*
X155514285Y-87790476D01*
X155466666Y-87695238D01*
X155371428Y-87600000D01*
X155228571Y-87552380D01*
X155133333Y-87552380D01*
X154990476Y-87600000D01*
X154942857Y-87647619D01*
X154038095Y-87552380D02*
X154514285Y-87552380D01*
X154561904Y-88028571D01*
X154514285Y-87980952D01*
X154419047Y-87933333D01*
X154180952Y-87933333D01*
X154085714Y-87980952D01*
X154038095Y-88028571D01*
X153990476Y-88123809D01*
X153990476Y-88361904D01*
X154038095Y-88457142D01*
X154085714Y-88504761D01*
X154180952Y-88552380D01*
X154419047Y-88552380D01*
X154514285Y-88504761D01*
X154561904Y-88457142D01*
X153609523Y-87647619D02*
X153561904Y-87600000D01*
X153466666Y-87552380D01*
X153228571Y-87552380D01*
X153133333Y-87600000D01*
X153085714Y-87647619D01*
X153038095Y-87742857D01*
X153038095Y-87838095D01*
X153085714Y-87980952D01*
X153657142Y-88552380D01*
X153038095Y-88552380D01*
%TO.C,C51*%
X149942857Y-91757142D02*
X149990476Y-91804761D01*
X150133333Y-91852380D01*
X150228571Y-91852380D01*
X150371428Y-91804761D01*
X150466666Y-91709523D01*
X150514285Y-91614285D01*
X150561904Y-91423809D01*
X150561904Y-91280952D01*
X150514285Y-91090476D01*
X150466666Y-90995238D01*
X150371428Y-90900000D01*
X150228571Y-90852380D01*
X150133333Y-90852380D01*
X149990476Y-90900000D01*
X149942857Y-90947619D01*
X149038095Y-90852380D02*
X149514285Y-90852380D01*
X149561904Y-91328571D01*
X149514285Y-91280952D01*
X149419047Y-91233333D01*
X149180952Y-91233333D01*
X149085714Y-91280952D01*
X149038095Y-91328571D01*
X148990476Y-91423809D01*
X148990476Y-91661904D01*
X149038095Y-91757142D01*
X149085714Y-91804761D01*
X149180952Y-91852380D01*
X149419047Y-91852380D01*
X149514285Y-91804761D01*
X149561904Y-91757142D01*
X148038095Y-91852380D02*
X148609523Y-91852380D01*
X148323809Y-91852380D02*
X148323809Y-90852380D01*
X148419047Y-90995238D01*
X148514285Y-91090476D01*
X148609523Y-91138095D01*
%TO.C,R8*%
X176052380Y-84333333D02*
X175576190Y-84000000D01*
X176052380Y-83761904D02*
X175052380Y-83761904D01*
X175052380Y-84142857D01*
X175100000Y-84238095D01*
X175147619Y-84285714D01*
X175242857Y-84333333D01*
X175385714Y-84333333D01*
X175480952Y-84285714D01*
X175528571Y-84238095D01*
X175576190Y-84142857D01*
X175576190Y-83761904D01*
X175480952Y-84904761D02*
X175433333Y-84809523D01*
X175385714Y-84761904D01*
X175290476Y-84714285D01*
X175242857Y-84714285D01*
X175147619Y-84761904D01*
X175100000Y-84809523D01*
X175052380Y-84904761D01*
X175052380Y-85095238D01*
X175100000Y-85190476D01*
X175147619Y-85238095D01*
X175242857Y-85285714D01*
X175290476Y-85285714D01*
X175385714Y-85238095D01*
X175433333Y-85190476D01*
X175480952Y-85095238D01*
X175480952Y-84904761D01*
X175528571Y-84809523D01*
X175576190Y-84761904D01*
X175671428Y-84714285D01*
X175861904Y-84714285D01*
X175957142Y-84761904D01*
X176004761Y-84809523D01*
X176052380Y-84904761D01*
X176052380Y-85095238D01*
X176004761Y-85190476D01*
X175957142Y-85238095D01*
X175861904Y-85285714D01*
X175671428Y-85285714D01*
X175576190Y-85238095D01*
X175528571Y-85190476D01*
X175480952Y-85095238D01*
%TO.C,R7*%
X157252380Y-83233333D02*
X156776190Y-82900000D01*
X157252380Y-82661904D02*
X156252380Y-82661904D01*
X156252380Y-83042857D01*
X156300000Y-83138095D01*
X156347619Y-83185714D01*
X156442857Y-83233333D01*
X156585714Y-83233333D01*
X156680952Y-83185714D01*
X156728571Y-83138095D01*
X156776190Y-83042857D01*
X156776190Y-82661904D01*
X156252380Y-83566666D02*
X156252380Y-84233333D01*
X157252380Y-83804761D01*
%TO.C,R6*%
X159152380Y-83233333D02*
X158676190Y-82900000D01*
X159152380Y-82661904D02*
X158152380Y-82661904D01*
X158152380Y-83042857D01*
X158200000Y-83138095D01*
X158247619Y-83185714D01*
X158342857Y-83233333D01*
X158485714Y-83233333D01*
X158580952Y-83185714D01*
X158628571Y-83138095D01*
X158676190Y-83042857D01*
X158676190Y-82661904D01*
X158152380Y-84090476D02*
X158152380Y-83900000D01*
X158200000Y-83804761D01*
X158247619Y-83757142D01*
X158390476Y-83661904D01*
X158580952Y-83614285D01*
X158961904Y-83614285D01*
X159057142Y-83661904D01*
X159104761Y-83709523D01*
X159152380Y-83804761D01*
X159152380Y-83995238D01*
X159104761Y-84090476D01*
X159057142Y-84138095D01*
X158961904Y-84185714D01*
X158723809Y-84185714D01*
X158628571Y-84138095D01*
X158580952Y-84090476D01*
X158533333Y-83995238D01*
X158533333Y-83804761D01*
X158580952Y-83709523D01*
X158628571Y-83661904D01*
X158723809Y-83614285D01*
%TO.C,R5*%
X171047380Y-81668333D02*
X170571190Y-81335000D01*
X171047380Y-81096904D02*
X170047380Y-81096904D01*
X170047380Y-81477857D01*
X170095000Y-81573095D01*
X170142619Y-81620714D01*
X170237857Y-81668333D01*
X170380714Y-81668333D01*
X170475952Y-81620714D01*
X170523571Y-81573095D01*
X170571190Y-81477857D01*
X170571190Y-81096904D01*
X170047380Y-82573095D02*
X170047380Y-82096904D01*
X170523571Y-82049285D01*
X170475952Y-82096904D01*
X170428333Y-82192142D01*
X170428333Y-82430238D01*
X170475952Y-82525476D01*
X170523571Y-82573095D01*
X170618809Y-82620714D01*
X170856904Y-82620714D01*
X170952142Y-82573095D01*
X170999761Y-82525476D01*
X171047380Y-82430238D01*
X171047380Y-82192142D01*
X170999761Y-82096904D01*
X170952142Y-82049285D01*
%TO.C,R4*%
X145352380Y-74913333D02*
X144876190Y-74580000D01*
X145352380Y-74341904D02*
X144352380Y-74341904D01*
X144352380Y-74722857D01*
X144400000Y-74818095D01*
X144447619Y-74865714D01*
X144542857Y-74913333D01*
X144685714Y-74913333D01*
X144780952Y-74865714D01*
X144828571Y-74818095D01*
X144876190Y-74722857D01*
X144876190Y-74341904D01*
X144685714Y-75770476D02*
X145352380Y-75770476D01*
X144304761Y-75532380D02*
X145019047Y-75294285D01*
X145019047Y-75913333D01*
%TO.C,R3*%
X174752380Y-84063333D02*
X174276190Y-83730000D01*
X174752380Y-83491904D02*
X173752380Y-83491904D01*
X173752380Y-83872857D01*
X173800000Y-83968095D01*
X173847619Y-84015714D01*
X173942857Y-84063333D01*
X174085714Y-84063333D01*
X174180952Y-84015714D01*
X174228571Y-83968095D01*
X174276190Y-83872857D01*
X174276190Y-83491904D01*
X173752380Y-84396666D02*
X173752380Y-85015714D01*
X174133333Y-84682380D01*
X174133333Y-84825238D01*
X174180952Y-84920476D01*
X174228571Y-84968095D01*
X174323809Y-85015714D01*
X174561904Y-85015714D01*
X174657142Y-84968095D01*
X174704761Y-84920476D01*
X174752380Y-84825238D01*
X174752380Y-84539523D01*
X174704761Y-84444285D01*
X174657142Y-84396666D01*
%TO.C,R1*%
X168251666Y-89022380D02*
X168585000Y-88546190D01*
X168823095Y-89022380D02*
X168823095Y-88022380D01*
X168442142Y-88022380D01*
X168346904Y-88070000D01*
X168299285Y-88117619D01*
X168251666Y-88212857D01*
X168251666Y-88355714D01*
X168299285Y-88450952D01*
X168346904Y-88498571D01*
X168442142Y-88546190D01*
X168823095Y-88546190D01*
X167299285Y-89022380D02*
X167870714Y-89022380D01*
X167585000Y-89022380D02*
X167585000Y-88022380D01*
X167680238Y-88165238D01*
X167775476Y-88260476D01*
X167870714Y-88308095D01*
%TO.C,C47*%
X168157142Y-75457142D02*
X168204761Y-75409523D01*
X168252380Y-75266666D01*
X168252380Y-75171428D01*
X168204761Y-75028571D01*
X168109523Y-74933333D01*
X168014285Y-74885714D01*
X167823809Y-74838095D01*
X167680952Y-74838095D01*
X167490476Y-74885714D01*
X167395238Y-74933333D01*
X167300000Y-75028571D01*
X167252380Y-75171428D01*
X167252380Y-75266666D01*
X167300000Y-75409523D01*
X167347619Y-75457142D01*
X167585714Y-76314285D02*
X168252380Y-76314285D01*
X167204761Y-76076190D02*
X167919047Y-75838095D01*
X167919047Y-76457142D01*
X167252380Y-76742857D02*
X167252380Y-77409523D01*
X168252380Y-76980952D01*
%TO.C,C46*%
X167447142Y-78777142D02*
X167494761Y-78729523D01*
X167542380Y-78586666D01*
X167542380Y-78491428D01*
X167494761Y-78348571D01*
X167399523Y-78253333D01*
X167304285Y-78205714D01*
X167113809Y-78158095D01*
X166970952Y-78158095D01*
X166780476Y-78205714D01*
X166685238Y-78253333D01*
X166590000Y-78348571D01*
X166542380Y-78491428D01*
X166542380Y-78586666D01*
X166590000Y-78729523D01*
X166637619Y-78777142D01*
X166875714Y-79634285D02*
X167542380Y-79634285D01*
X166494761Y-79396190D02*
X167209047Y-79158095D01*
X167209047Y-79777142D01*
X166542380Y-80586666D02*
X166542380Y-80396190D01*
X166590000Y-80300952D01*
X166637619Y-80253333D01*
X166780476Y-80158095D01*
X166970952Y-80110476D01*
X167351904Y-80110476D01*
X167447142Y-80158095D01*
X167494761Y-80205714D01*
X167542380Y-80300952D01*
X167542380Y-80491428D01*
X167494761Y-80586666D01*
X167447142Y-80634285D01*
X167351904Y-80681904D01*
X167113809Y-80681904D01*
X167018571Y-80634285D01*
X166970952Y-80586666D01*
X166923333Y-80491428D01*
X166923333Y-80300952D01*
X166970952Y-80205714D01*
X167018571Y-80158095D01*
X167113809Y-80110476D01*
%TO.C,C45*%
X154997142Y-80687142D02*
X155044761Y-80639523D01*
X155092380Y-80496666D01*
X155092380Y-80401428D01*
X155044761Y-80258571D01*
X154949523Y-80163333D01*
X154854285Y-80115714D01*
X154663809Y-80068095D01*
X154520952Y-80068095D01*
X154330476Y-80115714D01*
X154235238Y-80163333D01*
X154140000Y-80258571D01*
X154092380Y-80401428D01*
X154092380Y-80496666D01*
X154140000Y-80639523D01*
X154187619Y-80687142D01*
X154425714Y-81544285D02*
X155092380Y-81544285D01*
X154044761Y-81306190D02*
X154759047Y-81068095D01*
X154759047Y-81687142D01*
X154092380Y-82544285D02*
X154092380Y-82068095D01*
X154568571Y-82020476D01*
X154520952Y-82068095D01*
X154473333Y-82163333D01*
X154473333Y-82401428D01*
X154520952Y-82496666D01*
X154568571Y-82544285D01*
X154663809Y-82591904D01*
X154901904Y-82591904D01*
X154997142Y-82544285D01*
X155044761Y-82496666D01*
X155092380Y-82401428D01*
X155092380Y-82163333D01*
X155044761Y-82068095D01*
X154997142Y-82020476D01*
%TO.C,C44*%
X161457142Y-80687142D02*
X161504761Y-80639523D01*
X161552380Y-80496666D01*
X161552380Y-80401428D01*
X161504761Y-80258571D01*
X161409523Y-80163333D01*
X161314285Y-80115714D01*
X161123809Y-80068095D01*
X160980952Y-80068095D01*
X160790476Y-80115714D01*
X160695238Y-80163333D01*
X160600000Y-80258571D01*
X160552380Y-80401428D01*
X160552380Y-80496666D01*
X160600000Y-80639523D01*
X160647619Y-80687142D01*
X160885714Y-81544285D02*
X161552380Y-81544285D01*
X160504761Y-81306190D02*
X161219047Y-81068095D01*
X161219047Y-81687142D01*
X160885714Y-82496666D02*
X161552380Y-82496666D01*
X160504761Y-82258571D02*
X161219047Y-82020476D01*
X161219047Y-82639523D01*
%TO.C,C39*%
X170457142Y-86957142D02*
X170504761Y-86909523D01*
X170552380Y-86766666D01*
X170552380Y-86671428D01*
X170504761Y-86528571D01*
X170409523Y-86433333D01*
X170314285Y-86385714D01*
X170123809Y-86338095D01*
X169980952Y-86338095D01*
X169790476Y-86385714D01*
X169695238Y-86433333D01*
X169600000Y-86528571D01*
X169552380Y-86671428D01*
X169552380Y-86766666D01*
X169600000Y-86909523D01*
X169647619Y-86957142D01*
X169552380Y-87290476D02*
X169552380Y-87909523D01*
X169933333Y-87576190D01*
X169933333Y-87719047D01*
X169980952Y-87814285D01*
X170028571Y-87861904D01*
X170123809Y-87909523D01*
X170361904Y-87909523D01*
X170457142Y-87861904D01*
X170504761Y-87814285D01*
X170552380Y-87719047D01*
X170552380Y-87433333D01*
X170504761Y-87338095D01*
X170457142Y-87290476D01*
X170552380Y-88385714D02*
X170552380Y-88576190D01*
X170504761Y-88671428D01*
X170457142Y-88719047D01*
X170314285Y-88814285D01*
X170123809Y-88861904D01*
X169742857Y-88861904D01*
X169647619Y-88814285D01*
X169600000Y-88766666D01*
X169552380Y-88671428D01*
X169552380Y-88480952D01*
X169600000Y-88385714D01*
X169647619Y-88338095D01*
X169742857Y-88290476D01*
X169980952Y-88290476D01*
X170076190Y-88338095D01*
X170123809Y-88385714D01*
X170171428Y-88480952D01*
X170171428Y-88671428D01*
X170123809Y-88766666D01*
X170076190Y-88814285D01*
X169980952Y-88861904D01*
%TO.C,C38*%
X168642857Y-86457142D02*
X168690476Y-86504761D01*
X168833333Y-86552380D01*
X168928571Y-86552380D01*
X169071428Y-86504761D01*
X169166666Y-86409523D01*
X169214285Y-86314285D01*
X169261904Y-86123809D01*
X169261904Y-85980952D01*
X169214285Y-85790476D01*
X169166666Y-85695238D01*
X169071428Y-85600000D01*
X168928571Y-85552380D01*
X168833333Y-85552380D01*
X168690476Y-85600000D01*
X168642857Y-85647619D01*
X168309523Y-85552380D02*
X167690476Y-85552380D01*
X168023809Y-85933333D01*
X167880952Y-85933333D01*
X167785714Y-85980952D01*
X167738095Y-86028571D01*
X167690476Y-86123809D01*
X167690476Y-86361904D01*
X167738095Y-86457142D01*
X167785714Y-86504761D01*
X167880952Y-86552380D01*
X168166666Y-86552380D01*
X168261904Y-86504761D01*
X168309523Y-86457142D01*
X167119047Y-85980952D02*
X167214285Y-85933333D01*
X167261904Y-85885714D01*
X167309523Y-85790476D01*
X167309523Y-85742857D01*
X167261904Y-85647619D01*
X167214285Y-85600000D01*
X167119047Y-85552380D01*
X166928571Y-85552380D01*
X166833333Y-85600000D01*
X166785714Y-85647619D01*
X166738095Y-85742857D01*
X166738095Y-85790476D01*
X166785714Y-85885714D01*
X166833333Y-85933333D01*
X166928571Y-85980952D01*
X167119047Y-85980952D01*
X167214285Y-86028571D01*
X167261904Y-86076190D01*
X167309523Y-86171428D01*
X167309523Y-86361904D01*
X167261904Y-86457142D01*
X167214285Y-86504761D01*
X167119047Y-86552380D01*
X166928571Y-86552380D01*
X166833333Y-86504761D01*
X166785714Y-86457142D01*
X166738095Y-86361904D01*
X166738095Y-86171428D01*
X166785714Y-86076190D01*
X166833333Y-86028571D01*
X166928571Y-85980952D01*
%TO.C,C37*%
X166087857Y-73822142D02*
X166135476Y-73869761D01*
X166278333Y-73917380D01*
X166373571Y-73917380D01*
X166516428Y-73869761D01*
X166611666Y-73774523D01*
X166659285Y-73679285D01*
X166706904Y-73488809D01*
X166706904Y-73345952D01*
X166659285Y-73155476D01*
X166611666Y-73060238D01*
X166516428Y-72965000D01*
X166373571Y-72917380D01*
X166278333Y-72917380D01*
X166135476Y-72965000D01*
X166087857Y-73012619D01*
X165754523Y-72917380D02*
X165135476Y-72917380D01*
X165468809Y-73298333D01*
X165325952Y-73298333D01*
X165230714Y-73345952D01*
X165183095Y-73393571D01*
X165135476Y-73488809D01*
X165135476Y-73726904D01*
X165183095Y-73822142D01*
X165230714Y-73869761D01*
X165325952Y-73917380D01*
X165611666Y-73917380D01*
X165706904Y-73869761D01*
X165754523Y-73822142D01*
X164802142Y-72917380D02*
X164135476Y-72917380D01*
X164564047Y-73917380D01*
%TO.C,C36*%
X147857142Y-77957142D02*
X147904761Y-77909523D01*
X147952380Y-77766666D01*
X147952380Y-77671428D01*
X147904761Y-77528571D01*
X147809523Y-77433333D01*
X147714285Y-77385714D01*
X147523809Y-77338095D01*
X147380952Y-77338095D01*
X147190476Y-77385714D01*
X147095238Y-77433333D01*
X147000000Y-77528571D01*
X146952380Y-77671428D01*
X146952380Y-77766666D01*
X147000000Y-77909523D01*
X147047619Y-77957142D01*
X146952380Y-78290476D02*
X146952380Y-78909523D01*
X147333333Y-78576190D01*
X147333333Y-78719047D01*
X147380952Y-78814285D01*
X147428571Y-78861904D01*
X147523809Y-78909523D01*
X147761904Y-78909523D01*
X147857142Y-78861904D01*
X147904761Y-78814285D01*
X147952380Y-78719047D01*
X147952380Y-78433333D01*
X147904761Y-78338095D01*
X147857142Y-78290476D01*
X146952380Y-79766666D02*
X146952380Y-79576190D01*
X147000000Y-79480952D01*
X147047619Y-79433333D01*
X147190476Y-79338095D01*
X147380952Y-79290476D01*
X147761904Y-79290476D01*
X147857142Y-79338095D01*
X147904761Y-79385714D01*
X147952380Y-79480952D01*
X147952380Y-79671428D01*
X147904761Y-79766666D01*
X147857142Y-79814285D01*
X147761904Y-79861904D01*
X147523809Y-79861904D01*
X147428571Y-79814285D01*
X147380952Y-79766666D01*
X147333333Y-79671428D01*
X147333333Y-79480952D01*
X147380952Y-79385714D01*
X147428571Y-79338095D01*
X147523809Y-79290476D01*
%TO.C,C35*%
X175142857Y-78957142D02*
X175190476Y-79004761D01*
X175333333Y-79052380D01*
X175428571Y-79052380D01*
X175571428Y-79004761D01*
X175666666Y-78909523D01*
X175714285Y-78814285D01*
X175761904Y-78623809D01*
X175761904Y-78480952D01*
X175714285Y-78290476D01*
X175666666Y-78195238D01*
X175571428Y-78100000D01*
X175428571Y-78052380D01*
X175333333Y-78052380D01*
X175190476Y-78100000D01*
X175142857Y-78147619D01*
X174809523Y-78052380D02*
X174190476Y-78052380D01*
X174523809Y-78433333D01*
X174380952Y-78433333D01*
X174285714Y-78480952D01*
X174238095Y-78528571D01*
X174190476Y-78623809D01*
X174190476Y-78861904D01*
X174238095Y-78957142D01*
X174285714Y-79004761D01*
X174380952Y-79052380D01*
X174666666Y-79052380D01*
X174761904Y-79004761D01*
X174809523Y-78957142D01*
X173285714Y-78052380D02*
X173761904Y-78052380D01*
X173809523Y-78528571D01*
X173761904Y-78480952D01*
X173666666Y-78433333D01*
X173428571Y-78433333D01*
X173333333Y-78480952D01*
X173285714Y-78528571D01*
X173238095Y-78623809D01*
X173238095Y-78861904D01*
X173285714Y-78957142D01*
X173333333Y-79004761D01*
X173428571Y-79052380D01*
X173666666Y-79052380D01*
X173761904Y-79004761D01*
X173809523Y-78957142D01*
%TO.C,C33*%
X172142857Y-73657142D02*
X172190476Y-73704761D01*
X172333333Y-73752380D01*
X172428571Y-73752380D01*
X172571428Y-73704761D01*
X172666666Y-73609523D01*
X172714285Y-73514285D01*
X172761904Y-73323809D01*
X172761904Y-73180952D01*
X172714285Y-72990476D01*
X172666666Y-72895238D01*
X172571428Y-72800000D01*
X172428571Y-72752380D01*
X172333333Y-72752380D01*
X172190476Y-72800000D01*
X172142857Y-72847619D01*
X171809523Y-72752380D02*
X171190476Y-72752380D01*
X171523809Y-73133333D01*
X171380952Y-73133333D01*
X171285714Y-73180952D01*
X171238095Y-73228571D01*
X171190476Y-73323809D01*
X171190476Y-73561904D01*
X171238095Y-73657142D01*
X171285714Y-73704761D01*
X171380952Y-73752380D01*
X171666666Y-73752380D01*
X171761904Y-73704761D01*
X171809523Y-73657142D01*
X170857142Y-72752380D02*
X170238095Y-72752380D01*
X170571428Y-73133333D01*
X170428571Y-73133333D01*
X170333333Y-73180952D01*
X170285714Y-73228571D01*
X170238095Y-73323809D01*
X170238095Y-73561904D01*
X170285714Y-73657142D01*
X170333333Y-73704761D01*
X170428571Y-73752380D01*
X170714285Y-73752380D01*
X170809523Y-73704761D01*
X170857142Y-73657142D01*
%TO.C,C31*%
X174942857Y-82757142D02*
X174990476Y-82804761D01*
X175133333Y-82852380D01*
X175228571Y-82852380D01*
X175371428Y-82804761D01*
X175466666Y-82709523D01*
X175514285Y-82614285D01*
X175561904Y-82423809D01*
X175561904Y-82280952D01*
X175514285Y-82090476D01*
X175466666Y-81995238D01*
X175371428Y-81900000D01*
X175228571Y-81852380D01*
X175133333Y-81852380D01*
X174990476Y-81900000D01*
X174942857Y-81947619D01*
X174609523Y-81852380D02*
X173990476Y-81852380D01*
X174323809Y-82233333D01*
X174180952Y-82233333D01*
X174085714Y-82280952D01*
X174038095Y-82328571D01*
X173990476Y-82423809D01*
X173990476Y-82661904D01*
X174038095Y-82757142D01*
X174085714Y-82804761D01*
X174180952Y-82852380D01*
X174466666Y-82852380D01*
X174561904Y-82804761D01*
X174609523Y-82757142D01*
X173038095Y-82852380D02*
X173609523Y-82852380D01*
X173323809Y-82852380D02*
X173323809Y-81852380D01*
X173419047Y-81995238D01*
X173514285Y-82090476D01*
X173609523Y-82138095D01*
%TO.C,C29*%
X175142857Y-80657142D02*
X175190476Y-80704761D01*
X175333333Y-80752380D01*
X175428571Y-80752380D01*
X175571428Y-80704761D01*
X175666666Y-80609523D01*
X175714285Y-80514285D01*
X175761904Y-80323809D01*
X175761904Y-80180952D01*
X175714285Y-79990476D01*
X175666666Y-79895238D01*
X175571428Y-79800000D01*
X175428571Y-79752380D01*
X175333333Y-79752380D01*
X175190476Y-79800000D01*
X175142857Y-79847619D01*
X174761904Y-79847619D02*
X174714285Y-79800000D01*
X174619047Y-79752380D01*
X174380952Y-79752380D01*
X174285714Y-79800000D01*
X174238095Y-79847619D01*
X174190476Y-79942857D01*
X174190476Y-80038095D01*
X174238095Y-80180952D01*
X174809523Y-80752380D01*
X174190476Y-80752380D01*
X173714285Y-80752380D02*
X173523809Y-80752380D01*
X173428571Y-80704761D01*
X173380952Y-80657142D01*
X173285714Y-80514285D01*
X173238095Y-80323809D01*
X173238095Y-79942857D01*
X173285714Y-79847619D01*
X173333333Y-79800000D01*
X173428571Y-79752380D01*
X173619047Y-79752380D01*
X173714285Y-79800000D01*
X173761904Y-79847619D01*
X173809523Y-79942857D01*
X173809523Y-80180952D01*
X173761904Y-80276190D01*
X173714285Y-80323809D01*
X173619047Y-80371428D01*
X173428571Y-80371428D01*
X173333333Y-80323809D01*
X173285714Y-80276190D01*
X173238095Y-80180952D01*
%TO.C,C28*%
X149257142Y-79857142D02*
X149304761Y-79809523D01*
X149352380Y-79666666D01*
X149352380Y-79571428D01*
X149304761Y-79428571D01*
X149209523Y-79333333D01*
X149114285Y-79285714D01*
X148923809Y-79238095D01*
X148780952Y-79238095D01*
X148590476Y-79285714D01*
X148495238Y-79333333D01*
X148400000Y-79428571D01*
X148352380Y-79571428D01*
X148352380Y-79666666D01*
X148400000Y-79809523D01*
X148447619Y-79857142D01*
X148447619Y-80238095D02*
X148400000Y-80285714D01*
X148352380Y-80380952D01*
X148352380Y-80619047D01*
X148400000Y-80714285D01*
X148447619Y-80761904D01*
X148542857Y-80809523D01*
X148638095Y-80809523D01*
X148780952Y-80761904D01*
X149352380Y-80190476D01*
X149352380Y-80809523D01*
X148780952Y-81380952D02*
X148733333Y-81285714D01*
X148685714Y-81238095D01*
X148590476Y-81190476D01*
X148542857Y-81190476D01*
X148447619Y-81238095D01*
X148400000Y-81285714D01*
X148352380Y-81380952D01*
X148352380Y-81571428D01*
X148400000Y-81666666D01*
X148447619Y-81714285D01*
X148542857Y-81761904D01*
X148590476Y-81761904D01*
X148685714Y-81714285D01*
X148733333Y-81666666D01*
X148780952Y-81571428D01*
X148780952Y-81380952D01*
X148828571Y-81285714D01*
X148876190Y-81238095D01*
X148971428Y-81190476D01*
X149161904Y-81190476D01*
X149257142Y-81238095D01*
X149304761Y-81285714D01*
X149352380Y-81380952D01*
X149352380Y-81571428D01*
X149304761Y-81666666D01*
X149257142Y-81714285D01*
X149161904Y-81761904D01*
X148971428Y-81761904D01*
X148876190Y-81714285D01*
X148828571Y-81666666D01*
X148780952Y-81571428D01*
%TO.C,C27*%
X174842857Y-86657142D02*
X174890476Y-86704761D01*
X175033333Y-86752380D01*
X175128571Y-86752380D01*
X175271428Y-86704761D01*
X175366666Y-86609523D01*
X175414285Y-86514285D01*
X175461904Y-86323809D01*
X175461904Y-86180952D01*
X175414285Y-85990476D01*
X175366666Y-85895238D01*
X175271428Y-85800000D01*
X175128571Y-85752380D01*
X175033333Y-85752380D01*
X174890476Y-85800000D01*
X174842857Y-85847619D01*
X174461904Y-85847619D02*
X174414285Y-85800000D01*
X174319047Y-85752380D01*
X174080952Y-85752380D01*
X173985714Y-85800000D01*
X173938095Y-85847619D01*
X173890476Y-85942857D01*
X173890476Y-86038095D01*
X173938095Y-86180952D01*
X174509523Y-86752380D01*
X173890476Y-86752380D01*
X173557142Y-85752380D02*
X172890476Y-85752380D01*
X173319047Y-86752380D01*
%TO.C,C26*%
X154957142Y-85057142D02*
X155004761Y-85009523D01*
X155052380Y-84866666D01*
X155052380Y-84771428D01*
X155004761Y-84628571D01*
X154909523Y-84533333D01*
X154814285Y-84485714D01*
X154623809Y-84438095D01*
X154480952Y-84438095D01*
X154290476Y-84485714D01*
X154195238Y-84533333D01*
X154100000Y-84628571D01*
X154052380Y-84771428D01*
X154052380Y-84866666D01*
X154100000Y-85009523D01*
X154147619Y-85057142D01*
X154147619Y-85438095D02*
X154100000Y-85485714D01*
X154052380Y-85580952D01*
X154052380Y-85819047D01*
X154100000Y-85914285D01*
X154147619Y-85961904D01*
X154242857Y-86009523D01*
X154338095Y-86009523D01*
X154480952Y-85961904D01*
X155052380Y-85390476D01*
X155052380Y-86009523D01*
X154052380Y-86866666D02*
X154052380Y-86676190D01*
X154100000Y-86580952D01*
X154147619Y-86533333D01*
X154290476Y-86438095D01*
X154480952Y-86390476D01*
X154861904Y-86390476D01*
X154957142Y-86438095D01*
X155004761Y-86485714D01*
X155052380Y-86580952D01*
X155052380Y-86771428D01*
X155004761Y-86866666D01*
X154957142Y-86914285D01*
X154861904Y-86961904D01*
X154623809Y-86961904D01*
X154528571Y-86914285D01*
X154480952Y-86866666D01*
X154433333Y-86771428D01*
X154433333Y-86580952D01*
X154480952Y-86485714D01*
X154528571Y-86438095D01*
X154623809Y-86390476D01*
%TO.C,C25*%
X174942857Y-84757142D02*
X174990476Y-84804761D01*
X175133333Y-84852380D01*
X175228571Y-84852380D01*
X175371428Y-84804761D01*
X175466666Y-84709523D01*
X175514285Y-84614285D01*
X175561904Y-84423809D01*
X175561904Y-84280952D01*
X175514285Y-84090476D01*
X175466666Y-83995238D01*
X175371428Y-83900000D01*
X175228571Y-83852380D01*
X175133333Y-83852380D01*
X174990476Y-83900000D01*
X174942857Y-83947619D01*
X174561904Y-83947619D02*
X174514285Y-83900000D01*
X174419047Y-83852380D01*
X174180952Y-83852380D01*
X174085714Y-83900000D01*
X174038095Y-83947619D01*
X173990476Y-84042857D01*
X173990476Y-84138095D01*
X174038095Y-84280952D01*
X174609523Y-84852380D01*
X173990476Y-84852380D01*
X173085714Y-83852380D02*
X173561904Y-83852380D01*
X173609523Y-84328571D01*
X173561904Y-84280952D01*
X173466666Y-84233333D01*
X173228571Y-84233333D01*
X173133333Y-84280952D01*
X173085714Y-84328571D01*
X173038095Y-84423809D01*
X173038095Y-84661904D01*
X173085714Y-84757142D01*
X173133333Y-84804761D01*
X173228571Y-84852380D01*
X173466666Y-84852380D01*
X173561904Y-84804761D01*
X173609523Y-84757142D01*
%TO.C,C23*%
X174742857Y-76157142D02*
X174790476Y-76204761D01*
X174933333Y-76252380D01*
X175028571Y-76252380D01*
X175171428Y-76204761D01*
X175266666Y-76109523D01*
X175314285Y-76014285D01*
X175361904Y-75823809D01*
X175361904Y-75680952D01*
X175314285Y-75490476D01*
X175266666Y-75395238D01*
X175171428Y-75300000D01*
X175028571Y-75252380D01*
X174933333Y-75252380D01*
X174790476Y-75300000D01*
X174742857Y-75347619D01*
X174361904Y-75347619D02*
X174314285Y-75300000D01*
X174219047Y-75252380D01*
X173980952Y-75252380D01*
X173885714Y-75300000D01*
X173838095Y-75347619D01*
X173790476Y-75442857D01*
X173790476Y-75538095D01*
X173838095Y-75680952D01*
X174409523Y-76252380D01*
X173790476Y-76252380D01*
X173457142Y-75252380D02*
X172838095Y-75252380D01*
X173171428Y-75633333D01*
X173028571Y-75633333D01*
X172933333Y-75680952D01*
X172885714Y-75728571D01*
X172838095Y-75823809D01*
X172838095Y-76061904D01*
X172885714Y-76157142D01*
X172933333Y-76204761D01*
X173028571Y-76252380D01*
X173314285Y-76252380D01*
X173409523Y-76204761D01*
X173457142Y-76157142D01*
%TO.C,C21*%
X174957142Y-82957142D02*
X175004761Y-82909523D01*
X175052380Y-82766666D01*
X175052380Y-82671428D01*
X175004761Y-82528571D01*
X174909523Y-82433333D01*
X174814285Y-82385714D01*
X174623809Y-82338095D01*
X174480952Y-82338095D01*
X174290476Y-82385714D01*
X174195238Y-82433333D01*
X174100000Y-82528571D01*
X174052380Y-82671428D01*
X174052380Y-82766666D01*
X174100000Y-82909523D01*
X174147619Y-82957142D01*
X174147619Y-83338095D02*
X174100000Y-83385714D01*
X174052380Y-83480952D01*
X174052380Y-83719047D01*
X174100000Y-83814285D01*
X174147619Y-83861904D01*
X174242857Y-83909523D01*
X174338095Y-83909523D01*
X174480952Y-83861904D01*
X175052380Y-83290476D01*
X175052380Y-83909523D01*
X175052380Y-84861904D02*
X175052380Y-84290476D01*
X175052380Y-84576190D02*
X174052380Y-84576190D01*
X174195238Y-84480952D01*
X174290476Y-84385714D01*
X174338095Y-84290476D01*
%TO.C,C19*%
X141242857Y-78057142D02*
X141290476Y-78104761D01*
X141433333Y-78152380D01*
X141528571Y-78152380D01*
X141671428Y-78104761D01*
X141766666Y-78009523D01*
X141814285Y-77914285D01*
X141861904Y-77723809D01*
X141861904Y-77580952D01*
X141814285Y-77390476D01*
X141766666Y-77295238D01*
X141671428Y-77200000D01*
X141528571Y-77152380D01*
X141433333Y-77152380D01*
X141290476Y-77200000D01*
X141242857Y-77247619D01*
X140290476Y-78152380D02*
X140861904Y-78152380D01*
X140576190Y-78152380D02*
X140576190Y-77152380D01*
X140671428Y-77295238D01*
X140766666Y-77390476D01*
X140861904Y-77438095D01*
X139814285Y-78152380D02*
X139623809Y-78152380D01*
X139528571Y-78104761D01*
X139480952Y-78057142D01*
X139385714Y-77914285D01*
X139338095Y-77723809D01*
X139338095Y-77342857D01*
X139385714Y-77247619D01*
X139433333Y-77200000D01*
X139528571Y-77152380D01*
X139719047Y-77152380D01*
X139814285Y-77200000D01*
X139861904Y-77247619D01*
X139909523Y-77342857D01*
X139909523Y-77580952D01*
X139861904Y-77676190D01*
X139814285Y-77723809D01*
X139719047Y-77771428D01*
X139528571Y-77771428D01*
X139433333Y-77723809D01*
X139385714Y-77676190D01*
X139338095Y-77580952D01*
%TO.C,C18*%
X141542857Y-85257142D02*
X141590476Y-85304761D01*
X141733333Y-85352380D01*
X141828571Y-85352380D01*
X141971428Y-85304761D01*
X142066666Y-85209523D01*
X142114285Y-85114285D01*
X142161904Y-84923809D01*
X142161904Y-84780952D01*
X142114285Y-84590476D01*
X142066666Y-84495238D01*
X141971428Y-84400000D01*
X141828571Y-84352380D01*
X141733333Y-84352380D01*
X141590476Y-84400000D01*
X141542857Y-84447619D01*
X140590476Y-85352380D02*
X141161904Y-85352380D01*
X140876190Y-85352380D02*
X140876190Y-84352380D01*
X140971428Y-84495238D01*
X141066666Y-84590476D01*
X141161904Y-84638095D01*
X140019047Y-84780952D02*
X140114285Y-84733333D01*
X140161904Y-84685714D01*
X140209523Y-84590476D01*
X140209523Y-84542857D01*
X140161904Y-84447619D01*
X140114285Y-84400000D01*
X140019047Y-84352380D01*
X139828571Y-84352380D01*
X139733333Y-84400000D01*
X139685714Y-84447619D01*
X139638095Y-84542857D01*
X139638095Y-84590476D01*
X139685714Y-84685714D01*
X139733333Y-84733333D01*
X139828571Y-84780952D01*
X140019047Y-84780952D01*
X140114285Y-84828571D01*
X140161904Y-84876190D01*
X140209523Y-84971428D01*
X140209523Y-85161904D01*
X140161904Y-85257142D01*
X140114285Y-85304761D01*
X140019047Y-85352380D01*
X139828571Y-85352380D01*
X139733333Y-85304761D01*
X139685714Y-85257142D01*
X139638095Y-85161904D01*
X139638095Y-84971428D01*
X139685714Y-84876190D01*
X139733333Y-84828571D01*
X139828571Y-84780952D01*
%TO.C,C17*%
X139042857Y-81057142D02*
X139090476Y-81104761D01*
X139233333Y-81152380D01*
X139328571Y-81152380D01*
X139471428Y-81104761D01*
X139566666Y-81009523D01*
X139614285Y-80914285D01*
X139661904Y-80723809D01*
X139661904Y-80580952D01*
X139614285Y-80390476D01*
X139566666Y-80295238D01*
X139471428Y-80200000D01*
X139328571Y-80152380D01*
X139233333Y-80152380D01*
X139090476Y-80200000D01*
X139042857Y-80247619D01*
X138090476Y-81152380D02*
X138661904Y-81152380D01*
X138376190Y-81152380D02*
X138376190Y-80152380D01*
X138471428Y-80295238D01*
X138566666Y-80390476D01*
X138661904Y-80438095D01*
X137757142Y-80152380D02*
X137090476Y-80152380D01*
X137519047Y-81152380D01*
%TO.C,C16*%
X141542857Y-86757142D02*
X141590476Y-86804761D01*
X141733333Y-86852380D01*
X141828571Y-86852380D01*
X141971428Y-86804761D01*
X142066666Y-86709523D01*
X142114285Y-86614285D01*
X142161904Y-86423809D01*
X142161904Y-86280952D01*
X142114285Y-86090476D01*
X142066666Y-85995238D01*
X141971428Y-85900000D01*
X141828571Y-85852380D01*
X141733333Y-85852380D01*
X141590476Y-85900000D01*
X141542857Y-85947619D01*
X140590476Y-86852380D02*
X141161904Y-86852380D01*
X140876190Y-86852380D02*
X140876190Y-85852380D01*
X140971428Y-85995238D01*
X141066666Y-86090476D01*
X141161904Y-86138095D01*
X139733333Y-85852380D02*
X139923809Y-85852380D01*
X140019047Y-85900000D01*
X140066666Y-85947619D01*
X140161904Y-86090476D01*
X140209523Y-86280952D01*
X140209523Y-86661904D01*
X140161904Y-86757142D01*
X140114285Y-86804761D01*
X140019047Y-86852380D01*
X139828571Y-86852380D01*
X139733333Y-86804761D01*
X139685714Y-86757142D01*
X139638095Y-86661904D01*
X139638095Y-86423809D01*
X139685714Y-86328571D01*
X139733333Y-86280952D01*
X139828571Y-86233333D01*
X140019047Y-86233333D01*
X140114285Y-86280952D01*
X140161904Y-86328571D01*
X140209523Y-86423809D01*
%TO.C,C15*%
X147557142Y-90157142D02*
X147604761Y-90109523D01*
X147652380Y-89966666D01*
X147652380Y-89871428D01*
X147604761Y-89728571D01*
X147509523Y-89633333D01*
X147414285Y-89585714D01*
X147223809Y-89538095D01*
X147080952Y-89538095D01*
X146890476Y-89585714D01*
X146795238Y-89633333D01*
X146700000Y-89728571D01*
X146652380Y-89871428D01*
X146652380Y-89966666D01*
X146700000Y-90109523D01*
X146747619Y-90157142D01*
X147652380Y-91109523D02*
X147652380Y-90538095D01*
X147652380Y-90823809D02*
X146652380Y-90823809D01*
X146795238Y-90728571D01*
X146890476Y-90633333D01*
X146938095Y-90538095D01*
X146652380Y-92014285D02*
X146652380Y-91538095D01*
X147128571Y-91490476D01*
X147080952Y-91538095D01*
X147033333Y-91633333D01*
X147033333Y-91871428D01*
X147080952Y-91966666D01*
X147128571Y-92014285D01*
X147223809Y-92061904D01*
X147461904Y-92061904D01*
X147557142Y-92014285D01*
X147604761Y-91966666D01*
X147652380Y-91871428D01*
X147652380Y-91633333D01*
X147604761Y-91538095D01*
X147557142Y-91490476D01*
%TO.C,C14*%
X139142857Y-82957142D02*
X139190476Y-83004761D01*
X139333333Y-83052380D01*
X139428571Y-83052380D01*
X139571428Y-83004761D01*
X139666666Y-82909523D01*
X139714285Y-82814285D01*
X139761904Y-82623809D01*
X139761904Y-82480952D01*
X139714285Y-82290476D01*
X139666666Y-82195238D01*
X139571428Y-82100000D01*
X139428571Y-82052380D01*
X139333333Y-82052380D01*
X139190476Y-82100000D01*
X139142857Y-82147619D01*
X138190476Y-83052380D02*
X138761904Y-83052380D01*
X138476190Y-83052380D02*
X138476190Y-82052380D01*
X138571428Y-82195238D01*
X138666666Y-82290476D01*
X138761904Y-82338095D01*
X137333333Y-82385714D02*
X137333333Y-83052380D01*
X137571428Y-82004761D02*
X137809523Y-82719047D01*
X137190476Y-82719047D01*
%TO.C,C13*%
X144957142Y-90257142D02*
X145004761Y-90209523D01*
X145052380Y-90066666D01*
X145052380Y-89971428D01*
X145004761Y-89828571D01*
X144909523Y-89733333D01*
X144814285Y-89685714D01*
X144623809Y-89638095D01*
X144480952Y-89638095D01*
X144290476Y-89685714D01*
X144195238Y-89733333D01*
X144100000Y-89828571D01*
X144052380Y-89971428D01*
X144052380Y-90066666D01*
X144100000Y-90209523D01*
X144147619Y-90257142D01*
X145052380Y-91209523D02*
X145052380Y-90638095D01*
X145052380Y-90923809D02*
X144052380Y-90923809D01*
X144195238Y-90828571D01*
X144290476Y-90733333D01*
X144338095Y-90638095D01*
X144052380Y-91542857D02*
X144052380Y-92161904D01*
X144433333Y-91828571D01*
X144433333Y-91971428D01*
X144480952Y-92066666D01*
X144528571Y-92114285D01*
X144623809Y-92161904D01*
X144861904Y-92161904D01*
X144957142Y-92114285D01*
X145004761Y-92066666D01*
X145052380Y-91971428D01*
X145052380Y-91685714D01*
X145004761Y-91590476D01*
X144957142Y-91542857D01*
%TO.C,C12*%
X142542857Y-83857142D02*
X142590476Y-83904761D01*
X142733333Y-83952380D01*
X142828571Y-83952380D01*
X142971428Y-83904761D01*
X143066666Y-83809523D01*
X143114285Y-83714285D01*
X143161904Y-83523809D01*
X143161904Y-83380952D01*
X143114285Y-83190476D01*
X143066666Y-83095238D01*
X142971428Y-83000000D01*
X142828571Y-82952380D01*
X142733333Y-82952380D01*
X142590476Y-83000000D01*
X142542857Y-83047619D01*
X141590476Y-83952380D02*
X142161904Y-83952380D01*
X141876190Y-83952380D02*
X141876190Y-82952380D01*
X141971428Y-83095238D01*
X142066666Y-83190476D01*
X142161904Y-83238095D01*
X141209523Y-83047619D02*
X141161904Y-83000000D01*
X141066666Y-82952380D01*
X140828571Y-82952380D01*
X140733333Y-83000000D01*
X140685714Y-83047619D01*
X140638095Y-83142857D01*
X140638095Y-83238095D01*
X140685714Y-83380952D01*
X141257142Y-83952380D01*
X140638095Y-83952380D01*
%TO.C,C11*%
X146257142Y-78657142D02*
X146304761Y-78609523D01*
X146352380Y-78466666D01*
X146352380Y-78371428D01*
X146304761Y-78228571D01*
X146209523Y-78133333D01*
X146114285Y-78085714D01*
X145923809Y-78038095D01*
X145780952Y-78038095D01*
X145590476Y-78085714D01*
X145495238Y-78133333D01*
X145400000Y-78228571D01*
X145352380Y-78371428D01*
X145352380Y-78466666D01*
X145400000Y-78609523D01*
X145447619Y-78657142D01*
X146352380Y-79609523D02*
X146352380Y-79038095D01*
X146352380Y-79323809D02*
X145352380Y-79323809D01*
X145495238Y-79228571D01*
X145590476Y-79133333D01*
X145638095Y-79038095D01*
X146352380Y-80561904D02*
X146352380Y-79990476D01*
X146352380Y-80276190D02*
X145352380Y-80276190D01*
X145495238Y-80180952D01*
X145590476Y-80085714D01*
X145638095Y-79990476D01*
%TO.C,C10*%
X144542857Y-77857142D02*
X144590476Y-77904761D01*
X144733333Y-77952380D01*
X144828571Y-77952380D01*
X144971428Y-77904761D01*
X145066666Y-77809523D01*
X145114285Y-77714285D01*
X145161904Y-77523809D01*
X145161904Y-77380952D01*
X145114285Y-77190476D01*
X145066666Y-77095238D01*
X144971428Y-77000000D01*
X144828571Y-76952380D01*
X144733333Y-76952380D01*
X144590476Y-77000000D01*
X144542857Y-77047619D01*
X143590476Y-77952380D02*
X144161904Y-77952380D01*
X143876190Y-77952380D02*
X143876190Y-76952380D01*
X143971428Y-77095238D01*
X144066666Y-77190476D01*
X144161904Y-77238095D01*
X142971428Y-76952380D02*
X142876190Y-76952380D01*
X142780952Y-77000000D01*
X142733333Y-77047619D01*
X142685714Y-77142857D01*
X142638095Y-77333333D01*
X142638095Y-77571428D01*
X142685714Y-77761904D01*
X142733333Y-77857142D01*
X142780952Y-77904761D01*
X142876190Y-77952380D01*
X142971428Y-77952380D01*
X143066666Y-77904761D01*
X143114285Y-77857142D01*
X143161904Y-77761904D01*
X143209523Y-77571428D01*
X143209523Y-77333333D01*
X143161904Y-77142857D01*
X143114285Y-77047619D01*
X143066666Y-77000000D01*
X142971428Y-76952380D01*
%TO.C,C9*%
X146257142Y-90733333D02*
X146304761Y-90685714D01*
X146352380Y-90542857D01*
X146352380Y-90447619D01*
X146304761Y-90304761D01*
X146209523Y-90209523D01*
X146114285Y-90161904D01*
X145923809Y-90114285D01*
X145780952Y-90114285D01*
X145590476Y-90161904D01*
X145495238Y-90209523D01*
X145400000Y-90304761D01*
X145352380Y-90447619D01*
X145352380Y-90542857D01*
X145400000Y-90685714D01*
X145447619Y-90733333D01*
X146352380Y-91209523D02*
X146352380Y-91400000D01*
X146304761Y-91495238D01*
X146257142Y-91542857D01*
X146114285Y-91638095D01*
X145923809Y-91685714D01*
X145542857Y-91685714D01*
X145447619Y-91638095D01*
X145400000Y-91590476D01*
X145352380Y-91495238D01*
X145352380Y-91304761D01*
X145400000Y-91209523D01*
X145447619Y-91161904D01*
X145542857Y-91114285D01*
X145780952Y-91114285D01*
X145876190Y-91161904D01*
X145923809Y-91209523D01*
X145971428Y-91304761D01*
X145971428Y-91495238D01*
X145923809Y-91590476D01*
X145876190Y-91638095D01*
X145780952Y-91685714D01*
%TO.C,C8*%
X153857142Y-83333333D02*
X153904761Y-83285714D01*
X153952380Y-83142857D01*
X153952380Y-83047619D01*
X153904761Y-82904761D01*
X153809523Y-82809523D01*
X153714285Y-82761904D01*
X153523809Y-82714285D01*
X153380952Y-82714285D01*
X153190476Y-82761904D01*
X153095238Y-82809523D01*
X153000000Y-82904761D01*
X152952380Y-83047619D01*
X152952380Y-83142857D01*
X153000000Y-83285714D01*
X153047619Y-83333333D01*
X153380952Y-83904761D02*
X153333333Y-83809523D01*
X153285714Y-83761904D01*
X153190476Y-83714285D01*
X153142857Y-83714285D01*
X153047619Y-83761904D01*
X153000000Y-83809523D01*
X152952380Y-83904761D01*
X152952380Y-84095238D01*
X153000000Y-84190476D01*
X153047619Y-84238095D01*
X153142857Y-84285714D01*
X153190476Y-84285714D01*
X153285714Y-84238095D01*
X153333333Y-84190476D01*
X153380952Y-84095238D01*
X153380952Y-83904761D01*
X153428571Y-83809523D01*
X153476190Y-83761904D01*
X153571428Y-83714285D01*
X153761904Y-83714285D01*
X153857142Y-83761904D01*
X153904761Y-83809523D01*
X153952380Y-83904761D01*
X153952380Y-84095238D01*
X153904761Y-84190476D01*
X153857142Y-84238095D01*
X153761904Y-84285714D01*
X153571428Y-84285714D01*
X153476190Y-84238095D01*
X153428571Y-84190476D01*
X153380952Y-84095238D01*
%TO.C,C5*%
X151857142Y-85633333D02*
X151904761Y-85585714D01*
X151952380Y-85442857D01*
X151952380Y-85347619D01*
X151904761Y-85204761D01*
X151809523Y-85109523D01*
X151714285Y-85061904D01*
X151523809Y-85014285D01*
X151380952Y-85014285D01*
X151190476Y-85061904D01*
X151095238Y-85109523D01*
X151000000Y-85204761D01*
X150952380Y-85347619D01*
X150952380Y-85442857D01*
X151000000Y-85585714D01*
X151047619Y-85633333D01*
X150952380Y-86538095D02*
X150952380Y-86061904D01*
X151428571Y-86014285D01*
X151380952Y-86061904D01*
X151333333Y-86157142D01*
X151333333Y-86395238D01*
X151380952Y-86490476D01*
X151428571Y-86538095D01*
X151523809Y-86585714D01*
X151761904Y-86585714D01*
X151857142Y-86538095D01*
X151904761Y-86490476D01*
X151952380Y-86395238D01*
X151952380Y-86157142D01*
X151904761Y-86061904D01*
X151857142Y-86014285D01*
%TO.C,C4*%
X144366666Y-79457142D02*
X144414285Y-79504761D01*
X144557142Y-79552380D01*
X144652380Y-79552380D01*
X144795238Y-79504761D01*
X144890476Y-79409523D01*
X144938095Y-79314285D01*
X144985714Y-79123809D01*
X144985714Y-78980952D01*
X144938095Y-78790476D01*
X144890476Y-78695238D01*
X144795238Y-78600000D01*
X144652380Y-78552380D01*
X144557142Y-78552380D01*
X144414285Y-78600000D01*
X144366666Y-78647619D01*
X143509523Y-78885714D02*
X143509523Y-79552380D01*
X143747619Y-78504761D02*
X143985714Y-79219047D01*
X143366666Y-79219047D01*
%TO.C,C3*%
X153557142Y-85633333D02*
X153604761Y-85585714D01*
X153652380Y-85442857D01*
X153652380Y-85347619D01*
X153604761Y-85204761D01*
X153509523Y-85109523D01*
X153414285Y-85061904D01*
X153223809Y-85014285D01*
X153080952Y-85014285D01*
X152890476Y-85061904D01*
X152795238Y-85109523D01*
X152700000Y-85204761D01*
X152652380Y-85347619D01*
X152652380Y-85442857D01*
X152700000Y-85585714D01*
X152747619Y-85633333D01*
X152652380Y-85966666D02*
X152652380Y-86585714D01*
X153033333Y-86252380D01*
X153033333Y-86395238D01*
X153080952Y-86490476D01*
X153128571Y-86538095D01*
X153223809Y-86585714D01*
X153461904Y-86585714D01*
X153557142Y-86538095D01*
X153604761Y-86490476D01*
X153652380Y-86395238D01*
X153652380Y-86109523D01*
X153604761Y-86014285D01*
X153557142Y-85966666D01*
%TO.C,C2*%
X152457142Y-83333333D02*
X152504761Y-83285714D01*
X152552380Y-83142857D01*
X152552380Y-83047619D01*
X152504761Y-82904761D01*
X152409523Y-82809523D01*
X152314285Y-82761904D01*
X152123809Y-82714285D01*
X151980952Y-82714285D01*
X151790476Y-82761904D01*
X151695238Y-82809523D01*
X151600000Y-82904761D01*
X151552380Y-83047619D01*
X151552380Y-83142857D01*
X151600000Y-83285714D01*
X151647619Y-83333333D01*
X151647619Y-83714285D02*
X151600000Y-83761904D01*
X151552380Y-83857142D01*
X151552380Y-84095238D01*
X151600000Y-84190476D01*
X151647619Y-84238095D01*
X151742857Y-84285714D01*
X151838095Y-84285714D01*
X151980952Y-84238095D01*
X152552380Y-83666666D01*
X152552380Y-84285714D01*
%TO.C,C1*%
X139127142Y-90333333D02*
X139174761Y-90285714D01*
X139222380Y-90142857D01*
X139222380Y-90047619D01*
X139174761Y-89904761D01*
X139079523Y-89809523D01*
X138984285Y-89761904D01*
X138793809Y-89714285D01*
X138650952Y-89714285D01*
X138460476Y-89761904D01*
X138365238Y-89809523D01*
X138270000Y-89904761D01*
X138222380Y-90047619D01*
X138222380Y-90142857D01*
X138270000Y-90285714D01*
X138317619Y-90333333D01*
X139222380Y-91285714D02*
X139222380Y-90714285D01*
X139222380Y-91000000D02*
X138222380Y-91000000D01*
X138365238Y-90904761D01*
X138460476Y-90809523D01*
X138508095Y-90714285D01*
%TD*%
M02*
