M48
; DRILL file {KiCad (5.1.7)-1} date 06/10/21 10:44:14
; FORMAT={-:-/ absolute / inch / decimal}
; #@! TF.CreationDate,2021-06-10T10:44:14-07:00
; #@! TF.GenerationSoftware,Kicad,Pcbnew,(5.1.7)-1
FMAT,2
INCH
T1C0.0079
T2C0.0374
T3C0.0394
T4C0.0906
%
G90
G05
T1
X4.7913Y-3.2264
X4.7972Y-3.752
X4.8189Y-2.8228
X4.8189Y-2.874
X4.8297Y-4.1033
X4.8297Y-4.1535
X4.8465Y-2.8469
X4.8524Y-3.0374
X4.8602Y-4.1268
X4.8815Y-2.822
X4.8854Y-2.874
X4.8953Y-4.1012
X4.8965Y-4.1545
X4.913Y-2.8453
X4.9252Y-4.1283
X4.9331Y-3.9341
X4.9409Y-2.8228
X4.9419Y-2.874
X4.9528Y-4.1033
X4.9547Y-4.1555
X4.9833Y-3.2303
X5.0079Y-3.7492
X5.0953Y-3.4433
X5.1299Y-3.1526
X5.1398Y-3.2018
X5.1407Y-3.503
X5.2254Y-3.4026
X5.2274Y-2.9616
X5.2283Y-3.1772
X5.2382Y-3.5797
X5.239Y-3.0439
X5.253Y-3.6762
X5.2667Y-2.936
X5.2709Y-3.1069
X5.2923Y-3.6752
X5.311Y-3.0335
X5.3337Y-3.4852
X5.3343Y-3.3907
X5.3346Y-3.1083
X5.3612Y-3.0335
X5.3646Y-3.2332
X5.365Y-3.0762
X5.3652Y-3.1703
X5.3652Y-3.3278
X5.3652Y-3.4222
X5.3819Y-2.939
X5.3898Y-3.5925
X5.3967Y-3.3278
X5.3969Y-3.1695
X5.4016Y-3.0344
X5.4272Y-3.2343
X5.4281Y-3.1703
X5.4281Y-3.3907
X5.4291Y-3.4852
X5.4518Y-3.6545
X5.4587Y-3.0394
X5.4596Y-3.1073
X5.4596Y-3.2648
X5.4596Y-3.3593
X5.4626Y-2.94
X5.4911Y-3.2018
X5.4911Y-3.2648
X5.4911Y-3.2963
X5.4911Y-3.3278
X5.4911Y-3.3593
X5.4911Y-3.4222
X5.501Y-3.0354
X5.5226Y-3.2648
X5.5226Y-3.3593
X5.5541Y-3.1073
X5.5541Y-3.1388
X5.5541Y-3.2333
X5.5541Y-3.3907
X5.5541Y-3.4852
X5.5719Y-3.5906
X5.5856Y-3.1388
X5.5856Y-3.1703
X5.5856Y-3.2963
X5.5856Y-3.4537
X5.6132Y-3.6752
X5.6171Y-3.1388
X5.6171Y-3.1703
X5.6171Y-3.2333
X5.6171Y-3.3278
X5.6171Y-3.3593
X5.6486Y-3.1703
X5.6486Y-3.0758
X5.6486Y-3.1073
X5.6486Y-3.2018
X5.6486Y-3.2648
X5.6486Y-3.2963
X5.6486Y-3.4222
X5.6486Y-3.5167
X5.6488Y-3.1388
X5.6488Y-3.2325
X5.6535Y-3.5837
X5.6799Y-3.2643
X5.6801Y-3.0758
X5.6801Y-3.1388
X5.6801Y-3.1703
X5.6801Y-3.2333
X5.6801Y-3.3278
X5.6801Y-3.3593
X5.6909Y-3.6801
X5.7047Y-3.0374
X5.7114Y-3.1389
X5.7116Y-3.1073
X5.7116Y-3.1703
X5.7116Y-3.2333
X5.7116Y-3.2963
X5.7116Y-3.3593
X5.7116Y-3.3907
X5.7116Y-3.4852
X5.7431Y-3.0404
X5.7431Y-3.0758
X5.7431Y-3.1073
X5.7431Y-3.4222
X5.7756Y-3.0276
X5.7795Y-3.5827
X5.7886Y-3.1704
X5.8041Y-3.1457
X5.9902Y-3.9035
X6.0118Y-4.1575
X6.062Y-3.0837
X6.102Y-4.1815
X6.1171Y-2.9724
X6.1184Y-3.2916
X6.125Y-3.3376
X6.1298Y-3.1348
X6.1319Y-3.0689
X6.1329Y-2.9114
X6.1329Y-3.2579
X6.1388Y-3.3898
X6.1407Y-4.0778
X6.1634Y-3.2579
X6.1634Y-3.0689
X6.1644Y-3.1319
X6.1644Y-2.9114
X6.1644Y-3.0059
X6.1644Y-3.3524
X6.1841Y-4.1772
X6.1949Y-3.1319
X6.1949Y-3.1949
X6.1959Y-2.9114
X6.1959Y-3.0059
X6.1959Y-3.0689
X6.1959Y-3.3524
X6.1959Y-3.3848
X6.2146Y-3.8868
X6.2274Y-3.0059
X6.2274Y-3.2894
X6.2274Y-4.0335
X6.2274Y-4.1644
X6.2352Y-3.0856
X6.2372Y-3.1703
X6.2402Y-3.0561
X6.253Y-3.0207
X6.2549Y-2.8287
X6.2603Y-2.9769
X6.2898Y-3.023
X6.3002Y-2.8799
X6.3031Y-2.9843
X6.314Y-3.2165
X6.3209Y-2.9114
X6.3209Y-2.9429
X6.3209Y-3.0059
X6.3209Y-3.1634
X6.3209Y-3.2579
X6.3524Y-3.3209
X6.3533Y-3.0059
X6.3533Y-3.1634
X6.3533Y-3.2264
X6.3535Y-3.069
X6.3839Y-2.8789
X6.3839Y-3.3848
X6.3848Y-3.0059
X6.3848Y-3.0689
X6.3848Y-3.1949
X6.3848Y-3.2579
X6.3848Y-3.3209
X6.385Y-3.132
X6.4094Y-3.4154
X6.4163Y-2.8799
X6.4163Y-2.9114
X6.4163Y-3.0059
X6.4163Y-3.1319
X6.4163Y-3.1949
X6.4163Y-3.2894
X6.4163Y-3.3219
X6.4173Y-3.3524
X6.4183Y-2.9754
X6.4183Y-3.2589
X6.4183Y-3.3878
X6.4301Y-3.4833
X6.4439Y-2.8297
X6.4547Y-2.9281
X6.4547Y-3.0837
X6.4547Y-3.1486
X6.4553Y-3.2707
X6.4732Y-3.987
X6.4921Y-2.9281
X6.4921Y-3.0837
X6.4951Y-3.1486
X6.5207Y-2.8622
X6.5217Y-3.0
X6.5256Y-3.2106
X6.5266Y-3.3888
X6.5276Y-3.2707
T2
X5.3356Y-3.8661
X5.4341Y-3.8661
X5.5128Y-3.8661
X5.6112Y-3.8661
T3
X4.9213Y-3.2864
X4.9213Y-3.3864
X4.9213Y-3.4864
X4.9213Y-3.5864
X4.9213Y-3.6864
T4
X5.2148Y-3.9728
X5.7321Y-3.9728
T0
M30
