%TF.GenerationSoftware,KiCad,Pcbnew,(5.1.7)-1*%
%TF.CreationDate,2021-05-14T12:52:33-07:00*%
%TF.ProjectId,Keychain,4b657963-6861-4696-9e2e-6b696361645f,rev?*%
%TF.SameCoordinates,Original*%
%TF.FileFunction,Soldermask,Top*%
%TF.FilePolarity,Negative*%
%FSLAX46Y46*%
G04 Gerber Fmt 4.6, Leading zero omitted, Abs format (unit mm)*
G04 Created by KiCad (PCBNEW (5.1.7)-1) date 2021-05-14 12:52:33*
%MOMM*%
%LPD*%
G01*
G04 APERTURE LIST*
%ADD10C,0.500000*%
%ADD11C,1.700000*%
%ADD12C,3.100000*%
%ADD13O,1.800000X1.800000*%
%ADD14C,0.100000*%
G04 APERTURE END LIST*
D10*
%TO.C,U1*%
X146281500Y-90524000D03*
X145481500Y-90524000D03*
X144681500Y-90524000D03*
X143881500Y-90524000D03*
X143081500Y-90524000D03*
X142281500Y-90524000D03*
X141481500Y-90524000D03*
X140681500Y-90524000D03*
X139881500Y-90524000D03*
X139081500Y-90524000D03*
X138281500Y-90524000D03*
X137481500Y-90524000D03*
X136681500Y-90524000D03*
X135881500Y-90524000D03*
X135081500Y-90524000D03*
X134281500Y-90524000D03*
X133481500Y-90524000D03*
X146281500Y-89724000D03*
X145481500Y-89724000D03*
X144681500Y-89724000D03*
X143881500Y-89724000D03*
X143081500Y-89724000D03*
X142281500Y-89724000D03*
X141481500Y-89724000D03*
X140681500Y-89724000D03*
X139881500Y-89724000D03*
X139081500Y-89724000D03*
X138281500Y-89724000D03*
X137481500Y-89724000D03*
X136681500Y-89724000D03*
X135881500Y-89724000D03*
X135081500Y-89724000D03*
X134281500Y-89724000D03*
X133481500Y-89724000D03*
X146281500Y-88924000D03*
X145481500Y-88924000D03*
X144681500Y-88924000D03*
X143881500Y-88924000D03*
X143081500Y-88924000D03*
X142281500Y-88924000D03*
X141481500Y-88924000D03*
X140681500Y-88924000D03*
X139881500Y-88924000D03*
X139081500Y-88924000D03*
X138281500Y-88924000D03*
X137481500Y-88924000D03*
X136681500Y-88924000D03*
X135881500Y-88924000D03*
X135081500Y-88924000D03*
X134281500Y-88924000D03*
X133481500Y-88924000D03*
X146281500Y-88124000D03*
X145481500Y-88124000D03*
X144681500Y-88124000D03*
X143881500Y-88124000D03*
X143081500Y-88124000D03*
X142281500Y-88124000D03*
X141481500Y-88124000D03*
X140681500Y-88124000D03*
X139881500Y-88124000D03*
X139081500Y-88124000D03*
X138281500Y-88124000D03*
X137481500Y-88124000D03*
X136681500Y-88124000D03*
X135881500Y-88124000D03*
X135081500Y-88124000D03*
X134281500Y-88124000D03*
X133481500Y-88124000D03*
X146281500Y-87324000D03*
X145481500Y-87324000D03*
X144681500Y-87324000D03*
X143881500Y-87324000D03*
X143081500Y-87324000D03*
X142281500Y-87324000D03*
X141481500Y-87324000D03*
X140681500Y-87324000D03*
X139881500Y-87324000D03*
X139081500Y-87324000D03*
X138281500Y-87324000D03*
X137481500Y-87324000D03*
X136681500Y-87324000D03*
X135881500Y-87324000D03*
X135081500Y-87324000D03*
X134281500Y-87324000D03*
X133481500Y-87324000D03*
X146281500Y-86524000D03*
X145481500Y-86524000D03*
X144681500Y-86524000D03*
X143881500Y-86524000D03*
X143081500Y-86524000D03*
X142281500Y-86524000D03*
X141481500Y-86524000D03*
X140681500Y-86524000D03*
X139881500Y-86524000D03*
X139081500Y-86524000D03*
X138281500Y-86524000D03*
X137481500Y-86524000D03*
X136681500Y-86524000D03*
X135881500Y-86524000D03*
X135081500Y-86524000D03*
X134281500Y-86524000D03*
X133481500Y-86524000D03*
X146281500Y-85724000D03*
X145481500Y-85724000D03*
X144681500Y-85724000D03*
X143881500Y-85724000D03*
X143081500Y-85724000D03*
X142281500Y-85724000D03*
X141481500Y-85724000D03*
X140681500Y-85724000D03*
X139881500Y-85724000D03*
X139081500Y-85724000D03*
X138281500Y-85724000D03*
X137481500Y-85724000D03*
X136681500Y-85724000D03*
X135881500Y-85724000D03*
X135081500Y-85724000D03*
X134281500Y-85724000D03*
X133481500Y-85724000D03*
X146281500Y-84924000D03*
X145481500Y-84924000D03*
X144681500Y-84924000D03*
X143881500Y-84924000D03*
X143081500Y-84924000D03*
X142281500Y-84924000D03*
X141481500Y-84924000D03*
X140681500Y-84924000D03*
X139881500Y-84924000D03*
X139081500Y-84924000D03*
X138281500Y-84924000D03*
X137481500Y-84924000D03*
X136681500Y-84924000D03*
X135881500Y-84924000D03*
X135081500Y-84924000D03*
X134281500Y-84924000D03*
X133481500Y-84924000D03*
X146281500Y-84124000D03*
X145481500Y-84124000D03*
X144681500Y-84124000D03*
X143881500Y-84124000D03*
X143081500Y-84124000D03*
X142281500Y-84124000D03*
X141481500Y-84124000D03*
X140681500Y-84124000D03*
X139881500Y-84124000D03*
X139081500Y-84124000D03*
X138281500Y-84124000D03*
X137481500Y-84124000D03*
X136681500Y-84124000D03*
X135881500Y-84124000D03*
X135081500Y-84124000D03*
X134281500Y-84124000D03*
X133481500Y-84124000D03*
X146281500Y-83324000D03*
X145481500Y-83324000D03*
X144681500Y-83324000D03*
X143881500Y-83324000D03*
X143081500Y-83324000D03*
X142281500Y-83324000D03*
X141481500Y-83324000D03*
X140681500Y-83324000D03*
X139881500Y-83324000D03*
X139081500Y-83324000D03*
X138281500Y-83324000D03*
X137481500Y-83324000D03*
X136681500Y-83324000D03*
X135881500Y-83324000D03*
X135081500Y-83324000D03*
X134281500Y-83324000D03*
X133481500Y-83324000D03*
X146281500Y-82524000D03*
X145481500Y-82524000D03*
X144681500Y-82524000D03*
X143881500Y-82524000D03*
X143081500Y-82524000D03*
X142281500Y-82524000D03*
X141481500Y-82524000D03*
X140681500Y-82524000D03*
X139881500Y-82524000D03*
X139081500Y-82524000D03*
X138281500Y-82524000D03*
X137481500Y-82524000D03*
X136681500Y-82524000D03*
X135881500Y-82524000D03*
X135081500Y-82524000D03*
X134281500Y-82524000D03*
X133481500Y-82524000D03*
X146281500Y-81724000D03*
X145481500Y-81724000D03*
X144681500Y-81724000D03*
X143881500Y-81724000D03*
X143081500Y-81724000D03*
X142281500Y-81724000D03*
X141481500Y-81724000D03*
X140681500Y-81724000D03*
X139881500Y-81724000D03*
X139081500Y-81724000D03*
X138281500Y-81724000D03*
X137481500Y-81724000D03*
X136681500Y-81724000D03*
X135881500Y-81724000D03*
X135081500Y-81724000D03*
X134281500Y-81724000D03*
X133481500Y-81724000D03*
X146281500Y-80924000D03*
X145481500Y-80924000D03*
X144681500Y-80924000D03*
X143881500Y-80924000D03*
X143081500Y-80924000D03*
X142281500Y-80924000D03*
X141481500Y-80924000D03*
X140681500Y-80924000D03*
X139881500Y-80924000D03*
X139081500Y-80924000D03*
X138281500Y-80924000D03*
X137481500Y-80924000D03*
X136681500Y-80924000D03*
X135881500Y-80924000D03*
X135081500Y-80924000D03*
X134281500Y-80924000D03*
X133481500Y-80924000D03*
X146281500Y-80124000D03*
X145481500Y-80124000D03*
X144681500Y-80124000D03*
X143881500Y-80124000D03*
X143081500Y-80124000D03*
X142281500Y-80124000D03*
X141481500Y-80124000D03*
X140681500Y-80124000D03*
X139881500Y-80124000D03*
X139081500Y-80124000D03*
X138281500Y-80124000D03*
X137481500Y-80124000D03*
X136681500Y-80124000D03*
X135881500Y-80124000D03*
X135081500Y-80124000D03*
X134281500Y-80124000D03*
X133481500Y-80124000D03*
X146281500Y-79324000D03*
X145481500Y-79324000D03*
X144681500Y-79324000D03*
X143881500Y-79324000D03*
X143081500Y-79324000D03*
X142281500Y-79324000D03*
X141481500Y-79324000D03*
X140681500Y-79324000D03*
X139881500Y-79324000D03*
X139081500Y-79324000D03*
X138281500Y-79324000D03*
X137481500Y-79324000D03*
X136681500Y-79324000D03*
X135881500Y-79324000D03*
X135081500Y-79324000D03*
X134281500Y-79324000D03*
X133481500Y-79324000D03*
X146281500Y-78524000D03*
X145481500Y-78524000D03*
X144681500Y-78524000D03*
X143881500Y-78524000D03*
X143081500Y-78524000D03*
X142281500Y-78524000D03*
X141481500Y-78524000D03*
X140681500Y-78524000D03*
X139881500Y-78524000D03*
X139081500Y-78524000D03*
X138281500Y-78524000D03*
X137481500Y-78524000D03*
X136681500Y-78524000D03*
X135881500Y-78524000D03*
X135081500Y-78524000D03*
X134281500Y-78524000D03*
X133481500Y-78524000D03*
X146281500Y-77724000D03*
X145481500Y-77724000D03*
X144681500Y-77724000D03*
X143881500Y-77724000D03*
X143081500Y-77724000D03*
X142281500Y-77724000D03*
X141481500Y-77724000D03*
X140681500Y-77724000D03*
X139881500Y-77724000D03*
X139081500Y-77724000D03*
X138281500Y-77724000D03*
X137481500Y-77724000D03*
X136681500Y-77724000D03*
X135881500Y-77724000D03*
X135081500Y-77724000D03*
X134281500Y-77724000D03*
X133481500Y-77724000D03*
%TD*%
%TO.C,C27*%
G36*
G01*
X164600000Y-87295000D02*
X164600000Y-86905000D01*
G75*
G02*
X164765000Y-86740000I165000J0D01*
G01*
X165095000Y-86740000D01*
G75*
G02*
X165260000Y-86905000I0J-165000D01*
G01*
X165260000Y-87295000D01*
G75*
G02*
X165095000Y-87460000I-165000J0D01*
G01*
X164765000Y-87460000D01*
G75*
G02*
X164600000Y-87295000I0J165000D01*
G01*
G37*
G36*
G01*
X163640000Y-87295000D02*
X163640000Y-86905000D01*
G75*
G02*
X163805000Y-86740000I165000J0D01*
G01*
X164135000Y-86740000D01*
G75*
G02*
X164300000Y-86905000I0J-165000D01*
G01*
X164300000Y-87295000D01*
G75*
G02*
X164135000Y-87460000I-165000J0D01*
G01*
X163805000Y-87460000D01*
G75*
G02*
X163640000Y-87295000I0J165000D01*
G01*
G37*
%TD*%
%TO.C,Y1*%
G36*
G01*
X130975000Y-75550000D02*
X132175000Y-75550000D01*
G75*
G02*
X132225000Y-75600000I0J-50000D01*
G01*
X132225000Y-77000000D01*
G75*
G02*
X132175000Y-77050000I-50000J0D01*
G01*
X130975000Y-77050000D01*
G75*
G02*
X130925000Y-77000000I0J50000D01*
G01*
X130925000Y-75600000D01*
G75*
G02*
X130975000Y-75550000I50000J0D01*
G01*
G37*
G36*
G01*
X130975000Y-77750000D02*
X132175000Y-77750000D01*
G75*
G02*
X132225000Y-77800000I0J-50000D01*
G01*
X132225000Y-79200000D01*
G75*
G02*
X132175000Y-79250000I-50000J0D01*
G01*
X130975000Y-79250000D01*
G75*
G02*
X130925000Y-79200000I0J50000D01*
G01*
X130925000Y-77800000D01*
G75*
G02*
X130975000Y-77750000I50000J0D01*
G01*
G37*
G36*
G01*
X129275000Y-77750000D02*
X130475000Y-77750000D01*
G75*
G02*
X130525000Y-77800000I0J-50000D01*
G01*
X130525000Y-79200000D01*
G75*
G02*
X130475000Y-79250000I-50000J0D01*
G01*
X129275000Y-79250000D01*
G75*
G02*
X129225000Y-79200000I0J50000D01*
G01*
X129225000Y-77800000D01*
G75*
G02*
X129275000Y-77750000I50000J0D01*
G01*
G37*
G36*
G01*
X129275000Y-75550000D02*
X130475000Y-75550000D01*
G75*
G02*
X130525000Y-75600000I0J-50000D01*
G01*
X130525000Y-77000000D01*
G75*
G02*
X130475000Y-77050000I-50000J0D01*
G01*
X129275000Y-77050000D01*
G75*
G02*
X129225000Y-77000000I0J50000D01*
G01*
X129225000Y-75600000D01*
G75*
G02*
X129275000Y-75550000I50000J0D01*
G01*
G37*
%TD*%
%TO.C,U4*%
G36*
G01*
X122425000Y-79700000D02*
X120925000Y-79700000D01*
G75*
G02*
X120875000Y-79650000I0J50000D01*
G01*
X120875000Y-77650000D01*
G75*
G02*
X120925000Y-77600000I50000J0D01*
G01*
X122425000Y-77600000D01*
G75*
G02*
X122475000Y-77650000I0J-50000D01*
G01*
X122475000Y-79650000D01*
G75*
G02*
X122425000Y-79700000I-50000J0D01*
G01*
G37*
G36*
G01*
X127025000Y-79700000D02*
X125525000Y-79700000D01*
G75*
G02*
X125475000Y-79650000I0J50000D01*
G01*
X125475000Y-77650000D01*
G75*
G02*
X125525000Y-77600000I50000J0D01*
G01*
X127025000Y-77600000D01*
G75*
G02*
X127075000Y-77650000I0J-50000D01*
G01*
X127075000Y-79650000D01*
G75*
G02*
X127025000Y-79700000I-50000J0D01*
G01*
G37*
G36*
G01*
X124725000Y-79700000D02*
X123225000Y-79700000D01*
G75*
G02*
X123175000Y-79650000I0J50000D01*
G01*
X123175000Y-77650000D01*
G75*
G02*
X123225000Y-77600000I50000J0D01*
G01*
X124725000Y-77600000D01*
G75*
G02*
X124775000Y-77650000I0J-50000D01*
G01*
X124775000Y-79650000D01*
G75*
G02*
X124725000Y-79700000I-50000J0D01*
G01*
G37*
G36*
G01*
X125875000Y-73400000D02*
X122075000Y-73400000D01*
G75*
G02*
X122025000Y-73350000I0J50000D01*
G01*
X122025000Y-71350000D01*
G75*
G02*
X122075000Y-71300000I50000J0D01*
G01*
X125875000Y-71300000D01*
G75*
G02*
X125925000Y-71350000I0J-50000D01*
G01*
X125925000Y-73350000D01*
G75*
G02*
X125875000Y-73400000I-50000J0D01*
G01*
G37*
%TD*%
%TO.C,U3*%
G36*
G01*
X125775000Y-97500000D02*
X127275000Y-97500000D01*
G75*
G02*
X127325000Y-97550000I0J-50000D01*
G01*
X127325000Y-99550000D01*
G75*
G02*
X127275000Y-99600000I-50000J0D01*
G01*
X125775000Y-99600000D01*
G75*
G02*
X125725000Y-99550000I0J50000D01*
G01*
X125725000Y-97550000D01*
G75*
G02*
X125775000Y-97500000I50000J0D01*
G01*
G37*
G36*
G01*
X121175000Y-97500000D02*
X122675000Y-97500000D01*
G75*
G02*
X122725000Y-97550000I0J-50000D01*
G01*
X122725000Y-99550000D01*
G75*
G02*
X122675000Y-99600000I-50000J0D01*
G01*
X121175000Y-99600000D01*
G75*
G02*
X121125000Y-99550000I0J50000D01*
G01*
X121125000Y-97550000D01*
G75*
G02*
X121175000Y-97500000I50000J0D01*
G01*
G37*
G36*
G01*
X123475000Y-97500000D02*
X124975000Y-97500000D01*
G75*
G02*
X125025000Y-97550000I0J-50000D01*
G01*
X125025000Y-99550000D01*
G75*
G02*
X124975000Y-99600000I-50000J0D01*
G01*
X123475000Y-99600000D01*
G75*
G02*
X123425000Y-99550000I0J50000D01*
G01*
X123425000Y-97550000D01*
G75*
G02*
X123475000Y-97500000I50000J0D01*
G01*
G37*
G36*
G01*
X122325000Y-103800000D02*
X126125000Y-103800000D01*
G75*
G02*
X126175000Y-103850000I0J-50000D01*
G01*
X126175000Y-105850000D01*
G75*
G02*
X126125000Y-105900000I-50000J0D01*
G01*
X122325000Y-105900000D01*
G75*
G02*
X122275000Y-105850000I0J50000D01*
G01*
X122275000Y-103850000D01*
G75*
G02*
X122325000Y-103800000I50000J0D01*
G01*
G37*
%TD*%
%TO.C,R8*%
G36*
G01*
X164285000Y-81840000D02*
X164285000Y-82260000D01*
G75*
G02*
X164125000Y-82420000I-160000J0D01*
G01*
X163805000Y-82420000D01*
G75*
G02*
X163645000Y-82260000I0J160000D01*
G01*
X163645000Y-81840000D01*
G75*
G02*
X163805000Y-81680000I160000J0D01*
G01*
X164125000Y-81680000D01*
G75*
G02*
X164285000Y-81840000I0J-160000D01*
G01*
G37*
G36*
G01*
X165305000Y-81840000D02*
X165305000Y-82260000D01*
G75*
G02*
X165145000Y-82420000I-160000J0D01*
G01*
X164825000Y-82420000D01*
G75*
G02*
X164665000Y-82260000I0J160000D01*
G01*
X164665000Y-81840000D01*
G75*
G02*
X164825000Y-81680000I160000J0D01*
G01*
X165145000Y-81680000D01*
G75*
G02*
X165305000Y-81840000I0J-160000D01*
G01*
G37*
%TD*%
%TO.C,R4*%
G36*
G01*
X138015000Y-76040000D02*
X138435000Y-76040000D01*
G75*
G02*
X138595000Y-76200000I0J-160000D01*
G01*
X138595000Y-76520000D01*
G75*
G02*
X138435000Y-76680000I-160000J0D01*
G01*
X138015000Y-76680000D01*
G75*
G02*
X137855000Y-76520000I0J160000D01*
G01*
X137855000Y-76200000D01*
G75*
G02*
X138015000Y-76040000I160000J0D01*
G01*
G37*
G36*
G01*
X138015000Y-75020000D02*
X138435000Y-75020000D01*
G75*
G02*
X138595000Y-75180000I0J-160000D01*
G01*
X138595000Y-75500000D01*
G75*
G02*
X138435000Y-75660000I-160000J0D01*
G01*
X138015000Y-75660000D01*
G75*
G02*
X137855000Y-75500000I0J160000D01*
G01*
X137855000Y-75180000D01*
G75*
G02*
X138015000Y-75020000I160000J0D01*
G01*
G37*
%TD*%
%TO.C,R3*%
G36*
G01*
X164665000Y-81235000D02*
X164665000Y-80815000D01*
G75*
G02*
X164825000Y-80655000I160000J0D01*
G01*
X165145000Y-80655000D01*
G75*
G02*
X165305000Y-80815000I0J-160000D01*
G01*
X165305000Y-81235000D01*
G75*
G02*
X165145000Y-81395000I-160000J0D01*
G01*
X164825000Y-81395000D01*
G75*
G02*
X164665000Y-81235000I0J160000D01*
G01*
G37*
G36*
G01*
X163645000Y-81235000D02*
X163645000Y-80815000D01*
G75*
G02*
X163805000Y-80655000I160000J0D01*
G01*
X164125000Y-80655000D01*
G75*
G02*
X164285000Y-80815000I0J-160000D01*
G01*
X164285000Y-81235000D01*
G75*
G02*
X164125000Y-81395000I-160000J0D01*
G01*
X163805000Y-81395000D01*
G75*
G02*
X163645000Y-81235000I0J160000D01*
G01*
G37*
%TD*%
%TO.C,R1*%
G36*
G01*
X144890000Y-92415000D02*
X145310000Y-92415000D01*
G75*
G02*
X145470000Y-92575000I0J-160000D01*
G01*
X145470000Y-92895000D01*
G75*
G02*
X145310000Y-93055000I-160000J0D01*
G01*
X144890000Y-93055000D01*
G75*
G02*
X144730000Y-92895000I0J160000D01*
G01*
X144730000Y-92575000D01*
G75*
G02*
X144890000Y-92415000I160000J0D01*
G01*
G37*
G36*
G01*
X144890000Y-91395000D02*
X145310000Y-91395000D01*
G75*
G02*
X145470000Y-91555000I0J-160000D01*
G01*
X145470000Y-91875000D01*
G75*
G02*
X145310000Y-92035000I-160000J0D01*
G01*
X144890000Y-92035000D01*
G75*
G02*
X144730000Y-91875000I0J160000D01*
G01*
X144730000Y-91555000D01*
G75*
G02*
X144890000Y-91395000I160000J0D01*
G01*
G37*
%TD*%
D11*
%TO.C,J3*%
X142525000Y-98200000D03*
X140025000Y-98200000D03*
X138025000Y-98200000D03*
G36*
G01*
X134675000Y-98950000D02*
X134675000Y-97450000D01*
G75*
G02*
X134725000Y-97400000I50000J0D01*
G01*
X136325000Y-97400000D01*
G75*
G02*
X136375000Y-97450000I0J-50000D01*
G01*
X136375000Y-98950000D01*
G75*
G02*
X136325000Y-99000000I-50000J0D01*
G01*
X134725000Y-99000000D01*
G75*
G02*
X134675000Y-98950000I0J50000D01*
G01*
G37*
D12*
X145595000Y-100910000D03*
X132455000Y-100910000D03*
%TD*%
D13*
%TO.C,J2*%
X125000000Y-93635000D03*
X125000000Y-91095000D03*
X125000000Y-88555000D03*
X125000000Y-86015000D03*
G36*
G01*
X124100000Y-84325000D02*
X124100000Y-82625000D01*
G75*
G02*
X124150000Y-82575000I50000J0D01*
G01*
X125850000Y-82575000D01*
G75*
G02*
X125900000Y-82625000I0J-50000D01*
G01*
X125900000Y-84325000D01*
G75*
G02*
X125850000Y-84375000I-50000J0D01*
G01*
X124150000Y-84375000D01*
G75*
G02*
X124100000Y-84325000I0J50000D01*
G01*
G37*
%TD*%
%TO.C,J1*%
G36*
G01*
X154545000Y-95975000D02*
X154545000Y-97325000D01*
G75*
G02*
X154495000Y-97375000I-50000J0D01*
G01*
X152595000Y-97375000D01*
G75*
G02*
X152545000Y-97325000I0J50000D01*
G01*
X152545000Y-95975000D01*
G75*
G02*
X152595000Y-95925000I50000J0D01*
G01*
X154495000Y-95925000D01*
G75*
G02*
X154545000Y-95975000I0J-50000D01*
G01*
G37*
G36*
G01*
X160515000Y-95975000D02*
X160515000Y-97325000D01*
G75*
G02*
X160465000Y-97375000I-50000J0D01*
G01*
X158565000Y-97375000D01*
G75*
G02*
X158515000Y-97325000I0J50000D01*
G01*
X158515000Y-95975000D01*
G75*
G02*
X158565000Y-95925000I50000J0D01*
G01*
X160465000Y-95925000D01*
G75*
G02*
X160515000Y-95975000I0J-50000D01*
G01*
G37*
G36*
G01*
X163665000Y-100825000D02*
X163665000Y-101825000D01*
G75*
G02*
X163615000Y-101875000I-50000J0D01*
G01*
X162415000Y-101875000D01*
G75*
G02*
X162365000Y-101825000I0J50000D01*
G01*
X162365000Y-100825000D01*
G75*
G02*
X162415000Y-100775000I50000J0D01*
G01*
X163615000Y-100775000D01*
G75*
G02*
X163665000Y-100825000I0J-50000D01*
G01*
G37*
G36*
G01*
X163665000Y-97125000D02*
X163665000Y-98125000D01*
G75*
G02*
X163615000Y-98175000I-50000J0D01*
G01*
X162415000Y-98175000D01*
G75*
G02*
X162365000Y-98125000I0J50000D01*
G01*
X162365000Y-97125000D01*
G75*
G02*
X162415000Y-97075000I50000J0D01*
G01*
X163615000Y-97075000D01*
G75*
G02*
X163665000Y-97125000I0J-50000D01*
G01*
G37*
G36*
G01*
X163665000Y-106675000D02*
X163665000Y-108025000D01*
G75*
G02*
X163615000Y-108075000I-50000J0D01*
G01*
X162065000Y-108075000D01*
G75*
G02*
X162015000Y-108025000I0J50000D01*
G01*
X162015000Y-106675000D01*
G75*
G02*
X162065000Y-106625000I50000J0D01*
G01*
X163615000Y-106625000D01*
G75*
G02*
X163665000Y-106675000I0J-50000D01*
G01*
G37*
G36*
G01*
X152155000Y-106225000D02*
X152155000Y-108025000D01*
G75*
G02*
X152105000Y-108075000I-50000J0D01*
G01*
X150935000Y-108075000D01*
G75*
G02*
X150885000Y-108025000I0J50000D01*
G01*
X150885000Y-106225000D01*
G75*
G02*
X150935000Y-106175000I50000J0D01*
G01*
X152105000Y-106175000D01*
G75*
G02*
X152155000Y-106225000I0J-50000D01*
G01*
G37*
G36*
G01*
X154255000Y-106925000D02*
X154255000Y-108025000D01*
G75*
G02*
X154205000Y-108075000I-50000J0D01*
G01*
X153355000Y-108075000D01*
G75*
G02*
X153305000Y-108025000I0J50000D01*
G01*
X153305000Y-106925000D01*
G75*
G02*
X153355000Y-106875000I50000J0D01*
G01*
X154205000Y-106875000D01*
G75*
G02*
X154255000Y-106925000I0J-50000D01*
G01*
G37*
G36*
G01*
X155355000Y-106925000D02*
X155355000Y-108025000D01*
G75*
G02*
X155305000Y-108075000I-50000J0D01*
G01*
X154455000Y-108075000D01*
G75*
G02*
X154405000Y-108025000I0J50000D01*
G01*
X154405000Y-106925000D01*
G75*
G02*
X154455000Y-106875000I50000J0D01*
G01*
X155305000Y-106875000D01*
G75*
G02*
X155355000Y-106925000I0J-50000D01*
G01*
G37*
G36*
G01*
X156455000Y-106925000D02*
X156455000Y-108025000D01*
G75*
G02*
X156405000Y-108075000I-50000J0D01*
G01*
X155555000Y-108075000D01*
G75*
G02*
X155505000Y-108025000I0J50000D01*
G01*
X155505000Y-106925000D01*
G75*
G02*
X155555000Y-106875000I50000J0D01*
G01*
X156405000Y-106875000D01*
G75*
G02*
X156455000Y-106925000I0J-50000D01*
G01*
G37*
G36*
G01*
X157555000Y-106925000D02*
X157555000Y-108025000D01*
G75*
G02*
X157505000Y-108075000I-50000J0D01*
G01*
X156655000Y-108075000D01*
G75*
G02*
X156605000Y-108025000I0J50000D01*
G01*
X156605000Y-106925000D01*
G75*
G02*
X156655000Y-106875000I50000J0D01*
G01*
X157505000Y-106875000D01*
G75*
G02*
X157555000Y-106925000I0J-50000D01*
G01*
G37*
G36*
G01*
X158655000Y-106925000D02*
X158655000Y-108025000D01*
G75*
G02*
X158605000Y-108075000I-50000J0D01*
G01*
X157755000Y-108075000D01*
G75*
G02*
X157705000Y-108025000I0J50000D01*
G01*
X157705000Y-106925000D01*
G75*
G02*
X157755000Y-106875000I50000J0D01*
G01*
X158605000Y-106875000D01*
G75*
G02*
X158655000Y-106925000I0J-50000D01*
G01*
G37*
G36*
G01*
X159755000Y-106925000D02*
X159755000Y-108025000D01*
G75*
G02*
X159705000Y-108075000I-50000J0D01*
G01*
X158855000Y-108075000D01*
G75*
G02*
X158805000Y-108025000I0J50000D01*
G01*
X158805000Y-106925000D01*
G75*
G02*
X158855000Y-106875000I50000J0D01*
G01*
X159705000Y-106875000D01*
G75*
G02*
X159755000Y-106925000I0J-50000D01*
G01*
G37*
G36*
G01*
X153155000Y-106925000D02*
X153155000Y-108025000D01*
G75*
G02*
X153105000Y-108075000I-50000J0D01*
G01*
X152355000Y-108075000D01*
G75*
G02*
X152305000Y-108025000I0J50000D01*
G01*
X152305000Y-106925000D01*
G75*
G02*
X152355000Y-106875000I50000J0D01*
G01*
X153105000Y-106875000D01*
G75*
G02*
X153155000Y-106925000I0J-50000D01*
G01*
G37*
G36*
G01*
X160855000Y-106925000D02*
X160855000Y-108025000D01*
G75*
G02*
X160805000Y-108075000I-50000J0D01*
G01*
X159955000Y-108075000D01*
G75*
G02*
X159905000Y-108025000I0J50000D01*
G01*
X159905000Y-106925000D01*
G75*
G02*
X159955000Y-106875000I50000J0D01*
G01*
X160805000Y-106875000D01*
G75*
G02*
X160855000Y-106925000I0J-50000D01*
G01*
G37*
%TD*%
%TO.C,C39*%
G36*
G01*
X154945000Y-79025000D02*
X154555000Y-79025000D01*
G75*
G02*
X154390000Y-78860000I0J165000D01*
G01*
X154390000Y-78530000D01*
G75*
G02*
X154555000Y-78365000I165000J0D01*
G01*
X154945000Y-78365000D01*
G75*
G02*
X155110000Y-78530000I0J-165000D01*
G01*
X155110000Y-78860000D01*
G75*
G02*
X154945000Y-79025000I-165000J0D01*
G01*
G37*
G36*
G01*
X154945000Y-79985000D02*
X154555000Y-79985000D01*
G75*
G02*
X154390000Y-79820000I0J165000D01*
G01*
X154390000Y-79490000D01*
G75*
G02*
X154555000Y-79325000I165000J0D01*
G01*
X154945000Y-79325000D01*
G75*
G02*
X155110000Y-79490000I0J-165000D01*
G01*
X155110000Y-79820000D01*
G75*
G02*
X154945000Y-79985000I-165000J0D01*
G01*
G37*
%TD*%
%TO.C,C38*%
G36*
G01*
X164575000Y-75870000D02*
X164575000Y-75480000D01*
G75*
G02*
X164740000Y-75315000I165000J0D01*
G01*
X165070000Y-75315000D01*
G75*
G02*
X165235000Y-75480000I0J-165000D01*
G01*
X165235000Y-75870000D01*
G75*
G02*
X165070000Y-76035000I-165000J0D01*
G01*
X164740000Y-76035000D01*
G75*
G02*
X164575000Y-75870000I0J165000D01*
G01*
G37*
G36*
G01*
X163615000Y-75870000D02*
X163615000Y-75480000D01*
G75*
G02*
X163780000Y-75315000I165000J0D01*
G01*
X164110000Y-75315000D01*
G75*
G02*
X164275000Y-75480000I0J-165000D01*
G01*
X164275000Y-75870000D01*
G75*
G02*
X164110000Y-76035000I-165000J0D01*
G01*
X163780000Y-76035000D01*
G75*
G02*
X163615000Y-75870000I0J165000D01*
G01*
G37*
%TD*%
%TO.C,C37*%
G36*
G01*
X164575000Y-72920000D02*
X164575000Y-72530000D01*
G75*
G02*
X164740000Y-72365000I165000J0D01*
G01*
X165070000Y-72365000D01*
G75*
G02*
X165235000Y-72530000I0J-165000D01*
G01*
X165235000Y-72920000D01*
G75*
G02*
X165070000Y-73085000I-165000J0D01*
G01*
X164740000Y-73085000D01*
G75*
G02*
X164575000Y-72920000I0J165000D01*
G01*
G37*
G36*
G01*
X163615000Y-72920000D02*
X163615000Y-72530000D01*
G75*
G02*
X163780000Y-72365000I165000J0D01*
G01*
X164110000Y-72365000D01*
G75*
G02*
X164275000Y-72530000I0J-165000D01*
G01*
X164275000Y-72920000D01*
G75*
G02*
X164110000Y-73085000I-165000J0D01*
G01*
X163780000Y-73085000D01*
G75*
G02*
X163615000Y-72920000I0J165000D01*
G01*
G37*
%TD*%
%TO.C,C36*%
G36*
G01*
X139445000Y-75725000D02*
X139055000Y-75725000D01*
G75*
G02*
X138890000Y-75560000I0J165000D01*
G01*
X138890000Y-75230000D01*
G75*
G02*
X139055000Y-75065000I165000J0D01*
G01*
X139445000Y-75065000D01*
G75*
G02*
X139610000Y-75230000I0J-165000D01*
G01*
X139610000Y-75560000D01*
G75*
G02*
X139445000Y-75725000I-165000J0D01*
G01*
G37*
G36*
G01*
X139445000Y-76685000D02*
X139055000Y-76685000D01*
G75*
G02*
X138890000Y-76520000I0J165000D01*
G01*
X138890000Y-76190000D01*
G75*
G02*
X139055000Y-76025000I165000J0D01*
G01*
X139445000Y-76025000D01*
G75*
G02*
X139610000Y-76190000I0J-165000D01*
G01*
X139610000Y-76520000D01*
G75*
G02*
X139445000Y-76685000I-165000J0D01*
G01*
G37*
%TD*%
%TO.C,C32*%
G36*
G01*
X131675000Y-74920000D02*
X131675000Y-74530000D01*
G75*
G02*
X131840000Y-74365000I165000J0D01*
G01*
X132170000Y-74365000D01*
G75*
G02*
X132335000Y-74530000I0J-165000D01*
G01*
X132335000Y-74920000D01*
G75*
G02*
X132170000Y-75085000I-165000J0D01*
G01*
X131840000Y-75085000D01*
G75*
G02*
X131675000Y-74920000I0J165000D01*
G01*
G37*
G36*
G01*
X130715000Y-74920000D02*
X130715000Y-74530000D01*
G75*
G02*
X130880000Y-74365000I165000J0D01*
G01*
X131210000Y-74365000D01*
G75*
G02*
X131375000Y-74530000I0J-165000D01*
G01*
X131375000Y-74920000D01*
G75*
G02*
X131210000Y-75085000I-165000J0D01*
G01*
X130880000Y-75085000D01*
G75*
G02*
X130715000Y-74920000I0J165000D01*
G01*
G37*
%TD*%
%TO.C,C30*%
G36*
G01*
X131375000Y-79905000D02*
X131375000Y-80295000D01*
G75*
G02*
X131210000Y-80460000I-165000J0D01*
G01*
X130880000Y-80460000D01*
G75*
G02*
X130715000Y-80295000I0J165000D01*
G01*
X130715000Y-79905000D01*
G75*
G02*
X130880000Y-79740000I165000J0D01*
G01*
X131210000Y-79740000D01*
G75*
G02*
X131375000Y-79905000I0J-165000D01*
G01*
G37*
G36*
G01*
X132335000Y-79905000D02*
X132335000Y-80295000D01*
G75*
G02*
X132170000Y-80460000I-165000J0D01*
G01*
X131840000Y-80460000D01*
G75*
G02*
X131675000Y-80295000I0J165000D01*
G01*
X131675000Y-79905000D01*
G75*
G02*
X131840000Y-79740000I165000J0D01*
G01*
X132170000Y-79740000D01*
G75*
G02*
X132335000Y-79905000I0J-165000D01*
G01*
G37*
%TD*%
%TO.C,C22*%
G36*
G01*
X122150000Y-80500000D02*
X122150000Y-81050000D01*
G75*
G02*
X121900000Y-81300000I-250000J0D01*
G01*
X121400000Y-81300000D01*
G75*
G02*
X121150000Y-81050000I0J250000D01*
G01*
X121150000Y-80500000D01*
G75*
G02*
X121400000Y-80250000I250000J0D01*
G01*
X121900000Y-80250000D01*
G75*
G02*
X122150000Y-80500000I0J-250000D01*
G01*
G37*
G36*
G01*
X123700000Y-80500000D02*
X123700000Y-81050000D01*
G75*
G02*
X123450000Y-81300000I-250000J0D01*
G01*
X122950000Y-81300000D01*
G75*
G02*
X122700000Y-81050000I0J250000D01*
G01*
X122700000Y-80500000D01*
G75*
G02*
X122950000Y-80250000I250000J0D01*
G01*
X123450000Y-80250000D01*
G75*
G02*
X123700000Y-80500000I0J-250000D01*
G01*
G37*
%TD*%
%TO.C,C20*%
G36*
G01*
X126150000Y-81050000D02*
X126150000Y-80500000D01*
G75*
G02*
X126400000Y-80250000I250000J0D01*
G01*
X126900000Y-80250000D01*
G75*
G02*
X127150000Y-80500000I0J-250000D01*
G01*
X127150000Y-81050000D01*
G75*
G02*
X126900000Y-81300000I-250000J0D01*
G01*
X126400000Y-81300000D01*
G75*
G02*
X126150000Y-81050000I0J250000D01*
G01*
G37*
G36*
G01*
X124600000Y-81050000D02*
X124600000Y-80500000D01*
G75*
G02*
X124850000Y-80250000I250000J0D01*
G01*
X125350000Y-80250000D01*
G75*
G02*
X125600000Y-80500000I0J-250000D01*
G01*
X125600000Y-81050000D01*
G75*
G02*
X125350000Y-81300000I-250000J0D01*
G01*
X124850000Y-81300000D01*
G75*
G02*
X124600000Y-81050000I0J250000D01*
G01*
G37*
%TD*%
%TO.C,C19*%
G36*
G01*
X130925000Y-82400000D02*
X130925000Y-82950000D01*
G75*
G02*
X130675000Y-83200000I-250000J0D01*
G01*
X130175000Y-83200000D01*
G75*
G02*
X129925000Y-82950000I0J250000D01*
G01*
X129925000Y-82400000D01*
G75*
G02*
X130175000Y-82150000I250000J0D01*
G01*
X130675000Y-82150000D01*
G75*
G02*
X130925000Y-82400000I0J-250000D01*
G01*
G37*
G36*
G01*
X132475000Y-82400000D02*
X132475000Y-82950000D01*
G75*
G02*
X132225000Y-83200000I-250000J0D01*
G01*
X131725000Y-83200000D01*
G75*
G02*
X131475000Y-82950000I0J250000D01*
G01*
X131475000Y-82400000D01*
G75*
G02*
X131725000Y-82150000I250000J0D01*
G01*
X132225000Y-82150000D01*
G75*
G02*
X132475000Y-82400000I0J-250000D01*
G01*
G37*
%TD*%
%TO.C,C18*%
G36*
G01*
X137225000Y-92300000D02*
X137225000Y-91750000D01*
G75*
G02*
X137475000Y-91500000I250000J0D01*
G01*
X137975000Y-91500000D01*
G75*
G02*
X138225000Y-91750000I0J-250000D01*
G01*
X138225000Y-92300000D01*
G75*
G02*
X137975000Y-92550000I-250000J0D01*
G01*
X137475000Y-92550000D01*
G75*
G02*
X137225000Y-92300000I0J250000D01*
G01*
G37*
G36*
G01*
X135675000Y-92300000D02*
X135675000Y-91750000D01*
G75*
G02*
X135925000Y-91500000I250000J0D01*
G01*
X136425000Y-91500000D01*
G75*
G02*
X136675000Y-91750000I0J-250000D01*
G01*
X136675000Y-92300000D01*
G75*
G02*
X136425000Y-92550000I-250000J0D01*
G01*
X135925000Y-92550000D01*
G75*
G02*
X135675000Y-92300000I0J250000D01*
G01*
G37*
%TD*%
%TO.C,C17*%
G36*
G01*
X131625000Y-81155000D02*
X131625000Y-81545000D01*
G75*
G02*
X131460000Y-81710000I-165000J0D01*
G01*
X131130000Y-81710000D01*
G75*
G02*
X130965000Y-81545000I0J165000D01*
G01*
X130965000Y-81155000D01*
G75*
G02*
X131130000Y-80990000I165000J0D01*
G01*
X131460000Y-80990000D01*
G75*
G02*
X131625000Y-81155000I0J-165000D01*
G01*
G37*
G36*
G01*
X132585000Y-81155000D02*
X132585000Y-81545000D01*
G75*
G02*
X132420000Y-81710000I-165000J0D01*
G01*
X132090000Y-81710000D01*
G75*
G02*
X131925000Y-81545000I0J165000D01*
G01*
X131925000Y-81155000D01*
G75*
G02*
X132090000Y-80990000I165000J0D01*
G01*
X132420000Y-80990000D01*
G75*
G02*
X132585000Y-81155000I0J-165000D01*
G01*
G37*
%TD*%
%TO.C,C16*%
G36*
G01*
X130925000Y-86925000D02*
X130925000Y-87475000D01*
G75*
G02*
X130675000Y-87725000I-250000J0D01*
G01*
X130175000Y-87725000D01*
G75*
G02*
X129925000Y-87475000I0J250000D01*
G01*
X129925000Y-86925000D01*
G75*
G02*
X130175000Y-86675000I250000J0D01*
G01*
X130675000Y-86675000D01*
G75*
G02*
X130925000Y-86925000I0J-250000D01*
G01*
G37*
G36*
G01*
X132475000Y-86925000D02*
X132475000Y-87475000D01*
G75*
G02*
X132225000Y-87725000I-250000J0D01*
G01*
X131725000Y-87725000D01*
G75*
G02*
X131475000Y-87475000I0J250000D01*
G01*
X131475000Y-86925000D01*
G75*
G02*
X131725000Y-86675000I250000J0D01*
G01*
X132225000Y-86675000D01*
G75*
G02*
X132475000Y-86925000I0J-250000D01*
G01*
G37*
%TD*%
%TO.C,C15*%
G36*
G01*
X134730000Y-92350000D02*
X135120000Y-92350000D01*
G75*
G02*
X135285000Y-92515000I0J-165000D01*
G01*
X135285000Y-92845000D01*
G75*
G02*
X135120000Y-93010000I-165000J0D01*
G01*
X134730000Y-93010000D01*
G75*
G02*
X134565000Y-92845000I0J165000D01*
G01*
X134565000Y-92515000D01*
G75*
G02*
X134730000Y-92350000I165000J0D01*
G01*
G37*
G36*
G01*
X134730000Y-91390000D02*
X135120000Y-91390000D01*
G75*
G02*
X135285000Y-91555000I0J-165000D01*
G01*
X135285000Y-91885000D01*
G75*
G02*
X135120000Y-92050000I-165000J0D01*
G01*
X134730000Y-92050000D01*
G75*
G02*
X134565000Y-91885000I0J165000D01*
G01*
X134565000Y-91555000D01*
G75*
G02*
X134730000Y-91390000I165000J0D01*
G01*
G37*
%TD*%
%TO.C,C14*%
G36*
G01*
X135175000Y-75025000D02*
X134625000Y-75025000D01*
G75*
G02*
X134375000Y-74775000I0J250000D01*
G01*
X134375000Y-74275000D01*
G75*
G02*
X134625000Y-74025000I250000J0D01*
G01*
X135175000Y-74025000D01*
G75*
G02*
X135425000Y-74275000I0J-250000D01*
G01*
X135425000Y-74775000D01*
G75*
G02*
X135175000Y-75025000I-250000J0D01*
G01*
G37*
G36*
G01*
X135175000Y-76575000D02*
X134625000Y-76575000D01*
G75*
G02*
X134375000Y-76325000I0J250000D01*
G01*
X134375000Y-75825000D01*
G75*
G02*
X134625000Y-75575000I250000J0D01*
G01*
X135175000Y-75575000D01*
G75*
G02*
X135425000Y-75825000I0J-250000D01*
G01*
X135425000Y-76325000D01*
G75*
G02*
X135175000Y-76575000I-250000J0D01*
G01*
G37*
%TD*%
%TO.C,C13*%
G36*
G01*
X131625000Y-88280000D02*
X131625000Y-88670000D01*
G75*
G02*
X131460000Y-88835000I-165000J0D01*
G01*
X131130000Y-88835000D01*
G75*
G02*
X130965000Y-88670000I0J165000D01*
G01*
X130965000Y-88280000D01*
G75*
G02*
X131130000Y-88115000I165000J0D01*
G01*
X131460000Y-88115000D01*
G75*
G02*
X131625000Y-88280000I0J-165000D01*
G01*
G37*
G36*
G01*
X132585000Y-88280000D02*
X132585000Y-88670000D01*
G75*
G02*
X132420000Y-88835000I-165000J0D01*
G01*
X132090000Y-88835000D01*
G75*
G02*
X131925000Y-88670000I0J165000D01*
G01*
X131925000Y-88280000D01*
G75*
G02*
X132090000Y-88115000I165000J0D01*
G01*
X132420000Y-88115000D01*
G75*
G02*
X132585000Y-88280000I0J-165000D01*
G01*
G37*
%TD*%
%TO.C,C12*%
G36*
G01*
X132730000Y-92350000D02*
X133120000Y-92350000D01*
G75*
G02*
X133285000Y-92515000I0J-165000D01*
G01*
X133285000Y-92845000D01*
G75*
G02*
X133120000Y-93010000I-165000J0D01*
G01*
X132730000Y-93010000D01*
G75*
G02*
X132565000Y-92845000I0J165000D01*
G01*
X132565000Y-92515000D01*
G75*
G02*
X132730000Y-92350000I165000J0D01*
G01*
G37*
G36*
G01*
X132730000Y-91390000D02*
X133120000Y-91390000D01*
G75*
G02*
X133285000Y-91555000I0J-165000D01*
G01*
X133285000Y-91885000D01*
G75*
G02*
X133120000Y-92050000I-165000J0D01*
G01*
X132730000Y-92050000D01*
G75*
G02*
X132565000Y-91885000I0J165000D01*
G01*
X132565000Y-91555000D01*
G75*
G02*
X132730000Y-91390000I165000J0D01*
G01*
G37*
%TD*%
%TO.C,C11*%
G36*
G01*
X137395000Y-75700000D02*
X137005000Y-75700000D01*
G75*
G02*
X136840000Y-75535000I0J165000D01*
G01*
X136840000Y-75205000D01*
G75*
G02*
X137005000Y-75040000I165000J0D01*
G01*
X137395000Y-75040000D01*
G75*
G02*
X137560000Y-75205000I0J-165000D01*
G01*
X137560000Y-75535000D01*
G75*
G02*
X137395000Y-75700000I-165000J0D01*
G01*
G37*
G36*
G01*
X137395000Y-76660000D02*
X137005000Y-76660000D01*
G75*
G02*
X136840000Y-76495000I0J165000D01*
G01*
X136840000Y-76165000D01*
G75*
G02*
X137005000Y-76000000I165000J0D01*
G01*
X137395000Y-76000000D01*
G75*
G02*
X137560000Y-76165000I0J-165000D01*
G01*
X137560000Y-76495000D01*
G75*
G02*
X137395000Y-76660000I-165000J0D01*
G01*
G37*
%TD*%
%TO.C,C10*%
G36*
G01*
X133820000Y-75725000D02*
X133430000Y-75725000D01*
G75*
G02*
X133265000Y-75560000I0J165000D01*
G01*
X133265000Y-75230000D01*
G75*
G02*
X133430000Y-75065000I165000J0D01*
G01*
X133820000Y-75065000D01*
G75*
G02*
X133985000Y-75230000I0J-165000D01*
G01*
X133985000Y-75560000D01*
G75*
G02*
X133820000Y-75725000I-165000J0D01*
G01*
G37*
G36*
G01*
X133820000Y-76685000D02*
X133430000Y-76685000D01*
G75*
G02*
X133265000Y-76520000I0J165000D01*
G01*
X133265000Y-76190000D01*
G75*
G02*
X133430000Y-76025000I165000J0D01*
G01*
X133820000Y-76025000D01*
G75*
G02*
X133985000Y-76190000I0J-165000D01*
G01*
X133985000Y-76520000D01*
G75*
G02*
X133820000Y-76685000I-165000J0D01*
G01*
G37*
%TD*%
%TO.C,C9*%
G36*
G01*
X131625000Y-89280000D02*
X131625000Y-89670000D01*
G75*
G02*
X131460000Y-89835000I-165000J0D01*
G01*
X131130000Y-89835000D01*
G75*
G02*
X130965000Y-89670000I0J165000D01*
G01*
X130965000Y-89280000D01*
G75*
G02*
X131130000Y-89115000I165000J0D01*
G01*
X131460000Y-89115000D01*
G75*
G02*
X131625000Y-89280000I0J-165000D01*
G01*
G37*
G36*
G01*
X132585000Y-89280000D02*
X132585000Y-89670000D01*
G75*
G02*
X132420000Y-89835000I-165000J0D01*
G01*
X132090000Y-89835000D01*
G75*
G02*
X131925000Y-89670000I0J165000D01*
G01*
X131925000Y-89280000D01*
G75*
G02*
X132090000Y-89115000I165000J0D01*
G01*
X132420000Y-89115000D01*
G75*
G02*
X132585000Y-89280000I0J-165000D01*
G01*
G37*
%TD*%
%TO.C,C8*%
G36*
G01*
X133730000Y-92350000D02*
X134120000Y-92350000D01*
G75*
G02*
X134285000Y-92515000I0J-165000D01*
G01*
X134285000Y-92845000D01*
G75*
G02*
X134120000Y-93010000I-165000J0D01*
G01*
X133730000Y-93010000D01*
G75*
G02*
X133565000Y-92845000I0J165000D01*
G01*
X133565000Y-92515000D01*
G75*
G02*
X133730000Y-92350000I165000J0D01*
G01*
G37*
G36*
G01*
X133730000Y-91390000D02*
X134120000Y-91390000D01*
G75*
G02*
X134285000Y-91555000I0J-165000D01*
G01*
X134285000Y-91885000D01*
G75*
G02*
X134120000Y-92050000I-165000J0D01*
G01*
X133730000Y-92050000D01*
G75*
G02*
X133565000Y-91885000I0J165000D01*
G01*
X133565000Y-91555000D01*
G75*
G02*
X133730000Y-91390000I165000J0D01*
G01*
G37*
%TD*%
%TO.C,C7*%
G36*
G01*
X126175000Y-96675000D02*
X126175000Y-96125000D01*
G75*
G02*
X126425000Y-95875000I250000J0D01*
G01*
X126925000Y-95875000D01*
G75*
G02*
X127175000Y-96125000I0J-250000D01*
G01*
X127175000Y-96675000D01*
G75*
G02*
X126925000Y-96925000I-250000J0D01*
G01*
X126425000Y-96925000D01*
G75*
G02*
X126175000Y-96675000I0J250000D01*
G01*
G37*
G36*
G01*
X124625000Y-96675000D02*
X124625000Y-96125000D01*
G75*
G02*
X124875000Y-95875000I250000J0D01*
G01*
X125375000Y-95875000D01*
G75*
G02*
X125625000Y-96125000I0J-250000D01*
G01*
X125625000Y-96675000D01*
G75*
G02*
X125375000Y-96925000I-250000J0D01*
G01*
X124875000Y-96925000D01*
G75*
G02*
X124625000Y-96675000I0J250000D01*
G01*
G37*
%TD*%
%TO.C,C6*%
G36*
G01*
X122300000Y-96125000D02*
X122300000Y-96675000D01*
G75*
G02*
X122050000Y-96925000I-250000J0D01*
G01*
X121550000Y-96925000D01*
G75*
G02*
X121300000Y-96675000I0J250000D01*
G01*
X121300000Y-96125000D01*
G75*
G02*
X121550000Y-95875000I250000J0D01*
G01*
X122050000Y-95875000D01*
G75*
G02*
X122300000Y-96125000I0J-250000D01*
G01*
G37*
G36*
G01*
X123850000Y-96125000D02*
X123850000Y-96675000D01*
G75*
G02*
X123600000Y-96925000I-250000J0D01*
G01*
X123100000Y-96925000D01*
G75*
G02*
X122850000Y-96675000I0J250000D01*
G01*
X122850000Y-96125000D01*
G75*
G02*
X123100000Y-95875000I250000J0D01*
G01*
X123600000Y-95875000D01*
G75*
G02*
X123850000Y-96125000I0J-250000D01*
G01*
G37*
%TD*%
%TO.C,C5*%
G36*
G01*
X141855000Y-92350000D02*
X142245000Y-92350000D01*
G75*
G02*
X142410000Y-92515000I0J-165000D01*
G01*
X142410000Y-92845000D01*
G75*
G02*
X142245000Y-93010000I-165000J0D01*
G01*
X141855000Y-93010000D01*
G75*
G02*
X141690000Y-92845000I0J165000D01*
G01*
X141690000Y-92515000D01*
G75*
G02*
X141855000Y-92350000I165000J0D01*
G01*
G37*
G36*
G01*
X141855000Y-91390000D02*
X142245000Y-91390000D01*
G75*
G02*
X142410000Y-91555000I0J-165000D01*
G01*
X142410000Y-91885000D01*
G75*
G02*
X142245000Y-92050000I-165000J0D01*
G01*
X141855000Y-92050000D01*
G75*
G02*
X141690000Y-91885000I0J165000D01*
G01*
X141690000Y-91555000D01*
G75*
G02*
X141855000Y-91390000I165000J0D01*
G01*
G37*
%TD*%
%TO.C,C4*%
G36*
G01*
X136395000Y-75700000D02*
X136005000Y-75700000D01*
G75*
G02*
X135840000Y-75535000I0J165000D01*
G01*
X135840000Y-75205000D01*
G75*
G02*
X136005000Y-75040000I165000J0D01*
G01*
X136395000Y-75040000D01*
G75*
G02*
X136560000Y-75205000I0J-165000D01*
G01*
X136560000Y-75535000D01*
G75*
G02*
X136395000Y-75700000I-165000J0D01*
G01*
G37*
G36*
G01*
X136395000Y-76660000D02*
X136005000Y-76660000D01*
G75*
G02*
X135840000Y-76495000I0J165000D01*
G01*
X135840000Y-76165000D01*
G75*
G02*
X136005000Y-76000000I165000J0D01*
G01*
X136395000Y-76000000D01*
G75*
G02*
X136560000Y-76165000I0J-165000D01*
G01*
X136560000Y-76495000D01*
G75*
G02*
X136395000Y-76660000I-165000J0D01*
G01*
G37*
%TD*%
%TO.C,C3*%
G36*
G01*
X143880000Y-92350000D02*
X144270000Y-92350000D01*
G75*
G02*
X144435000Y-92515000I0J-165000D01*
G01*
X144435000Y-92845000D01*
G75*
G02*
X144270000Y-93010000I-165000J0D01*
G01*
X143880000Y-93010000D01*
G75*
G02*
X143715000Y-92845000I0J165000D01*
G01*
X143715000Y-92515000D01*
G75*
G02*
X143880000Y-92350000I165000J0D01*
G01*
G37*
G36*
G01*
X143880000Y-91390000D02*
X144270000Y-91390000D01*
G75*
G02*
X144435000Y-91555000I0J-165000D01*
G01*
X144435000Y-91885000D01*
G75*
G02*
X144270000Y-92050000I-165000J0D01*
G01*
X143880000Y-92050000D01*
G75*
G02*
X143715000Y-91885000I0J165000D01*
G01*
X143715000Y-91555000D01*
G75*
G02*
X143880000Y-91390000I165000J0D01*
G01*
G37*
%TD*%
%TO.C,C2*%
G36*
G01*
X142880000Y-92350000D02*
X143270000Y-92350000D01*
G75*
G02*
X143435000Y-92515000I0J-165000D01*
G01*
X143435000Y-92845000D01*
G75*
G02*
X143270000Y-93010000I-165000J0D01*
G01*
X142880000Y-93010000D01*
G75*
G02*
X142715000Y-92845000I0J165000D01*
G01*
X142715000Y-92515000D01*
G75*
G02*
X142880000Y-92350000I165000J0D01*
G01*
G37*
G36*
G01*
X142880000Y-91390000D02*
X143270000Y-91390000D01*
G75*
G02*
X143435000Y-91555000I0J-165000D01*
G01*
X143435000Y-91885000D01*
G75*
G02*
X143270000Y-92050000I-165000J0D01*
G01*
X142880000Y-92050000D01*
G75*
G02*
X142715000Y-91885000I0J165000D01*
G01*
X142715000Y-91555000D01*
G75*
G02*
X142880000Y-91390000I165000J0D01*
G01*
G37*
%TD*%
%TO.C,C1*%
G36*
G01*
X139725000Y-91750000D02*
X139725000Y-92300000D01*
G75*
G02*
X139475000Y-92550000I-250000J0D01*
G01*
X138975000Y-92550000D01*
G75*
G02*
X138725000Y-92300000I0J250000D01*
G01*
X138725000Y-91750000D01*
G75*
G02*
X138975000Y-91500000I250000J0D01*
G01*
X139475000Y-91500000D01*
G75*
G02*
X139725000Y-91750000I0J-250000D01*
G01*
G37*
G36*
G01*
X141275000Y-91750000D02*
X141275000Y-92300000D01*
G75*
G02*
X141025000Y-92550000I-250000J0D01*
G01*
X140525000Y-92550000D01*
G75*
G02*
X140275000Y-92300000I0J250000D01*
G01*
X140275000Y-91750000D01*
G75*
G02*
X140525000Y-91500000I250000J0D01*
G01*
X141025000Y-91500000D01*
G75*
G02*
X141275000Y-91750000I0J-250000D01*
G01*
G37*
%TD*%
D10*
%TO.C,U2*%
X156165000Y-73550000D03*
X156165000Y-74350000D03*
X156165000Y-75150000D03*
X156165000Y-75950000D03*
X156165000Y-76750000D03*
X156165000Y-77550000D03*
X156165000Y-78350000D03*
X156165000Y-79150000D03*
X156165000Y-79950000D03*
X156165000Y-80750000D03*
X156165000Y-81550000D03*
X156165000Y-82350000D03*
X156165000Y-83150000D03*
X156165000Y-83950000D03*
X156165000Y-84750000D03*
X156165000Y-85550000D03*
X156965000Y-73550000D03*
X156965000Y-74350000D03*
X156965000Y-75150000D03*
X156965000Y-75950000D03*
X156965000Y-76750000D03*
X156965000Y-77550000D03*
X156965000Y-78350000D03*
X156965000Y-79150000D03*
X156965000Y-79950000D03*
X156965000Y-80750000D03*
X156965000Y-81550000D03*
X156965000Y-82350000D03*
X156965000Y-83150000D03*
X156965000Y-83950000D03*
X156965000Y-84750000D03*
X156965000Y-85550000D03*
X157765000Y-73550000D03*
X157765000Y-74350000D03*
X157765000Y-75150000D03*
X157765000Y-75950000D03*
X157765000Y-76750000D03*
X157765000Y-77550000D03*
X157765000Y-78350000D03*
X157765000Y-79150000D03*
X157765000Y-79950000D03*
X157765000Y-80750000D03*
X157765000Y-81550000D03*
X157765000Y-82350000D03*
X157765000Y-83150000D03*
X157765000Y-83950000D03*
X157765000Y-84750000D03*
X157765000Y-85550000D03*
X160965000Y-73550000D03*
X160965000Y-74350000D03*
X160965000Y-75150000D03*
X160965000Y-75950000D03*
X160965000Y-76750000D03*
X160965000Y-77550000D03*
X160965000Y-78350000D03*
X160965000Y-79150000D03*
X160965000Y-79950000D03*
X160965000Y-80750000D03*
X160965000Y-81550000D03*
X160965000Y-82350000D03*
X160965000Y-83150000D03*
X160965000Y-83950000D03*
X160965000Y-84750000D03*
X160965000Y-85550000D03*
X161765000Y-73550000D03*
X161765000Y-74350000D03*
X161765000Y-75150000D03*
X161765000Y-75950000D03*
X161765000Y-76750000D03*
X161765000Y-77550000D03*
X161765000Y-78350000D03*
X161765000Y-79150000D03*
X161765000Y-79950000D03*
X161765000Y-80750000D03*
X161765000Y-81550000D03*
X161765000Y-82350000D03*
X161765000Y-83150000D03*
X161765000Y-83950000D03*
X161765000Y-84750000D03*
X161765000Y-85550000D03*
X162565000Y-73550000D03*
X162565000Y-74350000D03*
X162565000Y-75150000D03*
X162565000Y-75950000D03*
X162565000Y-76750000D03*
X162565000Y-77550000D03*
X162565000Y-78350000D03*
X162565000Y-79150000D03*
X162565000Y-79950000D03*
X162565000Y-80750000D03*
X162565000Y-81550000D03*
X162565000Y-82350000D03*
X162565000Y-83150000D03*
X162565000Y-83950000D03*
X162565000Y-84750000D03*
X162565000Y-85550000D03*
%TD*%
%TO.C,R7*%
G36*
G01*
X164285000Y-85865000D02*
X164285000Y-86285000D01*
G75*
G02*
X164125000Y-86445000I-160000J0D01*
G01*
X163805000Y-86445000D01*
G75*
G02*
X163645000Y-86285000I0J160000D01*
G01*
X163645000Y-85865000D01*
G75*
G02*
X163805000Y-85705000I160000J0D01*
G01*
X164125000Y-85705000D01*
G75*
G02*
X164285000Y-85865000I0J-160000D01*
G01*
G37*
G36*
G01*
X165305000Y-85865000D02*
X165305000Y-86285000D01*
G75*
G02*
X165145000Y-86445000I-160000J0D01*
G01*
X164825000Y-86445000D01*
G75*
G02*
X164665000Y-86285000I0J160000D01*
G01*
X164665000Y-85865000D01*
G75*
G02*
X164825000Y-85705000I160000J0D01*
G01*
X165145000Y-85705000D01*
G75*
G02*
X165305000Y-85865000I0J-160000D01*
G01*
G37*
%TD*%
%TO.C,R6*%
G36*
G01*
X164665000Y-83285000D02*
X164665000Y-82865000D01*
G75*
G02*
X164825000Y-82705000I160000J0D01*
G01*
X165145000Y-82705000D01*
G75*
G02*
X165305000Y-82865000I0J-160000D01*
G01*
X165305000Y-83285000D01*
G75*
G02*
X165145000Y-83445000I-160000J0D01*
G01*
X164825000Y-83445000D01*
G75*
G02*
X164665000Y-83285000I0J160000D01*
G01*
G37*
G36*
G01*
X163645000Y-83285000D02*
X163645000Y-82865000D01*
G75*
G02*
X163805000Y-82705000I160000J0D01*
G01*
X164125000Y-82705000D01*
G75*
G02*
X164285000Y-82865000I0J-160000D01*
G01*
X164285000Y-83285000D01*
G75*
G02*
X164125000Y-83445000I-160000J0D01*
G01*
X163805000Y-83445000D01*
G75*
G02*
X163645000Y-83285000I0J160000D01*
G01*
G37*
%TD*%
%TO.C,C45*%
G36*
G01*
X164605000Y-85270000D02*
X164605000Y-84880000D01*
G75*
G02*
X164770000Y-84715000I165000J0D01*
G01*
X165100000Y-84715000D01*
G75*
G02*
X165265000Y-84880000I0J-165000D01*
G01*
X165265000Y-85270000D01*
G75*
G02*
X165100000Y-85435000I-165000J0D01*
G01*
X164770000Y-85435000D01*
G75*
G02*
X164605000Y-85270000I0J165000D01*
G01*
G37*
G36*
G01*
X163645000Y-85270000D02*
X163645000Y-84880000D01*
G75*
G02*
X163810000Y-84715000I165000J0D01*
G01*
X164140000Y-84715000D01*
G75*
G02*
X164305000Y-84880000I0J-165000D01*
G01*
X164305000Y-85270000D01*
G75*
G02*
X164140000Y-85435000I-165000J0D01*
G01*
X163810000Y-85435000D01*
G75*
G02*
X163645000Y-85270000I0J165000D01*
G01*
G37*
%TD*%
%TO.C,C44*%
G36*
G01*
X164300000Y-83880000D02*
X164300000Y-84270000D01*
G75*
G02*
X164135000Y-84435000I-165000J0D01*
G01*
X163805000Y-84435000D01*
G75*
G02*
X163640000Y-84270000I0J165000D01*
G01*
X163640000Y-83880000D01*
G75*
G02*
X163805000Y-83715000I165000J0D01*
G01*
X164135000Y-83715000D01*
G75*
G02*
X164300000Y-83880000I0J-165000D01*
G01*
G37*
G36*
G01*
X165260000Y-83880000D02*
X165260000Y-84270000D01*
G75*
G02*
X165095000Y-84435000I-165000J0D01*
G01*
X164765000Y-84435000D01*
G75*
G02*
X164600000Y-84270000I0J165000D01*
G01*
X164600000Y-83880000D01*
G75*
G02*
X164765000Y-83715000I165000J0D01*
G01*
X165095000Y-83715000D01*
G75*
G02*
X165260000Y-83880000I0J-165000D01*
G01*
G37*
%TD*%
%TO.C,C25*%
G36*
G01*
X162600000Y-72095000D02*
X162600000Y-71705000D01*
G75*
G02*
X162765000Y-71540000I165000J0D01*
G01*
X163095000Y-71540000D01*
G75*
G02*
X163260000Y-71705000I0J-165000D01*
G01*
X163260000Y-72095000D01*
G75*
G02*
X163095000Y-72260000I-165000J0D01*
G01*
X162765000Y-72260000D01*
G75*
G02*
X162600000Y-72095000I0J165000D01*
G01*
G37*
G36*
G01*
X161640000Y-72095000D02*
X161640000Y-71705000D01*
G75*
G02*
X161805000Y-71540000I165000J0D01*
G01*
X162135000Y-71540000D01*
G75*
G02*
X162300000Y-71705000I0J-165000D01*
G01*
X162300000Y-72095000D01*
G75*
G02*
X162135000Y-72260000I-165000J0D01*
G01*
X161805000Y-72260000D01*
G75*
G02*
X161640000Y-72095000I0J165000D01*
G01*
G37*
%TD*%
%TO.C,C23*%
G36*
G01*
X164575000Y-76895000D02*
X164575000Y-76505000D01*
G75*
G02*
X164740000Y-76340000I165000J0D01*
G01*
X165070000Y-76340000D01*
G75*
G02*
X165235000Y-76505000I0J-165000D01*
G01*
X165235000Y-76895000D01*
G75*
G02*
X165070000Y-77060000I-165000J0D01*
G01*
X164740000Y-77060000D01*
G75*
G02*
X164575000Y-76895000I0J165000D01*
G01*
G37*
G36*
G01*
X163615000Y-76895000D02*
X163615000Y-76505000D01*
G75*
G02*
X163780000Y-76340000I165000J0D01*
G01*
X164110000Y-76340000D01*
G75*
G02*
X164275000Y-76505000I0J-165000D01*
G01*
X164275000Y-76895000D01*
G75*
G02*
X164110000Y-77060000I-165000J0D01*
G01*
X163780000Y-77060000D01*
G75*
G02*
X163615000Y-76895000I0J165000D01*
G01*
G37*
%TD*%
%TO.C,C21*%
G36*
G01*
X162250000Y-88725000D02*
X162800000Y-88725000D01*
G75*
G02*
X163050000Y-88975000I0J-250000D01*
G01*
X163050000Y-89475000D01*
G75*
G02*
X162800000Y-89725000I-250000J0D01*
G01*
X162250000Y-89725000D01*
G75*
G02*
X162000000Y-89475000I0J250000D01*
G01*
X162000000Y-88975000D01*
G75*
G02*
X162250000Y-88725000I250000J0D01*
G01*
G37*
G36*
G01*
X162250000Y-87175000D02*
X162800000Y-87175000D01*
G75*
G02*
X163050000Y-87425000I0J-250000D01*
G01*
X163050000Y-87925000D01*
G75*
G02*
X162800000Y-88175000I-250000J0D01*
G01*
X162250000Y-88175000D01*
G75*
G02*
X162000000Y-87925000I0J250000D01*
G01*
X162000000Y-87425000D01*
G75*
G02*
X162250000Y-87175000I250000J0D01*
G01*
G37*
%TD*%
%TO.C,R5*%
G36*
G01*
X164260000Y-79190000D02*
X164260000Y-79610000D01*
G75*
G02*
X164100000Y-79770000I-160000J0D01*
G01*
X163780000Y-79770000D01*
G75*
G02*
X163620000Y-79610000I0J160000D01*
G01*
X163620000Y-79190000D01*
G75*
G02*
X163780000Y-79030000I160000J0D01*
G01*
X164100000Y-79030000D01*
G75*
G02*
X164260000Y-79190000I0J-160000D01*
G01*
G37*
G36*
G01*
X165280000Y-79190000D02*
X165280000Y-79610000D01*
G75*
G02*
X165120000Y-79770000I-160000J0D01*
G01*
X164800000Y-79770000D01*
G75*
G02*
X164640000Y-79610000I0J160000D01*
G01*
X164640000Y-79190000D01*
G75*
G02*
X164800000Y-79030000I160000J0D01*
G01*
X165120000Y-79030000D01*
G75*
G02*
X165280000Y-79190000I0J-160000D01*
G01*
G37*
%TD*%
%TO.C,C47*%
G36*
G01*
X164275000Y-73605000D02*
X164275000Y-73995000D01*
G75*
G02*
X164110000Y-74160000I-165000J0D01*
G01*
X163780000Y-74160000D01*
G75*
G02*
X163615000Y-73995000I0J165000D01*
G01*
X163615000Y-73605000D01*
G75*
G02*
X163780000Y-73440000I165000J0D01*
G01*
X164110000Y-73440000D01*
G75*
G02*
X164275000Y-73605000I0J-165000D01*
G01*
G37*
G36*
G01*
X165235000Y-73605000D02*
X165235000Y-73995000D01*
G75*
G02*
X165070000Y-74160000I-165000J0D01*
G01*
X164740000Y-74160000D01*
G75*
G02*
X164575000Y-73995000I0J165000D01*
G01*
X164575000Y-73605000D01*
G75*
G02*
X164740000Y-73440000I165000J0D01*
G01*
X165070000Y-73440000D01*
G75*
G02*
X165235000Y-73605000I0J-165000D01*
G01*
G37*
%TD*%
%TO.C,C46*%
G36*
G01*
X164575000Y-77945000D02*
X164575000Y-77555000D01*
G75*
G02*
X164740000Y-77390000I165000J0D01*
G01*
X165070000Y-77390000D01*
G75*
G02*
X165235000Y-77555000I0J-165000D01*
G01*
X165235000Y-77945000D01*
G75*
G02*
X165070000Y-78110000I-165000J0D01*
G01*
X164740000Y-78110000D01*
G75*
G02*
X164575000Y-77945000I0J165000D01*
G01*
G37*
G36*
G01*
X163615000Y-77945000D02*
X163615000Y-77555000D01*
G75*
G02*
X163780000Y-77390000I165000J0D01*
G01*
X164110000Y-77390000D01*
G75*
G02*
X164275000Y-77555000I0J-165000D01*
G01*
X164275000Y-77945000D01*
G75*
G02*
X164110000Y-78110000I-165000J0D01*
G01*
X163780000Y-78110000D01*
G75*
G02*
X163615000Y-77945000I0J165000D01*
G01*
G37*
%TD*%
D14*
G36*
X152156990Y-106774805D02*
G01*
X152158891Y-106794115D01*
X152164469Y-106812500D01*
X152173524Y-106829441D01*
X152185710Y-106844290D01*
X152200559Y-106856476D01*
X152217500Y-106865531D01*
X152235885Y-106871109D01*
X152255093Y-106873000D01*
X152305000Y-106873000D01*
X152306732Y-106874000D01*
X152307000Y-106875000D01*
X152307000Y-108075000D01*
X152306000Y-108076732D01*
X152305000Y-108077000D01*
X152155000Y-108077000D01*
X152153268Y-108076000D01*
X152153000Y-108075000D01*
X152153000Y-106775001D01*
X152154000Y-106773269D01*
X152156000Y-106773269D01*
X152156990Y-106774805D01*
G37*
G36*
X153306732Y-106874000D02*
G01*
X153307000Y-106875000D01*
X153307000Y-108075000D01*
X153306000Y-108076732D01*
X153305000Y-108077000D01*
X153155000Y-108077000D01*
X153153268Y-108076000D01*
X153153000Y-108075000D01*
X153153000Y-106875000D01*
X153154000Y-106873268D01*
X153155000Y-106873000D01*
X153305000Y-106873000D01*
X153306732Y-106874000D01*
G37*
G36*
X159906732Y-106874000D02*
G01*
X159907000Y-106875000D01*
X159907000Y-108075000D01*
X159906000Y-108076732D01*
X159905000Y-108077000D01*
X159755000Y-108077000D01*
X159753268Y-108076000D01*
X159753000Y-108075000D01*
X159753000Y-106875000D01*
X159754000Y-106873268D01*
X159755000Y-106873000D01*
X159905000Y-106873000D01*
X159906732Y-106874000D01*
G37*
G36*
X158806732Y-106874000D02*
G01*
X158807000Y-106875000D01*
X158807000Y-108075000D01*
X158806000Y-108076732D01*
X158805000Y-108077000D01*
X158655000Y-108077000D01*
X158653268Y-108076000D01*
X158653000Y-108075000D01*
X158653000Y-106875000D01*
X158654000Y-106873268D01*
X158655000Y-106873000D01*
X158805000Y-106873000D01*
X158806732Y-106874000D01*
G37*
G36*
X156606732Y-106874000D02*
G01*
X156607000Y-106875000D01*
X156607000Y-108075000D01*
X156606000Y-108076732D01*
X156605000Y-108077000D01*
X156455000Y-108077000D01*
X156453268Y-108076000D01*
X156453000Y-108075000D01*
X156453000Y-106875000D01*
X156454000Y-106873268D01*
X156455000Y-106873000D01*
X156605000Y-106873000D01*
X156606732Y-106874000D01*
G37*
G36*
X155506732Y-106874000D02*
G01*
X155507000Y-106875000D01*
X155507000Y-108075000D01*
X155506000Y-108076732D01*
X155505000Y-108077000D01*
X155355000Y-108077000D01*
X155353268Y-108076000D01*
X155353000Y-108075000D01*
X155353000Y-106875000D01*
X155354000Y-106873268D01*
X155355000Y-106873000D01*
X155505000Y-106873000D01*
X155506732Y-106874000D01*
G37*
G36*
X157706732Y-106874000D02*
G01*
X157707000Y-106875000D01*
X157707000Y-108075000D01*
X157706000Y-108076732D01*
X157705000Y-108077000D01*
X157555000Y-108077000D01*
X157553268Y-108076000D01*
X157553000Y-108075000D01*
X157553000Y-106875000D01*
X157554000Y-106873268D01*
X157555000Y-106873000D01*
X157705000Y-106873000D01*
X157706732Y-106874000D01*
G37*
G36*
X154406732Y-106874000D02*
G01*
X154407000Y-106875000D01*
X154407000Y-108075000D01*
X154406000Y-108076732D01*
X154405000Y-108077000D01*
X154255000Y-108077000D01*
X154253268Y-108076000D01*
X154253000Y-108075000D01*
X154253000Y-106875000D01*
X154254000Y-106873268D01*
X154255000Y-106873000D01*
X154405000Y-106873000D01*
X154406732Y-106874000D01*
G37*
M02*
