%TF.GenerationSoftware,KiCad,Pcbnew,(5.1.7)-1*%
%TF.CreationDate,2021-06-10T10:44:12-07:00*%
%TF.ProjectId,Keychain,4b657963-6861-4696-9e2e-6b696361645f,rev?*%
%TF.SameCoordinates,Original*%
%TF.FileFunction,Legend,Top*%
%TF.FilePolarity,Positive*%
%FSLAX46Y46*%
G04 Gerber Fmt 4.6, Leading zero omitted, Abs format (unit mm)*
G04 Created by KiCad (PCBNEW (5.1.7)-1) date 2021-06-10 10:44:12*
%MOMM*%
%LPD*%
G01*
G04 APERTURE LIST*
%ADD10C,0.150000*%
%ADD11C,0.120000*%
G04 APERTURE END LIST*
D10*
X120932380Y-91812380D02*
X120599047Y-91336190D01*
X120360952Y-91812380D02*
X120360952Y-90812380D01*
X120741904Y-90812380D01*
X120837142Y-90860000D01*
X120884761Y-90907619D01*
X120932380Y-91002857D01*
X120932380Y-91145714D01*
X120884761Y-91240952D01*
X120837142Y-91288571D01*
X120741904Y-91336190D01*
X120360952Y-91336190D01*
X121218095Y-90812380D02*
X121789523Y-90812380D01*
X121503809Y-91812380D02*
X121503809Y-90812380D01*
X122075238Y-91764761D02*
X122218095Y-91812380D01*
X122456190Y-91812380D01*
X122551428Y-91764761D01*
X122599047Y-91717142D01*
X122646666Y-91621904D01*
X122646666Y-91526666D01*
X122599047Y-91431428D01*
X122551428Y-91383809D01*
X122456190Y-91336190D01*
X122265714Y-91288571D01*
X122170476Y-91240952D01*
X122122857Y-91193333D01*
X122075238Y-91098095D01*
X122075238Y-91002857D01*
X122122857Y-90907619D01*
X122170476Y-90860000D01*
X122265714Y-90812380D01*
X122503809Y-90812380D01*
X122646666Y-90860000D01*
X120588095Y-88202380D02*
X121159523Y-88202380D01*
X120873809Y-89202380D02*
X120873809Y-88202380D01*
X121397619Y-88202380D02*
X122064285Y-89202380D01*
X122064285Y-88202380D02*
X121397619Y-89202380D01*
X120792380Y-86927142D02*
X120744761Y-86974761D01*
X120601904Y-87022380D01*
X120506666Y-87022380D01*
X120363809Y-86974761D01*
X120268571Y-86879523D01*
X120220952Y-86784285D01*
X120173333Y-86593809D01*
X120173333Y-86450952D01*
X120220952Y-86260476D01*
X120268571Y-86165238D01*
X120363809Y-86070000D01*
X120506666Y-86022380D01*
X120601904Y-86022380D01*
X120744761Y-86070000D01*
X120792380Y-86117619D01*
X121078095Y-86022380D02*
X121649523Y-86022380D01*
X121363809Y-87022380D02*
X121363809Y-86022380D01*
X121935238Y-86974761D02*
X122078095Y-87022380D01*
X122316190Y-87022380D01*
X122411428Y-86974761D01*
X122459047Y-86927142D01*
X122506666Y-86831904D01*
X122506666Y-86736666D01*
X122459047Y-86641428D01*
X122411428Y-86593809D01*
X122316190Y-86546190D01*
X122125714Y-86498571D01*
X122030476Y-86450952D01*
X121982857Y-86403333D01*
X121935238Y-86308095D01*
X121935238Y-86212857D01*
X121982857Y-86117619D01*
X122030476Y-86070000D01*
X122125714Y-86022380D01*
X122363809Y-86022380D01*
X122506666Y-86070000D01*
X121303333Y-84752380D02*
X120970000Y-84276190D01*
X120731904Y-84752380D02*
X120731904Y-83752380D01*
X121112857Y-83752380D01*
X121208095Y-83800000D01*
X121255714Y-83847619D01*
X121303333Y-83942857D01*
X121303333Y-84085714D01*
X121255714Y-84180952D01*
X121208095Y-84228571D01*
X121112857Y-84276190D01*
X120731904Y-84276190D01*
X121636666Y-83752380D02*
X122303333Y-84752380D01*
X122303333Y-83752380D02*
X121636666Y-84752380D01*
%TO.C,U1*%
X132681500Y-91324000D02*
X132681500Y-76924000D01*
X147081500Y-76924000D02*
X132681500Y-76924000D01*
X146281500Y-91324000D02*
X132681500Y-91324000D01*
X147081500Y-90524000D02*
X147081500Y-76924000D01*
X146281500Y-91324000D02*
X146581500Y-91324000D01*
X146581500Y-91324000D02*
X147081500Y-90824000D01*
X147081500Y-90824000D02*
X147081500Y-90524000D01*
D11*
%TO.C,C27*%
X164342164Y-87460000D02*
X164557836Y-87460000D01*
X164342164Y-86740000D02*
X164557836Y-86740000D01*
%TO.C,Y1*%
X129075000Y-75400000D02*
X129075000Y-79400000D01*
X132375000Y-75400000D02*
X129075000Y-75400000D01*
%TO.C,U4*%
X120565000Y-79600000D02*
X120565000Y-73590000D01*
X127385000Y-77350000D02*
X127385000Y-73590000D01*
X120565000Y-73590000D02*
X121825000Y-73590000D01*
X127385000Y-73590000D02*
X126125000Y-73590000D01*
%TO.C,U3*%
X127635000Y-97600000D02*
X127635000Y-103610000D01*
X120815000Y-99850000D02*
X120815000Y-103610000D01*
X127635000Y-103610000D02*
X126375000Y-103610000D01*
X120815000Y-103610000D02*
X122075000Y-103610000D01*
%TO.C,R8*%
X164628641Y-81670000D02*
X164321359Y-81670000D01*
X164628641Y-82430000D02*
X164321359Y-82430000D01*
%TO.C,R4*%
X137845000Y-75696359D02*
X137845000Y-76003641D01*
X138605000Y-75696359D02*
X138605000Y-76003641D01*
%TO.C,R3*%
X164321359Y-81405000D02*
X164628641Y-81405000D01*
X164321359Y-80645000D02*
X164628641Y-80645000D01*
%TO.C,R1*%
X144720000Y-92071359D02*
X144720000Y-92378641D01*
X145480000Y-92071359D02*
X145480000Y-92378641D01*
%TO.C,J3*%
X134625000Y-95600000D02*
X136425000Y-95600000D01*
X146335000Y-110780000D02*
X145685000Y-110780000D01*
X131715000Y-110780000D02*
X131715000Y-111300000D01*
X145685000Y-102670000D02*
X145685000Y-110780000D01*
X131715000Y-111300000D02*
X146335000Y-111300000D01*
X146335000Y-111300000D02*
X146335000Y-110780000D01*
X145685000Y-95820000D02*
X145685000Y-99150000D01*
X132365000Y-95820000D02*
X132365000Y-99150000D01*
X132365000Y-95820000D02*
X145685000Y-95820000D01*
X132365000Y-110780000D02*
X131715000Y-110780000D01*
X132365000Y-110780000D02*
X132365000Y-102670000D01*
%TO.C,J2*%
X123670000Y-82145000D02*
X125000000Y-82145000D01*
X123670000Y-83475000D02*
X123670000Y-82145000D01*
X123670000Y-84745000D02*
X126330000Y-84745000D01*
X126330000Y-84745000D02*
X126330000Y-94965000D01*
X123670000Y-84745000D02*
X123670000Y-94965000D01*
X123670000Y-94965000D02*
X126330000Y-94965000D01*
%TO.C,J1*%
X163345000Y-106475000D02*
X163345000Y-102025000D01*
X163345000Y-100625000D02*
X163345000Y-98325000D01*
X163345000Y-96925000D02*
X163345000Y-96205000D01*
X163345000Y-96205000D02*
X160665000Y-96205000D01*
X158365000Y-96205000D02*
X154695000Y-96205000D01*
X152395000Y-96205000D02*
X151165000Y-96205000D01*
X151165000Y-96205000D02*
X151165000Y-106025000D01*
X161865000Y-107845000D02*
X161005000Y-107845000D01*
%TO.C,C39*%
X155110000Y-79282836D02*
X155110000Y-79067164D01*
X154390000Y-79282836D02*
X154390000Y-79067164D01*
%TO.C,C38*%
X164317164Y-76035000D02*
X164532836Y-76035000D01*
X164317164Y-75315000D02*
X164532836Y-75315000D01*
%TO.C,C37*%
X164317164Y-73085000D02*
X164532836Y-73085000D01*
X164317164Y-72365000D02*
X164532836Y-72365000D01*
%TO.C,C36*%
X139610000Y-75982836D02*
X139610000Y-75767164D01*
X138890000Y-75982836D02*
X138890000Y-75767164D01*
%TO.C,C32*%
X131417164Y-75085000D02*
X131632836Y-75085000D01*
X131417164Y-74365000D02*
X131632836Y-74365000D01*
%TO.C,C30*%
X131632836Y-79740000D02*
X131417164Y-79740000D01*
X131632836Y-80460000D02*
X131417164Y-80460000D01*
%TO.C,C22*%
X122565580Y-80265000D02*
X122284420Y-80265000D01*
X122565580Y-81285000D02*
X122284420Y-81285000D01*
%TO.C,C20*%
X125734420Y-81285000D02*
X126015580Y-81285000D01*
X125734420Y-80265000D02*
X126015580Y-80265000D01*
%TO.C,C19*%
X131340580Y-82165000D02*
X131059420Y-82165000D01*
X131340580Y-83185000D02*
X131059420Y-83185000D01*
%TO.C,C18*%
X136809420Y-92535000D02*
X137090580Y-92535000D01*
X136809420Y-91515000D02*
X137090580Y-91515000D01*
%TO.C,C17*%
X131882836Y-80990000D02*
X131667164Y-80990000D01*
X131882836Y-81710000D02*
X131667164Y-81710000D01*
%TO.C,C16*%
X131340580Y-86690000D02*
X131059420Y-86690000D01*
X131340580Y-87710000D02*
X131059420Y-87710000D01*
%TO.C,C15*%
X134565000Y-92092164D02*
X134565000Y-92307836D01*
X135285000Y-92092164D02*
X135285000Y-92307836D01*
%TO.C,C14*%
X135410000Y-75440580D02*
X135410000Y-75159420D01*
X134390000Y-75440580D02*
X134390000Y-75159420D01*
%TO.C,C13*%
X131882836Y-88115000D02*
X131667164Y-88115000D01*
X131882836Y-88835000D02*
X131667164Y-88835000D01*
%TO.C,C12*%
X132565000Y-92092164D02*
X132565000Y-92307836D01*
X133285000Y-92092164D02*
X133285000Y-92307836D01*
%TO.C,C11*%
X137560000Y-75957836D02*
X137560000Y-75742164D01*
X136840000Y-75957836D02*
X136840000Y-75742164D01*
%TO.C,C10*%
X133985000Y-75982836D02*
X133985000Y-75767164D01*
X133265000Y-75982836D02*
X133265000Y-75767164D01*
%TO.C,C9*%
X131882836Y-89115000D02*
X131667164Y-89115000D01*
X131882836Y-89835000D02*
X131667164Y-89835000D01*
%TO.C,C8*%
X133565000Y-92092164D02*
X133565000Y-92307836D01*
X134285000Y-92092164D02*
X134285000Y-92307836D01*
%TO.C,C7*%
X125759420Y-96910000D02*
X126040580Y-96910000D01*
X125759420Y-95890000D02*
X126040580Y-95890000D01*
%TO.C,C6*%
X122715580Y-95890000D02*
X122434420Y-95890000D01*
X122715580Y-96910000D02*
X122434420Y-96910000D01*
%TO.C,C5*%
X141690000Y-92092164D02*
X141690000Y-92307836D01*
X142410000Y-92092164D02*
X142410000Y-92307836D01*
%TO.C,C4*%
X136560000Y-75957836D02*
X136560000Y-75742164D01*
X135840000Y-75957836D02*
X135840000Y-75742164D01*
%TO.C,C3*%
X143715000Y-92092164D02*
X143715000Y-92307836D01*
X144435000Y-92092164D02*
X144435000Y-92307836D01*
%TO.C,C2*%
X142715000Y-92092164D02*
X142715000Y-92307836D01*
X143435000Y-92092164D02*
X143435000Y-92307836D01*
%TO.C,C1*%
X140140580Y-91515000D02*
X139859420Y-91515000D01*
X140140580Y-92535000D02*
X139859420Y-92535000D01*
D10*
%TO.C,U2*%
X156165000Y-72300000D02*
X155115000Y-73350000D01*
X155115000Y-73350000D02*
X155115000Y-86800000D01*
X155115000Y-86800000D02*
X163615000Y-86800000D01*
X163615000Y-86800000D02*
X163615000Y-72300000D01*
X163615000Y-72300000D02*
X156165000Y-72300000D01*
D11*
%TO.C,R7*%
X164628641Y-86455000D02*
X164321359Y-86455000D01*
X164628641Y-85695000D02*
X164321359Y-85695000D01*
%TO.C,R6*%
X164321359Y-82695000D02*
X164628641Y-82695000D01*
X164321359Y-83455000D02*
X164628641Y-83455000D01*
%TO.C,C45*%
X164347164Y-84715000D02*
X164562836Y-84715000D01*
X164347164Y-85435000D02*
X164562836Y-85435000D01*
%TO.C,C44*%
X164557836Y-84435000D02*
X164342164Y-84435000D01*
X164557836Y-83715000D02*
X164342164Y-83715000D01*
%TO.C,C25*%
X162342164Y-71540000D02*
X162557836Y-71540000D01*
X162342164Y-72260000D02*
X162557836Y-72260000D01*
%TO.C,C23*%
X164317164Y-76340000D02*
X164532836Y-76340000D01*
X164317164Y-77060000D02*
X164532836Y-77060000D01*
%TO.C,C21*%
X163035000Y-88309420D02*
X163035000Y-88590580D01*
X162015000Y-88309420D02*
X162015000Y-88590580D01*
%TO.C,R5*%
X164603641Y-79780000D02*
X164296359Y-79780000D01*
X164603641Y-79020000D02*
X164296359Y-79020000D01*
%TO.C,C47*%
X164532836Y-74160000D02*
X164317164Y-74160000D01*
X164532836Y-73440000D02*
X164317164Y-73440000D01*
%TO.C,C46*%
X164317164Y-77390000D02*
X164532836Y-77390000D01*
X164317164Y-78110000D02*
X164532836Y-78110000D01*
%TO.C,U1*%
D10*
X140363095Y-75377380D02*
X140363095Y-76186904D01*
X140410714Y-76282142D01*
X140458333Y-76329761D01*
X140553571Y-76377380D01*
X140744047Y-76377380D01*
X140839285Y-76329761D01*
X140886904Y-76282142D01*
X140934523Y-76186904D01*
X140934523Y-75377380D01*
X141934523Y-76377380D02*
X141363095Y-76377380D01*
X141648809Y-76377380D02*
X141648809Y-75377380D01*
X141553571Y-75520238D01*
X141458333Y-75615476D01*
X141363095Y-75663095D01*
%TO.C,C27*%
X166282142Y-88557142D02*
X166234523Y-88604761D01*
X166091666Y-88652380D01*
X165996428Y-88652380D01*
X165853571Y-88604761D01*
X165758333Y-88509523D01*
X165710714Y-88414285D01*
X165663095Y-88223809D01*
X165663095Y-88080952D01*
X165710714Y-87890476D01*
X165758333Y-87795238D01*
X165853571Y-87700000D01*
X165996428Y-87652380D01*
X166091666Y-87652380D01*
X166234523Y-87700000D01*
X166282142Y-87747619D01*
X166663095Y-87747619D02*
X166710714Y-87700000D01*
X166805952Y-87652380D01*
X167044047Y-87652380D01*
X167139285Y-87700000D01*
X167186904Y-87747619D01*
X167234523Y-87842857D01*
X167234523Y-87938095D01*
X167186904Y-88080952D01*
X166615476Y-88652380D01*
X167234523Y-88652380D01*
X167567857Y-87652380D02*
X168234523Y-87652380D01*
X167805952Y-88652380D01*
%TO.C,Y1*%
X128276190Y-77826190D02*
X128752380Y-77826190D01*
X127752380Y-78159523D02*
X128276190Y-77826190D01*
X127752380Y-77492857D01*
X128752380Y-76635714D02*
X128752380Y-77207142D01*
X128752380Y-76921428D02*
X127752380Y-76921428D01*
X127895238Y-77016666D01*
X127990476Y-77111904D01*
X128038095Y-77207142D01*
%TO.C,U4*%
X123213095Y-69877380D02*
X123213095Y-70686904D01*
X123260714Y-70782142D01*
X123308333Y-70829761D01*
X123403571Y-70877380D01*
X123594047Y-70877380D01*
X123689285Y-70829761D01*
X123736904Y-70782142D01*
X123784523Y-70686904D01*
X123784523Y-69877380D01*
X124689285Y-70210714D02*
X124689285Y-70877380D01*
X124451190Y-69829761D02*
X124213095Y-70544047D01*
X124832142Y-70544047D01*
%TO.C,U3*%
X123463095Y-106402380D02*
X123463095Y-107211904D01*
X123510714Y-107307142D01*
X123558333Y-107354761D01*
X123653571Y-107402380D01*
X123844047Y-107402380D01*
X123939285Y-107354761D01*
X123986904Y-107307142D01*
X124034523Y-107211904D01*
X124034523Y-106402380D01*
X124415476Y-106402380D02*
X125034523Y-106402380D01*
X124701190Y-106783333D01*
X124844047Y-106783333D01*
X124939285Y-106830952D01*
X124986904Y-106878571D01*
X125034523Y-106973809D01*
X125034523Y-107211904D01*
X124986904Y-107307142D01*
X124939285Y-107354761D01*
X124844047Y-107402380D01*
X124558333Y-107402380D01*
X124463095Y-107354761D01*
X124415476Y-107307142D01*
%TO.C,R8*%
X166358333Y-82027380D02*
X166025000Y-81551190D01*
X165786904Y-82027380D02*
X165786904Y-81027380D01*
X166167857Y-81027380D01*
X166263095Y-81075000D01*
X166310714Y-81122619D01*
X166358333Y-81217857D01*
X166358333Y-81360714D01*
X166310714Y-81455952D01*
X166263095Y-81503571D01*
X166167857Y-81551190D01*
X165786904Y-81551190D01*
X166929761Y-81455952D02*
X166834523Y-81408333D01*
X166786904Y-81360714D01*
X166739285Y-81265476D01*
X166739285Y-81217857D01*
X166786904Y-81122619D01*
X166834523Y-81075000D01*
X166929761Y-81027380D01*
X167120238Y-81027380D01*
X167215476Y-81075000D01*
X167263095Y-81122619D01*
X167310714Y-81217857D01*
X167310714Y-81265476D01*
X167263095Y-81360714D01*
X167215476Y-81408333D01*
X167120238Y-81455952D01*
X166929761Y-81455952D01*
X166834523Y-81503571D01*
X166786904Y-81551190D01*
X166739285Y-81646428D01*
X166739285Y-81836904D01*
X166786904Y-81932142D01*
X166834523Y-81979761D01*
X166929761Y-82027380D01*
X167120238Y-82027380D01*
X167215476Y-81979761D01*
X167263095Y-81932142D01*
X167310714Y-81836904D01*
X167310714Y-81646428D01*
X167263095Y-81551190D01*
X167215476Y-81503571D01*
X167120238Y-81455952D01*
%TO.C,R4*%
X139552380Y-73591666D02*
X139076190Y-73925000D01*
X139552380Y-74163095D02*
X138552380Y-74163095D01*
X138552380Y-73782142D01*
X138600000Y-73686904D01*
X138647619Y-73639285D01*
X138742857Y-73591666D01*
X138885714Y-73591666D01*
X138980952Y-73639285D01*
X139028571Y-73686904D01*
X139076190Y-73782142D01*
X139076190Y-74163095D01*
X138885714Y-72734523D02*
X139552380Y-72734523D01*
X138504761Y-72972619D02*
X139219047Y-73210714D01*
X139219047Y-72591666D01*
%TO.C,R3*%
X166358333Y-80677380D02*
X166025000Y-80201190D01*
X165786904Y-80677380D02*
X165786904Y-79677380D01*
X166167857Y-79677380D01*
X166263095Y-79725000D01*
X166310714Y-79772619D01*
X166358333Y-79867857D01*
X166358333Y-80010714D01*
X166310714Y-80105952D01*
X166263095Y-80153571D01*
X166167857Y-80201190D01*
X165786904Y-80201190D01*
X166691666Y-79677380D02*
X167310714Y-79677380D01*
X166977380Y-80058333D01*
X167120238Y-80058333D01*
X167215476Y-80105952D01*
X167263095Y-80153571D01*
X167310714Y-80248809D01*
X167310714Y-80486904D01*
X167263095Y-80582142D01*
X167215476Y-80629761D01*
X167120238Y-80677380D01*
X166834523Y-80677380D01*
X166739285Y-80629761D01*
X166691666Y-80582142D01*
%TO.C,R1*%
X146902380Y-92641666D02*
X146426190Y-92975000D01*
X146902380Y-93213095D02*
X145902380Y-93213095D01*
X145902380Y-92832142D01*
X145950000Y-92736904D01*
X145997619Y-92689285D01*
X146092857Y-92641666D01*
X146235714Y-92641666D01*
X146330952Y-92689285D01*
X146378571Y-92736904D01*
X146426190Y-92832142D01*
X146426190Y-93213095D01*
X146902380Y-91689285D02*
X146902380Y-92260714D01*
X146902380Y-91975000D02*
X145902380Y-91975000D01*
X146045238Y-92070238D01*
X146140476Y-92165476D01*
X146188095Y-92260714D01*
%TO.C,J3*%
X130591666Y-96002380D02*
X130591666Y-96716666D01*
X130544047Y-96859523D01*
X130448809Y-96954761D01*
X130305952Y-97002380D01*
X130210714Y-97002380D01*
X130972619Y-96002380D02*
X131591666Y-96002380D01*
X131258333Y-96383333D01*
X131401190Y-96383333D01*
X131496428Y-96430952D01*
X131544047Y-96478571D01*
X131591666Y-96573809D01*
X131591666Y-96811904D01*
X131544047Y-96907142D01*
X131496428Y-96954761D01*
X131401190Y-97002380D01*
X131115476Y-97002380D01*
X131020238Y-96954761D01*
X130972619Y-96907142D01*
%TO.C,J2*%
X127202380Y-93663333D02*
X127916666Y-93663333D01*
X128059523Y-93710952D01*
X128154761Y-93806190D01*
X128202380Y-93949047D01*
X128202380Y-94044285D01*
X127297619Y-93234761D02*
X127250000Y-93187142D01*
X127202380Y-93091904D01*
X127202380Y-92853809D01*
X127250000Y-92758571D01*
X127297619Y-92710952D01*
X127392857Y-92663333D01*
X127488095Y-92663333D01*
X127630952Y-92710952D01*
X128202380Y-93282380D01*
X128202380Y-92663333D01*
%TO.C,J1*%
X156941666Y-108657380D02*
X156941666Y-109371666D01*
X156894047Y-109514523D01*
X156798809Y-109609761D01*
X156655952Y-109657380D01*
X156560714Y-109657380D01*
X157941666Y-109657380D02*
X157370238Y-109657380D01*
X157655952Y-109657380D02*
X157655952Y-108657380D01*
X157560714Y-108800238D01*
X157465476Y-108895476D01*
X157370238Y-108943095D01*
%TO.C,C39*%
X153947142Y-79817857D02*
X153994761Y-79865476D01*
X154042380Y-80008333D01*
X154042380Y-80103571D01*
X153994761Y-80246428D01*
X153899523Y-80341666D01*
X153804285Y-80389285D01*
X153613809Y-80436904D01*
X153470952Y-80436904D01*
X153280476Y-80389285D01*
X153185238Y-80341666D01*
X153090000Y-80246428D01*
X153042380Y-80103571D01*
X153042380Y-80008333D01*
X153090000Y-79865476D01*
X153137619Y-79817857D01*
X153042380Y-79484523D02*
X153042380Y-78865476D01*
X153423333Y-79198809D01*
X153423333Y-79055952D01*
X153470952Y-78960714D01*
X153518571Y-78913095D01*
X153613809Y-78865476D01*
X153851904Y-78865476D01*
X153947142Y-78913095D01*
X153994761Y-78960714D01*
X154042380Y-79055952D01*
X154042380Y-79341666D01*
X153994761Y-79436904D01*
X153947142Y-79484523D01*
X154042380Y-78389285D02*
X154042380Y-78198809D01*
X153994761Y-78103571D01*
X153947142Y-78055952D01*
X153804285Y-77960714D01*
X153613809Y-77913095D01*
X153232857Y-77913095D01*
X153137619Y-77960714D01*
X153090000Y-78008333D01*
X153042380Y-78103571D01*
X153042380Y-78294047D01*
X153090000Y-78389285D01*
X153137619Y-78436904D01*
X153232857Y-78484523D01*
X153470952Y-78484523D01*
X153566190Y-78436904D01*
X153613809Y-78389285D01*
X153661428Y-78294047D01*
X153661428Y-78103571D01*
X153613809Y-78008333D01*
X153566190Y-77960714D01*
X153470952Y-77913095D01*
%TO.C,C38*%
X166182142Y-75207142D02*
X166134523Y-75254761D01*
X165991666Y-75302380D01*
X165896428Y-75302380D01*
X165753571Y-75254761D01*
X165658333Y-75159523D01*
X165610714Y-75064285D01*
X165563095Y-74873809D01*
X165563095Y-74730952D01*
X165610714Y-74540476D01*
X165658333Y-74445238D01*
X165753571Y-74350000D01*
X165896428Y-74302380D01*
X165991666Y-74302380D01*
X166134523Y-74350000D01*
X166182142Y-74397619D01*
X166515476Y-74302380D02*
X167134523Y-74302380D01*
X166801190Y-74683333D01*
X166944047Y-74683333D01*
X167039285Y-74730952D01*
X167086904Y-74778571D01*
X167134523Y-74873809D01*
X167134523Y-75111904D01*
X167086904Y-75207142D01*
X167039285Y-75254761D01*
X166944047Y-75302380D01*
X166658333Y-75302380D01*
X166563095Y-75254761D01*
X166515476Y-75207142D01*
X167705952Y-74730952D02*
X167610714Y-74683333D01*
X167563095Y-74635714D01*
X167515476Y-74540476D01*
X167515476Y-74492857D01*
X167563095Y-74397619D01*
X167610714Y-74350000D01*
X167705952Y-74302380D01*
X167896428Y-74302380D01*
X167991666Y-74350000D01*
X168039285Y-74397619D01*
X168086904Y-74492857D01*
X168086904Y-74540476D01*
X168039285Y-74635714D01*
X167991666Y-74683333D01*
X167896428Y-74730952D01*
X167705952Y-74730952D01*
X167610714Y-74778571D01*
X167563095Y-74826190D01*
X167515476Y-74921428D01*
X167515476Y-75111904D01*
X167563095Y-75207142D01*
X167610714Y-75254761D01*
X167705952Y-75302380D01*
X167896428Y-75302380D01*
X167991666Y-75254761D01*
X168039285Y-75207142D01*
X168086904Y-75111904D01*
X168086904Y-74921428D01*
X168039285Y-74826190D01*
X167991666Y-74778571D01*
X167896428Y-74730952D01*
%TO.C,C37*%
X166157142Y-72407142D02*
X166109523Y-72454761D01*
X165966666Y-72502380D01*
X165871428Y-72502380D01*
X165728571Y-72454761D01*
X165633333Y-72359523D01*
X165585714Y-72264285D01*
X165538095Y-72073809D01*
X165538095Y-71930952D01*
X165585714Y-71740476D01*
X165633333Y-71645238D01*
X165728571Y-71550000D01*
X165871428Y-71502380D01*
X165966666Y-71502380D01*
X166109523Y-71550000D01*
X166157142Y-71597619D01*
X166490476Y-71502380D02*
X167109523Y-71502380D01*
X166776190Y-71883333D01*
X166919047Y-71883333D01*
X167014285Y-71930952D01*
X167061904Y-71978571D01*
X167109523Y-72073809D01*
X167109523Y-72311904D01*
X167061904Y-72407142D01*
X167014285Y-72454761D01*
X166919047Y-72502380D01*
X166633333Y-72502380D01*
X166538095Y-72454761D01*
X166490476Y-72407142D01*
X167442857Y-71502380D02*
X168109523Y-71502380D01*
X167680952Y-72502380D01*
%TO.C,C36*%
X140782142Y-73542857D02*
X140829761Y-73590476D01*
X140877380Y-73733333D01*
X140877380Y-73828571D01*
X140829761Y-73971428D01*
X140734523Y-74066666D01*
X140639285Y-74114285D01*
X140448809Y-74161904D01*
X140305952Y-74161904D01*
X140115476Y-74114285D01*
X140020238Y-74066666D01*
X139925000Y-73971428D01*
X139877380Y-73828571D01*
X139877380Y-73733333D01*
X139925000Y-73590476D01*
X139972619Y-73542857D01*
X139877380Y-73209523D02*
X139877380Y-72590476D01*
X140258333Y-72923809D01*
X140258333Y-72780952D01*
X140305952Y-72685714D01*
X140353571Y-72638095D01*
X140448809Y-72590476D01*
X140686904Y-72590476D01*
X140782142Y-72638095D01*
X140829761Y-72685714D01*
X140877380Y-72780952D01*
X140877380Y-73066666D01*
X140829761Y-73161904D01*
X140782142Y-73209523D01*
X139877380Y-71733333D02*
X139877380Y-71923809D01*
X139925000Y-72019047D01*
X139972619Y-72066666D01*
X140115476Y-72161904D01*
X140305952Y-72209523D01*
X140686904Y-72209523D01*
X140782142Y-72161904D01*
X140829761Y-72114285D01*
X140877380Y-72019047D01*
X140877380Y-71828571D01*
X140829761Y-71733333D01*
X140782142Y-71685714D01*
X140686904Y-71638095D01*
X140448809Y-71638095D01*
X140353571Y-71685714D01*
X140305952Y-71733333D01*
X140258333Y-71828571D01*
X140258333Y-72019047D01*
X140305952Y-72114285D01*
X140353571Y-72161904D01*
X140448809Y-72209523D01*
%TO.C,C32*%
X130382142Y-73922142D02*
X130334523Y-73969761D01*
X130191666Y-74017380D01*
X130096428Y-74017380D01*
X129953571Y-73969761D01*
X129858333Y-73874523D01*
X129810714Y-73779285D01*
X129763095Y-73588809D01*
X129763095Y-73445952D01*
X129810714Y-73255476D01*
X129858333Y-73160238D01*
X129953571Y-73065000D01*
X130096428Y-73017380D01*
X130191666Y-73017380D01*
X130334523Y-73065000D01*
X130382142Y-73112619D01*
X130715476Y-73017380D02*
X131334523Y-73017380D01*
X131001190Y-73398333D01*
X131144047Y-73398333D01*
X131239285Y-73445952D01*
X131286904Y-73493571D01*
X131334523Y-73588809D01*
X131334523Y-73826904D01*
X131286904Y-73922142D01*
X131239285Y-73969761D01*
X131144047Y-74017380D01*
X130858333Y-74017380D01*
X130763095Y-73969761D01*
X130715476Y-73922142D01*
X131715476Y-73112619D02*
X131763095Y-73065000D01*
X131858333Y-73017380D01*
X132096428Y-73017380D01*
X132191666Y-73065000D01*
X132239285Y-73112619D01*
X132286904Y-73207857D01*
X132286904Y-73303095D01*
X132239285Y-73445952D01*
X131667857Y-74017380D01*
X132286904Y-74017380D01*
%TO.C,C30*%
X128157142Y-80657142D02*
X128109523Y-80704761D01*
X127966666Y-80752380D01*
X127871428Y-80752380D01*
X127728571Y-80704761D01*
X127633333Y-80609523D01*
X127585714Y-80514285D01*
X127538095Y-80323809D01*
X127538095Y-80180952D01*
X127585714Y-79990476D01*
X127633333Y-79895238D01*
X127728571Y-79800000D01*
X127871428Y-79752380D01*
X127966666Y-79752380D01*
X128109523Y-79800000D01*
X128157142Y-79847619D01*
X128490476Y-79752380D02*
X129109523Y-79752380D01*
X128776190Y-80133333D01*
X128919047Y-80133333D01*
X129014285Y-80180952D01*
X129061904Y-80228571D01*
X129109523Y-80323809D01*
X129109523Y-80561904D01*
X129061904Y-80657142D01*
X129014285Y-80704761D01*
X128919047Y-80752380D01*
X128633333Y-80752380D01*
X128538095Y-80704761D01*
X128490476Y-80657142D01*
X129728571Y-79752380D02*
X129823809Y-79752380D01*
X129919047Y-79800000D01*
X129966666Y-79847619D01*
X130014285Y-79942857D01*
X130061904Y-80133333D01*
X130061904Y-80371428D01*
X130014285Y-80561904D01*
X129966666Y-80657142D01*
X129919047Y-80704761D01*
X129823809Y-80752380D01*
X129728571Y-80752380D01*
X129633333Y-80704761D01*
X129585714Y-80657142D01*
X129538095Y-80561904D01*
X129490476Y-80371428D01*
X129490476Y-80133333D01*
X129538095Y-79942857D01*
X129585714Y-79847619D01*
X129633333Y-79800000D01*
X129728571Y-79752380D01*
%TO.C,C22*%
X120807142Y-82782142D02*
X120759523Y-82829761D01*
X120616666Y-82877380D01*
X120521428Y-82877380D01*
X120378571Y-82829761D01*
X120283333Y-82734523D01*
X120235714Y-82639285D01*
X120188095Y-82448809D01*
X120188095Y-82305952D01*
X120235714Y-82115476D01*
X120283333Y-82020238D01*
X120378571Y-81925000D01*
X120521428Y-81877380D01*
X120616666Y-81877380D01*
X120759523Y-81925000D01*
X120807142Y-81972619D01*
X121188095Y-81972619D02*
X121235714Y-81925000D01*
X121330952Y-81877380D01*
X121569047Y-81877380D01*
X121664285Y-81925000D01*
X121711904Y-81972619D01*
X121759523Y-82067857D01*
X121759523Y-82163095D01*
X121711904Y-82305952D01*
X121140476Y-82877380D01*
X121759523Y-82877380D01*
X122140476Y-81972619D02*
X122188095Y-81925000D01*
X122283333Y-81877380D01*
X122521428Y-81877380D01*
X122616666Y-81925000D01*
X122664285Y-81972619D01*
X122711904Y-82067857D01*
X122711904Y-82163095D01*
X122664285Y-82305952D01*
X122092857Y-82877380D01*
X122711904Y-82877380D01*
%TO.C,C20*%
X127932142Y-84417857D02*
X127979761Y-84465476D01*
X128027380Y-84608333D01*
X128027380Y-84703571D01*
X127979761Y-84846428D01*
X127884523Y-84941666D01*
X127789285Y-84989285D01*
X127598809Y-85036904D01*
X127455952Y-85036904D01*
X127265476Y-84989285D01*
X127170238Y-84941666D01*
X127075000Y-84846428D01*
X127027380Y-84703571D01*
X127027380Y-84608333D01*
X127075000Y-84465476D01*
X127122619Y-84417857D01*
X127122619Y-84036904D02*
X127075000Y-83989285D01*
X127027380Y-83894047D01*
X127027380Y-83655952D01*
X127075000Y-83560714D01*
X127122619Y-83513095D01*
X127217857Y-83465476D01*
X127313095Y-83465476D01*
X127455952Y-83513095D01*
X128027380Y-84084523D01*
X128027380Y-83465476D01*
X127027380Y-82846428D02*
X127027380Y-82751190D01*
X127075000Y-82655952D01*
X127122619Y-82608333D01*
X127217857Y-82560714D01*
X127408333Y-82513095D01*
X127646428Y-82513095D01*
X127836904Y-82560714D01*
X127932142Y-82608333D01*
X127979761Y-82655952D01*
X128027380Y-82751190D01*
X128027380Y-82846428D01*
X127979761Y-82941666D01*
X127932142Y-82989285D01*
X127836904Y-83036904D01*
X127646428Y-83084523D01*
X127408333Y-83084523D01*
X127217857Y-83036904D01*
X127122619Y-82989285D01*
X127075000Y-82941666D01*
X127027380Y-82846428D01*
%TO.C,C19*%
X130157142Y-84682142D02*
X130109523Y-84729761D01*
X129966666Y-84777380D01*
X129871428Y-84777380D01*
X129728571Y-84729761D01*
X129633333Y-84634523D01*
X129585714Y-84539285D01*
X129538095Y-84348809D01*
X129538095Y-84205952D01*
X129585714Y-84015476D01*
X129633333Y-83920238D01*
X129728571Y-83825000D01*
X129871428Y-83777380D01*
X129966666Y-83777380D01*
X130109523Y-83825000D01*
X130157142Y-83872619D01*
X131109523Y-84777380D02*
X130538095Y-84777380D01*
X130823809Y-84777380D02*
X130823809Y-83777380D01*
X130728571Y-83920238D01*
X130633333Y-84015476D01*
X130538095Y-84063095D01*
X131585714Y-84777380D02*
X131776190Y-84777380D01*
X131871428Y-84729761D01*
X131919047Y-84682142D01*
X132014285Y-84539285D01*
X132061904Y-84348809D01*
X132061904Y-83967857D01*
X132014285Y-83872619D01*
X131966666Y-83825000D01*
X131871428Y-83777380D01*
X131680952Y-83777380D01*
X131585714Y-83825000D01*
X131538095Y-83872619D01*
X131490476Y-83967857D01*
X131490476Y-84205952D01*
X131538095Y-84301190D01*
X131585714Y-84348809D01*
X131680952Y-84396428D01*
X131871428Y-84396428D01*
X131966666Y-84348809D01*
X132014285Y-84301190D01*
X132061904Y-84205952D01*
%TO.C,C18*%
X136282142Y-93907142D02*
X136234523Y-93954761D01*
X136091666Y-94002380D01*
X135996428Y-94002380D01*
X135853571Y-93954761D01*
X135758333Y-93859523D01*
X135710714Y-93764285D01*
X135663095Y-93573809D01*
X135663095Y-93430952D01*
X135710714Y-93240476D01*
X135758333Y-93145238D01*
X135853571Y-93050000D01*
X135996428Y-93002380D01*
X136091666Y-93002380D01*
X136234523Y-93050000D01*
X136282142Y-93097619D01*
X137234523Y-94002380D02*
X136663095Y-94002380D01*
X136948809Y-94002380D02*
X136948809Y-93002380D01*
X136853571Y-93145238D01*
X136758333Y-93240476D01*
X136663095Y-93288095D01*
X137805952Y-93430952D02*
X137710714Y-93383333D01*
X137663095Y-93335714D01*
X137615476Y-93240476D01*
X137615476Y-93192857D01*
X137663095Y-93097619D01*
X137710714Y-93050000D01*
X137805952Y-93002380D01*
X137996428Y-93002380D01*
X138091666Y-93050000D01*
X138139285Y-93097619D01*
X138186904Y-93192857D01*
X138186904Y-93240476D01*
X138139285Y-93335714D01*
X138091666Y-93383333D01*
X137996428Y-93430952D01*
X137805952Y-93430952D01*
X137710714Y-93478571D01*
X137663095Y-93526190D01*
X137615476Y-93621428D01*
X137615476Y-93811904D01*
X137663095Y-93907142D01*
X137710714Y-93954761D01*
X137805952Y-94002380D01*
X137996428Y-94002380D01*
X138091666Y-93954761D01*
X138139285Y-93907142D01*
X138186904Y-93811904D01*
X138186904Y-93621428D01*
X138139285Y-93526190D01*
X138091666Y-93478571D01*
X137996428Y-93430952D01*
%TO.C,C17*%
X128182142Y-82107142D02*
X128134523Y-82154761D01*
X127991666Y-82202380D01*
X127896428Y-82202380D01*
X127753571Y-82154761D01*
X127658333Y-82059523D01*
X127610714Y-81964285D01*
X127563095Y-81773809D01*
X127563095Y-81630952D01*
X127610714Y-81440476D01*
X127658333Y-81345238D01*
X127753571Y-81250000D01*
X127896428Y-81202380D01*
X127991666Y-81202380D01*
X128134523Y-81250000D01*
X128182142Y-81297619D01*
X129134523Y-82202380D02*
X128563095Y-82202380D01*
X128848809Y-82202380D02*
X128848809Y-81202380D01*
X128753571Y-81345238D01*
X128658333Y-81440476D01*
X128563095Y-81488095D01*
X129467857Y-81202380D02*
X130134523Y-81202380D01*
X129705952Y-82202380D01*
%TO.C,C16*%
X130207142Y-86107142D02*
X130159523Y-86154761D01*
X130016666Y-86202380D01*
X129921428Y-86202380D01*
X129778571Y-86154761D01*
X129683333Y-86059523D01*
X129635714Y-85964285D01*
X129588095Y-85773809D01*
X129588095Y-85630952D01*
X129635714Y-85440476D01*
X129683333Y-85345238D01*
X129778571Y-85250000D01*
X129921428Y-85202380D01*
X130016666Y-85202380D01*
X130159523Y-85250000D01*
X130207142Y-85297619D01*
X131159523Y-86202380D02*
X130588095Y-86202380D01*
X130873809Y-86202380D02*
X130873809Y-85202380D01*
X130778571Y-85345238D01*
X130683333Y-85440476D01*
X130588095Y-85488095D01*
X132016666Y-85202380D02*
X131826190Y-85202380D01*
X131730952Y-85250000D01*
X131683333Y-85297619D01*
X131588095Y-85440476D01*
X131540476Y-85630952D01*
X131540476Y-86011904D01*
X131588095Y-86107142D01*
X131635714Y-86154761D01*
X131730952Y-86202380D01*
X131921428Y-86202380D01*
X132016666Y-86154761D01*
X132064285Y-86107142D01*
X132111904Y-86011904D01*
X132111904Y-85773809D01*
X132064285Y-85678571D01*
X132016666Y-85630952D01*
X131921428Y-85583333D01*
X131730952Y-85583333D01*
X131635714Y-85630952D01*
X131588095Y-85678571D01*
X131540476Y-85773809D01*
%TO.C,C15*%
X134457142Y-95107142D02*
X134409523Y-95154761D01*
X134266666Y-95202380D01*
X134171428Y-95202380D01*
X134028571Y-95154761D01*
X133933333Y-95059523D01*
X133885714Y-94964285D01*
X133838095Y-94773809D01*
X133838095Y-94630952D01*
X133885714Y-94440476D01*
X133933333Y-94345238D01*
X134028571Y-94250000D01*
X134171428Y-94202380D01*
X134266666Y-94202380D01*
X134409523Y-94250000D01*
X134457142Y-94297619D01*
X135409523Y-95202380D02*
X134838095Y-95202380D01*
X135123809Y-95202380D02*
X135123809Y-94202380D01*
X135028571Y-94345238D01*
X134933333Y-94440476D01*
X134838095Y-94488095D01*
X136314285Y-94202380D02*
X135838095Y-94202380D01*
X135790476Y-94678571D01*
X135838095Y-94630952D01*
X135933333Y-94583333D01*
X136171428Y-94583333D01*
X136266666Y-94630952D01*
X136314285Y-94678571D01*
X136361904Y-94773809D01*
X136361904Y-95011904D01*
X136314285Y-95107142D01*
X136266666Y-95154761D01*
X136171428Y-95202380D01*
X135933333Y-95202380D01*
X135838095Y-95154761D01*
X135790476Y-95107142D01*
%TO.C,C14*%
X135182142Y-72842857D02*
X135229761Y-72890476D01*
X135277380Y-73033333D01*
X135277380Y-73128571D01*
X135229761Y-73271428D01*
X135134523Y-73366666D01*
X135039285Y-73414285D01*
X134848809Y-73461904D01*
X134705952Y-73461904D01*
X134515476Y-73414285D01*
X134420238Y-73366666D01*
X134325000Y-73271428D01*
X134277380Y-73128571D01*
X134277380Y-73033333D01*
X134325000Y-72890476D01*
X134372619Y-72842857D01*
X135277380Y-71890476D02*
X135277380Y-72461904D01*
X135277380Y-72176190D02*
X134277380Y-72176190D01*
X134420238Y-72271428D01*
X134515476Y-72366666D01*
X134563095Y-72461904D01*
X134610714Y-71033333D02*
X135277380Y-71033333D01*
X134229761Y-71271428D02*
X134944047Y-71509523D01*
X134944047Y-70890476D01*
%TO.C,C13*%
X128182142Y-89007142D02*
X128134523Y-89054761D01*
X127991666Y-89102380D01*
X127896428Y-89102380D01*
X127753571Y-89054761D01*
X127658333Y-88959523D01*
X127610714Y-88864285D01*
X127563095Y-88673809D01*
X127563095Y-88530952D01*
X127610714Y-88340476D01*
X127658333Y-88245238D01*
X127753571Y-88150000D01*
X127896428Y-88102380D01*
X127991666Y-88102380D01*
X128134523Y-88150000D01*
X128182142Y-88197619D01*
X129134523Y-89102380D02*
X128563095Y-89102380D01*
X128848809Y-89102380D02*
X128848809Y-88102380D01*
X128753571Y-88245238D01*
X128658333Y-88340476D01*
X128563095Y-88388095D01*
X129467857Y-88102380D02*
X130086904Y-88102380D01*
X129753571Y-88483333D01*
X129896428Y-88483333D01*
X129991666Y-88530952D01*
X130039285Y-88578571D01*
X130086904Y-88673809D01*
X130086904Y-88911904D01*
X130039285Y-89007142D01*
X129991666Y-89054761D01*
X129896428Y-89102380D01*
X129610714Y-89102380D01*
X129515476Y-89054761D01*
X129467857Y-89007142D01*
%TO.C,C12*%
X132057142Y-93142857D02*
X132104761Y-93190476D01*
X132152380Y-93333333D01*
X132152380Y-93428571D01*
X132104761Y-93571428D01*
X132009523Y-93666666D01*
X131914285Y-93714285D01*
X131723809Y-93761904D01*
X131580952Y-93761904D01*
X131390476Y-93714285D01*
X131295238Y-93666666D01*
X131200000Y-93571428D01*
X131152380Y-93428571D01*
X131152380Y-93333333D01*
X131200000Y-93190476D01*
X131247619Y-93142857D01*
X132152380Y-92190476D02*
X132152380Y-92761904D01*
X132152380Y-92476190D02*
X131152380Y-92476190D01*
X131295238Y-92571428D01*
X131390476Y-92666666D01*
X131438095Y-92761904D01*
X131247619Y-91809523D02*
X131200000Y-91761904D01*
X131152380Y-91666666D01*
X131152380Y-91428571D01*
X131200000Y-91333333D01*
X131247619Y-91285714D01*
X131342857Y-91238095D01*
X131438095Y-91238095D01*
X131580952Y-91285714D01*
X132152380Y-91857142D01*
X132152380Y-91238095D01*
%TO.C,C11*%
X138157142Y-73567857D02*
X138204761Y-73615476D01*
X138252380Y-73758333D01*
X138252380Y-73853571D01*
X138204761Y-73996428D01*
X138109523Y-74091666D01*
X138014285Y-74139285D01*
X137823809Y-74186904D01*
X137680952Y-74186904D01*
X137490476Y-74139285D01*
X137395238Y-74091666D01*
X137300000Y-73996428D01*
X137252380Y-73853571D01*
X137252380Y-73758333D01*
X137300000Y-73615476D01*
X137347619Y-73567857D01*
X138252380Y-72615476D02*
X138252380Y-73186904D01*
X138252380Y-72901190D02*
X137252380Y-72901190D01*
X137395238Y-72996428D01*
X137490476Y-73091666D01*
X137538095Y-73186904D01*
X138252380Y-71663095D02*
X138252380Y-72234523D01*
X138252380Y-71948809D02*
X137252380Y-71948809D01*
X137395238Y-72044047D01*
X137490476Y-72139285D01*
X137538095Y-72234523D01*
%TO.C,C10*%
X133732142Y-73617857D02*
X133779761Y-73665476D01*
X133827380Y-73808333D01*
X133827380Y-73903571D01*
X133779761Y-74046428D01*
X133684523Y-74141666D01*
X133589285Y-74189285D01*
X133398809Y-74236904D01*
X133255952Y-74236904D01*
X133065476Y-74189285D01*
X132970238Y-74141666D01*
X132875000Y-74046428D01*
X132827380Y-73903571D01*
X132827380Y-73808333D01*
X132875000Y-73665476D01*
X132922619Y-73617857D01*
X133827380Y-72665476D02*
X133827380Y-73236904D01*
X133827380Y-72951190D02*
X132827380Y-72951190D01*
X132970238Y-73046428D01*
X133065476Y-73141666D01*
X133113095Y-73236904D01*
X132827380Y-72046428D02*
X132827380Y-71951190D01*
X132875000Y-71855952D01*
X132922619Y-71808333D01*
X133017857Y-71760714D01*
X133208333Y-71713095D01*
X133446428Y-71713095D01*
X133636904Y-71760714D01*
X133732142Y-71808333D01*
X133779761Y-71855952D01*
X133827380Y-71951190D01*
X133827380Y-72046428D01*
X133779761Y-72141666D01*
X133732142Y-72189285D01*
X133636904Y-72236904D01*
X133446428Y-72284523D01*
X133208333Y-72284523D01*
X133017857Y-72236904D01*
X132922619Y-72189285D01*
X132875000Y-72141666D01*
X132827380Y-72046428D01*
%TO.C,C9*%
X129133333Y-90407142D02*
X129085714Y-90454761D01*
X128942857Y-90502380D01*
X128847619Y-90502380D01*
X128704761Y-90454761D01*
X128609523Y-90359523D01*
X128561904Y-90264285D01*
X128514285Y-90073809D01*
X128514285Y-89930952D01*
X128561904Y-89740476D01*
X128609523Y-89645238D01*
X128704761Y-89550000D01*
X128847619Y-89502380D01*
X128942857Y-89502380D01*
X129085714Y-89550000D01*
X129133333Y-89597619D01*
X129609523Y-90502380D02*
X129800000Y-90502380D01*
X129895238Y-90454761D01*
X129942857Y-90407142D01*
X130038095Y-90264285D01*
X130085714Y-90073809D01*
X130085714Y-89692857D01*
X130038095Y-89597619D01*
X129990476Y-89550000D01*
X129895238Y-89502380D01*
X129704761Y-89502380D01*
X129609523Y-89550000D01*
X129561904Y-89597619D01*
X129514285Y-89692857D01*
X129514285Y-89930952D01*
X129561904Y-90026190D01*
X129609523Y-90073809D01*
X129704761Y-90121428D01*
X129895238Y-90121428D01*
X129990476Y-90073809D01*
X130038095Y-90026190D01*
X130085714Y-89930952D01*
%TO.C,C8*%
X133257142Y-94566666D02*
X133304761Y-94614285D01*
X133352380Y-94757142D01*
X133352380Y-94852380D01*
X133304761Y-94995238D01*
X133209523Y-95090476D01*
X133114285Y-95138095D01*
X132923809Y-95185714D01*
X132780952Y-95185714D01*
X132590476Y-95138095D01*
X132495238Y-95090476D01*
X132400000Y-94995238D01*
X132352380Y-94852380D01*
X132352380Y-94757142D01*
X132400000Y-94614285D01*
X132447619Y-94566666D01*
X132780952Y-93995238D02*
X132733333Y-94090476D01*
X132685714Y-94138095D01*
X132590476Y-94185714D01*
X132542857Y-94185714D01*
X132447619Y-94138095D01*
X132400000Y-94090476D01*
X132352380Y-93995238D01*
X132352380Y-93804761D01*
X132400000Y-93709523D01*
X132447619Y-93661904D01*
X132542857Y-93614285D01*
X132590476Y-93614285D01*
X132685714Y-93661904D01*
X132733333Y-93709523D01*
X132780952Y-93804761D01*
X132780952Y-93995238D01*
X132828571Y-94090476D01*
X132876190Y-94138095D01*
X132971428Y-94185714D01*
X133161904Y-94185714D01*
X133257142Y-94138095D01*
X133304761Y-94090476D01*
X133352380Y-93995238D01*
X133352380Y-93804761D01*
X133304761Y-93709523D01*
X133257142Y-93661904D01*
X133161904Y-93614285D01*
X132971428Y-93614285D01*
X132876190Y-93661904D01*
X132828571Y-93709523D01*
X132780952Y-93804761D01*
%TO.C,C7*%
X128308333Y-96782142D02*
X128260714Y-96829761D01*
X128117857Y-96877380D01*
X128022619Y-96877380D01*
X127879761Y-96829761D01*
X127784523Y-96734523D01*
X127736904Y-96639285D01*
X127689285Y-96448809D01*
X127689285Y-96305952D01*
X127736904Y-96115476D01*
X127784523Y-96020238D01*
X127879761Y-95925000D01*
X128022619Y-95877380D01*
X128117857Y-95877380D01*
X128260714Y-95925000D01*
X128308333Y-95972619D01*
X128641666Y-95877380D02*
X129308333Y-95877380D01*
X128879761Y-96877380D01*
%TO.C,C6*%
X121758333Y-95232142D02*
X121710714Y-95279761D01*
X121567857Y-95327380D01*
X121472619Y-95327380D01*
X121329761Y-95279761D01*
X121234523Y-95184523D01*
X121186904Y-95089285D01*
X121139285Y-94898809D01*
X121139285Y-94755952D01*
X121186904Y-94565476D01*
X121234523Y-94470238D01*
X121329761Y-94375000D01*
X121472619Y-94327380D01*
X121567857Y-94327380D01*
X121710714Y-94375000D01*
X121758333Y-94422619D01*
X122615476Y-94327380D02*
X122425000Y-94327380D01*
X122329761Y-94375000D01*
X122282142Y-94422619D01*
X122186904Y-94565476D01*
X122139285Y-94755952D01*
X122139285Y-95136904D01*
X122186904Y-95232142D01*
X122234523Y-95279761D01*
X122329761Y-95327380D01*
X122520238Y-95327380D01*
X122615476Y-95279761D01*
X122663095Y-95232142D01*
X122710714Y-95136904D01*
X122710714Y-94898809D01*
X122663095Y-94803571D01*
X122615476Y-94755952D01*
X122520238Y-94708333D01*
X122329761Y-94708333D01*
X122234523Y-94755952D01*
X122186904Y-94803571D01*
X122139285Y-94898809D01*
%TO.C,C5*%
X141982142Y-94316666D02*
X142029761Y-94364285D01*
X142077380Y-94507142D01*
X142077380Y-94602380D01*
X142029761Y-94745238D01*
X141934523Y-94840476D01*
X141839285Y-94888095D01*
X141648809Y-94935714D01*
X141505952Y-94935714D01*
X141315476Y-94888095D01*
X141220238Y-94840476D01*
X141125000Y-94745238D01*
X141077380Y-94602380D01*
X141077380Y-94507142D01*
X141125000Y-94364285D01*
X141172619Y-94316666D01*
X141077380Y-93411904D02*
X141077380Y-93888095D01*
X141553571Y-93935714D01*
X141505952Y-93888095D01*
X141458333Y-93792857D01*
X141458333Y-93554761D01*
X141505952Y-93459523D01*
X141553571Y-93411904D01*
X141648809Y-93364285D01*
X141886904Y-93364285D01*
X141982142Y-93411904D01*
X142029761Y-93459523D01*
X142077380Y-93554761D01*
X142077380Y-93792857D01*
X142029761Y-93888095D01*
X141982142Y-93935714D01*
%TO.C,C4*%
X136757142Y-73541666D02*
X136804761Y-73589285D01*
X136852380Y-73732142D01*
X136852380Y-73827380D01*
X136804761Y-73970238D01*
X136709523Y-74065476D01*
X136614285Y-74113095D01*
X136423809Y-74160714D01*
X136280952Y-74160714D01*
X136090476Y-74113095D01*
X135995238Y-74065476D01*
X135900000Y-73970238D01*
X135852380Y-73827380D01*
X135852380Y-73732142D01*
X135900000Y-73589285D01*
X135947619Y-73541666D01*
X136185714Y-72684523D02*
X136852380Y-72684523D01*
X135804761Y-72922619D02*
X136519047Y-73160714D01*
X136519047Y-72541666D01*
%TO.C,C3*%
X144782142Y-94616666D02*
X144829761Y-94664285D01*
X144877380Y-94807142D01*
X144877380Y-94902380D01*
X144829761Y-95045238D01*
X144734523Y-95140476D01*
X144639285Y-95188095D01*
X144448809Y-95235714D01*
X144305952Y-95235714D01*
X144115476Y-95188095D01*
X144020238Y-95140476D01*
X143925000Y-95045238D01*
X143877380Y-94902380D01*
X143877380Y-94807142D01*
X143925000Y-94664285D01*
X143972619Y-94616666D01*
X143877380Y-94283333D02*
X143877380Y-93664285D01*
X144258333Y-93997619D01*
X144258333Y-93854761D01*
X144305952Y-93759523D01*
X144353571Y-93711904D01*
X144448809Y-93664285D01*
X144686904Y-93664285D01*
X144782142Y-93711904D01*
X144829761Y-93759523D01*
X144877380Y-93854761D01*
X144877380Y-94140476D01*
X144829761Y-94235714D01*
X144782142Y-94283333D01*
%TO.C,C2*%
X143382142Y-94616666D02*
X143429761Y-94664285D01*
X143477380Y-94807142D01*
X143477380Y-94902380D01*
X143429761Y-95045238D01*
X143334523Y-95140476D01*
X143239285Y-95188095D01*
X143048809Y-95235714D01*
X142905952Y-95235714D01*
X142715476Y-95188095D01*
X142620238Y-95140476D01*
X142525000Y-95045238D01*
X142477380Y-94902380D01*
X142477380Y-94807142D01*
X142525000Y-94664285D01*
X142572619Y-94616666D01*
X142572619Y-94235714D02*
X142525000Y-94188095D01*
X142477380Y-94092857D01*
X142477380Y-93854761D01*
X142525000Y-93759523D01*
X142572619Y-93711904D01*
X142667857Y-93664285D01*
X142763095Y-93664285D01*
X142905952Y-93711904D01*
X143477380Y-94283333D01*
X143477380Y-93664285D01*
%TO.C,C1*%
X139458333Y-93832142D02*
X139410714Y-93879761D01*
X139267857Y-93927380D01*
X139172619Y-93927380D01*
X139029761Y-93879761D01*
X138934523Y-93784523D01*
X138886904Y-93689285D01*
X138839285Y-93498809D01*
X138839285Y-93355952D01*
X138886904Y-93165476D01*
X138934523Y-93070238D01*
X139029761Y-92975000D01*
X139172619Y-92927380D01*
X139267857Y-92927380D01*
X139410714Y-92975000D01*
X139458333Y-93022619D01*
X140410714Y-93927380D02*
X139839285Y-93927380D01*
X140125000Y-93927380D02*
X140125000Y-92927380D01*
X140029761Y-93070238D01*
X139934523Y-93165476D01*
X139839285Y-93213095D01*
%TO.C,U2*%
X158603095Y-87002380D02*
X158603095Y-87811904D01*
X158650714Y-87907142D01*
X158698333Y-87954761D01*
X158793571Y-88002380D01*
X158984047Y-88002380D01*
X159079285Y-87954761D01*
X159126904Y-87907142D01*
X159174523Y-87811904D01*
X159174523Y-87002380D01*
X159603095Y-87097619D02*
X159650714Y-87050000D01*
X159745952Y-87002380D01*
X159984047Y-87002380D01*
X160079285Y-87050000D01*
X160126904Y-87097619D01*
X160174523Y-87192857D01*
X160174523Y-87288095D01*
X160126904Y-87430952D01*
X159555476Y-88002380D01*
X160174523Y-88002380D01*
%TO.C,R7*%
X166383333Y-87302380D02*
X166050000Y-86826190D01*
X165811904Y-87302380D02*
X165811904Y-86302380D01*
X166192857Y-86302380D01*
X166288095Y-86350000D01*
X166335714Y-86397619D01*
X166383333Y-86492857D01*
X166383333Y-86635714D01*
X166335714Y-86730952D01*
X166288095Y-86778571D01*
X166192857Y-86826190D01*
X165811904Y-86826190D01*
X166716666Y-86302380D02*
X167383333Y-86302380D01*
X166954761Y-87302380D01*
%TO.C,R6*%
X166358333Y-83327380D02*
X166025000Y-82851190D01*
X165786904Y-83327380D02*
X165786904Y-82327380D01*
X166167857Y-82327380D01*
X166263095Y-82375000D01*
X166310714Y-82422619D01*
X166358333Y-82517857D01*
X166358333Y-82660714D01*
X166310714Y-82755952D01*
X166263095Y-82803571D01*
X166167857Y-82851190D01*
X165786904Y-82851190D01*
X167215476Y-82327380D02*
X167025000Y-82327380D01*
X166929761Y-82375000D01*
X166882142Y-82422619D01*
X166786904Y-82565476D01*
X166739285Y-82755952D01*
X166739285Y-83136904D01*
X166786904Y-83232142D01*
X166834523Y-83279761D01*
X166929761Y-83327380D01*
X167120238Y-83327380D01*
X167215476Y-83279761D01*
X167263095Y-83232142D01*
X167310714Y-83136904D01*
X167310714Y-82898809D01*
X167263095Y-82803571D01*
X167215476Y-82755952D01*
X167120238Y-82708333D01*
X166929761Y-82708333D01*
X166834523Y-82755952D01*
X166786904Y-82803571D01*
X166739285Y-82898809D01*
%TO.C,C45*%
X166282142Y-85782142D02*
X166234523Y-85829761D01*
X166091666Y-85877380D01*
X165996428Y-85877380D01*
X165853571Y-85829761D01*
X165758333Y-85734523D01*
X165710714Y-85639285D01*
X165663095Y-85448809D01*
X165663095Y-85305952D01*
X165710714Y-85115476D01*
X165758333Y-85020238D01*
X165853571Y-84925000D01*
X165996428Y-84877380D01*
X166091666Y-84877380D01*
X166234523Y-84925000D01*
X166282142Y-84972619D01*
X167139285Y-85210714D02*
X167139285Y-85877380D01*
X166901190Y-84829761D02*
X166663095Y-85544047D01*
X167282142Y-85544047D01*
X168139285Y-84877380D02*
X167663095Y-84877380D01*
X167615476Y-85353571D01*
X167663095Y-85305952D01*
X167758333Y-85258333D01*
X167996428Y-85258333D01*
X168091666Y-85305952D01*
X168139285Y-85353571D01*
X168186904Y-85448809D01*
X168186904Y-85686904D01*
X168139285Y-85782142D01*
X168091666Y-85829761D01*
X167996428Y-85877380D01*
X167758333Y-85877380D01*
X167663095Y-85829761D01*
X167615476Y-85782142D01*
%TO.C,C44*%
X166307142Y-84507142D02*
X166259523Y-84554761D01*
X166116666Y-84602380D01*
X166021428Y-84602380D01*
X165878571Y-84554761D01*
X165783333Y-84459523D01*
X165735714Y-84364285D01*
X165688095Y-84173809D01*
X165688095Y-84030952D01*
X165735714Y-83840476D01*
X165783333Y-83745238D01*
X165878571Y-83650000D01*
X166021428Y-83602380D01*
X166116666Y-83602380D01*
X166259523Y-83650000D01*
X166307142Y-83697619D01*
X167164285Y-83935714D02*
X167164285Y-84602380D01*
X166926190Y-83554761D02*
X166688095Y-84269047D01*
X167307142Y-84269047D01*
X168116666Y-83935714D02*
X168116666Y-84602380D01*
X167878571Y-83554761D02*
X167640476Y-84269047D01*
X168259523Y-84269047D01*
%TO.C,C25*%
X161807142Y-71097142D02*
X161759523Y-71144761D01*
X161616666Y-71192380D01*
X161521428Y-71192380D01*
X161378571Y-71144761D01*
X161283333Y-71049523D01*
X161235714Y-70954285D01*
X161188095Y-70763809D01*
X161188095Y-70620952D01*
X161235714Y-70430476D01*
X161283333Y-70335238D01*
X161378571Y-70240000D01*
X161521428Y-70192380D01*
X161616666Y-70192380D01*
X161759523Y-70240000D01*
X161807142Y-70287619D01*
X162188095Y-70287619D02*
X162235714Y-70240000D01*
X162330952Y-70192380D01*
X162569047Y-70192380D01*
X162664285Y-70240000D01*
X162711904Y-70287619D01*
X162759523Y-70382857D01*
X162759523Y-70478095D01*
X162711904Y-70620952D01*
X162140476Y-71192380D01*
X162759523Y-71192380D01*
X163664285Y-70192380D02*
X163188095Y-70192380D01*
X163140476Y-70668571D01*
X163188095Y-70620952D01*
X163283333Y-70573333D01*
X163521428Y-70573333D01*
X163616666Y-70620952D01*
X163664285Y-70668571D01*
X163711904Y-70763809D01*
X163711904Y-71001904D01*
X163664285Y-71097142D01*
X163616666Y-71144761D01*
X163521428Y-71192380D01*
X163283333Y-71192380D01*
X163188095Y-71144761D01*
X163140476Y-71097142D01*
%TO.C,C23*%
X166207142Y-76557142D02*
X166159523Y-76604761D01*
X166016666Y-76652380D01*
X165921428Y-76652380D01*
X165778571Y-76604761D01*
X165683333Y-76509523D01*
X165635714Y-76414285D01*
X165588095Y-76223809D01*
X165588095Y-76080952D01*
X165635714Y-75890476D01*
X165683333Y-75795238D01*
X165778571Y-75700000D01*
X165921428Y-75652380D01*
X166016666Y-75652380D01*
X166159523Y-75700000D01*
X166207142Y-75747619D01*
X166588095Y-75747619D02*
X166635714Y-75700000D01*
X166730952Y-75652380D01*
X166969047Y-75652380D01*
X167064285Y-75700000D01*
X167111904Y-75747619D01*
X167159523Y-75842857D01*
X167159523Y-75938095D01*
X167111904Y-76080952D01*
X166540476Y-76652380D01*
X167159523Y-76652380D01*
X167492857Y-75652380D02*
X168111904Y-75652380D01*
X167778571Y-76033333D01*
X167921428Y-76033333D01*
X168016666Y-76080952D01*
X168064285Y-76128571D01*
X168111904Y-76223809D01*
X168111904Y-76461904D01*
X168064285Y-76557142D01*
X168016666Y-76604761D01*
X167921428Y-76652380D01*
X167635714Y-76652380D01*
X167540476Y-76604761D01*
X167492857Y-76557142D01*
%TO.C,C21*%
X164632142Y-89817857D02*
X164679761Y-89865476D01*
X164727380Y-90008333D01*
X164727380Y-90103571D01*
X164679761Y-90246428D01*
X164584523Y-90341666D01*
X164489285Y-90389285D01*
X164298809Y-90436904D01*
X164155952Y-90436904D01*
X163965476Y-90389285D01*
X163870238Y-90341666D01*
X163775000Y-90246428D01*
X163727380Y-90103571D01*
X163727380Y-90008333D01*
X163775000Y-89865476D01*
X163822619Y-89817857D01*
X163822619Y-89436904D02*
X163775000Y-89389285D01*
X163727380Y-89294047D01*
X163727380Y-89055952D01*
X163775000Y-88960714D01*
X163822619Y-88913095D01*
X163917857Y-88865476D01*
X164013095Y-88865476D01*
X164155952Y-88913095D01*
X164727380Y-89484523D01*
X164727380Y-88865476D01*
X164727380Y-87913095D02*
X164727380Y-88484523D01*
X164727380Y-88198809D02*
X163727380Y-88198809D01*
X163870238Y-88294047D01*
X163965476Y-88389285D01*
X164013095Y-88484523D01*
%TO.C,R5*%
X166333333Y-79277380D02*
X166000000Y-78801190D01*
X165761904Y-79277380D02*
X165761904Y-78277380D01*
X166142857Y-78277380D01*
X166238095Y-78325000D01*
X166285714Y-78372619D01*
X166333333Y-78467857D01*
X166333333Y-78610714D01*
X166285714Y-78705952D01*
X166238095Y-78753571D01*
X166142857Y-78801190D01*
X165761904Y-78801190D01*
X167238095Y-78277380D02*
X166761904Y-78277380D01*
X166714285Y-78753571D01*
X166761904Y-78705952D01*
X166857142Y-78658333D01*
X167095238Y-78658333D01*
X167190476Y-78705952D01*
X167238095Y-78753571D01*
X167285714Y-78848809D01*
X167285714Y-79086904D01*
X167238095Y-79182142D01*
X167190476Y-79229761D01*
X167095238Y-79277380D01*
X166857142Y-79277380D01*
X166761904Y-79229761D01*
X166714285Y-79182142D01*
%TO.C,C47*%
X166157142Y-73882142D02*
X166109523Y-73929761D01*
X165966666Y-73977380D01*
X165871428Y-73977380D01*
X165728571Y-73929761D01*
X165633333Y-73834523D01*
X165585714Y-73739285D01*
X165538095Y-73548809D01*
X165538095Y-73405952D01*
X165585714Y-73215476D01*
X165633333Y-73120238D01*
X165728571Y-73025000D01*
X165871428Y-72977380D01*
X165966666Y-72977380D01*
X166109523Y-73025000D01*
X166157142Y-73072619D01*
X167014285Y-73310714D02*
X167014285Y-73977380D01*
X166776190Y-72929761D02*
X166538095Y-73644047D01*
X167157142Y-73644047D01*
X167442857Y-72977380D02*
X168109523Y-72977380D01*
X167680952Y-73977380D01*
%TO.C,C46*%
X166257142Y-77832142D02*
X166209523Y-77879761D01*
X166066666Y-77927380D01*
X165971428Y-77927380D01*
X165828571Y-77879761D01*
X165733333Y-77784523D01*
X165685714Y-77689285D01*
X165638095Y-77498809D01*
X165638095Y-77355952D01*
X165685714Y-77165476D01*
X165733333Y-77070238D01*
X165828571Y-76975000D01*
X165971428Y-76927380D01*
X166066666Y-76927380D01*
X166209523Y-76975000D01*
X166257142Y-77022619D01*
X167114285Y-77260714D02*
X167114285Y-77927380D01*
X166876190Y-76879761D02*
X166638095Y-77594047D01*
X167257142Y-77594047D01*
X168066666Y-76927380D02*
X167876190Y-76927380D01*
X167780952Y-76975000D01*
X167733333Y-77022619D01*
X167638095Y-77165476D01*
X167590476Y-77355952D01*
X167590476Y-77736904D01*
X167638095Y-77832142D01*
X167685714Y-77879761D01*
X167780952Y-77927380D01*
X167971428Y-77927380D01*
X168066666Y-77879761D01*
X168114285Y-77832142D01*
X168161904Y-77736904D01*
X168161904Y-77498809D01*
X168114285Y-77403571D01*
X168066666Y-77355952D01*
X167971428Y-77308333D01*
X167780952Y-77308333D01*
X167685714Y-77355952D01*
X167638095Y-77403571D01*
X167590476Y-77498809D01*
%TD*%
M02*
