%TF.GenerationSoftware,KiCad,Pcbnew,(5.1.7)-1*%
%TF.CreationDate,2021-05-14T12:52:33-07:00*%
%TF.ProjectId,Keychain,4b657963-6861-4696-9e2e-6b696361645f,rev?*%
%TF.SameCoordinates,Original*%
%TF.FileFunction,Paste,Top*%
%TF.FilePolarity,Positive*%
%FSLAX46Y46*%
G04 Gerber Fmt 4.6, Leading zero omitted, Abs format (unit mm)*
G04 Created by KiCad (PCBNEW (5.1.7)-1) date 2021-05-14 12:52:33*
%MOMM*%
%LPD*%
G01*
G04 APERTURE LIST*
%ADD10C,0.400000*%
%ADD11R,1.200000X1.400000*%
%ADD12R,1.500000X2.000000*%
%ADD13R,3.800000X2.000000*%
%ADD14R,1.900000X1.350000*%
%ADD15R,1.200000X1.000000*%
%ADD16R,1.550000X1.350000*%
%ADD17R,1.170000X1.800000*%
%ADD18R,0.850000X1.100000*%
%ADD19R,0.750000X1.100000*%
G04 APERTURE END LIST*
D10*
%TO.C,U1*%
X146281500Y-90524000D03*
X145481500Y-90524000D03*
X144681500Y-90524000D03*
X143881500Y-90524000D03*
X143081500Y-90524000D03*
X142281500Y-90524000D03*
X141481500Y-90524000D03*
X140681500Y-90524000D03*
X139881500Y-90524000D03*
X139081500Y-90524000D03*
X138281500Y-90524000D03*
X137481500Y-90524000D03*
X136681500Y-90524000D03*
X135881500Y-90524000D03*
X135081500Y-90524000D03*
X134281500Y-90524000D03*
X133481500Y-90524000D03*
X146281500Y-89724000D03*
X145481500Y-89724000D03*
X144681500Y-89724000D03*
X143881500Y-89724000D03*
X143081500Y-89724000D03*
X142281500Y-89724000D03*
X141481500Y-89724000D03*
X140681500Y-89724000D03*
X139881500Y-89724000D03*
X139081500Y-89724000D03*
X138281500Y-89724000D03*
X137481500Y-89724000D03*
X136681500Y-89724000D03*
X135881500Y-89724000D03*
X135081500Y-89724000D03*
X134281500Y-89724000D03*
X133481500Y-89724000D03*
X146281500Y-88924000D03*
X145481500Y-88924000D03*
X144681500Y-88924000D03*
X143881500Y-88924000D03*
X143081500Y-88924000D03*
X142281500Y-88924000D03*
X141481500Y-88924000D03*
X140681500Y-88924000D03*
X139881500Y-88924000D03*
X139081500Y-88924000D03*
X138281500Y-88924000D03*
X137481500Y-88924000D03*
X136681500Y-88924000D03*
X135881500Y-88924000D03*
X135081500Y-88924000D03*
X134281500Y-88924000D03*
X133481500Y-88924000D03*
X146281500Y-88124000D03*
X145481500Y-88124000D03*
X144681500Y-88124000D03*
X143881500Y-88124000D03*
X143081500Y-88124000D03*
X142281500Y-88124000D03*
X141481500Y-88124000D03*
X140681500Y-88124000D03*
X139881500Y-88124000D03*
X139081500Y-88124000D03*
X138281500Y-88124000D03*
X137481500Y-88124000D03*
X136681500Y-88124000D03*
X135881500Y-88124000D03*
X135081500Y-88124000D03*
X134281500Y-88124000D03*
X133481500Y-88124000D03*
X146281500Y-87324000D03*
X145481500Y-87324000D03*
X144681500Y-87324000D03*
X143881500Y-87324000D03*
X143081500Y-87324000D03*
X142281500Y-87324000D03*
X141481500Y-87324000D03*
X140681500Y-87324000D03*
X139881500Y-87324000D03*
X139081500Y-87324000D03*
X138281500Y-87324000D03*
X137481500Y-87324000D03*
X136681500Y-87324000D03*
X135881500Y-87324000D03*
X135081500Y-87324000D03*
X134281500Y-87324000D03*
X133481500Y-87324000D03*
X146281500Y-86524000D03*
X145481500Y-86524000D03*
X144681500Y-86524000D03*
X143881500Y-86524000D03*
X143081500Y-86524000D03*
X142281500Y-86524000D03*
X141481500Y-86524000D03*
X140681500Y-86524000D03*
X139881500Y-86524000D03*
X139081500Y-86524000D03*
X138281500Y-86524000D03*
X137481500Y-86524000D03*
X136681500Y-86524000D03*
X135881500Y-86524000D03*
X135081500Y-86524000D03*
X134281500Y-86524000D03*
X133481500Y-86524000D03*
X146281500Y-85724000D03*
X145481500Y-85724000D03*
X144681500Y-85724000D03*
X143881500Y-85724000D03*
X143081500Y-85724000D03*
X142281500Y-85724000D03*
X141481500Y-85724000D03*
X140681500Y-85724000D03*
X139881500Y-85724000D03*
X139081500Y-85724000D03*
X138281500Y-85724000D03*
X137481500Y-85724000D03*
X136681500Y-85724000D03*
X135881500Y-85724000D03*
X135081500Y-85724000D03*
X134281500Y-85724000D03*
X133481500Y-85724000D03*
X146281500Y-84924000D03*
X145481500Y-84924000D03*
X144681500Y-84924000D03*
X143881500Y-84924000D03*
X143081500Y-84924000D03*
X142281500Y-84924000D03*
X141481500Y-84924000D03*
X140681500Y-84924000D03*
X139881500Y-84924000D03*
X139081500Y-84924000D03*
X138281500Y-84924000D03*
X137481500Y-84924000D03*
X136681500Y-84924000D03*
X135881500Y-84924000D03*
X135081500Y-84924000D03*
X134281500Y-84924000D03*
X133481500Y-84924000D03*
X146281500Y-84124000D03*
X145481500Y-84124000D03*
X144681500Y-84124000D03*
X143881500Y-84124000D03*
X143081500Y-84124000D03*
X142281500Y-84124000D03*
X141481500Y-84124000D03*
X140681500Y-84124000D03*
X139881500Y-84124000D03*
X139081500Y-84124000D03*
X138281500Y-84124000D03*
X137481500Y-84124000D03*
X136681500Y-84124000D03*
X135881500Y-84124000D03*
X135081500Y-84124000D03*
X134281500Y-84124000D03*
X133481500Y-84124000D03*
X146281500Y-83324000D03*
X145481500Y-83324000D03*
X144681500Y-83324000D03*
X143881500Y-83324000D03*
X143081500Y-83324000D03*
X142281500Y-83324000D03*
X141481500Y-83324000D03*
X140681500Y-83324000D03*
X139881500Y-83324000D03*
X139081500Y-83324000D03*
X138281500Y-83324000D03*
X137481500Y-83324000D03*
X136681500Y-83324000D03*
X135881500Y-83324000D03*
X135081500Y-83324000D03*
X134281500Y-83324000D03*
X133481500Y-83324000D03*
X146281500Y-82524000D03*
X145481500Y-82524000D03*
X144681500Y-82524000D03*
X143881500Y-82524000D03*
X143081500Y-82524000D03*
X142281500Y-82524000D03*
X141481500Y-82524000D03*
X140681500Y-82524000D03*
X139881500Y-82524000D03*
X139081500Y-82524000D03*
X138281500Y-82524000D03*
X137481500Y-82524000D03*
X136681500Y-82524000D03*
X135881500Y-82524000D03*
X135081500Y-82524000D03*
X134281500Y-82524000D03*
X133481500Y-82524000D03*
X146281500Y-81724000D03*
X145481500Y-81724000D03*
X144681500Y-81724000D03*
X143881500Y-81724000D03*
X143081500Y-81724000D03*
X142281500Y-81724000D03*
X141481500Y-81724000D03*
X140681500Y-81724000D03*
X139881500Y-81724000D03*
X139081500Y-81724000D03*
X138281500Y-81724000D03*
X137481500Y-81724000D03*
X136681500Y-81724000D03*
X135881500Y-81724000D03*
X135081500Y-81724000D03*
X134281500Y-81724000D03*
X133481500Y-81724000D03*
X146281500Y-80924000D03*
X145481500Y-80924000D03*
X144681500Y-80924000D03*
X143881500Y-80924000D03*
X143081500Y-80924000D03*
X142281500Y-80924000D03*
X141481500Y-80924000D03*
X140681500Y-80924000D03*
X139881500Y-80924000D03*
X139081500Y-80924000D03*
X138281500Y-80924000D03*
X137481500Y-80924000D03*
X136681500Y-80924000D03*
X135881500Y-80924000D03*
X135081500Y-80924000D03*
X134281500Y-80924000D03*
X133481500Y-80924000D03*
X146281500Y-80124000D03*
X145481500Y-80124000D03*
X144681500Y-80124000D03*
X143881500Y-80124000D03*
X143081500Y-80124000D03*
X142281500Y-80124000D03*
X141481500Y-80124000D03*
X140681500Y-80124000D03*
X139881500Y-80124000D03*
X139081500Y-80124000D03*
X138281500Y-80124000D03*
X137481500Y-80124000D03*
X136681500Y-80124000D03*
X135881500Y-80124000D03*
X135081500Y-80124000D03*
X134281500Y-80124000D03*
X133481500Y-80124000D03*
X146281500Y-79324000D03*
X145481500Y-79324000D03*
X144681500Y-79324000D03*
X143881500Y-79324000D03*
X143081500Y-79324000D03*
X142281500Y-79324000D03*
X141481500Y-79324000D03*
X140681500Y-79324000D03*
X139881500Y-79324000D03*
X139081500Y-79324000D03*
X138281500Y-79324000D03*
X137481500Y-79324000D03*
X136681500Y-79324000D03*
X135881500Y-79324000D03*
X135081500Y-79324000D03*
X134281500Y-79324000D03*
X133481500Y-79324000D03*
X146281500Y-78524000D03*
X145481500Y-78524000D03*
X144681500Y-78524000D03*
X143881500Y-78524000D03*
X143081500Y-78524000D03*
X142281500Y-78524000D03*
X141481500Y-78524000D03*
X140681500Y-78524000D03*
X139881500Y-78524000D03*
X139081500Y-78524000D03*
X138281500Y-78524000D03*
X137481500Y-78524000D03*
X136681500Y-78524000D03*
X135881500Y-78524000D03*
X135081500Y-78524000D03*
X134281500Y-78524000D03*
X133481500Y-78524000D03*
X146281500Y-77724000D03*
X145481500Y-77724000D03*
X144681500Y-77724000D03*
X143881500Y-77724000D03*
X143081500Y-77724000D03*
X142281500Y-77724000D03*
X141481500Y-77724000D03*
X140681500Y-77724000D03*
X139881500Y-77724000D03*
X139081500Y-77724000D03*
X138281500Y-77724000D03*
X137481500Y-77724000D03*
X136681500Y-77724000D03*
X135881500Y-77724000D03*
X135081500Y-77724000D03*
X134281500Y-77724000D03*
X133481500Y-77724000D03*
%TD*%
%TO.C,C27*%
G36*
G01*
X164650000Y-87270000D02*
X164650000Y-86930000D01*
G75*
G02*
X164790000Y-86790000I140000J0D01*
G01*
X165070000Y-86790000D01*
G75*
G02*
X165210000Y-86930000I0J-140000D01*
G01*
X165210000Y-87270000D01*
G75*
G02*
X165070000Y-87410000I-140000J0D01*
G01*
X164790000Y-87410000D01*
G75*
G02*
X164650000Y-87270000I0J140000D01*
G01*
G37*
G36*
G01*
X163690000Y-87270000D02*
X163690000Y-86930000D01*
G75*
G02*
X163830000Y-86790000I140000J0D01*
G01*
X164110000Y-86790000D01*
G75*
G02*
X164250000Y-86930000I0J-140000D01*
G01*
X164250000Y-87270000D01*
G75*
G02*
X164110000Y-87410000I-140000J0D01*
G01*
X163830000Y-87410000D01*
G75*
G02*
X163690000Y-87270000I0J140000D01*
G01*
G37*
%TD*%
D11*
%TO.C,Y1*%
X131575000Y-76300000D03*
X131575000Y-78500000D03*
X129875000Y-78500000D03*
X129875000Y-76300000D03*
%TD*%
D12*
%TO.C,U4*%
X121675000Y-78650000D03*
X126275000Y-78650000D03*
X123975000Y-78650000D03*
D13*
X123975000Y-72350000D03*
%TD*%
D12*
%TO.C,U3*%
X126525000Y-98550000D03*
X121925000Y-98550000D03*
X124225000Y-98550000D03*
D13*
X124225000Y-104850000D03*
%TD*%
%TO.C,R8*%
G36*
G01*
X164235000Y-81865000D02*
X164235000Y-82235000D01*
G75*
G02*
X164100000Y-82370000I-135000J0D01*
G01*
X163830000Y-82370000D01*
G75*
G02*
X163695000Y-82235000I0J135000D01*
G01*
X163695000Y-81865000D01*
G75*
G02*
X163830000Y-81730000I135000J0D01*
G01*
X164100000Y-81730000D01*
G75*
G02*
X164235000Y-81865000I0J-135000D01*
G01*
G37*
G36*
G01*
X165255000Y-81865000D02*
X165255000Y-82235000D01*
G75*
G02*
X165120000Y-82370000I-135000J0D01*
G01*
X164850000Y-82370000D01*
G75*
G02*
X164715000Y-82235000I0J135000D01*
G01*
X164715000Y-81865000D01*
G75*
G02*
X164850000Y-81730000I135000J0D01*
G01*
X165120000Y-81730000D01*
G75*
G02*
X165255000Y-81865000I0J-135000D01*
G01*
G37*
%TD*%
%TO.C,R4*%
G36*
G01*
X138040000Y-76090000D02*
X138410000Y-76090000D01*
G75*
G02*
X138545000Y-76225000I0J-135000D01*
G01*
X138545000Y-76495000D01*
G75*
G02*
X138410000Y-76630000I-135000J0D01*
G01*
X138040000Y-76630000D01*
G75*
G02*
X137905000Y-76495000I0J135000D01*
G01*
X137905000Y-76225000D01*
G75*
G02*
X138040000Y-76090000I135000J0D01*
G01*
G37*
G36*
G01*
X138040000Y-75070000D02*
X138410000Y-75070000D01*
G75*
G02*
X138545000Y-75205000I0J-135000D01*
G01*
X138545000Y-75475000D01*
G75*
G02*
X138410000Y-75610000I-135000J0D01*
G01*
X138040000Y-75610000D01*
G75*
G02*
X137905000Y-75475000I0J135000D01*
G01*
X137905000Y-75205000D01*
G75*
G02*
X138040000Y-75070000I135000J0D01*
G01*
G37*
%TD*%
%TO.C,R3*%
G36*
G01*
X164715000Y-81210000D02*
X164715000Y-80840000D01*
G75*
G02*
X164850000Y-80705000I135000J0D01*
G01*
X165120000Y-80705000D01*
G75*
G02*
X165255000Y-80840000I0J-135000D01*
G01*
X165255000Y-81210000D01*
G75*
G02*
X165120000Y-81345000I-135000J0D01*
G01*
X164850000Y-81345000D01*
G75*
G02*
X164715000Y-81210000I0J135000D01*
G01*
G37*
G36*
G01*
X163695000Y-81210000D02*
X163695000Y-80840000D01*
G75*
G02*
X163830000Y-80705000I135000J0D01*
G01*
X164100000Y-80705000D01*
G75*
G02*
X164235000Y-80840000I0J-135000D01*
G01*
X164235000Y-81210000D01*
G75*
G02*
X164100000Y-81345000I-135000J0D01*
G01*
X163830000Y-81345000D01*
G75*
G02*
X163695000Y-81210000I0J135000D01*
G01*
G37*
%TD*%
%TO.C,R1*%
G36*
G01*
X144915000Y-92465000D02*
X145285000Y-92465000D01*
G75*
G02*
X145420000Y-92600000I0J-135000D01*
G01*
X145420000Y-92870000D01*
G75*
G02*
X145285000Y-93005000I-135000J0D01*
G01*
X144915000Y-93005000D01*
G75*
G02*
X144780000Y-92870000I0J135000D01*
G01*
X144780000Y-92600000D01*
G75*
G02*
X144915000Y-92465000I135000J0D01*
G01*
G37*
G36*
G01*
X144915000Y-91445000D02*
X145285000Y-91445000D01*
G75*
G02*
X145420000Y-91580000I0J-135000D01*
G01*
X145420000Y-91850000D01*
G75*
G02*
X145285000Y-91985000I-135000J0D01*
G01*
X144915000Y-91985000D01*
G75*
G02*
X144780000Y-91850000I0J135000D01*
G01*
X144780000Y-91580000D01*
G75*
G02*
X144915000Y-91445000I135000J0D01*
G01*
G37*
%TD*%
D14*
%TO.C,J1*%
X153545000Y-96650000D03*
X159515000Y-96650000D03*
D15*
X163015000Y-101325000D03*
X163015000Y-97625000D03*
D16*
X162840000Y-107350000D03*
D17*
X151520000Y-107125000D03*
D18*
X153780000Y-107475000D03*
X154880000Y-107475000D03*
X155980000Y-107475000D03*
X157080000Y-107475000D03*
X158180000Y-107475000D03*
X159280000Y-107475000D03*
D19*
X152730000Y-107475000D03*
D18*
X160380000Y-107475000D03*
%TD*%
%TO.C,C39*%
G36*
G01*
X154920000Y-78975000D02*
X154580000Y-78975000D01*
G75*
G02*
X154440000Y-78835000I0J140000D01*
G01*
X154440000Y-78555000D01*
G75*
G02*
X154580000Y-78415000I140000J0D01*
G01*
X154920000Y-78415000D01*
G75*
G02*
X155060000Y-78555000I0J-140000D01*
G01*
X155060000Y-78835000D01*
G75*
G02*
X154920000Y-78975000I-140000J0D01*
G01*
G37*
G36*
G01*
X154920000Y-79935000D02*
X154580000Y-79935000D01*
G75*
G02*
X154440000Y-79795000I0J140000D01*
G01*
X154440000Y-79515000D01*
G75*
G02*
X154580000Y-79375000I140000J0D01*
G01*
X154920000Y-79375000D01*
G75*
G02*
X155060000Y-79515000I0J-140000D01*
G01*
X155060000Y-79795000D01*
G75*
G02*
X154920000Y-79935000I-140000J0D01*
G01*
G37*
%TD*%
%TO.C,C38*%
G36*
G01*
X164625000Y-75845000D02*
X164625000Y-75505000D01*
G75*
G02*
X164765000Y-75365000I140000J0D01*
G01*
X165045000Y-75365000D01*
G75*
G02*
X165185000Y-75505000I0J-140000D01*
G01*
X165185000Y-75845000D01*
G75*
G02*
X165045000Y-75985000I-140000J0D01*
G01*
X164765000Y-75985000D01*
G75*
G02*
X164625000Y-75845000I0J140000D01*
G01*
G37*
G36*
G01*
X163665000Y-75845000D02*
X163665000Y-75505000D01*
G75*
G02*
X163805000Y-75365000I140000J0D01*
G01*
X164085000Y-75365000D01*
G75*
G02*
X164225000Y-75505000I0J-140000D01*
G01*
X164225000Y-75845000D01*
G75*
G02*
X164085000Y-75985000I-140000J0D01*
G01*
X163805000Y-75985000D01*
G75*
G02*
X163665000Y-75845000I0J140000D01*
G01*
G37*
%TD*%
%TO.C,C37*%
G36*
G01*
X164625000Y-72895000D02*
X164625000Y-72555000D01*
G75*
G02*
X164765000Y-72415000I140000J0D01*
G01*
X165045000Y-72415000D01*
G75*
G02*
X165185000Y-72555000I0J-140000D01*
G01*
X165185000Y-72895000D01*
G75*
G02*
X165045000Y-73035000I-140000J0D01*
G01*
X164765000Y-73035000D01*
G75*
G02*
X164625000Y-72895000I0J140000D01*
G01*
G37*
G36*
G01*
X163665000Y-72895000D02*
X163665000Y-72555000D01*
G75*
G02*
X163805000Y-72415000I140000J0D01*
G01*
X164085000Y-72415000D01*
G75*
G02*
X164225000Y-72555000I0J-140000D01*
G01*
X164225000Y-72895000D01*
G75*
G02*
X164085000Y-73035000I-140000J0D01*
G01*
X163805000Y-73035000D01*
G75*
G02*
X163665000Y-72895000I0J140000D01*
G01*
G37*
%TD*%
%TO.C,C36*%
G36*
G01*
X139420000Y-75675000D02*
X139080000Y-75675000D01*
G75*
G02*
X138940000Y-75535000I0J140000D01*
G01*
X138940000Y-75255000D01*
G75*
G02*
X139080000Y-75115000I140000J0D01*
G01*
X139420000Y-75115000D01*
G75*
G02*
X139560000Y-75255000I0J-140000D01*
G01*
X139560000Y-75535000D01*
G75*
G02*
X139420000Y-75675000I-140000J0D01*
G01*
G37*
G36*
G01*
X139420000Y-76635000D02*
X139080000Y-76635000D01*
G75*
G02*
X138940000Y-76495000I0J140000D01*
G01*
X138940000Y-76215000D01*
G75*
G02*
X139080000Y-76075000I140000J0D01*
G01*
X139420000Y-76075000D01*
G75*
G02*
X139560000Y-76215000I0J-140000D01*
G01*
X139560000Y-76495000D01*
G75*
G02*
X139420000Y-76635000I-140000J0D01*
G01*
G37*
%TD*%
%TO.C,C32*%
G36*
G01*
X131725000Y-74895000D02*
X131725000Y-74555000D01*
G75*
G02*
X131865000Y-74415000I140000J0D01*
G01*
X132145000Y-74415000D01*
G75*
G02*
X132285000Y-74555000I0J-140000D01*
G01*
X132285000Y-74895000D01*
G75*
G02*
X132145000Y-75035000I-140000J0D01*
G01*
X131865000Y-75035000D01*
G75*
G02*
X131725000Y-74895000I0J140000D01*
G01*
G37*
G36*
G01*
X130765000Y-74895000D02*
X130765000Y-74555000D01*
G75*
G02*
X130905000Y-74415000I140000J0D01*
G01*
X131185000Y-74415000D01*
G75*
G02*
X131325000Y-74555000I0J-140000D01*
G01*
X131325000Y-74895000D01*
G75*
G02*
X131185000Y-75035000I-140000J0D01*
G01*
X130905000Y-75035000D01*
G75*
G02*
X130765000Y-74895000I0J140000D01*
G01*
G37*
%TD*%
%TO.C,C30*%
G36*
G01*
X131325000Y-79930000D02*
X131325000Y-80270000D01*
G75*
G02*
X131185000Y-80410000I-140000J0D01*
G01*
X130905000Y-80410000D01*
G75*
G02*
X130765000Y-80270000I0J140000D01*
G01*
X130765000Y-79930000D01*
G75*
G02*
X130905000Y-79790000I140000J0D01*
G01*
X131185000Y-79790000D01*
G75*
G02*
X131325000Y-79930000I0J-140000D01*
G01*
G37*
G36*
G01*
X132285000Y-79930000D02*
X132285000Y-80270000D01*
G75*
G02*
X132145000Y-80410000I-140000J0D01*
G01*
X131865000Y-80410000D01*
G75*
G02*
X131725000Y-80270000I0J140000D01*
G01*
X131725000Y-79930000D01*
G75*
G02*
X131865000Y-79790000I140000J0D01*
G01*
X132145000Y-79790000D01*
G75*
G02*
X132285000Y-79930000I0J-140000D01*
G01*
G37*
%TD*%
%TO.C,C22*%
G36*
G01*
X122100000Y-80525000D02*
X122100000Y-81025000D01*
G75*
G02*
X121875000Y-81250000I-225000J0D01*
G01*
X121425000Y-81250000D01*
G75*
G02*
X121200000Y-81025000I0J225000D01*
G01*
X121200000Y-80525000D01*
G75*
G02*
X121425000Y-80300000I225000J0D01*
G01*
X121875000Y-80300000D01*
G75*
G02*
X122100000Y-80525000I0J-225000D01*
G01*
G37*
G36*
G01*
X123650000Y-80525000D02*
X123650000Y-81025000D01*
G75*
G02*
X123425000Y-81250000I-225000J0D01*
G01*
X122975000Y-81250000D01*
G75*
G02*
X122750000Y-81025000I0J225000D01*
G01*
X122750000Y-80525000D01*
G75*
G02*
X122975000Y-80300000I225000J0D01*
G01*
X123425000Y-80300000D01*
G75*
G02*
X123650000Y-80525000I0J-225000D01*
G01*
G37*
%TD*%
%TO.C,C20*%
G36*
G01*
X126200000Y-81025000D02*
X126200000Y-80525000D01*
G75*
G02*
X126425000Y-80300000I225000J0D01*
G01*
X126875000Y-80300000D01*
G75*
G02*
X127100000Y-80525000I0J-225000D01*
G01*
X127100000Y-81025000D01*
G75*
G02*
X126875000Y-81250000I-225000J0D01*
G01*
X126425000Y-81250000D01*
G75*
G02*
X126200000Y-81025000I0J225000D01*
G01*
G37*
G36*
G01*
X124650000Y-81025000D02*
X124650000Y-80525000D01*
G75*
G02*
X124875000Y-80300000I225000J0D01*
G01*
X125325000Y-80300000D01*
G75*
G02*
X125550000Y-80525000I0J-225000D01*
G01*
X125550000Y-81025000D01*
G75*
G02*
X125325000Y-81250000I-225000J0D01*
G01*
X124875000Y-81250000D01*
G75*
G02*
X124650000Y-81025000I0J225000D01*
G01*
G37*
%TD*%
%TO.C,C19*%
G36*
G01*
X130875000Y-82425000D02*
X130875000Y-82925000D01*
G75*
G02*
X130650000Y-83150000I-225000J0D01*
G01*
X130200000Y-83150000D01*
G75*
G02*
X129975000Y-82925000I0J225000D01*
G01*
X129975000Y-82425000D01*
G75*
G02*
X130200000Y-82200000I225000J0D01*
G01*
X130650000Y-82200000D01*
G75*
G02*
X130875000Y-82425000I0J-225000D01*
G01*
G37*
G36*
G01*
X132425000Y-82425000D02*
X132425000Y-82925000D01*
G75*
G02*
X132200000Y-83150000I-225000J0D01*
G01*
X131750000Y-83150000D01*
G75*
G02*
X131525000Y-82925000I0J225000D01*
G01*
X131525000Y-82425000D01*
G75*
G02*
X131750000Y-82200000I225000J0D01*
G01*
X132200000Y-82200000D01*
G75*
G02*
X132425000Y-82425000I0J-225000D01*
G01*
G37*
%TD*%
%TO.C,C18*%
G36*
G01*
X137275000Y-92275000D02*
X137275000Y-91775000D01*
G75*
G02*
X137500000Y-91550000I225000J0D01*
G01*
X137950000Y-91550000D01*
G75*
G02*
X138175000Y-91775000I0J-225000D01*
G01*
X138175000Y-92275000D01*
G75*
G02*
X137950000Y-92500000I-225000J0D01*
G01*
X137500000Y-92500000D01*
G75*
G02*
X137275000Y-92275000I0J225000D01*
G01*
G37*
G36*
G01*
X135725000Y-92275000D02*
X135725000Y-91775000D01*
G75*
G02*
X135950000Y-91550000I225000J0D01*
G01*
X136400000Y-91550000D01*
G75*
G02*
X136625000Y-91775000I0J-225000D01*
G01*
X136625000Y-92275000D01*
G75*
G02*
X136400000Y-92500000I-225000J0D01*
G01*
X135950000Y-92500000D01*
G75*
G02*
X135725000Y-92275000I0J225000D01*
G01*
G37*
%TD*%
%TO.C,C17*%
G36*
G01*
X131575000Y-81180000D02*
X131575000Y-81520000D01*
G75*
G02*
X131435000Y-81660000I-140000J0D01*
G01*
X131155000Y-81660000D01*
G75*
G02*
X131015000Y-81520000I0J140000D01*
G01*
X131015000Y-81180000D01*
G75*
G02*
X131155000Y-81040000I140000J0D01*
G01*
X131435000Y-81040000D01*
G75*
G02*
X131575000Y-81180000I0J-140000D01*
G01*
G37*
G36*
G01*
X132535000Y-81180000D02*
X132535000Y-81520000D01*
G75*
G02*
X132395000Y-81660000I-140000J0D01*
G01*
X132115000Y-81660000D01*
G75*
G02*
X131975000Y-81520000I0J140000D01*
G01*
X131975000Y-81180000D01*
G75*
G02*
X132115000Y-81040000I140000J0D01*
G01*
X132395000Y-81040000D01*
G75*
G02*
X132535000Y-81180000I0J-140000D01*
G01*
G37*
%TD*%
%TO.C,C16*%
G36*
G01*
X130875000Y-86950000D02*
X130875000Y-87450000D01*
G75*
G02*
X130650000Y-87675000I-225000J0D01*
G01*
X130200000Y-87675000D01*
G75*
G02*
X129975000Y-87450000I0J225000D01*
G01*
X129975000Y-86950000D01*
G75*
G02*
X130200000Y-86725000I225000J0D01*
G01*
X130650000Y-86725000D01*
G75*
G02*
X130875000Y-86950000I0J-225000D01*
G01*
G37*
G36*
G01*
X132425000Y-86950000D02*
X132425000Y-87450000D01*
G75*
G02*
X132200000Y-87675000I-225000J0D01*
G01*
X131750000Y-87675000D01*
G75*
G02*
X131525000Y-87450000I0J225000D01*
G01*
X131525000Y-86950000D01*
G75*
G02*
X131750000Y-86725000I225000J0D01*
G01*
X132200000Y-86725000D01*
G75*
G02*
X132425000Y-86950000I0J-225000D01*
G01*
G37*
%TD*%
%TO.C,C15*%
G36*
G01*
X134755000Y-92400000D02*
X135095000Y-92400000D01*
G75*
G02*
X135235000Y-92540000I0J-140000D01*
G01*
X135235000Y-92820000D01*
G75*
G02*
X135095000Y-92960000I-140000J0D01*
G01*
X134755000Y-92960000D01*
G75*
G02*
X134615000Y-92820000I0J140000D01*
G01*
X134615000Y-92540000D01*
G75*
G02*
X134755000Y-92400000I140000J0D01*
G01*
G37*
G36*
G01*
X134755000Y-91440000D02*
X135095000Y-91440000D01*
G75*
G02*
X135235000Y-91580000I0J-140000D01*
G01*
X135235000Y-91860000D01*
G75*
G02*
X135095000Y-92000000I-140000J0D01*
G01*
X134755000Y-92000000D01*
G75*
G02*
X134615000Y-91860000I0J140000D01*
G01*
X134615000Y-91580000D01*
G75*
G02*
X134755000Y-91440000I140000J0D01*
G01*
G37*
%TD*%
%TO.C,C14*%
G36*
G01*
X135150000Y-74975000D02*
X134650000Y-74975000D01*
G75*
G02*
X134425000Y-74750000I0J225000D01*
G01*
X134425000Y-74300000D01*
G75*
G02*
X134650000Y-74075000I225000J0D01*
G01*
X135150000Y-74075000D01*
G75*
G02*
X135375000Y-74300000I0J-225000D01*
G01*
X135375000Y-74750000D01*
G75*
G02*
X135150000Y-74975000I-225000J0D01*
G01*
G37*
G36*
G01*
X135150000Y-76525000D02*
X134650000Y-76525000D01*
G75*
G02*
X134425000Y-76300000I0J225000D01*
G01*
X134425000Y-75850000D01*
G75*
G02*
X134650000Y-75625000I225000J0D01*
G01*
X135150000Y-75625000D01*
G75*
G02*
X135375000Y-75850000I0J-225000D01*
G01*
X135375000Y-76300000D01*
G75*
G02*
X135150000Y-76525000I-225000J0D01*
G01*
G37*
%TD*%
%TO.C,C13*%
G36*
G01*
X131575000Y-88305000D02*
X131575000Y-88645000D01*
G75*
G02*
X131435000Y-88785000I-140000J0D01*
G01*
X131155000Y-88785000D01*
G75*
G02*
X131015000Y-88645000I0J140000D01*
G01*
X131015000Y-88305000D01*
G75*
G02*
X131155000Y-88165000I140000J0D01*
G01*
X131435000Y-88165000D01*
G75*
G02*
X131575000Y-88305000I0J-140000D01*
G01*
G37*
G36*
G01*
X132535000Y-88305000D02*
X132535000Y-88645000D01*
G75*
G02*
X132395000Y-88785000I-140000J0D01*
G01*
X132115000Y-88785000D01*
G75*
G02*
X131975000Y-88645000I0J140000D01*
G01*
X131975000Y-88305000D01*
G75*
G02*
X132115000Y-88165000I140000J0D01*
G01*
X132395000Y-88165000D01*
G75*
G02*
X132535000Y-88305000I0J-140000D01*
G01*
G37*
%TD*%
%TO.C,C12*%
G36*
G01*
X132755000Y-92400000D02*
X133095000Y-92400000D01*
G75*
G02*
X133235000Y-92540000I0J-140000D01*
G01*
X133235000Y-92820000D01*
G75*
G02*
X133095000Y-92960000I-140000J0D01*
G01*
X132755000Y-92960000D01*
G75*
G02*
X132615000Y-92820000I0J140000D01*
G01*
X132615000Y-92540000D01*
G75*
G02*
X132755000Y-92400000I140000J0D01*
G01*
G37*
G36*
G01*
X132755000Y-91440000D02*
X133095000Y-91440000D01*
G75*
G02*
X133235000Y-91580000I0J-140000D01*
G01*
X133235000Y-91860000D01*
G75*
G02*
X133095000Y-92000000I-140000J0D01*
G01*
X132755000Y-92000000D01*
G75*
G02*
X132615000Y-91860000I0J140000D01*
G01*
X132615000Y-91580000D01*
G75*
G02*
X132755000Y-91440000I140000J0D01*
G01*
G37*
%TD*%
%TO.C,C11*%
G36*
G01*
X137370000Y-75650000D02*
X137030000Y-75650000D01*
G75*
G02*
X136890000Y-75510000I0J140000D01*
G01*
X136890000Y-75230000D01*
G75*
G02*
X137030000Y-75090000I140000J0D01*
G01*
X137370000Y-75090000D01*
G75*
G02*
X137510000Y-75230000I0J-140000D01*
G01*
X137510000Y-75510000D01*
G75*
G02*
X137370000Y-75650000I-140000J0D01*
G01*
G37*
G36*
G01*
X137370000Y-76610000D02*
X137030000Y-76610000D01*
G75*
G02*
X136890000Y-76470000I0J140000D01*
G01*
X136890000Y-76190000D01*
G75*
G02*
X137030000Y-76050000I140000J0D01*
G01*
X137370000Y-76050000D01*
G75*
G02*
X137510000Y-76190000I0J-140000D01*
G01*
X137510000Y-76470000D01*
G75*
G02*
X137370000Y-76610000I-140000J0D01*
G01*
G37*
%TD*%
%TO.C,C10*%
G36*
G01*
X133795000Y-75675000D02*
X133455000Y-75675000D01*
G75*
G02*
X133315000Y-75535000I0J140000D01*
G01*
X133315000Y-75255000D01*
G75*
G02*
X133455000Y-75115000I140000J0D01*
G01*
X133795000Y-75115000D01*
G75*
G02*
X133935000Y-75255000I0J-140000D01*
G01*
X133935000Y-75535000D01*
G75*
G02*
X133795000Y-75675000I-140000J0D01*
G01*
G37*
G36*
G01*
X133795000Y-76635000D02*
X133455000Y-76635000D01*
G75*
G02*
X133315000Y-76495000I0J140000D01*
G01*
X133315000Y-76215000D01*
G75*
G02*
X133455000Y-76075000I140000J0D01*
G01*
X133795000Y-76075000D01*
G75*
G02*
X133935000Y-76215000I0J-140000D01*
G01*
X133935000Y-76495000D01*
G75*
G02*
X133795000Y-76635000I-140000J0D01*
G01*
G37*
%TD*%
%TO.C,C9*%
G36*
G01*
X131575000Y-89305000D02*
X131575000Y-89645000D01*
G75*
G02*
X131435000Y-89785000I-140000J0D01*
G01*
X131155000Y-89785000D01*
G75*
G02*
X131015000Y-89645000I0J140000D01*
G01*
X131015000Y-89305000D01*
G75*
G02*
X131155000Y-89165000I140000J0D01*
G01*
X131435000Y-89165000D01*
G75*
G02*
X131575000Y-89305000I0J-140000D01*
G01*
G37*
G36*
G01*
X132535000Y-89305000D02*
X132535000Y-89645000D01*
G75*
G02*
X132395000Y-89785000I-140000J0D01*
G01*
X132115000Y-89785000D01*
G75*
G02*
X131975000Y-89645000I0J140000D01*
G01*
X131975000Y-89305000D01*
G75*
G02*
X132115000Y-89165000I140000J0D01*
G01*
X132395000Y-89165000D01*
G75*
G02*
X132535000Y-89305000I0J-140000D01*
G01*
G37*
%TD*%
%TO.C,C8*%
G36*
G01*
X133755000Y-92400000D02*
X134095000Y-92400000D01*
G75*
G02*
X134235000Y-92540000I0J-140000D01*
G01*
X134235000Y-92820000D01*
G75*
G02*
X134095000Y-92960000I-140000J0D01*
G01*
X133755000Y-92960000D01*
G75*
G02*
X133615000Y-92820000I0J140000D01*
G01*
X133615000Y-92540000D01*
G75*
G02*
X133755000Y-92400000I140000J0D01*
G01*
G37*
G36*
G01*
X133755000Y-91440000D02*
X134095000Y-91440000D01*
G75*
G02*
X134235000Y-91580000I0J-140000D01*
G01*
X134235000Y-91860000D01*
G75*
G02*
X134095000Y-92000000I-140000J0D01*
G01*
X133755000Y-92000000D01*
G75*
G02*
X133615000Y-91860000I0J140000D01*
G01*
X133615000Y-91580000D01*
G75*
G02*
X133755000Y-91440000I140000J0D01*
G01*
G37*
%TD*%
%TO.C,C7*%
G36*
G01*
X126225000Y-96650000D02*
X126225000Y-96150000D01*
G75*
G02*
X126450000Y-95925000I225000J0D01*
G01*
X126900000Y-95925000D01*
G75*
G02*
X127125000Y-96150000I0J-225000D01*
G01*
X127125000Y-96650000D01*
G75*
G02*
X126900000Y-96875000I-225000J0D01*
G01*
X126450000Y-96875000D01*
G75*
G02*
X126225000Y-96650000I0J225000D01*
G01*
G37*
G36*
G01*
X124675000Y-96650000D02*
X124675000Y-96150000D01*
G75*
G02*
X124900000Y-95925000I225000J0D01*
G01*
X125350000Y-95925000D01*
G75*
G02*
X125575000Y-96150000I0J-225000D01*
G01*
X125575000Y-96650000D01*
G75*
G02*
X125350000Y-96875000I-225000J0D01*
G01*
X124900000Y-96875000D01*
G75*
G02*
X124675000Y-96650000I0J225000D01*
G01*
G37*
%TD*%
%TO.C,C6*%
G36*
G01*
X122250000Y-96150000D02*
X122250000Y-96650000D01*
G75*
G02*
X122025000Y-96875000I-225000J0D01*
G01*
X121575000Y-96875000D01*
G75*
G02*
X121350000Y-96650000I0J225000D01*
G01*
X121350000Y-96150000D01*
G75*
G02*
X121575000Y-95925000I225000J0D01*
G01*
X122025000Y-95925000D01*
G75*
G02*
X122250000Y-96150000I0J-225000D01*
G01*
G37*
G36*
G01*
X123800000Y-96150000D02*
X123800000Y-96650000D01*
G75*
G02*
X123575000Y-96875000I-225000J0D01*
G01*
X123125000Y-96875000D01*
G75*
G02*
X122900000Y-96650000I0J225000D01*
G01*
X122900000Y-96150000D01*
G75*
G02*
X123125000Y-95925000I225000J0D01*
G01*
X123575000Y-95925000D01*
G75*
G02*
X123800000Y-96150000I0J-225000D01*
G01*
G37*
%TD*%
%TO.C,C5*%
G36*
G01*
X141880000Y-92400000D02*
X142220000Y-92400000D01*
G75*
G02*
X142360000Y-92540000I0J-140000D01*
G01*
X142360000Y-92820000D01*
G75*
G02*
X142220000Y-92960000I-140000J0D01*
G01*
X141880000Y-92960000D01*
G75*
G02*
X141740000Y-92820000I0J140000D01*
G01*
X141740000Y-92540000D01*
G75*
G02*
X141880000Y-92400000I140000J0D01*
G01*
G37*
G36*
G01*
X141880000Y-91440000D02*
X142220000Y-91440000D01*
G75*
G02*
X142360000Y-91580000I0J-140000D01*
G01*
X142360000Y-91860000D01*
G75*
G02*
X142220000Y-92000000I-140000J0D01*
G01*
X141880000Y-92000000D01*
G75*
G02*
X141740000Y-91860000I0J140000D01*
G01*
X141740000Y-91580000D01*
G75*
G02*
X141880000Y-91440000I140000J0D01*
G01*
G37*
%TD*%
%TO.C,C4*%
G36*
G01*
X136370000Y-75650000D02*
X136030000Y-75650000D01*
G75*
G02*
X135890000Y-75510000I0J140000D01*
G01*
X135890000Y-75230000D01*
G75*
G02*
X136030000Y-75090000I140000J0D01*
G01*
X136370000Y-75090000D01*
G75*
G02*
X136510000Y-75230000I0J-140000D01*
G01*
X136510000Y-75510000D01*
G75*
G02*
X136370000Y-75650000I-140000J0D01*
G01*
G37*
G36*
G01*
X136370000Y-76610000D02*
X136030000Y-76610000D01*
G75*
G02*
X135890000Y-76470000I0J140000D01*
G01*
X135890000Y-76190000D01*
G75*
G02*
X136030000Y-76050000I140000J0D01*
G01*
X136370000Y-76050000D01*
G75*
G02*
X136510000Y-76190000I0J-140000D01*
G01*
X136510000Y-76470000D01*
G75*
G02*
X136370000Y-76610000I-140000J0D01*
G01*
G37*
%TD*%
%TO.C,C3*%
G36*
G01*
X143905000Y-92400000D02*
X144245000Y-92400000D01*
G75*
G02*
X144385000Y-92540000I0J-140000D01*
G01*
X144385000Y-92820000D01*
G75*
G02*
X144245000Y-92960000I-140000J0D01*
G01*
X143905000Y-92960000D01*
G75*
G02*
X143765000Y-92820000I0J140000D01*
G01*
X143765000Y-92540000D01*
G75*
G02*
X143905000Y-92400000I140000J0D01*
G01*
G37*
G36*
G01*
X143905000Y-91440000D02*
X144245000Y-91440000D01*
G75*
G02*
X144385000Y-91580000I0J-140000D01*
G01*
X144385000Y-91860000D01*
G75*
G02*
X144245000Y-92000000I-140000J0D01*
G01*
X143905000Y-92000000D01*
G75*
G02*
X143765000Y-91860000I0J140000D01*
G01*
X143765000Y-91580000D01*
G75*
G02*
X143905000Y-91440000I140000J0D01*
G01*
G37*
%TD*%
%TO.C,C2*%
G36*
G01*
X142905000Y-92400000D02*
X143245000Y-92400000D01*
G75*
G02*
X143385000Y-92540000I0J-140000D01*
G01*
X143385000Y-92820000D01*
G75*
G02*
X143245000Y-92960000I-140000J0D01*
G01*
X142905000Y-92960000D01*
G75*
G02*
X142765000Y-92820000I0J140000D01*
G01*
X142765000Y-92540000D01*
G75*
G02*
X142905000Y-92400000I140000J0D01*
G01*
G37*
G36*
G01*
X142905000Y-91440000D02*
X143245000Y-91440000D01*
G75*
G02*
X143385000Y-91580000I0J-140000D01*
G01*
X143385000Y-91860000D01*
G75*
G02*
X143245000Y-92000000I-140000J0D01*
G01*
X142905000Y-92000000D01*
G75*
G02*
X142765000Y-91860000I0J140000D01*
G01*
X142765000Y-91580000D01*
G75*
G02*
X142905000Y-91440000I140000J0D01*
G01*
G37*
%TD*%
%TO.C,C1*%
G36*
G01*
X139675000Y-91775000D02*
X139675000Y-92275000D01*
G75*
G02*
X139450000Y-92500000I-225000J0D01*
G01*
X139000000Y-92500000D01*
G75*
G02*
X138775000Y-92275000I0J225000D01*
G01*
X138775000Y-91775000D01*
G75*
G02*
X139000000Y-91550000I225000J0D01*
G01*
X139450000Y-91550000D01*
G75*
G02*
X139675000Y-91775000I0J-225000D01*
G01*
G37*
G36*
G01*
X141225000Y-91775000D02*
X141225000Y-92275000D01*
G75*
G02*
X141000000Y-92500000I-225000J0D01*
G01*
X140550000Y-92500000D01*
G75*
G02*
X140325000Y-92275000I0J225000D01*
G01*
X140325000Y-91775000D01*
G75*
G02*
X140550000Y-91550000I225000J0D01*
G01*
X141000000Y-91550000D01*
G75*
G02*
X141225000Y-91775000I0J-225000D01*
G01*
G37*
%TD*%
D10*
%TO.C,U2*%
X156165000Y-73550000D03*
X156165000Y-74350000D03*
X156165000Y-75150000D03*
X156165000Y-75950000D03*
X156165000Y-76750000D03*
X156165000Y-77550000D03*
X156165000Y-78350000D03*
X156165000Y-79150000D03*
X156165000Y-79950000D03*
X156165000Y-80750000D03*
X156165000Y-81550000D03*
X156165000Y-82350000D03*
X156165000Y-83150000D03*
X156165000Y-83950000D03*
X156165000Y-84750000D03*
X156165000Y-85550000D03*
X156965000Y-73550000D03*
X156965000Y-74350000D03*
X156965000Y-75150000D03*
X156965000Y-75950000D03*
X156965000Y-76750000D03*
X156965000Y-77550000D03*
X156965000Y-78350000D03*
X156965000Y-79150000D03*
X156965000Y-79950000D03*
X156965000Y-80750000D03*
X156965000Y-81550000D03*
X156965000Y-82350000D03*
X156965000Y-83150000D03*
X156965000Y-83950000D03*
X156965000Y-84750000D03*
X156965000Y-85550000D03*
X157765000Y-73550000D03*
X157765000Y-74350000D03*
X157765000Y-75150000D03*
X157765000Y-75950000D03*
X157765000Y-76750000D03*
X157765000Y-77550000D03*
X157765000Y-78350000D03*
X157765000Y-79150000D03*
X157765000Y-79950000D03*
X157765000Y-80750000D03*
X157765000Y-81550000D03*
X157765000Y-82350000D03*
X157765000Y-83150000D03*
X157765000Y-83950000D03*
X157765000Y-84750000D03*
X157765000Y-85550000D03*
X160965000Y-73550000D03*
X160965000Y-74350000D03*
X160965000Y-75150000D03*
X160965000Y-75950000D03*
X160965000Y-76750000D03*
X160965000Y-77550000D03*
X160965000Y-78350000D03*
X160965000Y-79150000D03*
X160965000Y-79950000D03*
X160965000Y-80750000D03*
X160965000Y-81550000D03*
X160965000Y-82350000D03*
X160965000Y-83150000D03*
X160965000Y-83950000D03*
X160965000Y-84750000D03*
X160965000Y-85550000D03*
X161765000Y-73550000D03*
X161765000Y-74350000D03*
X161765000Y-75150000D03*
X161765000Y-75950000D03*
X161765000Y-76750000D03*
X161765000Y-77550000D03*
X161765000Y-78350000D03*
X161765000Y-79150000D03*
X161765000Y-79950000D03*
X161765000Y-80750000D03*
X161765000Y-81550000D03*
X161765000Y-82350000D03*
X161765000Y-83150000D03*
X161765000Y-83950000D03*
X161765000Y-84750000D03*
X161765000Y-85550000D03*
X162565000Y-73550000D03*
X162565000Y-74350000D03*
X162565000Y-75150000D03*
X162565000Y-75950000D03*
X162565000Y-76750000D03*
X162565000Y-77550000D03*
X162565000Y-78350000D03*
X162565000Y-79150000D03*
X162565000Y-79950000D03*
X162565000Y-80750000D03*
X162565000Y-81550000D03*
X162565000Y-82350000D03*
X162565000Y-83150000D03*
X162565000Y-83950000D03*
X162565000Y-84750000D03*
X162565000Y-85550000D03*
%TD*%
%TO.C,R7*%
G36*
G01*
X164235000Y-85890000D02*
X164235000Y-86260000D01*
G75*
G02*
X164100000Y-86395000I-135000J0D01*
G01*
X163830000Y-86395000D01*
G75*
G02*
X163695000Y-86260000I0J135000D01*
G01*
X163695000Y-85890000D01*
G75*
G02*
X163830000Y-85755000I135000J0D01*
G01*
X164100000Y-85755000D01*
G75*
G02*
X164235000Y-85890000I0J-135000D01*
G01*
G37*
G36*
G01*
X165255000Y-85890000D02*
X165255000Y-86260000D01*
G75*
G02*
X165120000Y-86395000I-135000J0D01*
G01*
X164850000Y-86395000D01*
G75*
G02*
X164715000Y-86260000I0J135000D01*
G01*
X164715000Y-85890000D01*
G75*
G02*
X164850000Y-85755000I135000J0D01*
G01*
X165120000Y-85755000D01*
G75*
G02*
X165255000Y-85890000I0J-135000D01*
G01*
G37*
%TD*%
%TO.C,R6*%
G36*
G01*
X164715000Y-83260000D02*
X164715000Y-82890000D01*
G75*
G02*
X164850000Y-82755000I135000J0D01*
G01*
X165120000Y-82755000D01*
G75*
G02*
X165255000Y-82890000I0J-135000D01*
G01*
X165255000Y-83260000D01*
G75*
G02*
X165120000Y-83395000I-135000J0D01*
G01*
X164850000Y-83395000D01*
G75*
G02*
X164715000Y-83260000I0J135000D01*
G01*
G37*
G36*
G01*
X163695000Y-83260000D02*
X163695000Y-82890000D01*
G75*
G02*
X163830000Y-82755000I135000J0D01*
G01*
X164100000Y-82755000D01*
G75*
G02*
X164235000Y-82890000I0J-135000D01*
G01*
X164235000Y-83260000D01*
G75*
G02*
X164100000Y-83395000I-135000J0D01*
G01*
X163830000Y-83395000D01*
G75*
G02*
X163695000Y-83260000I0J135000D01*
G01*
G37*
%TD*%
%TO.C,C45*%
G36*
G01*
X164655000Y-85245000D02*
X164655000Y-84905000D01*
G75*
G02*
X164795000Y-84765000I140000J0D01*
G01*
X165075000Y-84765000D01*
G75*
G02*
X165215000Y-84905000I0J-140000D01*
G01*
X165215000Y-85245000D01*
G75*
G02*
X165075000Y-85385000I-140000J0D01*
G01*
X164795000Y-85385000D01*
G75*
G02*
X164655000Y-85245000I0J140000D01*
G01*
G37*
G36*
G01*
X163695000Y-85245000D02*
X163695000Y-84905000D01*
G75*
G02*
X163835000Y-84765000I140000J0D01*
G01*
X164115000Y-84765000D01*
G75*
G02*
X164255000Y-84905000I0J-140000D01*
G01*
X164255000Y-85245000D01*
G75*
G02*
X164115000Y-85385000I-140000J0D01*
G01*
X163835000Y-85385000D01*
G75*
G02*
X163695000Y-85245000I0J140000D01*
G01*
G37*
%TD*%
%TO.C,C44*%
G36*
G01*
X164250000Y-83905000D02*
X164250000Y-84245000D01*
G75*
G02*
X164110000Y-84385000I-140000J0D01*
G01*
X163830000Y-84385000D01*
G75*
G02*
X163690000Y-84245000I0J140000D01*
G01*
X163690000Y-83905000D01*
G75*
G02*
X163830000Y-83765000I140000J0D01*
G01*
X164110000Y-83765000D01*
G75*
G02*
X164250000Y-83905000I0J-140000D01*
G01*
G37*
G36*
G01*
X165210000Y-83905000D02*
X165210000Y-84245000D01*
G75*
G02*
X165070000Y-84385000I-140000J0D01*
G01*
X164790000Y-84385000D01*
G75*
G02*
X164650000Y-84245000I0J140000D01*
G01*
X164650000Y-83905000D01*
G75*
G02*
X164790000Y-83765000I140000J0D01*
G01*
X165070000Y-83765000D01*
G75*
G02*
X165210000Y-83905000I0J-140000D01*
G01*
G37*
%TD*%
%TO.C,C25*%
G36*
G01*
X162650000Y-72070000D02*
X162650000Y-71730000D01*
G75*
G02*
X162790000Y-71590000I140000J0D01*
G01*
X163070000Y-71590000D01*
G75*
G02*
X163210000Y-71730000I0J-140000D01*
G01*
X163210000Y-72070000D01*
G75*
G02*
X163070000Y-72210000I-140000J0D01*
G01*
X162790000Y-72210000D01*
G75*
G02*
X162650000Y-72070000I0J140000D01*
G01*
G37*
G36*
G01*
X161690000Y-72070000D02*
X161690000Y-71730000D01*
G75*
G02*
X161830000Y-71590000I140000J0D01*
G01*
X162110000Y-71590000D01*
G75*
G02*
X162250000Y-71730000I0J-140000D01*
G01*
X162250000Y-72070000D01*
G75*
G02*
X162110000Y-72210000I-140000J0D01*
G01*
X161830000Y-72210000D01*
G75*
G02*
X161690000Y-72070000I0J140000D01*
G01*
G37*
%TD*%
%TO.C,C23*%
G36*
G01*
X164625000Y-76870000D02*
X164625000Y-76530000D01*
G75*
G02*
X164765000Y-76390000I140000J0D01*
G01*
X165045000Y-76390000D01*
G75*
G02*
X165185000Y-76530000I0J-140000D01*
G01*
X165185000Y-76870000D01*
G75*
G02*
X165045000Y-77010000I-140000J0D01*
G01*
X164765000Y-77010000D01*
G75*
G02*
X164625000Y-76870000I0J140000D01*
G01*
G37*
G36*
G01*
X163665000Y-76870000D02*
X163665000Y-76530000D01*
G75*
G02*
X163805000Y-76390000I140000J0D01*
G01*
X164085000Y-76390000D01*
G75*
G02*
X164225000Y-76530000I0J-140000D01*
G01*
X164225000Y-76870000D01*
G75*
G02*
X164085000Y-77010000I-140000J0D01*
G01*
X163805000Y-77010000D01*
G75*
G02*
X163665000Y-76870000I0J140000D01*
G01*
G37*
%TD*%
%TO.C,C21*%
G36*
G01*
X162275000Y-88775000D02*
X162775000Y-88775000D01*
G75*
G02*
X163000000Y-89000000I0J-225000D01*
G01*
X163000000Y-89450000D01*
G75*
G02*
X162775000Y-89675000I-225000J0D01*
G01*
X162275000Y-89675000D01*
G75*
G02*
X162050000Y-89450000I0J225000D01*
G01*
X162050000Y-89000000D01*
G75*
G02*
X162275000Y-88775000I225000J0D01*
G01*
G37*
G36*
G01*
X162275000Y-87225000D02*
X162775000Y-87225000D01*
G75*
G02*
X163000000Y-87450000I0J-225000D01*
G01*
X163000000Y-87900000D01*
G75*
G02*
X162775000Y-88125000I-225000J0D01*
G01*
X162275000Y-88125000D01*
G75*
G02*
X162050000Y-87900000I0J225000D01*
G01*
X162050000Y-87450000D01*
G75*
G02*
X162275000Y-87225000I225000J0D01*
G01*
G37*
%TD*%
%TO.C,R5*%
G36*
G01*
X164210000Y-79215000D02*
X164210000Y-79585000D01*
G75*
G02*
X164075000Y-79720000I-135000J0D01*
G01*
X163805000Y-79720000D01*
G75*
G02*
X163670000Y-79585000I0J135000D01*
G01*
X163670000Y-79215000D01*
G75*
G02*
X163805000Y-79080000I135000J0D01*
G01*
X164075000Y-79080000D01*
G75*
G02*
X164210000Y-79215000I0J-135000D01*
G01*
G37*
G36*
G01*
X165230000Y-79215000D02*
X165230000Y-79585000D01*
G75*
G02*
X165095000Y-79720000I-135000J0D01*
G01*
X164825000Y-79720000D01*
G75*
G02*
X164690000Y-79585000I0J135000D01*
G01*
X164690000Y-79215000D01*
G75*
G02*
X164825000Y-79080000I135000J0D01*
G01*
X165095000Y-79080000D01*
G75*
G02*
X165230000Y-79215000I0J-135000D01*
G01*
G37*
%TD*%
%TO.C,C47*%
G36*
G01*
X164225000Y-73630000D02*
X164225000Y-73970000D01*
G75*
G02*
X164085000Y-74110000I-140000J0D01*
G01*
X163805000Y-74110000D01*
G75*
G02*
X163665000Y-73970000I0J140000D01*
G01*
X163665000Y-73630000D01*
G75*
G02*
X163805000Y-73490000I140000J0D01*
G01*
X164085000Y-73490000D01*
G75*
G02*
X164225000Y-73630000I0J-140000D01*
G01*
G37*
G36*
G01*
X165185000Y-73630000D02*
X165185000Y-73970000D01*
G75*
G02*
X165045000Y-74110000I-140000J0D01*
G01*
X164765000Y-74110000D01*
G75*
G02*
X164625000Y-73970000I0J140000D01*
G01*
X164625000Y-73630000D01*
G75*
G02*
X164765000Y-73490000I140000J0D01*
G01*
X165045000Y-73490000D01*
G75*
G02*
X165185000Y-73630000I0J-140000D01*
G01*
G37*
%TD*%
%TO.C,C46*%
G36*
G01*
X164625000Y-77920000D02*
X164625000Y-77580000D01*
G75*
G02*
X164765000Y-77440000I140000J0D01*
G01*
X165045000Y-77440000D01*
G75*
G02*
X165185000Y-77580000I0J-140000D01*
G01*
X165185000Y-77920000D01*
G75*
G02*
X165045000Y-78060000I-140000J0D01*
G01*
X164765000Y-78060000D01*
G75*
G02*
X164625000Y-77920000I0J140000D01*
G01*
G37*
G36*
G01*
X163665000Y-77920000D02*
X163665000Y-77580000D01*
G75*
G02*
X163805000Y-77440000I140000J0D01*
G01*
X164085000Y-77440000D01*
G75*
G02*
X164225000Y-77580000I0J-140000D01*
G01*
X164225000Y-77920000D01*
G75*
G02*
X164085000Y-78060000I-140000J0D01*
G01*
X163805000Y-78060000D01*
G75*
G02*
X163665000Y-77920000I0J140000D01*
G01*
G37*
%TD*%
M02*
